<svg id="Layer_1" data-name="Layer 1" xmlns="http://www.w3.org/2000/svg" viewBox="0 0 373.08 376.29">
  <title>1g</title>
  <g id="Others">
    <rect x="153.89" y="150.97" width="22.89" height="39.91" style="fill: none;stroke: #231f20;stroke-miterlimit: 10;stroke-width: 0.476999998092651px"/>
    <rect x="121.4" y="196.84" width="72.37" height="14.56" style="fill: none;stroke: #231f20;stroke-miterlimit: 10;stroke-width: 0.437999993562698px"/>
    <line y1="370.2" x2="162.21" y2="370.2" style="fill: #fff"/>
    <line y1="370.2" x2="162.21" y2="370.2" style="fill: none;stroke: #231f20;stroke-miterlimit: 10;stroke-width: 0.953000009059906px"/>
    <line x1="216.28" y1="370.2" x2="373.08" y2="370.2" style="fill: #fff"/>
    <line x1="216.28" y1="370.2" x2="373.08" y2="370.2" style="fill: none;stroke: #231f20;stroke-miterlimit: 10;stroke-width: 0.953999996185303px"/>
    <rect x="159.05" y="368.58" width="3.22" height="3.22" style="fill: #231f20"/>
    <rect x="216.28" y="368.59" width="3.22" height="3.22" style="fill: #231f20"/>
    <path d="M603.48,547.91v-1.49h1.76v-6.48l1.65.12c.13,0,.29.06.29.2a.17.17,0,0,1-.07.13c-.11.12-.2.19-.2.33v5.71h1.8v-8.52h-4.88v-1.49h11.43v1.49h-4.84v3.26h4.09v1.65h-4.09v3.61h5.1v1.49Z" transform="translate(-427.54 -172.05)" style="fill: #231f20"/>
    <path d="M619.58,541.56v6.76H617.9V536.48h5.57v5.08Zm2.33-3.79h-2.29v.72h2.29Zm0,1.79h-2.29v.79h2.29Zm6.11,8.79h-.69l-1-1.9a7.73,7.73,0,0,0,1.35.2c.34,0,.42-.2.42-.44v-4.68h-3.87v-5.08h5.57V547c0,.93-.49,1.35-1.78,1.35m0-10.65h-2.29v.67H628Zm0,1.77h-2.29v.79H628Z" transform="translate(-427.54 -172.05)" style="fill: #231f20"/>
    <rect x="107.03" y="346.1" width="37.09" height="14.81" style="fill: none;stroke: #231f20;stroke-miterlimit: 10;stroke-width: 0.444000005722046px"/>
    <path d="M537.86,527.07a30.1,30.1,0,0,1,2.63-1.61v-1.36a10.43,10.43,0,0,1-1.6.05l-.16-1.19a8.33,8.33,0,0,0,1,.05c.26,0,.42,0,.73,0,0-1.19,0-1.28,0-2l1.16.16c.29,0,.29.11.29.17s-.16.17-.18.2-.07,1.09-.08,1.29a6.63,6.63,0,0,0,1.62-.55v1.2a9.21,9.21,0,0,1-1.64.45v1a5.81,5.81,0,0,1,1.62-.24,2.34,2.34,0,0,1,2.53,2.39,2.12,2.12,0,0,1-2,2.31c-1.15,0-1.3-.72-1.45-1.49l1-.39c.13.43.21.7.54.7s.81-.38.81-1.11a1.38,1.38,0,0,0-1.46-1.4,4.71,4.71,0,0,0-1.6.37c0,1.67,0,1.86,0,3.14l-1.11.44-1.67-1.77a4.25,4.25,0,0,0-.32.31Zm2.63-.37a11,11,0,0,0-1,.64,8.92,8.92,0,0,0,1,1Zm5.4-1.88a6.08,6.08,0,0,0-2.07-1.2l.68-.92a7.72,7.72,0,0,1,2.07,1.18Z" transform="translate(-427.54 -172.05)" style="fill: #231f20"/>
    <path d="M548.16,529.52v-1.13H552V524.9h-3.1v-1.19H552v-2.8l1.23.14c.16,0,.26.06.26.17s0,.07-.12.14-.14.08-.14.13v2.24h3.2v1.19h-3.2v3.49h3.86v1.13Z" transform="translate(-427.54 -172.05)" style="fill: #231f20"/>
    <path d="M560.1,529.78v-.94h3V528h-1.71v-.91h1.71v-.73h-1.42c-.13.22-.26.45-.44.71l-1-.48a8.11,8.11,0,0,1-1,3.49l-1.1-.46a6.64,6.64,0,0,0,1-3.9c0-.18,0-1-.1-2.15h2.1a5.59,5.59,0,0,0-.48-.94h-1.63v-.92h3.39v-.89l1.28.09c.05,0,.25,0,.25.14s-.06.09-.09.12-.13.09-.13.18v.37h3.4v.92h-1.49a4.76,4.76,0,0,1-.46.94h2.1v.93H561.6l.83.41c.14.07.18.12.18.16s0,0,0,0-.18.05-.21.06-.05,0-.17.28h.92v-.79l1.07.17c.11,0,.24,0,.24.13s-.05.07-.08.09-.1.06-.1.11v.28h2.52v.91h-2.52v.73h1.87V528h-1.87v.81h3.14v.94Zm.2-5.27c0,1.08,0,1.5,0,1.93a4.21,4.21,0,0,0,1.17-1.93Zm1.74-1.87a5.21,5.21,0,0,1,.49.94h1.4a5.12,5.12,0,0,0,.45-.94Z" transform="translate(-427.54 -172.05)" style="fill: #231f20"/>
    <rect x="318.16" y="310.49" width="49.84" height="37.22" style="fill: none;stroke: #231f20;stroke-miterlimit: 10;stroke-width: 0.476999998092651px"/>
    <rect x="314.2" y="200.14" width="54.07" height="100.79" style="fill: none;stroke: #231f20;stroke-miterlimit: 10;stroke-width: 0.476999998092651px"/>
    <rect x="141.44" y="246.64" width="121.24" height="60.58" style="fill: none;stroke: #231f20;stroke-miterlimit: 10;stroke-width: 0.476999998092651px"/>
    <rect x="18.93" y="221.84" width="57.77" height="95.49" style="fill: none;stroke: #231f20;stroke-miterlimit: 10;stroke-width: 0.476999998092651px"/>
    <rect x="320.11" y="68.73" width="48.1" height="121.18" style="fill: none;stroke: #231f20;stroke-miterlimit: 10;stroke-width: 0.476999998092651px"/>
    <path d="M547,278.36h29.75A29.75,29.75,0,0,0,547,248.61Z" transform="translate(-427.54 -172.05)" style="fill: none;stroke: #231f20;stroke-miterlimit: 10;stroke-width: 0.476999998092651px"/>
    <path d="M547,278.36H553a6,6,0,0,0-5.95-5.95Z" transform="translate(-427.54 -172.05)" style="fill: none;stroke: #231f20;stroke-miterlimit: 10;stroke-width: 0.476999998092651px"/>
    <path d="M547,278.36h11.9a11.9,11.9,0,0,0-11.9-11.9Z" transform="translate(-427.54 -172.05)" style="fill: none;stroke: #231f20;stroke-miterlimit: 10;stroke-width: 0.476999998092651px"/>
    <path d="M547,278.36h17.85A17.85,17.85,0,0,0,547,260.51Z" transform="translate(-427.54 -172.05)" style="fill: none;stroke: #231f20;stroke-miterlimit: 10;stroke-width: 0.476999998092651px"/>
    <path d="M547,278.36h23.8a23.8,23.8,0,0,0-23.8-23.8Z" transform="translate(-427.54 -172.05)" style="fill: none;stroke: #231f20;stroke-miterlimit: 10;stroke-width: 0.476999998092651px"/>
    <rect x="226.19" y="312.5" width="26.01" height="14.93" style="fill: none;stroke: #231f20;stroke-miterlimit: 10;stroke-width: 0.476999998092651px"/>
    <path d="M665.72,496.44a9,9,0,0,1-3.62-1.09,9.44,9.44,0,0,1-1.85.77,8.47,8.47,0,0,1-2,.38l-.57-1a8.42,8.42,0,0,0,3.38-.78,6.3,6.3,0,0,1-1.21-1.21l.57-.52h-1.18v-1h5.17l.52.55a7.17,7.17,0,0,1-1.86,2.14,9.13,9.13,0,0,0,3.08.76Zm-.43-3.92v-1.18h-6.5v1.2h-1.07v-2.16h1.56a3.24,3.24,0,0,0-.67-.83l.82-.55h-.61l-.47-1c.32,0,.72.05,1.38.05a20.7,20.7,0,0,0,5-.64l.79.8s.17.18.17.27,0,.06-.08.06l-.26,0a3.06,3.06,0,0,0-.43.07,31,31,0,0,1-3.13.36,5.26,5.26,0,0,1,.79,1.14l-.38.33h1a6.21,6.21,0,0,0,.83-1.67l1.06.37s.21.08.21.17-.11.08-.13.08-.12,0-.16.06c-.15.21-.45.61-.78,1h2.15v2.14Zm-4.47-3.13.66-.46c-.89.06-1.36.07-2,.07a6.14,6.14,0,0,1,.83,1.11l-.3.26h1.44a2.85,2.85,0,0,0-.67-1m0,3.58a5.07,5.07,0,0,0,1.23,1.15,4.9,4.9,0,0,0,1.18-1.15Z" transform="translate(-427.54 -172.05)" style="fill: #231f20"/>
    <path d="M670.62,488.06c-.12,0-.15,0-.17.07a11.24,11.24,0,0,1-.68,1.47c.17.08.24.12.24.19s0,.08-.1.13-.12.09-.12.13v6.43h-1.24v-4.84a4.28,4.28,0,0,1-.48.61l-1-.85a9.17,9.17,0,0,0,2.26-4l1.18.39c.08,0,.26.08.26.2s0,.08-.15.11m4.69,2.79v4.54a1,1,0,0,1-1.11,1.13h-.86l-.44-1.27.66.05c.32,0,.46,0,.46-.48v-4h-3.6v-1.17H674v-2.31l1.25.08c.17,0,.26,0,.26.13s0,.07-.11.14-.11.11-.11.16v1.81h1.22v1.17Zm-3.21,3.45a7.68,7.68,0,0,0-1.26-2.13l1.16-.72a11.37,11.37,0,0,1,1.27,2.21Z" transform="translate(-427.54 -172.05)" style="fill: #231f20"/>
    <path d="M558.25,374a13,13,0,0,1-2.11,3.93,9.14,9.14,0,0,1-2.88,2.3l-1.15-.92a8.49,8.49,0,0,0,4.77-5.37H551.3v-1.23h5.93a.6.6,0,0,0,.35-.17l1,.95a1.26,1.26,0,0,0-.37.52" transform="translate(-427.54 -172.05)" style="fill: #231f20"/>
    <path d="M568.11,375.81a8.92,8.92,0,0,1-1.73,2.92,7.88,7.88,0,0,1-2.92,1.93l-1-.9a6.86,6.86,0,0,0,2.94-1.86,6,6,0,0,0,1.33-2.23h-5.45v-1.15h6a1.23,1.23,0,0,0,.51-.2l.85.9a1.75,1.75,0,0,0-.52.59m-5.75-3.64h5v1.19h-5Z" transform="translate(-427.54 -172.05)" style="fill: #231f20"/>
    <path d="M573.28,374.6a9.42,9.42,0,0,0-2.15-1.32l.64-1a9.77,9.77,0,0,1,2.21,1.3Zm3.08,2.85a14.13,14.13,0,0,1-4,2.34c-.05.15-.07.33-.16.33s-.16-.06-.23-.2l-.74-1.26a9.83,9.83,0,0,0,3.89-1.82,14.64,14.64,0,0,0,3.08-3.21l.72,1.05a14.82,14.82,0,0,1-2.61,2.77" transform="translate(-427.54 -172.05)" style="fill: #231f20"/>
    <path d="M588,374.45a12.33,12.33,0,0,1-1.87,3.56,10.19,10.19,0,0,1-2.85,2.49l-1.14-.79a9.16,9.16,0,0,0,3.29-2.74,8.35,8.35,0,0,0,1.38-2.76h-2.69a14.57,14.57,0,0,1-2,2.34l-1-.71a9.14,9.14,0,0,0,2.9-4l1.08.41c.06,0,.27.12.27.22s-.12.11-.26.15-.19.37-.29.57h2.35a1.06,1.06,0,0,0,.46-.2l.85,1a1.1,1.1,0,0,0-.45.5" transform="translate(-427.54 -172.05)" style="fill: #231f20"/>
    <path d="M598.12,374a12.92,12.92,0,0,1-2.11,3.93,9.14,9.14,0,0,1-2.88,2.3l-1.14-.92a8.5,8.5,0,0,0,4.77-5.37h-5.59v-1.23h5.93a.6.6,0,0,0,.35-.17l1,.95a1.25,1.25,0,0,0-.37.52" transform="translate(-427.54 -172.05)" style="fill: #231f20"/>
    <path d="M603.61,373.09c-.07.06-.07.08-.07.14a22,22,0,0,1-.05,2.58,5.35,5.35,0,0,1-2.27,3.81l-1.16-.85a4.12,4.12,0,0,0,2.25-4.09,15.41,15.41,0,0,0-.12-2l1.27.08c.19,0,.3,0,.3.16s0,.05-.15.16m1.94,6.54-.89-.69v-6.37l1.22.15c.1,0,.29,0,.29.14s0,.07-.11.16-.13.12-.13.13v4.59A9.31,9.31,0,0,0,608.7,375l.71,1.06a14,14,0,0,1-3.86,3.54" transform="translate(-427.54 -172.05)" style="fill: #231f20"/>
    <path d="M617.76,377.87a10.67,10.67,0,0,0-3.09-2.1v4.54h-1.24V372l1.26.22s.25,0,.25.17-.27.23-.27.28v2.76l.49-.78a9.49,9.49,0,0,1,1.78,1,12.77,12.77,0,0,1,1.64,1.26Z" transform="translate(-427.54 -172.05)" style="fill: #231f20"/>
    <polyline points="313.87 219.84 285.96 247.75 285.96 279.13" style="fill: none;stroke: #231f20;stroke-miterlimit: 10;stroke-width: 0.476999998092651px"/>
    <text transform="translate(296.92 259.87)" style="font-size: 6.676199913024902px;fill: #231f20;font-family: KozGoPr6N-Regular-83pv-RKSJ-H, Kozuka Gothic Pr6N">↑</text>
    <path d="M720.34,439.19a6.87,6.87,0,0,0-1.71-1.83,7.07,7.07,0,0,1-2.47,1.85l-.5-.6a5.63,5.63,0,0,0,1.74-.94,6.08,6.08,0,0,0,1.81-2.57H718a14.5,14.5,0,0,0-1.62.07v-.67c.21,0,1,.05,1.31.05h1a4,4,0,0,0,.8,0,.74.74,0,0,0,.33-.15l.49.55-.32.23a14.37,14.37,0,0,1-1,1.72,8.31,8.31,0,0,1,1.88,1.84Z" transform="translate(-427.54 -172.05)" style="fill: #231f20"/>
    <path d="M726.21,439a3.34,3.34,0,0,0,0-.4H723c0,.1,0,.27,0,.39h-.76a7,7,0,0,0,.05-.87c0-.65,0-.72,0-.79v-1.39c0-.21,0-1.23,0-1.4.39,0,1.23.05,1.64.05h1.44c.47,0,1.18,0,1.64,0,0,.35,0,1.14,0,1.51v1.32c0,.13,0,.71,0,.83a4.31,4.31,0,0,0,.06.79Zm.07-3.8H723V438h3.29Z" transform="translate(-427.54 -172.05)" style="fill: #231f20"/>
    <path d="M731.71,437.06h-1.53c-.09,0-1.09,0-1.76.08v-.73a12.88,12.88,0,0,0,1.76.08h1.53a14.1,14.1,0,0,0,1.76-.08v.73a15.92,15.92,0,0,0-1.76-.08" transform="translate(-427.54 -172.05)" style="fill: #231f20"/>
    <path d="M739.12,435.67a6.15,6.15,0,0,1-1.14,2.45,4.82,4.82,0,0,1-2.21,1.61l-.61-.57a4.39,4.39,0,0,0,3.27-3.63H736a12.64,12.64,0,0,0-1.37.07v-.7A9.45,9.45,0,0,0,736,435h1.36c.13,0,.88,0,1,0s.14,0,.33-.15l.6.49a.77.77,0,0,0-.19.38m.66-.63a.73.73,0,0,1,0-1.45.73.73,0,1,1,0,1.45m0-1a.31.31,0,0,0-.31.31.33.33,0,0,0,.33.33.32.32,0,0,0,0-.65" transform="translate(-427.54 -172.05)" style="fill: #231f20"/>
    <path d="M723.49,446.26h-4a2.51,2.51,0,0,1,1.16-1.76l1.24-.88c.78-.58.89-.77.89-1,0-.69-1-.69-1.14-.69-1.16,0-1.2.7-1.22,1.06h-.78a2,2,0,0,1,.37-1.12,2.3,2.3,0,0,1,1.68-.63c1,0,1.85.49,1.85,1.39,0,.7-.39,1-1.46,1.66a4.85,4.85,0,0,0-1.5,1.3h2.94Z" transform="translate(-427.54 -172.05)" style="fill: #231f20"/>
    <path d="M727,441.48c-.17.39-.47,1-.65,1.39a2.52,2.52,0,0,1,.67,1.56.88.88,0,0,1-.53.89,1.45,1.45,0,0,1-.51.06l-.35-.66c0,.54,0,1.83.06,2H725c0-.72.07-1.58.07-2.29v-1.93c0-.55,0-.82,0-1.62l.68,0H727l.15.25c0,.11-.06.16-.13.3M725.75,443l.65-1.54h-.74v3s0,.1,0,.23a1.34,1.34,0,0,0,.31,0,.38.38,0,0,0,.45-.41,2.37,2.37,0,0,0-.67-1.36m4.25,3.74c0-.21,0-.24,0-.35h-2.16c0,.11,0,.13,0,.4h-.65c0-.4,0-.74,0-.83V444.8c0-.25,0-.65,0-.89.41,0,.77,0,.87,0h.19c.11-.34.13-.43.19-.67a12.81,12.81,0,0,1-1.34.26c0,.07-.08.2-.16.2a.09.09,0,0,1-.09-.08l-.14-.65.52-.07V442c0-.78,0-1,0-1.24l.68,0c.07,0,.16,0,.16.1s-.08.11-.22.16,0,.46,0,.49h.44l.55,0v.52h-1v.78c.33-.05.67-.13,1-.21l-.06.56-.28.07.61.13c.1,0,.19,0,.19.13s0,.09-.26.15a2,2,0,0,1-.15.27h.86l.87,0c0,.12,0,.67,0,.79v1.17c0,.23,0,.65,0,.84Zm.05-2.27h-2.19v.48h2.19Zm0,.94h-2.19v.49h2.19Zm.85-3.71h-.16a4.67,4.67,0,0,1-1.17.54v.24c0,.39,0,.45.27.45h.3c.11,0,.18,0,.24-.14a4.31,4.31,0,0,0,.16-.49l.45.37c-.16.71-.29.78-.71.78h-.78c-.49,0-.52-.28-.52-.65v-1.16a7.8,7.8,0,0,0,0-.83l.72.05c.07,0,.12,0,.12.09s-.09.13-.2.2,0,.51,0,.57a1.9,1.9,0,0,0,.86-.59l.51.39a.13.13,0,0,1,.06.1.09.09,0,0,1-.1.09" transform="translate(-427.54 -172.05)" style="fill: #231f20"/>
    <path d="M736.61,445.62a18,18,0,0,1-2.17-2.23c-.44-.55-.67-.84-.9-.84s-.22.05-.51.43a12.35,12.35,0,0,0-1,1.39.54.54,0,0,1,.06.2.11.11,0,0,1-.11.12.19.19,0,0,1-.13,0l-.6-.45c.14-.17.78-.91.9-1.07s.69-.87.82-1a.73.73,0,0,1,.56-.25c.35,0,.48.15,1,.73a14.39,14.39,0,0,0,2.61,2.45Z" transform="translate(-427.54 -172.05)" style="fill: #231f20"/>
    <line x1="262.66" y1="252.89" x2="286" y2="252.89" style="fill: #231f20"/>
    <line x1="262.66" y1="252.89" x2="286" y2="252.89" style="fill: none;stroke: #231f20;stroke-miterlimit: 10;stroke-width: 0.476999998092651px"/>
    <line x1="262.66" y1="254.24" x2="286" y2="254.24" style="fill: #231f20"/>
    <line x1="262.66" y1="254.24" x2="286" y2="254.24" style="fill: none;stroke: #231f20;stroke-miterlimit: 10;stroke-width: 0.476999998092651px"/>
    <line x1="262.66" y1="255.59" x2="286" y2="255.59" style="fill: #231f20"/>
    <line x1="262.66" y1="255.59" x2="286" y2="255.59" style="fill: none;stroke: #231f20;stroke-miterlimit: 10;stroke-width: 0.476999998092651px"/>
    <line x1="262.66" y1="256.94" x2="286" y2="256.94" style="fill: #231f20"/>
    <line x1="262.66" y1="256.94" x2="286" y2="256.94" style="fill: none;stroke: #231f20;stroke-miterlimit: 10;stroke-width: 0.476999998092651px"/>
    <line x1="262.66" y1="258.3" x2="286" y2="258.3" style="fill: #231f20"/>
    <line x1="262.66" y1="258.3" x2="286" y2="258.3" style="fill: none;stroke: #231f20;stroke-miterlimit: 10;stroke-width: 0.476999998092651px"/>
    <line x1="262.66" y1="259.65" x2="286" y2="259.65" style="fill: #231f20"/>
    <line x1="262.66" y1="259.65" x2="286" y2="259.65" style="fill: none;stroke: #231f20;stroke-miterlimit: 10;stroke-width: 0.476999998092651px"/>
    <line x1="262.66" y1="261" x2="286" y2="261" style="fill: #231f20"/>
    <line x1="262.66" y1="261" x2="286" y2="261" style="fill: none;stroke: #231f20;stroke-miterlimit: 10;stroke-width: 0.476999998092651px"/>
    <line x1="262.66" y1="262.35" x2="286" y2="262.35" style="fill: #231f20"/>
    <line x1="262.66" y1="262.35" x2="286" y2="262.35" style="fill: none;stroke: #231f20;stroke-miterlimit: 10;stroke-width: 0.476999998092651px"/>
    <line x1="262.66" y1="263.7" x2="286" y2="263.7" style="fill: #231f20"/>
    <line x1="262.66" y1="263.7" x2="286" y2="263.7" style="fill: none;stroke: #231f20;stroke-miterlimit: 10;stroke-width: 0.476999998092651px"/>
    <line x1="262.66" y1="265.05" x2="286" y2="265.05" style="fill: #231f20"/>
    <line x1="262.66" y1="265.05" x2="286" y2="265.05" style="fill: none;stroke: #231f20;stroke-miterlimit: 10;stroke-width: 0.476999998092651px"/>
    <line x1="262.66" y1="266.41" x2="286" y2="266.41" style="fill: #231f20"/>
    <line x1="262.66" y1="266.41" x2="286" y2="266.41" style="fill: none;stroke: #231f20;stroke-miterlimit: 10;stroke-width: 0.476999998092651px"/>
    <line x1="262.66" y1="267.76" x2="286" y2="267.76" style="fill: #231f20"/>
    <line x1="262.66" y1="267.76" x2="286" y2="267.76" style="fill: none;stroke: #231f20;stroke-miterlimit: 10;stroke-width: 0.476999998092651px"/>
    <line x1="262.66" y1="269.11" x2="286" y2="269.11" style="fill: #231f20"/>
    <line x1="262.66" y1="269.11" x2="286" y2="269.11" style="fill: none;stroke: #231f20;stroke-miterlimit: 10;stroke-width: 0.476999998092651px"/>
    <rect x="54.82" y="172.89" width="17.87" height="19.68" style="fill: #fff"/>
    <rect x="54.82" y="172.89" width="17.87" height="19.68" style="fill: none;stroke: #231f20;stroke-miterlimit: 10;stroke-width: 0.476999998092651px"/>
    <path d="M492.21,347.59A1.25,1.25,0,1,1,491,346.3a1.27,1.27,0,0,1,1.25,1.29" transform="translate(-427.54 -172.05)" style="fill: #231f20"/>
    <path d="M489,351.25c0,.17,0,4.12,0,4.29a.64.64,0,1,1-1.27,0c0-.89,0-4.83,0-4.89a1.1,1.1,0,0,1,.76-1,6.64,6.64,0,0,1,2.53-.49,5.93,5.93,0,0,1,2.49.5,1.15,1.15,0,0,1,.73,1c0,.1,0,4.36,0,4.89a.65.65,0,1,1-1.29,0c0-.46,0-4.13,0-4.29s-.28-.11-.28,0c0,.28,0,11.89,0,11.76a.77.77,0,1,1-1.53,0c0-.29,0-7.12,0-7.21a.15.15,0,0,0-.29,0s0,7.12,0,7.19a.79.79,0,1,1-1.57,0c0-.72,0-11.68,0-11.75s-.29-.12-.28,0" transform="translate(-427.54 -172.05)" style="fill: #231f20"/>
    <rect x="296.41" y="199.94" width="17.87" height="19.68" style="fill: #fff"/>
    <rect x="296.41" y="199.94" width="17.87" height="19.68" style="fill: none;stroke: #231f20;stroke-miterlimit: 10;stroke-width: 0.476999998092651px"/>
    <path d="M734,374.64a1.25,1.25,0,1,1-1.25-1.29,1.27,1.27,0,0,1,1.25,1.29" transform="translate(-427.54 -172.05)" style="fill: #231f20"/>
    <path d="M730.79,378.3c0,.17,0,4.12,0,4.29a.64.64,0,1,1-1.27,0c0-.89,0-4.83,0-4.89a1.1,1.1,0,0,1,.76-1,6.66,6.66,0,0,1,2.53-.49,5.94,5.94,0,0,1,2.49.5,1.15,1.15,0,0,1,.73,1c0,.1,0,4.36,0,4.89a.65.65,0,1,1-1.28,0c0-.46,0-4.13,0-4.29s-.28-.11-.28,0c0,.28,0,11.89,0,11.76a.77.77,0,1,1-1.53,0c0-.3,0-7.12,0-7.21a.15.15,0,0,0-.3,0s0,7.12,0,7.19a.79.79,0,1,1-1.57,0c0-.72,0-11.68,0-11.75s-.29-.12-.28,0" transform="translate(-427.54 -172.05)" style="fill: #231f20"/>
    <path d="M585.6,329.91a7.16,7.16,0,0,0-1.9-.92l.52-1a6.44,6.44,0,0,1,2,1Zm2.92,1.62a15.52,15.52,0,0,1-3.2,2.11c-.12.07-.14.07-.16.14s0,.17-.1.17-.19-.2-.22-.26l-.51-.93A12.35,12.35,0,0,0,590,328.1l.76.94a10.82,10.82,0,0,1-2.2,2.49m-1.95-3.85a6,6,0,0,0-1.87-.86l.5-.92a5.79,5.79,0,0,1,1.93.85Zm2.91-.25a4,4,0,0,0-.93-.71l.4-.52a4.26,4.26,0,0,1,1,.72Zm1-.77a4.72,4.72,0,0,0-1-.72l.4-.52a4.53,4.53,0,0,1,1,.73Z" transform="translate(-427.54 -172.05)" style="fill: #231f20"/>
    <polygon points="157.34 169.14 157.34 168.29 160.83 168.29 161.29 165.51 158.57 165.51 158.57 164.63 162.39 164.63 161.8 168.29 163.62 168.29 163.62 169.14 157.34 169.14" style="fill: #231f20"/>
    <path d="M587.85,344.9s-.11.08-.11.11v6.44h-1.29v-7l1.19.12c.23,0,.31.07.31.15s0,.09-.11.15" transform="translate(-427.54 -172.05)" style="fill: #231f20"/>
    <path d="M589.88,360.43a15.09,15.09,0,0,0-2.33-2.38,9.18,9.18,0,0,1-3.26,2.45l-.84-.87a8.46,8.46,0,0,0,3-2.06,7.61,7.61,0,0,0,1.62-2.6h-3.63v-1.11h4.11a.9.9,0,0,0,.5-.21l.74.81a1.31,1.31,0,0,0-.51.57,11.56,11.56,0,0,1-1.11,2.13,19.11,19.11,0,0,1,2.53,2.36Z" transform="translate(-427.54 -172.05)" style="fill: #231f20"/>
    <path d="M601.52,329.74a5.34,5.34,0,0,1-1.9-.91,8.33,8.33,0,0,1-1.62,1l-.61-.62v1.65h-1.29v.4h1.32v.93h-1.32v1.47h-1v-1.47h-1.46v-.93h1.46v-.4h-1.28v-3.44h1.28V327h-1.31v-.89h1.31v-.73l1,0c.09,0,.22,0,.22.1s-.07.1-.11.11-.12.1-.12.14v.32h1.29V327h-1.29v.34h1.29v1.47a4.24,4.24,0,0,0,1.43-.7,7.79,7.79,0,0,1-1-1.19l.42-.34h-.67v-1h3.82l.26.37a7,7,0,0,1-1.3,2.12,5.25,5.25,0,0,0,1.75.71Zm-6.39-1.55h-.47v.53h.47Zm0,1.29h-.47V330h.47Zm1.45-1.29h-.48v.53h.48Zm0,1.29h-.48V330h.48Zm.56,3.94v-1H599v-1.21h-1.23v-1H599v-1l1.11.11c.11,0,.22,0,.22.11a.14.14,0,0,1-.06.1c-.15.13-.17.14-.17.2v.43h1.49v1h-1.49v1.21h1.87v1Zm1.67-6.8a2.6,2.6,0,0,0,.75.93,2.06,2.06,0,0,0,.6-.93Z" transform="translate(-427.54 -172.05)" style="fill: #231f20"/>
    <path d="M601.38,337.46a8,8,0,0,1-1-.33v2.71a3.91,3.91,0,0,0,.46-.4l.86.74a.22.22,0,0,1,.07.12s0,.07-.08.08h-.26a.28.28,0,0,0-.19.06c-.73.43-.8.48-1.42.81a6.43,6.43,0,0,0,1.94.59l-.59.86a6.54,6.54,0,0,1-3.17-1.56l0,.75c-.32.1-.67.19-1.24.33l-1.87.45a.74.74,0,0,0-.37.14c-.06.06-.1.1-.15.1s-.1-.06-.12-.14l-.35-1a10,10,0,0,0,1.38-.17v-4.48a4.41,4.41,0,0,1-.93.4l-.73-.84a6.59,6.59,0,0,0,3.6-2.4l1.13.15a.18.18,0,0,1,.15.17.09.09,0,0,1,0,.08,6.88,6.88,0,0,0,3.58,1.83Zm-5.69-.55h1.54V336l1.17,0h.1a4.25,4.25,0,0,1-.74-.7,11.38,11.38,0,0,1-2.08,1.54m3.6.71h-2.95v.47h2.95Zm0,1.16h-2.95v.5h2.95ZM597,340h-.67v1.44c.91-.2,1.26-.3,1.55-.38A4.94,4.94,0,0,1,597,340m1.2,0a3,3,0,0,0,.75.76,8.34,8.34,0,0,0,1.24-.76Zm.45-3.81s0,.07-.09.11-.22.14-.22.19v.43h1.56a8.82,8.82,0,0,1-1.25-.73" transform="translate(-427.54 -172.05)" style="fill: #231f20"/>
    <polyline points="149.24 106.17 149.24 158.45 116.64 158.45 116.64 192.47 91.75 192.47 91.75 158.45 63.27 158.45 63.27 76.39" style="fill: none;stroke: #231f20;stroke-miterlimit: 10;stroke-width: 0.476999998092651px"/>
    <polyline points="54.82 192.57 36.19 192.57 36.19 172.9" style="fill: #fff"/>
    <polyline points="54.82 192.57 36.19 192.57 36.19 172.9" style="fill: none;stroke: #231f20;stroke-miterlimit: 10;stroke-width: 0.476999998092651px"/>
    <polyline points="54.82 172.88 45.51 172.88 45.51 185.47" style="fill: #fff"/>
    <polyline points="54.82 172.88 45.51 172.88 45.51 185.47" style="fill: none;stroke: #231f20;stroke-miterlimit: 10;stroke-width: 0.476999998092651px"/>
    <line x1="36.14" y1="173.57" x2="45.49" y2="173.57" style="fill: #fff"/>
    <line x1="36.14" y1="173.57" x2="45.49" y2="173.57" style="fill: none;stroke: #231f20;stroke-miterlimit: 10;stroke-width: 0.476999998092651px"/>
    <line x1="36.14" y1="174.93" x2="45.49" y2="174.93" style="fill: #fff"/>
    <line x1="36.14" y1="174.93" x2="45.49" y2="174.93" style="fill: none;stroke: #231f20;stroke-miterlimit: 10;stroke-width: 0.476999998092651px"/>
    <line x1="36.14" y1="176.28" x2="45.49" y2="176.28" style="fill: #fff"/>
    <line x1="36.14" y1="176.28" x2="45.49" y2="176.28" style="fill: none;stroke: #231f20;stroke-miterlimit: 10;stroke-width: 0.476999998092651px"/>
    <line x1="36.14" y1="177.63" x2="45.49" y2="177.63" style="fill: #fff"/>
    <line x1="36.14" y1="177.63" x2="45.49" y2="177.63" style="fill: none;stroke: #231f20;stroke-miterlimit: 10;stroke-width: 0.476999998092651px"/>
    <line x1="36.14" y1="178.98" x2="45.49" y2="178.98" style="fill: #fff"/>
    <line x1="36.14" y1="178.98" x2="45.49" y2="178.98" style="fill: none;stroke: #231f20;stroke-miterlimit: 10;stroke-width: 0.476999998092651px"/>
    <line x1="36.14" y1="180.33" x2="45.49" y2="180.33" style="fill: #fff"/>
    <line x1="36.14" y1="180.33" x2="45.49" y2="180.33" style="fill: none;stroke: #231f20;stroke-miterlimit: 10;stroke-width: 0.476999998092651px"/>
    <line x1="36.14" y1="181.68" x2="45.49" y2="181.68" style="fill: #fff"/>
    <line x1="36.14" y1="181.68" x2="45.49" y2="181.68" style="fill: none;stroke: #231f20;stroke-miterlimit: 10;stroke-width: 0.476999998092651px"/>
    <line x1="36.14" y1="183.04" x2="45.49" y2="183.04" style="fill: #fff"/>
    <line x1="36.14" y1="183.04" x2="45.49" y2="183.04" style="fill: none;stroke: #231f20;stroke-miterlimit: 10;stroke-width: 0.476999998092651px"/>
    <line x1="36.14" y1="184.39" x2="45.49" y2="184.39" style="fill: #fff"/>
    <line x1="36.14" y1="184.39" x2="45.49" y2="184.39" style="fill: none;stroke: #231f20;stroke-miterlimit: 10;stroke-width: 0.476999998092651px"/>
    <path d="M464.31,363.84c.09-.48.23-1.28,1.9-2.2.94-.52,1.31-.74,1.31-1.22s-.5-.81-1.14-.81c-1,0-1,.71-1,1.06h-.85a1.88,1.88,0,0,1,.35-1.17,2,2,0,0,1,1.58-.63c1.22,0,2,.69,2,1.55,0,.67-.51,1.14-1.49,1.66a3.3,3.3,0,0,0-1.4,1h2.93v.7Z" transform="translate(-427.54 -172.05)" style="fill: #231f20"/>
    <path d="M475.54,359.24c-.13,0-.14,0-.19.05a10.66,10.66,0,0,1-.94.85v.24c0,.11,0,.22.15.22h.18c.2,0,.21-.28.22-.6l.64.26c-.12.92-.35.95-.64.95h-1c-.15,0-.19,0-.22-.07-.11.19-.12.22-.21.37h1.69v2.67h-.69V364h-1.84v.22H472v-2.67h.72A3.45,3.45,0,0,0,473,361l-.79.27a.13.13,0,0,0-.1.09c0,.06-.06.1-.11.1s-.1-.13-.13-.21l-.17-.58.42-.11V359l-.76,1.5a2.39,2.39,0,0,1,.56,1.42,1.08,1.08,0,0,1-1.06,1.13l-.29-.67v1.86h-.67v-5.62h1.86l.36.33v-.47h.65c.07,0,.21,0,.21.09a.11.11,0,0,1,0,.09c-.08.06-.1.08-.1.11v.37h.7v.62h-.7v.62l.61-.16v.62l-.22.08.49.15a.35.35,0,0,1,0-.11v-2.52l.65,0c.17,0,.19,0,.19.09a.1.1,0,0,1-.05.08c-.06.05-.09.07-.09.13v.59a4.47,4.47,0,0,0,.53-.59l.56.29s.13.08.13.14-.05.07-.09.07m-4.9,1.31.53-1.32h-.6v3c.49,0,.67-.05.67-.4a1.85,1.85,0,0,0-.6-1.28m3.93,1.52h-1.85v.43h1.85Zm0,.9h-1.85v.45h1.85Z" transform="translate(-427.54 -172.05)" style="fill: #231f20"/>
    <path d="M481.4,363.25a16.23,16.23,0,0,1-2.35-2.53c-.22-.27-.3-.38-.47-.38s-.33.19-.39.27c-.22.3-.94,1.27-1.3,1.66l-.75-.48a11.92,11.92,0,0,0,1.67-2,1,1,0,0,1,.71-.46c.31,0,.45.15.78.53a14.75,14.75,0,0,0,2.69,2.65Z" transform="translate(-427.54 -172.05)" style="fill: #231f20"/>
    <line x1="125.91" y1="173.46" x2="135.27" y2="173.46" style="fill: #fff"/>
    <line x1="125.91" y1="173.46" x2="135.27" y2="173.46" style="fill: none;stroke: #231f20;stroke-miterlimit: 10;stroke-width: 0.476999998092651px"/>
    <line x1="125.91" y1="174.82" x2="135.27" y2="174.82" style="fill: #fff"/>
    <line x1="125.91" y1="174.82" x2="135.27" y2="174.82" style="fill: none;stroke: #231f20;stroke-miterlimit: 10;stroke-width: 0.476999998092651px"/>
    <line x1="125.91" y1="176.17" x2="135.27" y2="176.17" style="fill: #fff"/>
    <line x1="125.91" y1="176.17" x2="135.27" y2="176.17" style="fill: none;stroke: #231f20;stroke-miterlimit: 10;stroke-width: 0.476999998092651px"/>
    <line x1="125.91" y1="177.52" x2="135.27" y2="177.52" style="fill: #fff"/>
    <line x1="125.91" y1="177.52" x2="135.27" y2="177.52" style="fill: none;stroke: #231f20;stroke-miterlimit: 10;stroke-width: 0.476999998092651px"/>
    <line x1="125.91" y1="178.87" x2="135.27" y2="178.87" style="fill: #fff"/>
    <line x1="125.91" y1="178.87" x2="135.27" y2="178.87" style="fill: none;stroke: #231f20;stroke-miterlimit: 10;stroke-width: 0.476999998092651px"/>
    <line x1="125.91" y1="180.22" x2="135.27" y2="180.22" style="fill: #fff"/>
    <line x1="125.91" y1="180.22" x2="135.27" y2="180.22" style="fill: none;stroke: #231f20;stroke-miterlimit: 10;stroke-width: 0.476999998092651px"/>
    <line x1="125.91" y1="181.57" x2="135.27" y2="181.57" style="fill: #fff"/>
    <line x1="125.91" y1="181.57" x2="135.27" y2="181.57" style="fill: none;stroke: #231f20;stroke-miterlimit: 10;stroke-width: 0.476999998092651px"/>
    <line x1="125.91" y1="182.93" x2="135.27" y2="182.93" style="fill: #fff"/>
    <line x1="125.91" y1="182.93" x2="135.27" y2="182.93" style="fill: none;stroke: #231f20;stroke-miterlimit: 10;stroke-width: 0.476999998092651px"/>
    <line x1="125.91" y1="184.28" x2="135.27" y2="184.28" style="fill: #fff"/>
    <line x1="125.91" y1="184.28" x2="135.27" y2="184.28" style="fill: none;stroke: #231f20;stroke-miterlimit: 10;stroke-width: 0.476999998092651px"/>
    <path d="M544.75,363.73c.09-.48.23-1.28,1.9-2.2.94-.52,1.31-.74,1.31-1.22s-.5-.81-1.14-.81c-1,0-1,.71-1,1.06h-.85a1.88,1.88,0,0,1,.35-1.17,2,2,0,0,1,1.58-.63c1.22,0,2,.69,2,1.55,0,.67-.51,1.14-1.49,1.66a3.3,3.3,0,0,0-1.4,1h2.93v.7Z" transform="translate(-427.54 -172.05)" style="fill: #231f20"/>
    <path d="M556,359.13c-.13,0-.14,0-.19.05a10.64,10.64,0,0,1-.94.85v.24c0,.11,0,.22.15.22h.18c.2,0,.21-.28.22-.59l.63.26c-.12.92-.35.95-.63.95h-1c-.15,0-.19,0-.22-.07-.11.2-.12.22-.21.37h1.69v2.67H555v-.22h-1.85v.22h-.69V361.4h.72a3.62,3.62,0,0,0,.25-.55l-.79.27a.13.13,0,0,0-.1.09c0,.06-.06.1-.11.1s-.1-.13-.13-.21l-.17-.58.42-.11v-1.56l-.75,1.5a2.39,2.39,0,0,1,.55,1.42,1.08,1.08,0,0,1-1.06,1.13l-.29-.67v1.86h-.67v-5.62h1.86l.36.33v-.47h.65c.07,0,.21,0,.21.09a.11.11,0,0,1,0,.09c-.08.06-.1.08-.1.11V359h.7v.62h-.7v.62l.61-.16v.61l-.22.08.49.15a.36.36,0,0,1,0-.11V358.3l.66,0c.17,0,.19,0,.19.09a.11.11,0,0,1-.05.08c-.06.05-.09.07-.09.13v.6a4.48,4.48,0,0,0,.54-.6l.55.29s.13.08.13.14-.05.07-.09.07m-4.9,1.31.54-1.32H551v3c.49,0,.67-.05.67-.39a1.86,1.86,0,0,0-.6-1.28M555,362h-1.85v.43H555Zm0,.9h-1.85v.45H555Z" transform="translate(-427.54 -172.05)" style="fill: #231f20"/>
    <path d="M561.85,363.14a16.23,16.23,0,0,1-2.35-2.53c-.22-.27-.3-.38-.47-.38s-.33.19-.39.27c-.22.3-.94,1.27-1.3,1.66l-.75-.48a11.92,11.92,0,0,0,1.67-2,1,1,0,0,1,.71-.46c.31,0,.45.15.77.53a14.75,14.75,0,0,0,2.69,2.65Z" transform="translate(-427.54 -172.05)" style="fill: #231f20"/>
    <polyline points="135.27 172.8 135.27 192.48 116.64 192.48 116.64 172.8 125.95 172.8 125.95 185.39" style="fill: none;stroke: #231f20;stroke-miterlimit: 10;stroke-width: 0.476999998092651px"/>
    <rect x="135.29" y="172.82" width="13.98" height="19.67" style="fill: none;stroke: #231f20;stroke-miterlimit: 10;stroke-width: 0.476999998092651px"/>
    <line x1="263.47" y1="173.47" x2="272.83" y2="173.47" style="fill: #fff"/>
    <line x1="263.47" y1="173.47" x2="272.83" y2="173.47" style="fill: none;stroke: #231f20;stroke-miterlimit: 10;stroke-width: 0.476999998092651px"/>
    <line x1="263.47" y1="174.82" x2="272.83" y2="174.82" style="fill: #fff"/>
    <line x1="263.47" y1="174.82" x2="272.83" y2="174.82" style="fill: none;stroke: #231f20;stroke-miterlimit: 10;stroke-width: 0.476999998092651px"/>
    <line x1="263.47" y1="176.17" x2="272.83" y2="176.17" style="fill: #fff"/>
    <line x1="263.47" y1="176.17" x2="272.83" y2="176.17" style="fill: none;stroke: #231f20;stroke-miterlimit: 10;stroke-width: 0.476999998092651px"/>
    <line x1="263.47" y1="177.53" x2="272.83" y2="177.53" style="fill: #fff"/>
    <line x1="263.47" y1="177.53" x2="272.83" y2="177.53" style="fill: none;stroke: #231f20;stroke-miterlimit: 10;stroke-width: 0.476999998092651px"/>
    <line x1="263.47" y1="178.88" x2="272.83" y2="178.88" style="fill: #fff"/>
    <line x1="263.47" y1="178.88" x2="272.83" y2="178.88" style="fill: none;stroke: #231f20;stroke-miterlimit: 10;stroke-width: 0.476999998092651px"/>
    <line x1="263.47" y1="180.23" x2="272.83" y2="180.23" style="fill: #fff"/>
    <line x1="263.47" y1="180.23" x2="272.83" y2="180.23" style="fill: none;stroke: #231f20;stroke-miterlimit: 10;stroke-width: 0.476999998092651px"/>
    <line x1="263.47" y1="181.58" x2="272.83" y2="181.58" style="fill: #fff"/>
    <line x1="263.47" y1="181.58" x2="272.83" y2="181.58" style="fill: none;stroke: #231f20;stroke-miterlimit: 10;stroke-width: 0.476999998092651px"/>
    <line x1="263.47" y1="182.93" x2="272.83" y2="182.93" style="fill: #fff"/>
    <line x1="263.47" y1="182.93" x2="272.83" y2="182.93" style="fill: none;stroke: #231f20;stroke-miterlimit: 10;stroke-width: 0.476999998092651px"/>
    <line x1="263.47" y1="184.28" x2="272.83" y2="184.28" style="fill: #fff"/>
    <line x1="263.47" y1="184.28" x2="272.83" y2="184.28" style="fill: none;stroke: #231f20;stroke-miterlimit: 10;stroke-width: 0.476999998092651px"/>
    <path d="M686.36,363.74h-4a2.51,2.51,0,0,1,1.16-1.76l1.24-.88c.78-.58.89-.77.89-1,0-.69-1-.69-1.14-.69-1.16,0-1.2.7-1.22,1.06h-.78a2,2,0,0,1,.37-1.12,2.3,2.3,0,0,1,1.68-.63c1,0,1.85.49,1.85,1.39,0,.7-.39,1-1.46,1.66a4.85,4.85,0,0,0-1.5,1.3h2.94Z" transform="translate(-427.54 -172.05)" style="fill: #231f20"/>
    <path d="M689.9,359c-.17.39-.47,1-.65,1.39a2.52,2.52,0,0,1,.67,1.56.88.88,0,0,1-.53.89,1.45,1.45,0,0,1-.51.06l-.35-.66c0,.54,0,1.83.06,2h-.71c0-.72.07-1.58.07-2.29V360c0-.55,0-.82,0-1.62l.68,0h1.26l.15.25c0,.11-.06.16-.13.3m-1.28,1.49.65-1.54h-.74v3s0,.1,0,.23a1.35,1.35,0,0,0,.31,0,.38.38,0,0,0,.45-.41,2.36,2.36,0,0,0-.67-1.36m4.25,3.74c0-.21,0-.24,0-.36h-2.16c0,.11,0,.13,0,.4h-.65c0-.4,0-.74,0-.83v-1.12c0-.25,0-.65,0-.89.41,0,.77,0,.87,0h.19c.11-.34.13-.43.19-.67A12.81,12.81,0,0,1,690,361c0,.07-.08.2-.16.2a.09.09,0,0,1-.09-.08l-.14-.65.52-.07v-.91c0-.78,0-1,0-1.24l.68,0c.07,0,.16,0,.16.1s-.08.11-.22.16,0,.46,0,.49h.44l.55,0v.52h-1v.78c.33-.05.67-.13,1-.21l-.06.56-.28.07.61.13c.1,0,.19,0,.19.13s0,.09-.26.15a2,2,0,0,1-.15.27h.86l.87,0c0,.12,0,.67,0,.79v1.17c0,.23,0,.65,0,.84Zm.05-2.27h-2.19v.48h2.19Zm0,.94h-2.19v.49h2.19Zm.85-3.71h-.16a4.64,4.64,0,0,1-1.17.54v.24c0,.39,0,.45.27.45h.3c.11,0,.18,0,.24-.14a4.31,4.31,0,0,0,.16-.49l.45.37c-.16.71-.29.78-.71.78h-.78c-.49,0-.52-.28-.52-.65v-1.16a7.8,7.8,0,0,0,0-.83l.72.05c.07,0,.12,0,.12.09s-.09.13-.2.2,0,.51,0,.57a1.91,1.91,0,0,0,.86-.59l.51.39a.13.13,0,0,1,.06.1.09.09,0,0,1-.1.09" transform="translate(-427.54 -172.05)" style="fill: #231f20"/>
    <path d="M699.48,363.1a18,18,0,0,1-2.17-2.23c-.44-.55-.67-.84-.9-.84s-.22.05-.51.43a12.36,12.36,0,0,0-1,1.39.54.54,0,0,1,.06.2.11.11,0,0,1-.11.12.19.19,0,0,1-.13,0l-.6-.45c.14-.17.78-.91.9-1.07s.69-.87.82-1a.73.73,0,0,1,.56-.25c.35,0,.48.15,1,.73a14.39,14.39,0,0,0,2.61,2.45Z" transform="translate(-427.54 -172.05)" style="fill: #231f20"/>
    <polyline points="272.83 172.81 272.83 192.49 254.19 192.49 254.19 172.81 263.51 172.81 263.51 185.4" style="fill: none;stroke: #231f20;stroke-miterlimit: 10;stroke-width: 0.476999998092651px"/>
    <rect x="272.83" y="172.81" width="16.94" height="19.68" style="fill: none;stroke: #231f20;stroke-miterlimit: 10;stroke-width: 0.476999998092651px"/>
    <path d="M710.29,349.41a2,2,0,0,1,1.4,1.55c.06.23.81,3.82.93,4.33a.59.59,0,1,1-1.11.38c-.43-1.92-.87-3.87-.93-4.11a.11.11,0,1,0-.22.06c.07.3,1.24,5.78,1.24,5.78h-1.32s0,4.23,0,5.3a.65.65,0,1,1-1.31,0v-5.31h-.28s0,5.3,0,5.32a.67.67,0,1,1-1.34,0c0-.9,0-5.27,0-5.27H706.1l1.24-5.8a.12.12,0,1,0-.24,0c0,.15-.83,3.68-.93,4.08-.2.78-1.37.57-1.09-.47.11-.42,1-4.11,1-4.11.24-.89.39-1.27,1.21-1.62a5.12,5.12,0,0,1,3-.06" transform="translate(-427.54 -172.05)" style="fill: #231f20"/>
    <path d="M710,347.61a1.22,1.22,0,1,1-1.22-1.25,1.24,1.24,0,0,1,1.22,1.25" transform="translate(-427.54 -172.05)" style="fill: #231f20"/>
    <rect x="201.55" y="172.81" width="4.95" height="19.73" style="fill: none;stroke: #231f20;stroke-miterlimit: 10;stroke-width: 0.476999998092651px"/>
    <rect x="254.19" y="148.96" width="35.58" height="19.68" style="fill: none;stroke: #231f20;stroke-miterlimit: 10;stroke-width: 0.476999998092651px"/>
    <path d="M687.82,327.1c-.17,0-.19.07-.25.23-.15.34-.25.61-.51,1.18.09.06.23.15.23.26a.21.21,0,0,1-.06.13c-.11.12-.12.13-.12.18v6.23H686v-4.95a2.88,2.88,0,0,1-.41.54l-1-.62a9.56,9.56,0,0,0,2.15-3.93l1.12.42c.12,0,.18.11.18.19s-.09.13-.17.15m5.63,7.77a7,7,0,0,1-2-1.83v2.29h-1.2v-2.41a9.07,9.07,0,0,1-1.93,2.12l-.88-.78a7.56,7.56,0,0,0,2.21-2.34h-2v-1h2.65V330h-1.86v-3.36h5V330h-2v.92H694v1h-2.11a7.49,7.49,0,0,0,2.39,2.1Zm-1.2-7.22h-2.68v1.29h2.68Z" transform="translate(-427.54 -172.05)" style="fill: #231f20"/>
    <path d="M703.89,335.26c-.74,0-1.5,0-2.25,0a3.84,3.84,0,0,1-3-1,5.89,5.89,0,0,1-1,1.12l-.81-.59v.56h-1.14v-4.78a1.93,1.93,0,0,1-.25.34l-1-.61a12.16,12.16,0,0,0,1.87-4.18l1.13.35s.22.08.22.21a.13.13,0,0,1-.08.13c-.21.08-.22.1-.27.25-.13.4-.21.62-.45,1.22.26.14.29.15.29.26s0,.08-.13.17a.32.32,0,0,0-.14.23v5.64a3.94,3.94,0,0,0,1.13-1.18,7.29,7.29,0,0,1-.86-2l.9-.25a7,7,0,0,0,.42,1.21,8.29,8.29,0,0,0,.3-1.9h-.56l-.29.55-.9-.48a18.29,18.29,0,0,0,1.24-2.45h-.77v-1h1.89l.3.25c-.25.64-.49,1.23-1,2.17h1v-.17H701V329h-1.55v-.79H701v-.43H699.8v-.85H701v-.58l.81,0c.54,0,.54.07.54.14s-.07.13-.13.16a.24.24,0,0,0-.13.26h1.63v1.28H704V329h-.35v1.3h-1.63v.48h1.4v.85h-1.4v.49h1.87v.85h-1.87v1.13H701v-1.13h-1.49v-.75a7.59,7.59,0,0,1-.42,1.33,2.46,2.46,0,0,0,2,.81,24.89,24.89,0,0,0,3.3-.24ZM701,331.6h-1.1v-.85H701v-.48h-1.25a11.62,11.62,0,0,1-.22,1.83H701Zm1.62-3.85h-.52v.43h.52Zm0,1.22h-.52v.45h.52Z" transform="translate(-427.54 -172.05)" style="fill: #231f20"/>
    <path d="M704.95,335.16v-1h3.86v-.83H706v-1h2.86v-.65c-1,.08-1.47.1-2.35.13-.24,0-.26,0-.36.08s-.15.13-.2.13-.18-.24-.19-.43l-.05-.85h1.72c.13-.26.16-.34.44-1h-1.27v-1h5.74v1h-1.11a23.66,23.66,0,0,1,2.18,1.75l-1,.72a9.88,9.88,0,0,0-.81-.77c-.57.06-1.15.1-1.63.14l.16,0c.09,0,.14.05.14.13s-.13.15-.18.17v.43h2.74v1h-2.74v.83h3.86v1Zm7.75-5.88v-1.06h-6.54v1.12H705v-2.1h3.73v-.93l1.09,0c.28,0,.49,0,.49.18a.18.18,0,0,1-.07.13c-.1.07-.15.12-.15.16v.45h3.72v2Zm-3.4.39-.62,1c.87,0,1.36-.05,1.87-.1l-.39-.26.54-.63Z" transform="translate(-427.54 -172.05)" style="fill: #231f20"/>
    <polyline points="119.49 76.56 41.34 76.56 41.34 67.88" style="fill: none;stroke: #231f20;stroke-miterlimit: 10;stroke-width: 0.476999998092651px"/>
    <line x1="127.9" y1="52.22" x2="263.68" y2="52.22" style="fill: none;stroke: #231f20;stroke-miterlimit: 10;stroke-width: 0.476999998092651px"/>
    <line x1="127.59" y1="53.57" x2="263.68" y2="53.57" style="fill: none;stroke: #231f20;stroke-miterlimit: 10;stroke-width: 0.476999998092651px"/>
    <line x1="126.94" y1="56.28" x2="263.68" y2="56.28" style="fill: none;stroke: #231f20;stroke-miterlimit: 10;stroke-width: 0.476999998092651px"/>
    <line x1="126.5" y1="57.63" x2="263.68" y2="57.63" style="fill: none;stroke: #231f20;stroke-miterlimit: 10;stroke-width: 0.476999998092651px"/>
    <line x1="125.44" y1="60.33" x2="263.68" y2="60.33" style="fill: none;stroke: #231f20;stroke-miterlimit: 10;stroke-width: 0.476999998092651px"/>
    <line x1="125.1" y1="61.68" x2="263.68" y2="61.68" style="fill: none;stroke: #231f20;stroke-miterlimit: 10;stroke-width: 0.476000010967255px"/>
    <line x1="123.9" y1="64.39" x2="263.68" y2="64.39" style="fill: none;stroke: #231f20;stroke-miterlimit: 10;stroke-width: 0.476000010967255px"/>
    <line x1="123.18" y1="65.74" x2="263.68" y2="65.74" style="fill: none;stroke: #231f20;stroke-miterlimit: 10;stroke-width: 0.476000010967255px"/>
    <rect x="263.68" y="45.3" width="29.73" height="38.31" style="fill: none;stroke: #231f20;stroke-miterlimit: 10;stroke-width: 0.476999998092651px"/>
    <polyline points="368.2 78.35 368.2 45.37 293.41 45.37" style="fill: none;stroke: #231f20;stroke-miterlimit: 10;stroke-width: 0.476999998092651px"/>
    <polyline points="358.22 57.46 328.12 57.46 328.12 68.66" style="fill: none;stroke: #231f20;stroke-miterlimit: 10;stroke-width: 0.476999998092651px"/>
    <path d="M788.56,225.37c.09-.48.23-1.28,1.9-2.2.94-.51,1.31-.74,1.31-1.22s-.5-.81-1.14-.81c-1,0-1,.71-1,1.06h-.85a1.88,1.88,0,0,1,.35-1.17,2,2,0,0,1,1.58-.63c1.22,0,2,.69,2,1.55,0,.67-.51,1.14-1.49,1.66a3.28,3.28,0,0,0-1.4,1h2.93v.7Z" transform="translate(-427.54 -172.05)" style="fill: #231f20"/>
    <path d="M793.44,227.17c-.13,0-.14,0-.19.05a10.65,10.65,0,0,1-.94.85v.24c0,.11,0,.22.15.22h.18c.2,0,.21-.28.22-.6l.64.26c-.12.92-.35.95-.64.95h-1c-.15,0-.19,0-.22-.07l-.21.38h1.69v2.67h-.69v-.22h-1.84v.22h-.69v-2.67h.72a3.58,3.58,0,0,0,.25-.55l-.79.27a.14.14,0,0,0-.1.09c0,.06-.06.1-.11.1s-.1-.13-.13-.21l-.17-.58.42-.11V226.9l-.75,1.5a2.39,2.39,0,0,1,.55,1.42,1.09,1.09,0,0,1-1.06,1.13l-.29-.67v1.86h-.67v-5.62h1.86l.36.33v-.47h.65c.07,0,.21,0,.21.09a.12.12,0,0,1,0,.09c-.08.06-.1.08-.1.11V227h.7v.62h-.7v.62l.61-.16v.61l-.22.08.49.15a.36.36,0,0,1,0-.11v-2.52l.66,0c.17,0,.19,0,.19.09a.1.1,0,0,1-.05.08c-.06.05-.09.07-.09.13v.6a4.49,4.49,0,0,0,.54-.6l.55.29s.13.08.13.14-.05.07-.09.07m-4.9,1.31.53-1.32h-.6v3c.49,0,.67-.05.67-.39a1.86,1.86,0,0,0-.6-1.28m3.93,1.52h-1.85v.43h1.85Zm0,.9h-1.85v.45h1.85Z" transform="translate(-427.54 -172.05)" style="fill: #231f20"/>
    <path d="M793,237.52a16.19,16.19,0,0,1-2.35-2.53c-.22-.27-.3-.38-.47-.38s-.33.19-.39.27c-.22.3-.94,1.27-1.3,1.66l-.75-.48a11.92,11.92,0,0,0,1.66-2,1,1,0,0,1,.72-.46c.31,0,.45.15.77.53a14.79,14.79,0,0,0,2.69,2.65Z" transform="translate(-427.54 -172.05)" style="fill: #231f20"/>
    <line x1="328.99" y1="45.25" x2="328.99" y2="57.45" style="fill: none;stroke: #231f20;stroke-miterlimit: 10;stroke-width: 0.476999998092651px"/>
    <line x1="330.34" y1="45.25" x2="330.34" y2="57.45" style="fill: none;stroke: #231f20;stroke-miterlimit: 10;stroke-width: 0.476999998092651px"/>
    <line x1="331.69" y1="45.25" x2="331.69" y2="57.45" style="fill: none;stroke: #231f20;stroke-miterlimit: 10;stroke-width: 0.476999998092651px"/>
    <line x1="333.04" y1="45.25" x2="333.04" y2="57.45" style="fill: none;stroke: #231f20;stroke-miterlimit: 10;stroke-width: 0.476999998092651px"/>
    <line x1="334.39" y1="45.25" x2="334.39" y2="57.45" style="fill: none;stroke: #231f20;stroke-miterlimit: 10;stroke-width: 0.476999998092651px"/>
    <line x1="335.75" y1="45.25" x2="335.75" y2="57.45" style="fill: none;stroke: #231f20;stroke-miterlimit: 10;stroke-width: 0.476999998092651px"/>
    <line x1="337.1" y1="45.25" x2="337.1" y2="57.45" style="fill: none;stroke: #231f20;stroke-miterlimit: 10;stroke-width: 0.476999998092651px"/>
    <line x1="338.45" y1="45.25" x2="338.45" y2="57.45" style="fill: none;stroke: #231f20;stroke-miterlimit: 10;stroke-width: 0.476999998092651px"/>
    <line x1="339.8" y1="45.25" x2="339.8" y2="57.45" style="fill: none;stroke: #231f20;stroke-miterlimit: 10;stroke-width: 0.476999998092651px"/>
    <line x1="341.15" y1="45.25" x2="341.15" y2="57.45" style="fill: none;stroke: #231f20;stroke-miterlimit: 10;stroke-width: 0.476999998092651px"/>
    <line x1="342.5" y1="45.25" x2="342.5" y2="57.45" style="fill: none;stroke: #231f20;stroke-miterlimit: 10;stroke-width: 0.476999998092651px"/>
    <line x1="343.86" y1="45.25" x2="343.86" y2="57.45" style="fill: none;stroke: #231f20;stroke-miterlimit: 10;stroke-width: 0.476999998092651px"/>
    <line x1="345.21" y1="45.25" x2="345.21" y2="57.45" style="fill: none;stroke: #231f20;stroke-miterlimit: 10;stroke-width: 0.476999998092651px"/>
    <line x1="346.56" y1="45.25" x2="346.56" y2="57.45" style="fill: none;stroke: #231f20;stroke-miterlimit: 10;stroke-width: 0.476999998092651px"/>
    <line x1="347.91" y1="45.25" x2="347.91" y2="57.45" style="fill: none;stroke: #231f20;stroke-miterlimit: 10;stroke-width: 0.476999998092651px"/>
    <line x1="349.26" y1="45.25" x2="349.26" y2="57.45" style="fill: none;stroke: #231f20;stroke-miterlimit: 10;stroke-width: 0.476999998092651px"/>
    <line x1="350.62" y1="45.25" x2="350.62" y2="57.45" style="fill: none;stroke: #231f20;stroke-miterlimit: 10;stroke-width: 0.476999998092651px"/>
    <line x1="351.97" y1="45.25" x2="351.97" y2="57.45" style="fill: none;stroke: #231f20;stroke-miterlimit: 10;stroke-width: 0.476999998092651px"/>
    <line x1="353.32" y1="45.25" x2="353.32" y2="57.45" style="fill: none;stroke: #231f20;stroke-miterlimit: 10;stroke-width: 0.476999998092651px"/>
    <line x1="354.67" y1="45.25" x2="354.67" y2="57.45" style="fill: none;stroke: #231f20;stroke-miterlimit: 10;stroke-width: 0.476999998092651px"/>
    <line x1="356.02" y1="45.25" x2="356.02" y2="57.45" style="fill: none;stroke: #231f20;stroke-miterlimit: 10;stroke-width: 0.476999998092651px"/>
    <line x1="357.37" y1="45.25" x2="357.37" y2="57.45" style="fill: none;stroke: #231f20;stroke-miterlimit: 10;stroke-width: 0.476999998092651px"/>
    <rect x="320.16" y="116.27" width="48.11" height="18.9" style="fill: none;stroke: #231f20;stroke-miterlimit: 10;stroke-width: 0.476999998092651px"/>
    <path d="M764.56,295.37a12.23,12.23,0,0,1-1.68,4.89A5.23,5.23,0,0,0,765.2,302l-1.14,1.15a6.31,6.31,0,0,1-2-1.77,7.42,7.42,0,0,1-2.36,1.82l-1.1-1a1.89,1.89,0,0,1-1.9,1.06l-.53-1.45a4.92,4.92,0,0,0,.79.06c.22,0,.35,0,.53-.43a11.51,11.51,0,0,0,.47-3.62h-1a10.88,10.88,0,0,1-1.59,5.18l-1.39-.37c1.25-2,1.75-3.75,1.77-7.21h-1.26v-1.25h1.75v-1.76l1.4.09c.09,0,.3,0,.3.16a.14.14,0,0,1-.07.11c-.16.11-.19.12-.19.21v1.19h1.84v1.25h-2.44c0,.48,0,.74,0,1.17h1.69a8.43,8.43,0,0,0,2.06-4.14l1.34.39c.11,0,.22.1.22.21s-.09.12-.16.15a.94.94,0,0,0-.2.09s-.29.77-.32.87h3.53v1.26Zm-4.23,1.54a3.55,3.55,0,0,1-.42.53l-.66-.48c0,.52,0,1.35-.15,2.42a14.52,14.52,0,0,1-.43,2.64,6.55,6.55,0,0,0,2.66-1.87,11.2,11.2,0,0,1-1-3.24m1-1.54a11.41,11.41,0,0,0,.81,3.57,9.87,9.87,0,0,0,1-3.57Z" transform="translate(-427.54 -172.05)" style="fill: #231f20"/>
    <path d="M777,302.95c-1.48.06-4.65.07-5,.07-2.41,0-3-.36-3.57-1.28-.41.35-.92.73-1.1.87s-.29.21-.3.26,0,.24-.12.24-.1,0-.16-.15l-.62-1.25a7.1,7.1,0,0,0,1.53-.91v-2.68h-1.23v-1.29h2.7v3.65c0,1.08.91,1.26,2.51,1.26a53.88,53.88,0,0,0,6-.27Zm-8.67-7.83a7,7,0,0,0-1.75-1.6l1-1a5,5,0,0,1,1.74,1.66ZM774,298a4.82,4.82,0,0,0,2.78,2.26l-.92,1a5.31,5.31,0,0,1-2.69-2.32,5.4,5.4,0,0,1-2.41,2.29l-1.12-.93a4.46,4.46,0,0,0,2.49-2.32h-2.3v-1.2h2.58a10,10,0,0,0,0-1H770.3v-1.2h1.19a5.4,5.4,0,0,0-1.13-1.4l1.11-.86a6.73,6.73,0,0,1,1.23,1.64l-.82.62h1.51a19.75,19.75,0,0,0,1.2-2.26l1.27.38s.24.07.24.17a.08.08,0,0,1-.05.06l-.22.11c-.48.84-.63,1.1-.92,1.53h1.49v1.2h-2.52a8.37,8.37,0,0,1,0,1H777V298Z" transform="translate(-427.54 -172.05)" style="fill: #231f20"/>
    <path d="M778.17,302.86v-1.22h4.57v-1h-3.37v-1.23h3.37v-.77c-1.2.1-1.74.11-2.78.15-.29,0-.31,0-.42.1s-.17.15-.24.15-.21-.29-.22-.51l-.06-1h2c.15-.31.19-.4.52-1.19h-1.5v-1.17h6.79v1.17h-1.32a28.11,28.11,0,0,1,2.58,2.07l-1.15.86a12.09,12.09,0,0,0-1-.91c-.67.08-1.36.12-1.92.16l.19,0c.11,0,.16.06.16.15s-.15.17-.21.2v.51h3.24v1.23h-3.24v1h4.56v1.22Zm9.16-6.95v-1.25H779.6V296h-1.34v-2.48h4.4v-1.1l1.29,0c.33,0,.58,0,.58.21a.2.2,0,0,1-.09.15c-.12.09-.17.14-.17.19v.53h4.39v2.41Zm-4,.46c-.29.47-.51.83-.73,1.18,1,0,1.61-.06,2.21-.12l-.46-.31.63-.75Z" transform="translate(-427.54 -172.05)" style="fill: #231f20"/>
    <rect x="18.94" y="297.66" width="16.94" height="19.68" style="fill: none;stroke: #231f20;stroke-miterlimit: 10;stroke-width: 0.476999998092651px"/>
    <path d="M456.66,474.16a2,2,0,0,1,1.4,1.55c.06.23.81,3.82.93,4.33a.59.59,0,1,1-1.11.38c-.43-1.92-.87-3.87-.93-4.11s-.26-.12-.22.06,1.24,5.78,1.24,5.78h-1.32s0,4.24,0,5.3a.65.65,0,1,1-1.31,0v-5.31h-.28s0,5.3,0,5.32a.67.67,0,1,1-1.34,0c0-.9,0-5.27,0-5.27h-1.25l1.24-5.8a.12.12,0,1,0-.24,0c0,.15-.83,3.68-.93,4.08-.2.78-1.37.57-1.09-.47.12-.42,1-4.11,1-4.11.24-.89.39-1.27,1.21-1.62a5.12,5.12,0,0,1,3-.06" transform="translate(-427.54 -172.05)" style="fill: #231f20"/>
    <path d="M456.39,472.36a1.22,1.22,0,1,1-1.22-1.25,1.24,1.24,0,0,1,1.22,1.25" transform="translate(-427.54 -172.05)" style="fill: #231f20"/>
    <line x1="68.13" y1="317.34" x2="68.13" y2="297.66" style="fill: none;stroke: #231f20;stroke-miterlimit: 10;stroke-width: 0.476999998092651px"/>
    <polyline points="68.13 297.76 46.49 297.76 46.59 307.5 60.53 307.5" style="fill: none;stroke: #231f20;stroke-miterlimit: 10;stroke-width: 0.476999998092651px"/>
    <path d="M489.52,476.42c.09-.48.23-1.28,1.9-2.2.94-.51,1.31-.74,1.31-1.22s-.5-.81-1.14-.81c-1,0-1,.71-1,1.06h-.85a1.88,1.88,0,0,1,.35-1.17,2,2,0,0,1,1.58-.63c1.22,0,2,.69,2,1.55,0,.68-.51,1.14-1.49,1.66a3.3,3.3,0,0,0-1.4,1h2.93v.7Z" transform="translate(-427.54 -172.05)" style="fill: #231f20"/>
    <path d="M494.4,478.22c-.13,0-.14,0-.19.05a10.37,10.37,0,0,1-.94.85v.24c0,.11,0,.22.15.22h.18c.2,0,.21-.28.22-.59l.63.26c-.12.92-.35.95-.63.95h-1c-.15,0-.19,0-.22-.07l-.21.37h1.69v2.67h-.69v-.22h-1.85v.22h-.69v-2.67h.72a3.59,3.59,0,0,0,.25-.55l-.79.28a.13.13,0,0,0-.1.09c0,.06-.06.1-.11.1s-.1-.13-.13-.21l-.17-.58.42-.11v-1.56l-.76,1.5a2.39,2.39,0,0,1,.56,1.42,1.08,1.08,0,0,1-1.06,1.13l-.29-.67v1.86h-.67v-5.62h1.86l.36.33v-.47h.65c.07,0,.21,0,.21.09a.12.12,0,0,1,0,.09c-.08.06-.1.08-.1.11v.37h.7v.62h-.7v.62l.62-.16v.61l-.22.08.49.15a.36.36,0,0,1,0-.11v-2.52l.65,0c.17,0,.19,0,.19.09a.1.1,0,0,1-.05.08c-.06.05-.09.07-.09.13v.6a4.42,4.42,0,0,0,.53-.6l.56.29s.13.08.13.14-.05.07-.09.07m-4.9,1.31.53-1.32h-.6v3c.49,0,.67-.05.67-.39a1.85,1.85,0,0,0-.6-1.28m3.93,1.52h-1.85v.43h1.85Zm0,.9h-1.85v.45h1.85Z" transform="translate(-427.54 -172.05)" style="fill: #231f20"/>
    <path d="M493.93,488.57a16.23,16.23,0,0,1-2.35-2.53c-.22-.27-.3-.38-.47-.38s-.33.19-.39.27c-.22.3-.94,1.27-1.3,1.66l-.75-.48a11.87,11.87,0,0,0,1.66-2,1,1,0,0,1,.72-.46c.31,0,.45.15.77.53a14.75,14.75,0,0,0,2.69,2.65Z" transform="translate(-427.54 -172.05)" style="fill: #231f20"/>
    <line x1="46.99" y1="307.5" x2="46.99" y2="317.38" style="fill: none;stroke: #231f20;stroke-miterlimit: 10;stroke-width: 0.476999998092651px"/>
    <line x1="48.34" y1="307.5" x2="48.34" y2="317.38" style="fill: none;stroke: #231f20;stroke-miterlimit: 10;stroke-width: 0.476999998092651px"/>
    <line x1="49.69" y1="307.5" x2="49.69" y2="317.38" style="fill: none;stroke: #231f20;stroke-miterlimit: 10;stroke-width: 0.476999998092651px"/>
    <line x1="51.04" y1="307.5" x2="51.04" y2="317.38" style="fill: none;stroke: #231f20;stroke-miterlimit: 10;stroke-width: 0.476999998092651px"/>
    <line x1="52.39" y1="307.5" x2="52.39" y2="317.38" style="fill: none;stroke: #231f20;stroke-miterlimit: 10;stroke-width: 0.476999998092651px"/>
    <line x1="53.75" y1="307.5" x2="53.75" y2="317.38" style="fill: none;stroke: #231f20;stroke-miterlimit: 10;stroke-width: 0.476999998092651px"/>
    <line x1="55.1" y1="307.5" x2="55.1" y2="317.38" style="fill: none;stroke: #231f20;stroke-miterlimit: 10;stroke-width: 0.476999998092651px"/>
    <line x1="56.45" y1="307.5" x2="56.45" y2="317.38" style="fill: none;stroke: #231f20;stroke-miterlimit: 10;stroke-width: 0.476999998092651px"/>
    <line x1="57.8" y1="307.5" x2="57.8" y2="317.38" style="fill: none;stroke: #231f20;stroke-miterlimit: 10;stroke-width: 0.476999998092651px"/>
    <line x1="59.15" y1="307.5" x2="59.15" y2="317.38" style="fill: none;stroke: #231f20;stroke-miterlimit: 10;stroke-width: 0.476999998092651px"/>
    <polyline points="18.9 283.68 43.54 283.68 43.54 221.71" style="fill: none;stroke: #231f20;stroke-miterlimit: 10;stroke-width: 0.476999998092651px"/>
    <path d="M457.89,411.33a2.08,2.08,0,0,0-.24.16c0,.06-.22.83-.27,1a17.26,17.26,0,0,1-2.7,5.53l-1.6-.67a13.42,13.42,0,0,0,3.14-6.7l1.5.34c.12,0,.3.09.3.2s-.06.1-.12.15m4.75,6.25a16.71,16.71,0,0,0-2.93-6.28l1.3-.73a21.65,21.65,0,0,1,3.16,6.3Zm.1-6.6a5.44,5.44,0,0,0-1-1.12l.66-.55a5.29,5.29,0,0,1,1,1.13Zm1.25-.92a6.26,6.26,0,0,0-1.12-1.15l.66-.55a7.58,7.58,0,0,1,1.09,1.17Z" transform="translate(-427.54 -172.05)" style="fill: #231f20"/>
    <path d="M461.44,425c-.15,3.6-1,4.81-3.36,6.24l-1-1c2.18-1.2,3-2.39,3-5.27h-2.34v2.78h-1.48V425h-2.33v-1.4h2.33V421.2l1.36.15c.28,0,.37.06.37.17s-.26.25-.26.31v1.75h2.34c0-1.13,0-1.85,0-2.57l1.27.17c.26,0,.4.1.4.2s0,.06-.11.13-.14.11-.14.29v1.77h2.07V425Zm1.33-3.79a7,7,0,0,1,1.24.92l-.52.66a7.44,7.44,0,0,0-1.25-.92Zm.77-1.1a6.31,6.31,0,0,1,1.25.89l-.52.66a6.51,6.51,0,0,0-1.24-.92Z" transform="translate(-427.54 -172.05)" style="fill: #231f20"/>
    <path d="M459.69,433.78s-.14.1-.14.15v8.37h-1.67v-9.08l1.55.16c.3,0,.41.09.41.2s0,.12-.15.2" transform="translate(-427.54 -172.05)" style="fill: #231f20"/>
    <polyline points="22.75 221.82 22.75 199.2 73.5 199.2" style="fill: none;stroke: #231f20;stroke-miterlimit: 10;stroke-width: 0.476999998092651px"/>
    <line x1="71.2" y1="199.1" x2="71.2" y2="221.86" style="fill: none;stroke: #231f20;stroke-miterlimit: 10;stroke-width: 0.476999998092651px"/>
    <line x1="69.85" y1="199.1" x2="69.85" y2="221.86" style="fill: none;stroke: #231f20;stroke-miterlimit: 10;stroke-width: 0.476999998092651px"/>
    <line x1="68.5" y1="199.1" x2="68.5" y2="221.86" style="fill: none;stroke: #231f20;stroke-miterlimit: 10;stroke-width: 0.476999998092651px"/>
    <line x1="67.14" y1="199.1" x2="67.14" y2="221.86" style="fill: none;stroke: #231f20;stroke-miterlimit: 10;stroke-width: 0.476999998092651px"/>
    <line x1="65.79" y1="199.1" x2="65.79" y2="221.86" style="fill: none;stroke: #231f20;stroke-miterlimit: 10;stroke-width: 0.476999998092651px"/>
    <line x1="41.17" y1="199.14" x2="41.17" y2="221.86" style="fill: none;stroke: #231f20;stroke-miterlimit: 10;stroke-width: 0.476999998092651px"/>
    <line x1="39.82" y1="199.14" x2="39.82" y2="221.86" style="fill: none;stroke: #231f20;stroke-miterlimit: 10;stroke-width: 0.476999998092651px"/>
    <line x1="38.47" y1="199.14" x2="38.47" y2="221.86" style="fill: none;stroke: #231f20;stroke-miterlimit: 10;stroke-width: 0.476999998092651px"/>
    <line x1="37.12" y1="199.14" x2="37.12" y2="221.86" style="fill: none;stroke: #231f20;stroke-miterlimit: 10;stroke-width: 0.476999998092651px"/>
    <line x1="35.77" y1="199.14" x2="35.77" y2="221.86" style="fill: none;stroke: #231f20;stroke-miterlimit: 10;stroke-width: 0.476999998092651px"/>
    <line x1="34.41" y1="199.14" x2="34.41" y2="221.86" style="fill: none;stroke: #231f20;stroke-miterlimit: 10;stroke-width: 0.476999998092651px"/>
    <line x1="33.06" y1="199.14" x2="33.06" y2="221.86" style="fill: none;stroke: #231f20;stroke-miterlimit: 10;stroke-width: 0.476999998092651px"/>
    <line x1="31.71" y1="199.14" x2="31.71" y2="221.86" style="fill: none;stroke: #231f20;stroke-miterlimit: 10;stroke-width: 0.476999998092651px"/>
    <line x1="30.43" y1="210.51" x2="42.49" y2="210.51" style="fill: none;stroke: #231f20;stroke-miterlimit: 10;stroke-width: 0.476999998092651px"/>
    <path d="M452.16,379.34c.09-.48.23-1.28,1.9-2.2.94-.52,1.31-.74,1.31-1.22s-.5-.81-1.14-.81c-1,0-1,.71-1,1.06h-.85a1.88,1.88,0,0,1,.35-1.17,2,2,0,0,1,1.58-.63c1.22,0,2,.69,2,1.55,0,.67-.51,1.14-1.49,1.66a3.3,3.3,0,0,0-1.4,1h2.93v.7Z" transform="translate(-427.54 -172.05)" style="fill: #231f20"/>
    <path d="M457,381.14c-.13,0-.14,0-.19.05a10.65,10.65,0,0,1-.94.85v.24c0,.11,0,.22.15.22h.18c.2,0,.21-.28.22-.6l.64.26c-.12.92-.35.95-.64.95h-1c-.15,0-.19,0-.22-.07-.11.19-.12.22-.21.37h1.69v2.67h-.69v-.22h-1.85v.22h-.69v-2.67h.72a3.59,3.59,0,0,0,.25-.55l-.79.27a.13.13,0,0,0-.1.09c0,.06-.06.1-.11.1s-.1-.13-.13-.21l-.17-.58.42-.11v-1.56l-.76,1.5a2.39,2.39,0,0,1,.56,1.42,1.08,1.08,0,0,1-1.06,1.13l-.29-.67v1.86h-.67v-5.62h1.86l.36.33v-.47h.65c.07,0,.21,0,.21.09a.12.12,0,0,1,0,.09c-.08.06-.1.08-.1.11V381h.7v.62h-.7v.62l.61-.16v.61l-.22.08.49.15a.35.35,0,0,1,0-.11v-2.52l.66,0c.17,0,.19,0,.19.09a.1.1,0,0,1-.05.08c-.06.05-.09.07-.09.13v.6a4.42,4.42,0,0,0,.53-.6l.56.29s.13.08.13.14-.05.07-.09.07m-4.9,1.31.53-1.32h-.6v3c.49,0,.67-.05.67-.39a1.85,1.85,0,0,0-.6-1.28m3.93,1.52h-1.85v.43h1.85Zm0,.9h-1.85v.45h1.85Z" transform="translate(-427.54 -172.05)" style="fill: #231f20"/>
    <path d="M456.57,391.49a16.23,16.23,0,0,1-2.35-2.53c-.22-.27-.3-.38-.47-.38s-.33.19-.39.27c-.22.3-.94,1.27-1.3,1.66l-.75-.48a11.87,11.87,0,0,0,1.66-2,1,1,0,0,1,.72-.46c.31,0,.45.15.78.53a14.75,14.75,0,0,0,2.69,2.65Z" transform="translate(-427.54 -172.05)" style="fill: #231f20"/>
    <rect x="261.28" y="272.77" width="3.39" height="13.88" style="fill: #fff"/>
    <line x1="240.08" y1="246.46" x2="240.08" y2="273.37" style="fill: #fff"/>
    <line x1="240.08" y1="246.46" x2="240.08" y2="273.37" style="fill: none;stroke: #231f20;stroke-miterlimit: 10;stroke-width: 0.476999998092651px"/>
    <polyline points="262.77 272.48 251.16 272.48 251.16 255.53" style="fill: #fff"/>
    <polyline points="262.77 272.48 251.16 272.48 251.16 255.53" style="fill: none;stroke: #231f20;stroke-miterlimit: 10;stroke-width: 0.476999998092651px"/>
    <line x1="251.07" y1="271.97" x2="240.07" y2="271.97" style="fill: #fff"/>
    <line x1="251.07" y1="271.97" x2="240.07" y2="271.97" style="fill: none;stroke: #231f20;stroke-miterlimit: 10;stroke-width: 0.476999998092651px"/>
    <line x1="251.07" y1="270.62" x2="240.07" y2="270.62" style="fill: #fff"/>
    <line x1="251.07" y1="270.62" x2="240.07" y2="270.62" style="fill: none;stroke: #231f20;stroke-miterlimit: 10;stroke-width: 0.476999998092651px"/>
    <line x1="251.07" y1="269.27" x2="240.07" y2="269.27" style="fill: #fff"/>
    <line x1="251.07" y1="269.27" x2="240.07" y2="269.27" style="fill: none;stroke: #231f20;stroke-miterlimit: 10;stroke-width: 0.476999998092651px"/>
    <line x1="251.07" y1="267.92" x2="240.07" y2="267.92" style="fill: #fff"/>
    <line x1="251.07" y1="267.92" x2="240.07" y2="267.92" style="fill: none;stroke: #231f20;stroke-miterlimit: 10;stroke-width: 0.476999998092651px"/>
    <line x1="251.07" y1="266.56" x2="240.07" y2="266.56" style="fill: #fff"/>
    <line x1="251.07" y1="266.56" x2="240.07" y2="266.56" style="fill: none;stroke: #231f20;stroke-miterlimit: 10;stroke-width: 0.476999998092651px"/>
    <line x1="251.07" y1="265.21" x2="240.07" y2="265.21" style="fill: #fff"/>
    <line x1="251.07" y1="265.21" x2="240.07" y2="265.21" style="fill: none;stroke: #231f20;stroke-miterlimit: 10;stroke-width: 0.476999998092651px"/>
    <line x1="251.07" y1="263.86" x2="240.07" y2="263.86" style="fill: #fff"/>
    <line x1="251.07" y1="263.86" x2="240.07" y2="263.86" style="fill: none;stroke: #231f20;stroke-miterlimit: 10;stroke-width: 0.476999998092651px"/>
    <line x1="251.07" y1="262.51" x2="240.07" y2="262.51" style="fill: #fff"/>
    <line x1="251.07" y1="262.51" x2="240.07" y2="262.51" style="fill: none;stroke: #231f20;stroke-miterlimit: 10;stroke-width: 0.476999998092651px"/>
    <line x1="251.07" y1="261.16" x2="240.07" y2="261.16" style="fill: #fff"/>
    <line x1="251.07" y1="261.16" x2="240.07" y2="261.16" style="fill: none;stroke: #231f20;stroke-miterlimit: 10;stroke-width: 0.476999998092651px"/>
    <line x1="251.07" y1="259.81" x2="240.07" y2="259.81" style="fill: #fff"/>
    <line x1="251.07" y1="259.81" x2="240.07" y2="259.81" style="fill: none;stroke: #231f20;stroke-miterlimit: 10;stroke-width: 0.476999998092651px"/>
    <line x1="251.07" y1="258.45" x2="240.07" y2="258.45" style="fill: #fff"/>
    <line x1="251.07" y1="258.45" x2="240.07" y2="258.45" style="fill: none;stroke: #231f20;stroke-miterlimit: 10;stroke-width: 0.476999998092651px"/>
    <line x1="251.07" y1="257.1" x2="240.07" y2="257.1" style="fill: #fff"/>
    <line x1="251.07" y1="257.1" x2="240.07" y2="257.1" style="fill: none;stroke: #231f20;stroke-miterlimit: 10;stroke-width: 0.476999998092651px"/>
    <line x1="251.07" y1="255.75" x2="240.07" y2="255.75" style="fill: #fff"/>
    <line x1="251.07" y1="255.75" x2="240.07" y2="255.75" style="fill: none;stroke: #231f20;stroke-miterlimit: 10;stroke-width: 0.476999998092651px"/>
    <line x1="240.07" y1="286.52" x2="240.07" y2="307.37" style="fill: #fff"/>
    <line x1="240.07" y1="286.52" x2="240.07" y2="307.37" style="fill: none;stroke: #231f20;stroke-miterlimit: 10;stroke-width: 0.476999998092651px"/>
    <line x1="251.31" y1="286.58" x2="251.31" y2="300.32" style="fill: #fff"/>
    <line x1="251.31" y1="286.58" x2="251.31" y2="300.32" style="fill: none;stroke: #231f20;stroke-miterlimit: 10;stroke-width: 0.476999998092651px"/>
    <line x1="251.32" y1="286.83" x2="262.93" y2="286.83" style="fill: #fff"/>
    <line x1="251.32" y1="286.83" x2="262.93" y2="286.83" style="fill: none;stroke: #231f20;stroke-miterlimit: 10;stroke-width: 0.486999988555908px"/>
    <line x1="240.03" y1="286.89" x2="251.32" y2="286.89" style="fill: #fff"/>
    <line x1="240.03" y1="286.89" x2="251.32" y2="286.89" style="fill: none;stroke: #231f20;stroke-miterlimit: 10;stroke-width: 0.486999988555908px"/>
    <line x1="240.03" y1="288.24" x2="251.32" y2="288.24" style="fill: #fff"/>
    <line x1="240.03" y1="288.24" x2="251.32" y2="288.24" style="fill: none;stroke: #231f20;stroke-miterlimit: 10;stroke-width: 0.486999988555908px"/>
    <line x1="240.03" y1="289.59" x2="251.32" y2="289.59" style="fill: #fff"/>
    <line x1="240.03" y1="289.59" x2="251.32" y2="289.59" style="fill: none;stroke: #231f20;stroke-miterlimit: 10;stroke-width: 0.486999988555908px"/>
    <line x1="240.03" y1="290.94" x2="251.32" y2="290.94" style="fill: #fff"/>
    <line x1="240.03" y1="290.94" x2="251.32" y2="290.94" style="fill: none;stroke: #231f20;stroke-miterlimit: 10;stroke-width: 0.486999988555908px"/>
    <line x1="240.03" y1="292.29" x2="251.32" y2="292.29" style="fill: #fff"/>
    <line x1="240.03" y1="292.29" x2="251.32" y2="292.29" style="fill: none;stroke: #231f20;stroke-miterlimit: 10;stroke-width: 0.486999988555908px"/>
    <line x1="240.03" y1="293.64" x2="251.32" y2="293.64" style="fill: #fff"/>
    <line x1="240.03" y1="293.64" x2="251.32" y2="293.64" style="fill: none;stroke: #231f20;stroke-miterlimit: 10;stroke-width: 0.486999988555908px"/>
    <line x1="240.03" y1="295" x2="251.32" y2="295" style="fill: #fff"/>
    <line x1="240.03" y1="295" x2="251.32" y2="295" style="fill: none;stroke: #231f20;stroke-miterlimit: 10;stroke-width: 0.486999988555908px"/>
    <line x1="240.03" y1="296.35" x2="251.32" y2="296.35" style="fill: #fff"/>
    <line x1="240.03" y1="296.35" x2="251.32" y2="296.35" style="fill: none;stroke: #231f20;stroke-miterlimit: 10;stroke-width: 0.486999988555908px"/>
    <line x1="240.03" y1="297.7" x2="251.32" y2="297.7" style="fill: #fff"/>
    <line x1="240.03" y1="297.7" x2="251.32" y2="297.7" style="fill: none;stroke: #231f20;stroke-miterlimit: 10;stroke-width: 0.486999988555908px"/>
    <line x1="240.03" y1="299.05" x2="251.32" y2="299.05" style="fill: #fff"/>
    <line x1="240.03" y1="299.05" x2="251.32" y2="299.05" style="fill: none;stroke: #231f20;stroke-miterlimit: 10;stroke-width: 0.486999988555908px"/>
    <path d="M663.44,451.31h-1.87a3.27,3.27,0,0,0,1.94,2.4,1.37,1.37,0,0,0-.24.3,3.49,3.49,0,0,1-2-2.41,3.27,3.27,0,0,1-2,2.41,1.19,1.19,0,0,0-.23-.27,3,3,0,0,0,1.92-2.43h-1.84V451h1.9a12.23,12.23,0,0,0,.06-1.4l.45,0s0,.07-.11.08a11.82,11.82,0,0,1-.07,1.29h2Z" transform="translate(-427.54 -172.05)" style="fill: #231f20"/>
    <path d="M663.85,450.4h1.61v.27h-1.61Zm1.5,2v1.4h-1V454h-.28v-1.63Zm0-1.06h-1.28v-.26h1.28Zm-1.28.4h1.28V452h-1.28Zm1.26-1.71h-1.24v-.26h1.24Zm-.25,2.64h-.74v.86h.74Zm3.24.32v.27H668v.43c0,.32-.14.34-.82.34a.94.94,0,0,0-.09-.27h.37c.21,0,.24,0,.24-.09v-.43h-1.61V454h-.28v-.77h-.33V453h.33v-1.23h.93v-.29H665.5v-.26h.72v-.35h-.49v-.25h.49v-.32h-.59V450h.59v-.43l.39,0s0,.05-.09.06V450h.81v-.43l.39,0s0,.05-.09.06V450h.61v.25h-.61v.32h.52v.25h-.52v.35h.68v.26H667v.29h1V453Zm-1.56-1h-.65v.39h.65Zm-.65,1h.65v-.37h-.65Zm.41-2.39h.81v-.32h-.81Zm0,.6h.81v-.35h-.81Zm1.2.8H667v.39h.68Zm-.68,1h.68v-.37H667Z" transform="translate(-427.54 -172.05)" style="fill: #231f20"/>
    <path d="M671,453.59h2v.29h-4.3v-.29h2V453h-1.51v-.29h1.51v-.46h-1.15v-1.15h2.69v1.15h-1.12s0,.05-.09.06v.4h1.59V453H671Zm-1.89-2.94v.75h-.29v-1h.84a4.17,4.17,0,0,0-.41-.61l.28-.11a3.13,3.13,0,0,1,.44.63l-.2.09h.9v-.79l.42,0s0,.06-.1.07v.69h.91l-.18-.08a4.17,4.17,0,0,0,.44-.66l.37.15s0,0-.1,0a4.82,4.82,0,0,1-.42.55h.9v1h-.31v-.75Zm.71,1.3h2.07v-.63h-2.07Z" transform="translate(-427.54 -172.05)" style="fill: #231f20"/>
    <path d="M676.9,450.21a.1.1,0,0,1-.06.05,7.36,7.36,0,0,1-1,1.64,17.53,17.53,0,0,1,1.75,1.62l-.29.25a15.53,15.53,0,0,0-1.68-1.6,7.51,7.51,0,0,1-1.84,1.6,1.86,1.86,0,0,0-.25-.26,6.85,6.85,0,0,0,2.8-3.12H674v-.32h2.53l.06,0Z" transform="translate(-427.54 -172.05)" style="fill: #231f20"/>
    <path d="M682.31,451.59h-1.62l.08,0a.1.1,0,0,1-.09.06,2.59,2.59,0,0,1-1.48,2.18,2.43,2.43,0,0,0-.26-.24,2.27,2.27,0,0,0,1.38-2h-1.86v-.32h3.84Zm-.47-1.35H678.9v-.32h2.93Z" transform="translate(-427.54 -172.05)" style="fill: #231f20"/>
    <path d="M683.13,451.54h4v.34h-3.81a.22.22,0,0,1-.15.09Z" transform="translate(-427.54 -172.05)" style="fill: #231f20"/>
    <path d="M688.09,451.1a6.88,6.88,0,0,1,1.29.43l-.14.3a7,7,0,0,0-1.29-.44Zm.29,2.34a5,5,0,0,0,3.25-2.78l.29.21a5.28,5.28,0,0,1-3.21,2.82.11.11,0,0,1-.05.12Zm.24-3.52a7.66,7.66,0,0,1,1.28.47l-.16.29a7.44,7.44,0,0,0-1.27-.48Zm2.24-.16a3.76,3.76,0,0,1,.62.69l-.19.14a4.17,4.17,0,0,0-.61-.7Zm.66-.29a4.34,4.34,0,0,1,.62.69l-.19.14a4.43,4.43,0,0,0-.61-.69Z" transform="translate(-427.54 -172.05)" style="fill: #231f20"/>
    <path d="M692.47,451.86c.2-.19.69-.71.94-1s.55-.5.79-.5.49.18.92.69a22.34,22.34,0,0,0,1.8,1.91l-.25.3a19.17,19.17,0,0,1-1.72-1.84c-.41-.5-.55-.69-.75-.69s-.34.16-.63.49l-.76.84a.13.13,0,0,1-.05.13Z" transform="translate(-427.54 -172.05)" style="fill: #231f20"/>
    <text transform="translate(243 286.06)" style="font-size: 4.768700122833252px;fill: #231f20;font-family: KozGoPr6N-Regular-83pv-RKSJ-H, Kozuka Gothic Pr6N">↓</text>
    <text transform="translate(243.01 276.63)" style="font-size: 4.768700122833252px;fill: #231f20;font-family: KozGoPr6N-Regular-83pv-RKSJ-H, Kozuka Gothic Pr6N">↑</text>
    <path d="M769.16,365.09h-1.83v.9h1.55v3.63h-.39v-.34h-3.83v.37h-.37V366h1.37v-.9H764v-.37h5.2Zm-.68,3.83v-2.57h-1.17v1.12c0,.13,0,.15.17.15H768c.13,0,.15-.06.17-.47a1.11,1.11,0,0,0,.33.14c0,.54-.14.68-.46.68h-.58c-.41,0-.5-.1-.5-.49v-1.12H766v.25a2,2,0,0,1-.95,1.73,1.24,1.24,0,0,0-.28-.25,1.64,1.64,0,0,0,.86-1.49v-.24h-1v2.57Zm-1.54-3.83H766v.9h.9Z" transform="translate(-427.54 -172.05)" style="fill: #231f20"/>
    <path d="M771.18,367a6.68,6.68,0,0,0-1-1.63l.35-.19a6.8,6.8,0,0,1,1,1.63Zm3.3-1.6c0,.05-.06.08-.15.08a5.68,5.68,0,0,1-3.2,3.91,2,2,0,0,0-.28-.31,5.34,5.34,0,0,0,3.1-3.85Zm-1.45-1.1a4,4,0,0,1,.68.89l-.23.16a4.41,4.41,0,0,0-.65-.89Zm1-.13a4.61,4.61,0,0,1,.68.88l-.24.15a4.36,4.36,0,0,0-.66-.87Z" transform="translate(-427.54 -172.05)" style="fill: #231f20"/>
    <path d="M775.57,366.68h4.78v.41h-4.56a.26.26,0,0,1-.18.11Z" transform="translate(-427.54 -172.05)" style="fill: #231f20"/>
    <path d="M781.74,364.95a7.18,7.18,0,0,1,1.71.78l-.22.36a7.35,7.35,0,0,0-1.67-.79Zm0,4a6.1,6.1,0,0,0,4.07-3.35,2.26,2.26,0,0,0,.37.24,6.55,6.55,0,0,1-4.05,3.43.19.19,0,0,1-.08.13Z" transform="translate(-427.54 -172.05)" style="fill: #231f20"/>
    <path d="M523.8,293.89h4.84v5h-.4v-.27h-4.06v.27h-.38Zm.38,4.4h4.06v-4h-4.06Zm.67-2.36a13.19,13.19,0,0,1,1.35.63,5.94,5.94,0,0,0,1.21-1.86l.45.15s-.06.06-.14.06a6.54,6.54,0,0,1-1.2,1.83,7.9,7.9,0,0,1,1.29.88l-.24.3a7.76,7.76,0,0,0-1.31-.93,6.28,6.28,0,0,1-1.57,1.09,1.89,1.89,0,0,0-.24-.29,6,6,0,0,0,1.48-1,13.47,13.47,0,0,0-1.29-.62Zm.05-1.23a3.56,3.56,0,0,1,.56,1l-.32.14a3.68,3.68,0,0,0-.54-1Zm1.13-.18a3.67,3.67,0,0,1,.45,1.09l-.33.12a4,4,0,0,0-.43-1.1Z" transform="translate(-427.54 -172.05)" style="fill: #231f20"/>
    <path d="M532.1,296.57h2.43v.29h-5.18v-.29h2.37v-.37h-2v-.27h2v-.35h-1.79v-.26h1.79v-.37h-2.35v-.29h2.35v-.36H530V294h1.73v-.42l.5,0s0,.06-.11.08V294h1.65v.63h.74v.29h-.74v.63H532.1v.35h2v.27h-2Zm-2,2.38v-1.8h3.71v1.79h-.38v-.19h-3v.2Zm3.32-1.52h-3v.38h3Zm-3,1h3v-.39h-3Zm1.63-3.82h1.27v-.36H532.1Zm0,.66h1.27v-.37H532.1Z" transform="translate(-427.54 -172.05)" style="fill: #231f20"/>
    <path d="M539,294.28h1.26v.91h-.35v-.58h-2.14v.58h-.34v-.5l-.25.22a6.07,6.07,0,0,0-.84-.88,6.31,6.31,0,0,1-.81,1.11h.66v-.57l.44,0s0,.06-.11.07v.46h.7V297h-1.39v1.09l.85-.2a5.69,5.69,0,0,0-.42-.53l.29-.16a5.1,5.1,0,0,1,.93,1.3l-.31.18a3.68,3.68,0,0,0-.29-.51l-1.6.42a.1.1,0,0,1-.07.09l-.17-.42.43-.09v-3l-.18.18a1.06,1.06,0,0,0-.27-.24,5.15,5.15,0,0,0,1.14-1.55l.46.07a.11.11,0,0,1-.11.08,6.55,6.55,0,0,1,.92.9v-.37h1.21v-.67l.49,0s0,.07-.12.07Zm-2.15,1.17h-1v.47h1Zm-1,1.26h1v-.49h-1Zm2.33-.11v.5H540v1.79h-.36v-.24H538.1v.27h-.36v-3.76h2v1.44Zm1.33-1.12H538.1v.79h1.33Zm.22,1.95H538.1v.88h1.56Z" transform="translate(-427.54 -172.05)" style="fill: #231f20"/>
    <path d="M451,494.37h-1.55a5.66,5.66,0,0,0,2.15,1.34,1.67,1.67,0,0,0-.27.33,6.14,6.14,0,0,1-2.21-1.54v1.63h-.39v-1.6a6.24,6.24,0,0,1-2.17,1.51,1.62,1.62,0,0,0-.27-.32,5.8,5.8,0,0,0,2.11-1.34h-1.46v-2.11h1.79v-.52h-2.3v-.37h2.3v-.55l.51,0s0,.07-.11.08v.45h2.36v.37h-2.36v.52H451Zm-3.7-1.21h1.41v-.59h-1.41Zm0,.9h1.41v-.6h-1.41Zm3.31-1.49h-1.5v.59h1.5Zm0,.89h-1.5v.6h1.5Z" transform="translate(-427.54 -172.05)" style="fill: #231f20"/>
    <path d="M456,491.48h1.26v.91h-.35v-.58h-2.14v.58h-.34v-.5l-.25.22a6.11,6.11,0,0,0-.84-.88,6.24,6.24,0,0,1-.81,1.11h.66v-.57l.44,0s0,.06-.11.07v.46h.7v1.86h-1.39v1.09l.85-.19a5.54,5.54,0,0,0-.42-.53l.29-.16a5.15,5.15,0,0,1,.93,1.3l-.31.18a3.63,3.63,0,0,0-.29-.52l-1.6.42a.1.1,0,0,1-.07.09l-.17-.42.43-.09v-3l-.18.18a1.09,1.09,0,0,0-.27-.24,5.17,5.17,0,0,0,1.14-1.54l.46.07a.11.11,0,0,1-.11.07,6.67,6.67,0,0,1,.92.9v-.37h1.21v-.67l.49,0s0,.07-.11.07Zm-2.15,1.17h-1v.47h1Zm-1,1.26h1v-.49h-1Zm2.33-.11v.5H457v1.79h-.36v-.24h-1.56v.27h-.36v-3.76h2v1.44Zm1.33-1.12h-1.33v.79h1.33Zm.22,1.94h-1.56v.88h1.56Z" transform="translate(-427.54 -172.05)" style="fill: #231f20"/>
    <path d="M575,482.11h-2.09a5.27,5.27,0,0,0,2.28,2.41,1.63,1.63,0,0,0-.29.34,5.76,5.76,0,0,1-2.24-2.44v1.88h1.14v.39h-1.14v1.11h-.4v-1.11H571.1v-.39h1.16v-1.87a6.21,6.21,0,0,1-2.23,2.44,2.09,2.09,0,0,0-.27-.32,5.61,5.61,0,0,0,2.26-2.44H570v-.39h2.31v-1.24l.51,0s0,.07-.11.08v1.13H575Z" transform="translate(-427.54 -172.05)" style="fill: #231f20"/>
    <path d="M579.5,481.15h1.26v.91h-.35v-.58h-2.14v.58h-.34v-.5l-.25.22a6.17,6.17,0,0,0-.84-.88A6.29,6.29,0,0,1,576,482h.66v-.57l.44,0s0,.06-.11.07V482h.7v1.87h-1.39V485l.85-.19a5.71,5.71,0,0,0-.42-.53l.29-.16a5.13,5.13,0,0,1,.93,1.3l-.31.18a3.68,3.68,0,0,0-.29-.51l-1.6.42a.1.1,0,0,1-.07.09l-.17-.42L576,485v-3l-.18.18a1.08,1.08,0,0,0-.27-.24,5.15,5.15,0,0,0,1.14-1.54l.46.07a.11.11,0,0,1-.11.07,6.67,6.67,0,0,1,.92.9v-.37h1.21v-.67l.49,0s0,.07-.12.07Zm-2.15,1.17h-1v.47h1Zm-1,1.26h1v-.49h-1Zm2.33-.11v.5h1.92v1.79h-.36v-.24h-1.56v.27h-.36V482h2v1.44Zm1.33-1.12h-1.33v.79H580Zm.22,1.95h-1.56v.88h1.56Z" transform="translate(-427.54 -172.05)" style="fill: #231f20"/>
    <rect x="18.07" y="156" width="18.12" height="36.57" style="fill: none;stroke: #231f20;stroke-miterlimit: 10;stroke-width: 0.476999998092651px"/>
    <path d="M449.36,321.88h2.14v2.7h-.4v-.34h-1.74v1.91H449v-1.91h-1.72v.37h-.38v-2.72H449v-1l.51,0s0,.07-.11.08Zm-2.12,2H449v-1.6h-1.72Zm2.12,0h1.75v-1.6h-1.75Z" transform="translate(-427.54 -172.05)" style="fill: #231f20"/>
    <path d="M457.47,324.21v.36H455.1v1.11c0,.48-.28.49-1.33.49a1.73,1.73,0,0,0-.17-.38l.73,0c.33,0,.37,0,.37-.12v-1.11h-2.35v-.36h2.35v-.5l.27,0a4.72,4.72,0,0,0,.83-.54h-2.49v-.34h2.89l.07,0,.3.19a.12.12,0,0,1-.09.05,6.14,6.14,0,0,1-1.39.95v.21Zm-4.61-2.06v.92h-.37v-1.27h.89a4.23,4.23,0,0,0-.51-.75l.32-.15a3.75,3.75,0,0,1,.58.82l-.17.09h1.21a4.18,4.18,0,0,0-.45-.88l.33-.13a3.68,3.68,0,0,1,.49.92l-.2.09h1a6.89,6.89,0,0,0,.66-.94,2.39,2.39,0,0,1,.45.19.11.11,0,0,1-.12,0,8.61,8.61,0,0,1-.55.7h.93v1.27H457v-.92Z" transform="translate(-427.54 -172.05)" style="fill: #231f20"/>
    <path d="M459.25,322.92c.18.22.66.9.77,1.07l-.22.3a10.33,10.33,0,0,0-.54-.91v2.76h-.37v-2.82a6.39,6.39,0,0,1-.77,1.72,1.86,1.86,0,0,0-.21-.34,6.83,6.83,0,0,0,.94-2.26H458v-.36h.85v-1.26l.47,0s0,.06-.11.08v1.15H460v.36h-.73ZM463,324.3h-1a5.17,5.17,0,0,0,1.36,1.33,1.62,1.62,0,0,0-.28.29,6.23,6.23,0,0,1-1.3-1.42v1.65h-.37v-1.58A5,5,0,0,1,460,326a1.51,1.51,0,0,0-.27-.3,4.32,4.32,0,0,0,1.49-1.36h-1v-2h1.2v-.49H460v-.34h1.41v-.66l.49,0s0,.07-.11.08v.55h1.46v.34h-1.46v.49H463Zm-2.47-1.13h.85v-.53h-.85Zm0,.83h.85v-.54h-.85Zm2.11-1.36h-.88v.53h.88Zm0,.82h-.88V324h.88Z" transform="translate(-427.54 -172.05)" style="fill: #231f20"/>
    <path d="M474.56,251.36h2.36v.34h-5.06v-.34h2.31v-.57l.5,0s0,.07-.12.08Zm2.12,2.25v2c0,.22-.05.34-.23.41a3.73,3.73,0,0,1-1,.06,1.5,1.5,0,0,0-.13-.37h.6c.33,0,.36,0,.36-.12V254h-3.78v2.16h-.38v-2.5ZM472.85,252H476v1.18h-3.11Zm2.72.29h-2.35v.6h2.35Zm-.06,3.23h-1.86v.3h-.35v-1.52h2.21Zm-.35-.93h-1.52v.64h1.52Z" transform="translate(-427.54 -172.05)" style="fill: #231f20"/>
    <path d="M478.76,252.88c.18.22.66.9.77,1.07l-.22.3c-.1-.2-.35-.61-.54-.92v2.76h-.36v-2.83a6.31,6.31,0,0,1-.78,1.73,1.56,1.56,0,0,0-.21-.34,6.7,6.7,0,0,0,.94-2.26h-.83v-.36h.88v-1.26l.47,0s0,.06-.11.08v1.15h.73v.36h-.73Zm1.7.39a4.62,4.62,0,0,0,.65,1.21,3.78,3.78,0,0,0,.58-1.24l.48.11a.12.12,0,0,1-.13.07,4.26,4.26,0,0,1-.69,1.35,3.67,3.67,0,0,0,1.48,1,1.53,1.53,0,0,0-.27.34,4,4,0,0,1-1.45-1.06,4.3,4.3,0,0,1-1.58,1.06,1.79,1.79,0,0,0-.21-.3,3.94,3.94,0,0,0,1.56-1,5.36,5.36,0,0,1-.74-1.41Zm.29-.88a.11.11,0,0,1-.11,0,4.55,4.55,0,0,1-1,1.24,2.16,2.16,0,0,0-.27-.23,3.69,3.69,0,0,0,.91-1.22Zm2-.73V252h-3.2v-.35h1.39v-.87l.49,0s0,.07-.11.08v.75Zm-.25,2a5.92,5.92,0,0,0-1-1.26l.3-.17a6,6,0,0,1,1,1.24Z" transform="translate(-427.54 -172.05)" style="fill: #231f20"/>
    <path d="M484.47,252.88c.18.22.66.9.77,1.07l-.22.3a10.05,10.05,0,0,0-.54-.91v2.76h-.37v-2.82a6.41,6.41,0,0,1-.77,1.72,1.89,1.89,0,0,0-.21-.34,6.83,6.83,0,0,0,.94-2.26h-.81v-.36h.85v-1.26l.48,0s0,.06-.11.07v1.15h.73v.36h-.73Zm3.77,1.38h-1a5.18,5.18,0,0,0,1.36,1.33,1.65,1.65,0,0,0-.28.29,6.16,6.16,0,0,1-1.3-1.42v1.65h-.37v-1.58a5,5,0,0,1-1.43,1.4,1.54,1.54,0,0,0-.27-.3,4.31,4.31,0,0,0,1.49-1.36h-1v-2h1.2v-.49h-1.41v-.34h1.41v-.66l.49,0s0,.07-.11.08v.55h1.46v.34H487v.49h1.24Zm-2.47-1.13h.85v-.53h-.85Zm0,.83h.85v-.54h-.85Zm2.1-1.36H487v.53h.88Zm0,.82H487V254h.88Z" transform="translate(-427.54 -172.05)" style="fill: #231f20"/>
    <path d="M561.14,218.29a3.67,3.67,0,0,0-.26-.69h-.26a4,4,0,0,1-.55.73,1.82,1.82,0,0,0-.3-.2,3.86,3.86,0,0,0,.86-1.39l.44.14s-.06.06-.12.05-.1.23-.16.35h1.58v.31h-1.11a3.21,3.21,0,0,1,.22.56Zm3.42,1.93h.09l.22,0a.83.83,0,0,1,0,.12c-.15,1.44-.26,1.46-.93,1.46h-.45a.83.83,0,0,0-.11-.36,5.7,5.7,0,0,0,.66,0c.1,0,.16,0,.21-.05s.15-.32.22-.89h-1.8v1.53h-.38v-1.41a5.9,5.9,0,0,1-2.21,1.31,1.87,1.87,0,0,0-.25-.31,5.62,5.62,0,0,0,2.11-1.12H560.7l-.06.21-.38-.06a14.3,14.3,0,0,0,.36-1.4h1.65v-.62h-2v-.33h4.2v1.29h-1.86v.57Zm-2.29-.57h-1.35c0,.19-.09.39-.14.57h1.48Zm1.08-2.77s-.06.05-.11.05-.11.24-.17.35h2v.31h-1.37a3,3,0,0,1,.35.57l-.34.14a3.06,3.06,0,0,0-.43-.71h-.45a3.13,3.13,0,0,1-.62.7,1.92,1.92,0,0,0-.29-.21,3.14,3.14,0,0,0,1-1.34Zm-.7,2.44h1.48v-.62h-1.48Z" transform="translate(-427.54 -172.05)" style="fill: #231f20"/>
    <polygon points="140.61 45.69 140.59 45.69 139.73 46.17 139.59 45.8 140.68 45.19 141.09 45.19 141.09 49.59 140.61 49.59 140.61 45.69" style="fill: #231f20"/>
    <path d="M575.87,218.06a.29.29,0,0,1-.09.09,5.91,5.91,0,0,1-3.1,3.83,1.33,1.33,0,0,0-.29-.31,5.3,5.3,0,0,0,2.88-3.37h-2a5.72,5.72,0,0,1-1.26,1.4,1.87,1.87,0,0,0-.32-.26,5.71,5.71,0,0,0,1.81-2.51l.54.15c0,.06-.09.08-.16.08-.12.26-.25.53-.38.76h2l.07,0Zm-.71-1.32a4.32,4.32,0,0,1,.75.81l-.21.18a4.12,4.12,0,0,0-.74-.81Zm.83-.17a4.14,4.14,0,0,1,.75.81l-.21.18a4.06,4.06,0,0,0-.74-.81Z" transform="translate(-427.54 -172.05)" style="fill: #231f20"/>
    <path d="M581.77,218.78a.14.14,0,0,1-.07.06,3.94,3.94,0,0,1-3.14,3,1.72,1.72,0,0,0-.24-.33A3.54,3.54,0,0,0,581.2,219h-3.79v-.39h4l.06,0Zm-.54-1.22H578v-.38h3.26Z" transform="translate(-427.54 -172.05)" style="fill: #231f20"/>
    <path d="M585.13,216.89l.57,0a.16.16,0,0,1-.16.11v.9h1.53l.09,0,.35.16a.21.21,0,0,1-.06.06,4.08,4.08,0,0,1-2.91,3.8,2.35,2.35,0,0,0-.27-.34,3.6,3.6,0,0,0,2.68-3.26h-3.23v1.42h-.4v-1.81h1.8Z" transform="translate(-427.54 -172.05)" style="fill: #231f20"/>
    <path d="M589.1,217.39a7.1,7.1,0,0,1,1.71.78l-.22.36a7.3,7.3,0,0,0-1.67-.79Zm0,4a6.09,6.09,0,0,0,4.07-3.35,2.24,2.24,0,0,0,.37.23,6.55,6.55,0,0,1-4.05,3.43.19.19,0,0,1-.08.13Z" transform="translate(-427.54 -172.05)" style="fill: #231f20"/>
    <path d="M598.41,220a20.48,20.48,0,0,0-2-.93v2.86H596v-5l.58,0c0,.06-.05.1-.15.12v1.68l.09-.13a19.76,19.76,0,0,1,2.15,1Zm-.6-2.7a5,5,0,0,1,.79.84l-.22.18a4.83,4.83,0,0,0-.78-.84Zm.77-.49a4.88,4.88,0,0,1,.78.84l-.21.18a5.29,5.29,0,0,0-.78-.83Z" transform="translate(-427.54 -172.05)" style="fill: #231f20"/>
    <path d="M641.43,348.33v1.29c0,.3.14.51.56.51H643a5.63,5.63,0,0,0,.69,0c0,.11,0,.3,0,.39a5.58,5.58,0,0,1-.7,0H642c-.7,0-.94-.37-.94-.89v-1.29h-1.64v-.38H641v-1.41H639.8v-.38h3.68v.38h-2v1.41H644v.38Z" transform="translate(-427.54 -172.05)" style="fill: #231f20"/>
    <path d="M641.51,351.56l.59,0c0,.06-.06.1-.15.12v4.68h-.44Z" transform="translate(-427.54 -172.05)" style="fill: #231f20"/>
    <path d="M640.64,358.12c0,.05-.06.09-.13.1a6.06,6.06,0,0,1-1,4,3.28,3.28,0,0,0-.34-.22c.85-.93,1-2.36,1-3.9Zm1.48,3.3a3.77,3.77,0,0,0,1.9-2.3,2.35,2.35,0,0,0,.35.22,4.27,4.27,0,0,1-2.33,2.59.23.23,0,0,1-.1.11l-.3-.38.06-.09v-4.2l.53,0a.13.13,0,0,1-.12.11Z" transform="translate(-427.54 -172.05)" style="fill: #231f20"/>
    <rect x="130.67" y="271.97" width="97.53" height="14.74" style="fill: #fff"/>
    <path d="M549.34,240.06s13.73-19.07,0-42.39" transform="translate(-427.54 -172.05)" style="fill: none;stroke: #231f20;stroke-miterlimit: 10;stroke-width: 0.428999990224838px"/>
    <rect x="68.98" y="284.4" width="18.58" height="12.87" style="fill: #fff"/>
    <line x1="141.3" y1="271.58" x2="240.1" y2="271.58" style="fill: #fff"/>
    <line x1="141.3" y1="271.58" x2="240.1" y2="271.58" style="fill: none;stroke: #231f20;stroke-miterlimit: 10;stroke-width: 0.5px"/>
    <line x1="141.43" y1="287" x2="240.13" y2="287" style="fill: #fff"/>
    <line x1="141.43" y1="287" x2="240.13" y2="287" style="fill: none;stroke: #231f20;stroke-miterlimit: 10;stroke-width: 0.5px"/>
  </g>
  <a xlink:href="/area/courtyards">
    <g id="stage">
      <rect class="stage" x="172.52" y="223.44" width="63.18" height="13.51" style="fill: #e6e6e6;stroke: #231f20;stroke-miterlimit: 10;stroke-width: 0.405000001192093px"/>
      <path d="M609.93,404.65v-.42h-2.41v3h-1.21v-3h-2.39v.46h-1.21V400h3.6V398.2l1.31.12c.06,0,.16,0,.16.12s-.07.11-.11.15-.15.1-.15.16V400h3.62v4.67Zm-3.62-3.53h-2.39v2h2.39Zm3.62,0h-2.41v2h2.41Z" transform="translate(-427.54 -172.05)" style="fill: #231f20"/>
      <path d="M621.06,407h-2.85a5.14,5.14,0,0,1-1.68-.24,3.79,3.79,0,0,1-1.11-.59,5,5,0,0,1-1.18,1l-.95-.68a3.47,3.47,0,0,0,1.35-1.05,6.32,6.32,0,0,1-.88-1.4,7,7,0,0,1-.76,3l-1.19-.26a9.07,9.07,0,0,0,.89-4.39c0-.88-.07-2.29-.17-3.47H616v-.74l1.25.05c.17,0,.37,0,.37.15s-.07.1-.13.14-.13.1-.13.14v.27h3.83v1h-.67l.51.58c0,.05.13.16.13.22a.11.11,0,0,1-.11.11l-.28,0a4,4,0,0,0-.56.17c-.07,0-.42.12-.88.21v1h2v1h-2v1h1.55v1h-4v-1h1.32v-1h-1.6a7.59,7.59,0,0,1-.68,2.27,3.52,3.52,0,0,0,2.24.51,28.66,28.66,0,0,0,3.28-.24Zm-7.35-7.09c.05.79.08,1.63.08,2.15s0,1.21-.05,1.79l.7-.26-.56-.22a11.78,11.78,0,0,0,.89-1.92H614v-.92h1.68l.32.37a9,9,0,0,1-.59,1.58h.89v-.32h1.86v-.81c-.58.07-.93.12-1.59.15l-.34-1a9.82,9.82,0,0,0,3.62-.61Zm1.4,3.42a2.92,2.92,0,0,1-.2.45l-.25-.1a3.26,3.26,0,0,0,.49,1,4.35,4.35,0,0,0,.38-1.31Z" transform="translate(-427.54 -172.05)" style="fill: #231f20"/>
      <path d="M629.89,406.45a16.44,16.44,0,0,0-2.56-2.62,10.12,10.12,0,0,1-3.59,2.7l-.92-1a9.3,9.3,0,0,0,3.35-2.27,8.42,8.42,0,0,0,1.79-2.87h-4v-1.22h4.52A1,1,0,0,0,629,399l.81.89a1.45,1.45,0,0,0-.57.63,12.62,12.62,0,0,1-1.22,2.35,21,21,0,0,1,2.78,2.59Z" transform="translate(-427.54 -172.05)" style="fill: #231f20"/>
      <path d="M637.59,402.48a5.39,5.39,0,0,1-.66,2.72,4.89,4.89,0,0,1-2.33,2l-1-.86c2.1-.76,2.75-1.76,2.8-3.81h-3.53V401.4h7.93v1.08Zm-3.32-3.74h5.08v1.13h-5.08Z" transform="translate(-427.54 -172.05)" style="fill: #231f20"/>
      <rect x="215.47" y="230" width="7.46" height="1.33" style="fill: #231f20"/>
      <path d="M655.07,402.78a7.83,7.83,0,0,0-2.09-1l.58-1.06a7.06,7.06,0,0,1,2.15,1.09Zm3.21,1.78a17,17,0,0,1-3.53,2.32c-.14.07-.16.07-.18.16s-.05.19-.1.19-.21-.22-.24-.28l-.55-1a13.6,13.6,0,0,0,6.19-5.13l.84,1a11.93,11.93,0,0,1-2.42,2.74m-2.14-4.24a6.66,6.66,0,0,0-2.06-.94l.56-1a6.35,6.35,0,0,1,2.12.93Zm3.2-.27a4.36,4.36,0,0,0-1-.79l.44-.58a4.72,4.72,0,0,1,1.06.79Zm1.07-.85a5.27,5.27,0,0,0-1.09-.8l.44-.58a5,5,0,0,1,1.11.8Z" transform="translate(-427.54 -172.05)" style="fill: #231f20"/>
    </g>
  </a>
  <a xlink:href="/goods">
    <g id="goods">
      <rect class="goods" x="295.54" y="300.92" width="14.73" height="58.85" style="fill: #e6e6e6;stroke: #231f20;stroke-miterlimit: 10;stroke-width: 0.458000004291534px"/>
      <path d="M726.9,486.52a.71.71,0,0,0-.12.32s0,.16,0,.19,0,.11-.08.11a.47.47,0,0,1-.19-.09l-.92-.68a14.52,14.52,0,0,0,1.37-3l.91.72c-.29.85-.85,2.18-1,2.46m.19-4a7.66,7.66,0,0,0-1.41-1l.61-.88a8.3,8.3,0,0,1,1.41,1ZM735,479c-.16.06-.17.08-.25.25l-.42.83H735V481h-.9V482h.6v.93h-.6v1h.6v.94h-.6v1h.9v1.05h-2.31v.28h-.85v-5.54l-.13.13-.31-.25v1.67h-1.25v.28h1.23v.8h-1.27c0,.11,0,.26-.05.34h1.49v.8h-1a3.31,3.31,0,0,0,1.2,1.05l-.73.69a6.49,6.49,0,0,1-1.36-1.44,5.23,5.23,0,0,1-1.23,1.56l-.82-.6a3.47,3.47,0,0,0,1.22-1.27H728v-.8h1.17a1,1,0,0,0,.07-.34h-1.1v-.8h1.15v-.28H728v-2h1.24v-.34h-.65v-1.08H728v-.55l-.53.78a5.5,5.5,0,0,0-1.25-.85l.6-.88a6.39,6.39,0,0,1,1.18.78v-.09h.6v-.6l.82,0c.07,0,.18,0,.18.1a.12.12,0,0,1-.05.08c-.06.05-.11.08-.11.13v.24h.67v-.59l.82,0c.17,0,.19.05.19.1a.09.09,0,0,1,0,.08c-.12.09-.12.1-.12.14v.22h.66v.82H731v1.08h-.81v.34h.89a6.38,6.38,0,0,0,1.39-2.75l.89.29c.05,0,.2.08.2.16a.1.1,0,0,1-.07.1c-.14.07-.16.08-.2.2a9.56,9.56,0,0,1-.44,1h.49a11.54,11.54,0,0,0,.69-1.68l.8.31s.23.1.23.2a.09.09,0,0,1-.06.08m-5.71,2.78h-.38v.67h.38Zm.86-2.1h-.67v.42h.67Zm.43,2.1h-.39v.67h.39Zm2.68-.77h-.52V482h.52Zm0,1.88h-.52v1h.52Zm0,1.9h-.52v1h.52Z" transform="translate(-427.54 -172.05)" style="fill: #231f20"/>
      <path d="M728.76,494.22a7.74,7.74,0,0,1-.57-.65v4.17H727.1v-3.06a7.37,7.37,0,0,1-.68,1.17l-.91-.52a7.7,7.7,0,0,0,1.52-3.72h-1.11v-1h1.19v-1.88l1,.07c.08,0,.24,0,.24.1s0,.07-.07.13-.11.08-.11.12v1.46h1.15v1h-1.15a4.2,4.2,0,0,0,1.29,1.82Zm5.73,3.44a6.5,6.5,0,0,1-2.43-1.79,8.53,8.53,0,0,1-2.58,1.79l-.81-.82a7.75,7.75,0,0,0,2.76-1.82,13.3,13.3,0,0,1-.93-1.76,2.27,2.27,0,0,1-.21.31l-1-.41a8.29,8.29,0,0,0,1.24-2.33l.86.35c.08,0,.21.1.21.17s-.08.08-.12.1-.12.05-.14.09a10.05,10.05,0,0,1-.65,1.38l.65-.36a8.24,8.24,0,0,0,.74,1.62,6,6,0,0,0,.72-1.82l.69.15a7.75,7.75,0,0,0-1.08-1.18l.87-.59a13,13,0,0,1,1.84,2.15l-1,.59a6.64,6.64,0,0,0-.36-.63,7.14,7.14,0,0,1-1,2.21,5.74,5.74,0,0,0,2.57,1.68Zm-5-7v-1h2v-1l1.06,0c.16,0,.24,0,.24.13s0,.06-.06.09-.16.12-.16.16v.58H735v1Z" transform="translate(-427.54 -172.05)" style="fill: #231f20"/>
      <path d="M733.52,502.18a10.86,10.86,0,0,1-1.79,3.32,10.7,10.7,0,0,1-2.88,2.5l-1.16-.82a9,9,0,0,0,3.37-2.78,8.49,8.49,0,0,0,1.34-2.63h-2.69a14.31,14.31,0,0,1-2,2.31l-1-.75a9.34,9.34,0,0,0,3-4.05l1,.47c.08,0,.27.13.27.22s-.06.08-.24.15-.24.41-.36.58h2.35a.85.85,0,0,0,.45-.16l.88,1a1.51,1.51,0,0,0-.56.62m-.52-2a4.19,4.19,0,0,0-.91-.87l.55-.43a4.22,4.22,0,0,1,.9.87Zm1.5,0a4.66,4.66,0,0,0-.94-1l.54-.43a4.5,4.5,0,0,1,.93,1Z" transform="translate(-427.54 -172.05)" style="fill: #231f20"/>
      <path d="M729.09,513.1a6.56,6.56,0,0,0-.81-1.68l1-.38a6.71,6.71,0,0,1,.8,1.69Zm5.48-1.88c-.13.05-.13.08-.2.37a7.57,7.57,0,0,1-3.95,5.19l-.85-.76a6.41,6.41,0,0,0,3.87-5.41l1,.3c.14,0,.21.12.21.2s0,.06-.12.1M731,512.6a7,7,0,0,0-.76-1.7l.94-.37a6.79,6.79,0,0,1,.71,1.7Z" transform="translate(-427.54 -172.05)" style="fill: #231f20"/>
      <path d="M733.44,527.33a15.22,15.22,0,0,0-2.54-2.62,10.19,10.19,0,0,1-3.61,2.71l-.93-1a8.92,8.92,0,0,0,5.13-5.12h-4v-1.22H732a.82.82,0,0,0,.49-.29l.87.91a1.31,1.31,0,0,0-.58.66,13.55,13.55,0,0,1-1.21,2.33,19.19,19.19,0,0,1,2.79,2.59Zm.86-6.4a5.64,5.64,0,0,0-.78-1l.51-.41a5.82,5.82,0,0,1,.78,1Zm.67-1.23a5.17,5.17,0,0,0-.8-.88l.5-.42a3.81,3.81,0,0,1,.8.88Z" transform="translate(-427.54 -172.05)" style="fill: #231f20"/>
    </g>
  </a>
  <a xlink:href="/projects/superball">
    <g id="superball">
      <rect class="superball" x="246.7" y="99.91" width="46.07" height="24.78" style="fill: #e6e6e6;stroke: #231f20;stroke-miterlimit: 10;stroke-width: 0.458000004291534px"/>
      <rect x="266.25" y="117.68" width="7.46" height="1.33" style="fill: #231f20"/>
      <path d="M685.65,282.4a16.5,16.5,0,0,0-2.56-2.62,10.12,10.12,0,0,1-3.59,2.7l-.92-1a9.32,9.32,0,0,0,3.35-2.27,8.4,8.4,0,0,0,1.79-2.87h-4v-1.22h4.52a1,1,0,0,0,.55-.23l.81.89a1.45,1.45,0,0,0-.57.63,12.65,12.65,0,0,1-1.22,2.35,21.08,21.08,0,0,1,2.78,2.59Z" transform="translate(-427.54 -172.05)" style="fill: #231f20"/>
      <rect x="261.26" y="105.95" width="7.46" height="1.33" style="fill: #231f20"/>
      <path d="M701.89,276.2s-.22.13-.25.17-.21.76-.25.89a13.82,13.82,0,0,1-2.29,4.63l-1.33-.52a11.52,11.52,0,0,0,2.67-5.7l1.27.28s.25.06.25.17,0,.06-.06.08m3.92,5.36a14.92,14.92,0,0,0-2.45-5.37l1.09-.62a18.92,18.92,0,0,1,2.67,5.4Zm.68-5a1,1,0,1,1,1-1,1,1,0,0,1-1,1m0-1.61a.58.58,0,0,0-.58.59.58.58,0,1,0,1.17,0,.59.59,0,0,0-.59-.59" transform="translate(-427.54 -172.05)" style="fill: #231f20"/>
      <rect x="281.19" y="105.95" width="7.46" height="1.33" style="fill: #231f20"/>
      <path d="M686.22,291c-.14,0-.16.05-.18.09a9.44,9.44,0,0,1-1.8,2.08l-1.07-.67a7.52,7.52,0,0,0,2.11-2.36l.87.57s.2.13.2.21-.07.07-.13.08m1.93-1.72v4c0,1-.31,1.13-2,1.17l-.4-1.22a5,5,0,0,0,.83.08c.35,0,.42-.08.42-.35v-3.71h-3.07v-1.1H687v-1.9l1.11.14c.24,0,.28.1.28.15s0,.08-.15.15-.08.06-.08.12v1.35h3v1.1Zm2.54,3.68a7.78,7.78,0,0,0-1.66-2.17l.81-.7a10,10,0,0,1,1.77,2.13Zm.25-5.35a3.65,3.65,0,0,0-.83-.89l.5-.47a4.82,4.82,0,0,1,.87.86Zm1.1-.83a4.52,4.52,0,0,0-.9-.92l.5-.47a5.13,5.13,0,0,1,.9.93Z" transform="translate(-427.54 -172.05)" style="fill: #231f20"/>
      <path d="M706.39,287.32c-.07.06-.07.08-.07.14a22.39,22.39,0,0,1-.05,2.58,5.35,5.35,0,0,1-2.27,3.81l-1.17-.85a4.12,4.12,0,0,0,2.25-4.09,15.15,15.15,0,0,0-.12-2l1.27.08c.19,0,.3,0,.3.16s0,.05-.15.16m1.94,6.54-.89-.69v-6.37l1.22.15c.1,0,.3,0,.3.14s0,.07-.12.16-.13.12-.13.13v4.59a9.3,9.3,0,0,0,2.77-2.69l.71,1.06a14,14,0,0,1-3.86,3.54" transform="translate(-427.54 -172.05)" style="fill: #231f20"/>
    </g>
  </a>
  <a xlink:href="/projects/concert">
    <g id="concert">
      <path class="concert" d="M463.89,197.67v42.39h76.45s13.84-18.86,0-42.39Z" transform="translate(-427.54 -172.05)" style="fill: #e6e6e6;stroke: #231f20;stroke-miterlimit: 10;stroke-width: 0.428999990224838px"/>
      <path d="M534,210.89v-1h1.15a6.89,6.89,0,0,0-.6-1.34l.74-.32h-1v-.92H536v-1l1.4.07c.11,0,.17,0,.17.11s0,.07-.07.11-.16.12-.16.16v.57h1.47v.92h-1.12l.83.48c.08.05.12.09.12.14s-.05.1-.1.12-.17.05-.21.16a3.72,3.72,0,0,1-.32.77h1v1Zm3.32,4.36V215h-1.76v.34h-1v-3.85h3.95v3.78Zm-1.76-7a7.87,7.87,0,0,1,.61,1.42l-.58.24h1.27a6.84,6.84,0,0,0,.64-1.66Zm1.76,4.27h-1.76v1.39h1.76Zm3.76,1.93-.73-1.07v2h-1.08v-8.57h3.45l.4.58-1.3,2.67a3.32,3.32,0,0,1,1.31,2.43,1.93,1.93,0,0,1-2.06,2m-.37-4.38c.19-.46.57-1.45.84-2.33h-1.2v5.48c.18,0,.47,0,.57,0a1,1,0,0,0,1.09-.92,4.13,4.13,0,0,0-1.3-2.26" transform="translate(-427.54 -172.05)" style="fill: #231f20"/>
      <path d="M489.5,226.74a10.85,10.85,0,0,1-1.78,3.32,10.7,10.7,0,0,1-2.88,2.5l-1.15-.82a9,9,0,0,0,3.37-2.78,8.49,8.49,0,0,0,1.34-2.63h-2.69a14.27,14.27,0,0,1-2,2.31l-1-.74a9.36,9.36,0,0,0,3-4.05l1.05.47c.08,0,.27.13.27.22s-.06.08-.24.15-.24.41-.36.58h2.35a.84.84,0,0,0,.45-.16l.88,1a1.51,1.51,0,0,0-.56.62m-.52-2a4.24,4.24,0,0,0-.91-.87l.55-.43a4.2,4.2,0,0,1,.9.87Zm1.5,0a4.66,4.66,0,0,0-.94-1l.54-.43a4.5,4.5,0,0,1,.93,1Z" transform="translate(-427.54 -172.05)" style="fill: #231f20"/>
      <path d="M495,224.46c-.16.11-.17.13-.17.16v4.43h-1.25v-5l1.25.1c.08,0,.27,0,.27.12s-.06.1-.1.15m4.36-.07c-.14.14-.14.17-.14.46,0,.09,0,.57,0,.67a11.55,11.55,0,0,1-.36,3.89,5.45,5.45,0,0,1-3.08,3.19l-.91-1c2.15-.85,3.06-1.85,3.06-5,0-.25,0-1.71-.07-2.55l1.34.07c.05,0,.26,0,.26.14s0,.07-.11.16" transform="translate(-427.54 -172.05)" style="fill: #231f20"/>
      <rect x="75.07" y="55.52" width="7.46" height="1.33" style="fill: #231f20"/>
      <path d="M511.83,228.26v-1H513a6.77,6.77,0,0,0-.6-1.34l.74-.32h-1v-.92h1.69v-1l1.4.07c.11,0,.17,0,.17.11s0,.07-.07.11-.16.12-.16.16v.57h1.47v.92h-1.12l.83.48c.08.05.12.09.12.14s-.05.1-.1.12-.17.05-.21.16a3.72,3.72,0,0,1-.32.77h1v1Zm3.32,4.36v-.26h-1.76v.34h-1.05v-3.85h3.95v3.78Zm-1.76-7A7.85,7.85,0,0,1,514,227l-.58.24h1.27a6.84,6.84,0,0,0,.64-1.66Zm1.76,4.27h-1.76v1.39h1.76Zm3.76,1.93-.72-1.07v2H517.1v-8.57h3.45l.4.58-1.3,2.67a3.32,3.32,0,0,1,1.31,2.43,1.93,1.93,0,0,1-2.06,2m-.37-4.38c.19-.46.57-1.45.84-2.33h-1.2v5.48c.18,0,.47,0,.57,0a1,1,0,0,0,1.09-.92,4.13,4.13,0,0,0-1.3-2.26" transform="translate(-427.54 -172.05)" style="fill: #231f20"/>
      <path d="M471.95,209.15a12.32,12.32,0,0,1-1.87,3.56,10.2,10.2,0,0,1-2.84,2.49l-1.14-.79a9.16,9.16,0,0,0,3.29-2.74,8.38,8.38,0,0,0,1.39-2.76h-2.69a14.55,14.55,0,0,1-2,2.34l-1-.71a9.15,9.15,0,0,0,2.9-4l1.08.41c.06,0,.27.12.27.22s-.11.11-.26.15-.19.37-.29.57h2.35a1.06,1.06,0,0,0,.46-.2l.85,1a1.09,1.09,0,0,0-.45.5" transform="translate(-427.54 -172.05)" style="fill: #231f20"/>
      <path d="M482,210.5a8.92,8.92,0,0,1-1.73,2.92,7.88,7.88,0,0,1-2.92,1.93l-1-.9a6.84,6.84,0,0,0,2.94-1.86,6,6,0,0,0,1.33-2.23h-5.45v-1.15h6a1.22,1.22,0,0,0,.51-.2l.85.9a1.76,1.76,0,0,0-.51.59m-5.75-3.64h5V208h-5Z" transform="translate(-427.54 -172.05)" style="fill: #231f20"/>
      <path d="M487,210.94a7.31,7.31,0,0,0-2-1l.6-1a6.29,6.29,0,0,1,2.09,1.08Zm3.17,1.87a15.93,15.93,0,0,1-3.6,2.27.17.17,0,0,0-.08.11c0,.15-.06.19-.1.19s-.22-.2-.26-.28l-.56-1a13,13,0,0,0,6.27-5l.83,1a13,13,0,0,1-2.49,2.74m-2-4.26a6.59,6.59,0,0,0-2-1l.6-1.05a6.52,6.52,0,0,1,2,1Z" transform="translate(-427.54 -172.05)" style="fill: #231f20"/>
      <path d="M496.29,211.42a6.55,6.55,0,0,0-.8-1.69l1-.37a6.74,6.74,0,0,1,.81,1.69Zm5.46-1.88c-.09.05-.1.09-.21.5a7.56,7.56,0,0,1-3.91,5l-.84-.75a6.4,6.4,0,0,0,3.86-5.42l1,.32c.14,0,.21.11.21.19s0,.07-.14.12m-3.53,1.36a6.68,6.68,0,0,0-.75-1.7l.93-.36a6.28,6.28,0,0,1,.71,1.7Z" transform="translate(-427.54 -172.05)" style="fill: #231f20"/>
      <path d="M511.81,209.15a12.33,12.33,0,0,1-1.87,3.56,10.19,10.19,0,0,1-2.85,2.49l-1.14-.79a9.16,9.16,0,0,0,3.29-2.74,8.35,8.35,0,0,0,1.38-2.76h-2.69a14.53,14.53,0,0,1-2,2.34l-1-.71a9.14,9.14,0,0,0,2.9-4l1.08.41c.06,0,.27.12.27.22s-.12.11-.26.15-.19.37-.29.57H511a1.06,1.06,0,0,0,.46-.2l.85,1a1.09,1.09,0,0,0-.45.5" transform="translate(-427.54 -172.05)" style="fill: #231f20"/>
      <path d="M516.8,207.65a12.25,12.25,0,0,1-.51,2.11h1.85v4.33h-2v1.1h-1.05V212a4.86,4.86,0,0,1-.63.71l-1-.71a6.61,6.61,0,0,0,2.12-4.4h-1.44v-1.06h4.14v1.06Zm.35,3.15h-1v2.27h1Zm5.1.08v4.47h-1.12v-4.47h-.84a9,9,0,0,1-.48,2.8,4.24,4.24,0,0,1-1.23,1.78l-1-.68a3.59,3.59,0,0,0,1.11-1.25,6.29,6.29,0,0,0,.55-2.66h-.84v-1h.84v-2.2h-.51v-1H523v1h-.75v2.2h.86v1Zm-1.12-3.24h-.76v2.2h.76Z" transform="translate(-427.54 -172.05)" style="fill: #231f20"/>
      <path d="M531.89,215.33h-1.37c-.52,0-1-.2-1-.78,0-.2.23-2.19.26-2.47l-1.23,0a4.88,4.88,0,0,1-3.84,3.3l-.92-1.17c2.1-.23,3.23-1.2,3.5-2.09l-2.71.07V211.1l2.92-.07c0-.18,0-.5,0-1.08l1.19.05v-2h-1.49l.86.39c.08,0,.13.07.13.13a.15.15,0,0,1-.05.11s-.23.08-.26.11a4,4,0,0,1-2.51,2l-.76-1a3.14,3.14,0,0,0,1.6-.78,2.17,2.17,0,0,0,.65-1.05h-1.47v1.2h-1.14v-2.27h3.63v-.61l1.41.08s.2,0,.2.13a.1.1,0,0,1,0,.07s-.19.13-.19.16v.17h3.64v2.18h-.74c-.29,1.17-.59,1.35-1.29,1.35h-1.67a.68.68,0,0,1-.39-.1c0,.27,0,.42-.06.63l2.38-.07c-.21,1.47-.34,2.78-.34,2.83,0,.35.25.37.3.37h.49c.35,0,.39-.29.49-1l1.12.45c-.2,1.15-.42,1.73-1.34,1.73m-.13-7.33h-1.89v1.16a.25.25,0,0,0,.28.26h.49c.25,0,.33-.24.46-.68l.65.21Z" transform="translate(-427.54 -172.05)" style="fill: #231f20"/>
    </g>
  </a>
  <a xlink:href="/projects/ground-game">
    <g id="ground-game">
      <rect class="ground-game" x="258.98" y="0.24" width="64.02" height="29.03" style="fill: #e6e6e6;stroke: #231f20;stroke-miterlimit: 10;stroke-width: 0.476999998092651px"/>
      <path d="M697.6,177.52a12.83,12.83,0,0,1-2.11,3.92,12.64,12.64,0,0,1-3.4,3l-1.36-1a10.68,10.68,0,0,0,4-3.29A10,10,0,0,0,696.3,177h-3.18a16.87,16.87,0,0,1-2.38,2.73l-1.23-.88a11,11,0,0,0,3.54-4.79l1.24.56c.1.05.32.15.32.26s-.07.1-.29.17-.29.48-.42.68h2.78a1,1,0,0,0,.53-.19l1,1.22a1.77,1.77,0,0,0-.66.73m-.62-2.33a5.07,5.07,0,0,0-1.08-1l.65-.51a4.92,4.92,0,0,1,1.07,1Zm1.77,0a5.49,5.49,0,0,0-1.1-1.2l.63-.51a5.33,5.33,0,0,1,1.1,1.2Z" transform="translate(-427.54 -172.05)" style="fill: #231f20"/>
      <path d="M709.6,178.86a10.56,10.56,0,0,1-2,3.45,9.33,9.33,0,0,1-3.45,2.28L703,183.52a8.09,8.09,0,0,0,3.47-2.2,7.12,7.12,0,0,0,1.58-2.63h-6.44v-1.37h7a1.44,1.44,0,0,0,.61-.24l1,1.07a2,2,0,0,0-.61.69m-6.8-4.3h5.89V176H702.8Z" transform="translate(-427.54 -172.05)" style="fill: #231f20"/>
      <path d="M721.6,178.31a10.69,10.69,0,0,1-1.49,3.65,11.29,11.29,0,0,1-2.88,2.87l-1.2-1a8,8,0,0,0,4.16-6.43h-5.57v2.54h-1.43V176h3.57V174l1.32.07c.26,0,.41.06.41.17s0,.06-.09.14-.12.14-.12.2V176h2.22a.82.82,0,0,0,.45-.2l1.05.94a4.63,4.63,0,0,0-.4,1.53" transform="translate(-427.54 -172.05)" style="fill: #231f20"/>
      <path d="M727.49,177.43a11.2,11.2,0,0,0-2.54-1.56l.76-1.17a11.64,11.64,0,0,1,2.61,1.54Zm3.64,3.37a16.7,16.7,0,0,1-4.68,2.77c-.06.17-.09.38-.19.38s-.19-.07-.27-.23l-.87-1.49a11.64,11.64,0,0,0,4.6-2.15,17.33,17.33,0,0,0,3.63-3.8l.86,1.24a17.42,17.42,0,0,1-3.09,3.27" transform="translate(-427.54 -172.05)" style="fill: #231f20"/>
      <path d="M744.58,181.31a12.32,12.32,0,0,0-3.58-2.44v5.3h-1.53v-9.82l1.54.27s.3,0,.3.2-.31.27-.31.34v3.21l.57-.87a14.92,14.92,0,0,1,4,2.58Zm.36-4.26a5.12,5.12,0,0,0-1.12-1.09l.68-.55a5.1,5.1,0,0,1,1.12,1.09Zm1.45-.81a5.17,5.17,0,0,0-1.15-1.12l.65-.55A5.18,5.18,0,0,1,747,175.7Z" transform="translate(-427.54 -172.05)" style="fill: #231f20"/>
      <path d="M707.45,192.2a8,8,0,0,1-3.46,6.72l-1.46-.91a6.55,6.55,0,0,0,2.65-2.69,6.39,6.39,0,0,0,.74-3.13h-2.53a11.37,11.37,0,0,1-1.91,2.41l-1.4-.78a11.76,11.76,0,0,0,3.46-5.78l1.4.51c.1,0,.31.14.31.25s-.11.11-.17.14-.17.1-.21.21a16,16,0,0,1-.71,1.64h6.27v1.41Zm1.6-2a7.26,7.26,0,0,0-1-1.2l.65-.52a6.78,6.78,0,0,1,1,1.22Zm1.53-.43a4.69,4.69,0,0,0-.93-1.18l.65-.53a5.93,5.93,0,0,1,1,1.21Z" transform="translate(-427.54 -172.05)" style="fill: #231f20"/>
      <rect x="285.22" y="20.76" width="8.82" height="1.58" style="fill: #231f20"/>
      <path d="M732.5,198a9,9,0,0,0-.52-1.39c-1.19.2-7.1,1.18-7.18,1.24a2.45,2.45,0,0,0-.19.17.13.13,0,0,1-.1,0c-.1,0-.14-.11-.19-.33l-.3-1.44c.3,0,.66,0,1.38-.1a65,65,0,0,0,2.45-7.33l1.46.36c.11,0,.35.11.35.24s0,.07-.24.2-.15.1-.26.43c-.66,1.92-1.7,4.61-2.24,6,1.76-.2,3.06-.37,4.43-.61a11.33,11.33,0,0,0-1.43-1.92l1.32-.66a16.45,16.45,0,0,1,2.67,4.37Z" transform="translate(-427.54 -172.05)" style="fill: #231f20"/>
    </g>
  </a>
  <a xlink:href="/projects/used-bookstore">
    <g id="used-bookstore">
      <rect class="used-bookstore" x="157.97" y="105.63" width="13.73" height="27.04" style="fill: #e6e6e6;stroke: #231f20;stroke-miterlimit: 10;stroke-width: 0.46399998664856px"/>
      <path d="M593.06,284.81v1.55h2.49V291h-1.3v-.52h-3.77V291h-1.29v-4.65h2.51v-1.55h-3.84v-1.13h3.84v-1.75L593,282c.11,0,.24,0,.24.14s0,.07-.1.16-.12.1-.12.14v1.25h3.82v1.13Zm1.19,2.69h-3.77v1.87h3.77Z" transform="translate(-427.54 -172.05)" style="fill: #231f20"/>
      <path d="M596.14,299.73a8.79,8.79,0,0,1-1.62-1.43v1H593V301h-1.23v-1.69h-1.45v-1h1.45v-2.38a14.07,14.07,0,0,1-3,4l-1-.7a11.2,11.2,0,0,0,3.26-4.39h-3.17v-1.13h3.88V291.9l1,.05c.14,0,.39.05.39.17s0,.07-.09.12-.09.08-.09.13v1.29h3.84v1.13h-3.3a9.57,9.57,0,0,0,3.46,4.1ZM593,296v2.27h1.51A9.12,9.12,0,0,1,593,296" transform="translate(-427.54 -172.05)" style="fill: #231f20"/>
    </g>
  </a>
  <a xlink:href="/projects/yo-yo">
    <g id="yo-yo">
      <rect class="yo-yo" x="241.62" y="128.68" width="47.19" height="12.92" style="fill: #e6e6e6;stroke: #231f20;stroke-miterlimit: 10;stroke-width: 0.470999985933304px"/>
      <polygon points="252.93 139.19 252.93 138.73 247.44 138.73 247.44 137.65 252.93 137.65 252.93 135.86 247.63 135.86 247.63 134.79 252.93 134.79 252.93 133.01 247.52 133.01 247.52 131.93 254.12 131.93 254.12 139.19 252.93 139.19" style="fill: #231f20"/>
      <rect x="257.04" y="134.71" width="7.46" height="1.33" style="fill: #231f20"/>
      <polygon points="272.86 139.19 272.86 138.73 267.37 138.73 267.37 137.65 272.86 137.65 272.86 135.86 267.57 135.86 267.57 134.79 272.86 134.79 272.86 133.01 267.45 133.01 267.45 131.93 274.06 131.93 274.06 139.19 272.86 139.19" style="fill: #231f20"/>
      <rect x="276.98" y="134.71" width="7.46" height="1.33" style="fill: #231f20"/>
    </g>
  </a>
  <a xlink:href="/projects/minitrain">
    <g id="minitrain">
      <rect class="minitrain" x="131.92" y="8.21" width="49.27" height="19.89" style="fill: #e6e6e6;stroke: #231f20;stroke-miterlimit: 10;stroke-width: 0.476999998092651px"/>
      <path d="M568,195.25a22.3,22.3,0,0,0-6.1-2.78l.37-1.38a22.08,22.08,0,0,1,6.18,2.61Zm-.42-7.62a14,14,0,0,0-5.12-1.88l.24-1.41a19.33,19.33,0,0,1,5.25,1.82Zm-.47,3.29a17.68,17.68,0,0,0-4.29-1.77l.31-1.34a17.69,17.69,0,0,1,4.31,1.69Z" transform="translate(-427.54 -172.05)" style="fill: #231f20"/>
      <path d="M572.35,191.88h9.32v1.48h-9.32Zm1.33-5.73h6.71v1.48h-6.71Z" transform="translate(-427.54 -172.05)" style="fill: #231f20"/>
      <path d="M592.65,188.55v-1.46h-3.18v2.11h-1.34v-2.11h-3.2v1.54h-1.29V186.2h4.49v-.55h-3.75v-1h8.86v1h-3.77v.55H594v2.36Zm-.07,6.54h-3.35a1,1,0,0,1-1.12-1.14v-.57h-1.89V194h-1.4v-4.4h8v3.77h-3.36v.25c0,.25.06.37.36.37h2.69c.41,0,.63-.15.71-1.13l1.08.5c-.35,1.55-.63,1.72-1.74,1.72m-7.11-7.59h2.16v.63h-2.16Zm0,1h2.13v.6h-2.13Zm2.62,1.93h-1.89v.58h1.89Zm0,1.4h-1.89v.62h1.89Zm3.36-1.4h-2v.58h2Zm0,1.4h-2v.62h2ZM590,187.5h2.2v.6H590Zm0,1h2.18v.58H590Z" transform="translate(-427.54 -172.05)" style="fill: #231f20"/>
      <path d="M601.26,193.23v1.87h-1.44v-1.87h-4.61v-1.14h4.61v-.63h-3.11V187.1h3.11v-.6h-4.23v-1.12h4.23v-1l1.5.09a.15.15,0,0,1,.16.12c0,.06,0,.1-.1.15a.49.49,0,0,0-.12.16v.48h4.39v1.12h-4.39v.6h3.19v4.35h-3.19v.63h4.65v1.14Zm-1.44-5h-1.76v.57h1.76Zm0,1.57h-1.76v.57h1.76Zm3.29-1.57h-1.85v.57h1.85Zm0,1.57h-1.85v.57h1.85Z" transform="translate(-427.54 -172.05)" style="fill: #231f20"/>
    </g>
  </a>
</svg>
