<svg id="Layer_1" data-name="Layer 1" xmlns="http://www.w3.org/2000/svg" viewBox="0 0 394.29 369">
  <title>2f</title>
  <a xlink:href="/projects/wandervogel">
    <g id="wandervogel">
      <rect class="wandervogel" x="180.79" y="174.5" width="38.79" height="27.54" style="fill: #e6e6e6"/>
      <path d="M187.2,190a.29.29,0,0,1-.13.11,5.77,5.77,0,0,1-3.78,4.55,5.56,5.56,0,0,0-.54-.66,4.7,4.7,0,0,0,3.3-3.48h-3.8v-.76h4.1l.14-.1Z" style="fill: #231f20"/>
      <path d="M192.6,192h-1.37v2c0,.68-.39.76-1.44.76a3.09,3.09,0,0,0-.15-.59h.73a.22.22,0,0,0,.2-.2V192.5a7.22,7.22,0,0,1-1.82,1.5,2.16,2.16,0,0,0-.44-.48,6,6,0,0,0,1.93-1.59h-1.71v-.63h2v-1.06h.8c0,.06,0,.11-.15.12v.92h1.38Z" style="fill: #231f20"/>
      <path d="M193.75,191.46H199v.8h-5a.3.3,0,0,1-.21.12Z" style="fill: #231f20"/>
      <path d="M205,190.55v.75h-1.35a.14.14,0,0,1-.13.08,4.44,4.44,0,0,1-2,3.36,6.32,6.32,0,0,0-.7-.49,3.81,3.81,0,0,0,1.92-3h-1.4a6.21,6.21,0,0,1-.92,1.21,6.23,6.23,0,0,0-.73-.39,6,6,0,0,0,1.66-3l1,.2a.18.18,0,0,1-.18.11,10.62,10.62,0,0,1-.43,1.08Zm-1.23-1.36a5.28,5.28,0,0,1,.74.89l-.39.28a5.89,5.89,0,0,0-.71-.89Zm1-.32a5.22,5.22,0,0,1,.75.87l-.39.29a4.8,4.8,0,0,0-.71-.88Z" style="fill: #231f20"/>
      <path d="M207.66,190.15a.17.17,0,0,1-.16.14,7.41,7.41,0,0,1-1.07,4.45,7.83,7.83,0,0,0-.71-.41c.84-1,1-2.62,1-4.24Zm1.62,3.29a3.68,3.68,0,0,0,1.65-2.3,4.57,4.57,0,0,0,.71.44,4.73,4.73,0,0,1-2.53,2.9.46.46,0,0,1-.15.16l-.6-.7.1-.13V189.3l1,0a.18.18,0,0,1-.18.15Z" style="fill: #231f20"/>
      <path d="M213.81,191.33a7.16,7.16,0,0,0,.32-1.06l.79.22s-.08.08-.16.08a8.37,8.37,0,0,1-.32.8h.78v.69h-3.29v-.69h2Zm1.33-1.71v.66h-3.07v-.66h1.16V189h.9c0,.06-.05.1-.16.12v.47ZM212.3,195v-2.48h2.64v2.45h-.74v-.28H213V195Zm.35-3.59a3.73,3.73,0,0,0-.21-.9l.61-.13a3.28,3.28,0,0,1,.25.88Zm1.54,1.76H213V194h1.2Zm3.22-3.81.48.18a.13.13,0,0,1-.06.1c-.19.54-.44,1.21-.73,1.89a2.32,2.32,0,0,1,.78,1.5c0,1.18-.81,1.18-1.19,1.18h-.21a1.68,1.68,0,0,0-.22-.72h.47c.38,0,.42-.25.42-.5a2.52,2.52,0,0,0-.8-1.35c.21-.56.39-1.09.53-1.56h-.71v4.89h-.75v-5.6h2Z" style="fill: #231f20"/>
      <path d="M193.24,181.09a.21.21,0,0,1-.12.11c-.26,2.36-1,3.74-3.18,4.64a4.7,4.7,0,0,0-.58-.61,4,4,0,0,0,2.85-3.64h-3v1.63h-.78v-2.37h4.07l.09-.06Z" style="fill: #231f20"/>
      <path d="M194.59,180.75a8.18,8.18,0,0,1,1.85.83l-.42.72a9.22,9.22,0,0,0-1.81-.87Zm-.22,4.28a6.48,6.48,0,0,0,4.33-3.64,4.78,4.78,0,0,0,.74.47,7.31,7.31,0,0,1-4.39,3.81.22.22,0,0,1-.11.16Z" style="fill: #231f20"/>
      <path d="M204.95,181.54a.18.18,0,0,1-.1.09,9,9,0,0,1-.87,2c.23.13.53.32.71.45l-.46.75c-.19-.15-.51-.37-.73-.51a5.87,5.87,0,0,1-2.12,1.71,2.47,2.47,0,0,0-.63-.6,5.61,5.61,0,0,0,2-1.51,9.06,9.06,0,0,0-1.09-.54l.45-.6a9.87,9.87,0,0,1,1.12.48,5.65,5.65,0,0,0,.56-1.21h-1.73a6.94,6.94,0,0,1-1.33,1.55,4.8,4.8,0,0,0-.66-.5,5.71,5.71,0,0,0,1.9-2.72l1,.26c0,.06-.1.1-.21.1a5.67,5.67,0,0,1-.26.57h1.74Zm-.74-1.4a4.89,4.89,0,0,1,.74.86l-.37.28a5.79,5.79,0,0,0-.73-.87Zm.91-.16a5.09,5.09,0,0,1,.75.84l-.38.29a4.84,4.84,0,0,0-.71-.85Z" style="fill: #231f20"/>
      <path d="M206.22,182.63h5.28v.8h-5a.31.31,0,0,1-.21.12Z" style="fill: #231f20"/>
    </g>
  </a>
  <a xlink:href="/projects/filmdrama">
    <g id="filmdrama">
      <polyline class="filmdrama" points="100.09 174.5 138.07 174.5 138.07 202.22 100.09 202.22" style="fill: #e6e6e6;stroke: #231f20;stroke-miterlimit: 10;stroke-width: 0.4959999918937683px"/>
      <path d="M108.82,183.34H107.3a3,3,0,0,0,1.56,1.79,3.13,3.13,0,0,0-.54.69,3.45,3.45,0,0,1-1.57-1.82,3.3,3.3,0,0,1-2,1.77,2.9,2.9,0,0,0-.55-.65,2.78,2.78,0,0,0,1.93-1.81h-1.5v1.12h-1.4V185h-.76v-5.36h2.16v2.88H105v-2.27h1.28v-1l1,.06q0,.11-.18.12v.79h1.37v2.27h.35Zm-4.93-2.89h-.64v1.25h.64Zm-.64,3.27h.64v-1.29h-.64Zm2.51-1.12h.52V181h-.53Zm1.94-1.53h-.6v1.57h.65Z" style="fill: #231f20"/>
      <path d="M109.3,179.69h6.25v.77h-2.73V181h1.26v3.16h-3.33V181H112v-.56h-2.68Zm5.23,4.9v-3.67h1c0,.07-.06.11-.19.13v4.68h-.8v-.41h-4.21v.41h-.81v-4.86h1c0,.07-.06.11-.18.13v3.49Zm-3.09-2.31h.6v-.59h-.6Zm0,1.22h.6v-.59h-.6Zm1.92-1.81h-.61v.59h.61Zm0,1.22h-.61v.59h.61Z" style="fill: #231f20"/>
      <path d="M121.26,183.38a19.62,19.62,0,0,0-2.16-1v3.21h-.92v-6.07l1.13.06c0,.08-.06.15-.21.17v2l.17-.23a21.66,21.66,0,0,1,2.48,1.08Zm-.55-3.47a6,6,0,0,1,.86.94l-.4.34a6.42,6.42,0,0,0-.84-1Zm1-.61a5.42,5.42,0,0,1,.86.92l-.4.33a5.91,5.91,0,0,0-.84-.93Z" style="fill: #231f20"/>
      <path d="M128.92,181.75a.23.23,0,0,1-.13.1,4.8,4.8,0,0,1-3.76,3.71,3.45,3.45,0,0,0-.52-.69,4,4,0,0,0,3.21-2.57h-4.18v-.81h4.55l.1-.07Zm-.77-1.23h-4v-.79h4Z" style="fill: #231f20"/>
      <path d="M136.14,180.75a.19.19,0,0,1-.15.11,12.08,12.08,0,0,1-2.55,2.6,11.36,11.36,0,0,1,1.22,1.12l-.77.67a13.22,13.22,0,0,0-3-2.49l.61-.62a12,12,0,0,1,1.28.82,9.89,9.89,0,0,0,1.85-1.82h-4.46v-.82h5.15l.12-.07Z" style="fill: #231f20"/>
      <path d="M116,191.16v5.23c0,.83-.35,1-1.59,1a2.82,2.82,0,0,0-.28-.82h.66c.35,0,.39,0,.39-.17V192h-4.29v5.4h-.8v-6.18Zm-1.24,2h-3.47v-.7h3.47Zm-.35,2.84h-2v.47h-.76v-2.8h2.79Zm-.77-1.65h-1.27v1h1.27Z" style="fill: #231f20"/>
      <path d="M119.09,192.2l.44.1v.14a9.51,9.51,0,0,1-.58,2.91,5.2,5.2,0,0,1,.76.73l-.5.67a5.39,5.39,0,0,0-.63-.66,3.77,3.77,0,0,1-1.26,1.28,2.71,2.71,0,0,0-.5-.65,2.93,2.93,0,0,0,1.14-1.15l-.38-.29-.06.22-.68-.35c.16-.57.33-1.35.5-2.16h-.59v-.77h.69c.09-.48.17-1,.24-1.38l.94.1c0,.06-.06.1-.18.11l-.23,1.17h.73Zm-1,.79c-.11.52-.23,1-.34,1.53l.52.35a8.39,8.39,0,0,0,.41-1.87Zm5.16.88v.79h-1.5v1.78c0,.68-.23.93-1.53.92a3.79,3.79,0,0,0-.29-.81h.69c.23,0,.29,0,.29-.12v-1.77h-1.47v-.79h1.47V192.8h.26a6.08,6.08,0,0,0,.67-.86h-2.15v-.77h2.89l.64.39a.25.25,0,0,1-.17.1,10.35,10.35,0,0,1-1.3,1.58v.66Z" style="fill: #231f20"/>
      <path d="M125.26,193.69v-.51a8.56,8.56,0,0,1-1.19.69,3.16,3.16,0,0,0-.48-.68,6.9,6.9,0,0,0,2.84-2.36l1.12.06a.2.2,0,0,1-.18.14,6.59,6.59,0,0,0,2.85,2,3.69,3.69,0,0,0-.54.76,8.78,8.78,0,0,1-1.18-.68v.56ZM124,195v-.77h5.73V195h-3.24l.21.07q0,.08-.21.08a11.68,11.68,0,0,1-.55,1.1l2.17-.06a9.43,9.43,0,0,0-.73-.75l.73-.38a9,9,0,0,1,1.59,1.79l-.77.47a5,5,0,0,0-.3-.46c-1.56.1-3.16.18-4.22.23a.15.15,0,0,1-.13.11l-.29-.91h1a11.25,11.25,0,0,0,.55-1.27Zm4.2-2.11a6.5,6.5,0,0,1-1.35-1.29,6.28,6.28,0,0,1-1.28,1.29Z" style="fill: #231f20"/>
    </g>
  </a>
  <a xlink:href="/area/west">
    <g id="west">
      <rect class="west" x="271.9" y="211.6" width="38.03" height="30.31" style="fill: #e6e6e6;stroke: #231f20;stroke-miterlimit: 10;stroke-width: 0.5px"/>
      <path d="M283.47,226.49H281a4.06,4.06,0,0,0,2.63,3,3.62,3.62,0,0,0-.6.79,4.45,4.45,0,0,1-2.62-2.8,4.51,4.51,0,0,1-2.63,2.81,2.6,2.6,0,0,0-.61-.73,3.86,3.86,0,0,0,2.57-3.06h-2.44v-.86h2.56v-1.86l1.1.07c0,.08-.07.13-.19.15a15.43,15.43,0,0,1-.06,1.65h2.72Z" style="fill: #231f20"/>
      <path d="M284,225h2.42v.66H284Zm2.24,3V230H285v.26h-.68V227.9Zm0-1.32h-1.91V226h1.91Zm-1.91.34h1.91v.63h-1.91Zm1.88-2.3h-1.84V224h1.84Zm-.64,3.93H285v.8h.58Zm5,.06v.65h-.44v.29c0,.65-.28.73-1.35.73a2.27,2.27,0,0,0-.19-.64h.66c.09,0,.12,0,.12-.11v-.28h-1.81v1h-.7v-1h-.44v-.65h.44v-1.74h1.24v-.25h-1.68V226h.9v-.3h-.6v-.57h.6v-.27h-.73v-.59h.73v-.49l.91.06c0,.06-.06.1-.17.12v.32h.81v-.49l.92.06c0,.06-.06.1-.17.12v.31h.78v.59h-.78v.27h.64v.57h-.64v.3h.91v.63h-1.74v.25h1.33v1.74Zm-2.45-1.17h-.55v.32h.55Zm-.55,1.17h.55v-.33h-.55Zm.5-3.49h.81v-.27h-.81Zm0,.88h.81v-.3h-.81Zm1.3,1.45h-.58v.32h.58Zm-.58,1.17h.58v-.33h-.58Z" style="fill: #231f20"/>
      <path d="M296.28,228.35l.71.27a.17.17,0,0,1-.18.07,4,4,0,0,1-.72.64.84.84,0,0,0,.51.2c.17,0,.23-.12.26-.52a1.7,1.7,0,0,0,.59.33c-.12.79-.35,1-.9,1a1.68,1.68,0,0,1-1.18-.55,7.68,7.68,0,0,1-1.44.52,4,4,0,0,0-.37-.61,6.81,6.81,0,0,0,1.39-.45,4.22,4.22,0,0,1-.36-.84h-1.36v.28l1-.06v.55l-1,.08v.35c0,.61-.21.73-1.48.73a2.71,2.71,0,0,0-.23-.64H292c.45,0,.45,0,.45-.13v-.27l-1,.07a.15.15,0,0,1-.12.1l-.23-.72,1.4-.06v-.31h-1.38v-.61h1.38v-.27c-.37,0-.74.06-1.09.07a2,2,0,0,0-.17-.5,18.94,18.94,0,0,0,2.32-.27H291v-.63h2.71v-.26h-2v-.57h2v-.25H291.4v-.62h1.25a2.66,2.66,0,0,0-.28-.44l.73-.23a2.24,2.24,0,0,1,.43.65h1.36a4.53,4.53,0,0,0,.35-.68l1,.27c0,.06-.08.08-.18.08s-.17.23-.27.35H297v.62h-2.38v.25h2v.57h-2v.26h2.81v.63h-3.7l.47.45h-.16c-.16,0-.52.1-.84.14v.35h1.2a7.51,7.51,0,0,1-.11-.9h1c0,.07-.06.12-.19.13a3.72,3.72,0,0,0,.1.74h1.08a4.84,4.84,0,0,0-.86-.5l.46-.46a4.61,4.61,0,0,1,1.08.61l-.34.35h.65v.61Zm-.84,0a2.58,2.58,0,0,0,.22.45,2.47,2.47,0,0,0,.51-.45Z" style="fill: #231f20"/>
      <path d="M301.5,229.36h2.69v.73H298v-.73h2.62v-.51H298.7v-.71h1.95v-.48l1,.06c0,.07-.06.11-.19.13v.28h2v.71h-2Zm-2.7-3.09v-.42h-.64v-1.5h2.48v-.59l1,.06c0,.07-.06.11-.19.13v.4H304v1.5h-.66v.42h-.94a7.91,7.91,0,0,1,1.33,1.15l-.59.45a3.37,3.37,0,0,0-.31-.34c-1.43.08-2.91.13-3.91.17a.13.13,0,0,1-.12.1l-.33-.84h.95a7.68,7.68,0,0,0,.35-.69Zm4.39-1.17H299v.47h4.22Zm-2.36,1.17h0a.36.36,0,0,1-.19.07,6.69,6.69,0,0,1-.36.59h1.84l-.48-.37.36-.26Z" style="fill: #231f20"/>
    </g>
  </a>
  <a xlink:href="/area/auditorium">
    <g id="auditorium">
      <rect class="auditorium" x="111.46" y="230.12" width="116.19" height="67.62" style="fill: #e6e6e6;stroke: #231f20;stroke-miterlimit: 10;stroke-width: 0.4950000047683716px"/>
      <path d="M164.91,263.81h-3.3a5.41,5.41,0,0,0,3.51,4,4.81,4.81,0,0,0-.8,1.06,5.94,5.94,0,0,1-3.49-3.74,6,6,0,0,1-3.51,3.75,3.46,3.46,0,0,0-.81-1,5.16,5.16,0,0,0,3.43-4.09h-3.26v-1.14h3.41c.07-.82.06-1.66.07-2.49l1.46.09c0,.1-.1.16-.26.19a20.6,20.6,0,0,1-.08,2.2h3.63Z" style="fill: #231f20"/>
      <path d="M165.49,261.74h3.26v.87h-3.22Zm3,3.93v2.83h-1.74v.35h-.91v-3.18Zm0-1.77h-2.54v-.83h2.54Zm-2.54.46h2.54v.84h-2.54Zm2.5-3.07H166v-.84h2.45Zm-.85,5.25h-.85v1.07h.77Zm6.68.08v.86h-.58v.39c0,.87-.38,1-1.79,1a3.14,3.14,0,0,0-.25-.86h.88c.11,0,.16,0,.16-.15v-.38h-2.41v1.36h-.93V267.5h-.61v-.86h.59v-2.32H171V264h-2.25v-.84H170v-.41h-.8V262h.8v-.36h-1v-.79h1v-.65l1.22.07c0,.08-.07.13-.23.16v.42H172v-.65l1.22.07c0,.08-.07.13-.23.17v.41h1v.79h-1V262h.85v.76H173v.41h1.21V264h-2.32v.33h1.78v2.32ZM171,265.06h-.73v.43H171Zm-.73,1.56H171v-.44h-.73ZM171,262H172v-.36H171Zm0,1.17H172v-.41H171Zm1.74,1.93h-.77v.43h.77Zm-.77,1.56h.77v-.44h-.77Z" style="fill: #231f20"/>
      <path d="M179.39,267.64h3.68v1h-8.4v-1h3.62v-.74h-2.67v-1h2.67v-.57h-2V263h5.21v2.43h-1.85c0,.07-.1.11-.24.14V266h2.84v1h-2.84Zm-3.58-5.19v1.24h-1v-2.2h1.32a5.85,5.85,0,0,0-.54-.86l1-.39a4.83,4.83,0,0,1,.74,1.13l-.26.11h1.22v-1.32l1.36.07c0,.1-.07.15-.24.18v1.07h1.25l-.22-.09a6.74,6.74,0,0,0,.68-1.17l1.27.46c0,.07-.13.1-.26.1a6.28,6.28,0,0,1-.52.7H183v2.2H182v-1.24Zm1.48,2.08h3.09v-.73h-3.09Z" style="fill: #231f20"/>
    </g>
  </a>
  <a xlink:href="/area/east">
    <g id="east">
      <rect class="east" x="10.1" y="245.34" width="29.7" height="115.26" style="fill: #e6e6e6;stroke: #231f20;stroke-miterlimit: 10;stroke-width: 0.5px"/>
      <path d="M24.33,289.45a.26.26,0,0,1-.15.13,9.59,9.59,0,0,1-1,2c.38.29,1,.82,1.21,1l-.63.92a8.6,8.6,0,0,0-.66-.76v3.35H22V293a6.24,6.24,0,0,1-.87.74,4.18,4.18,0,0,0-.51-1A6.77,6.77,0,0,0,23,290.12H20.89v-1H22v-1.7l1.32.07c0,.09-.07.15-.24.17v1.45h.59Zm2,3.94c0,.06-.1.12-.22.14a3.2,3.2,0,0,1-1.92,2.57,2.94,2.94,0,0,0-.64-.85,2.18,2.18,0,0,0,1.54-2Zm1.39,1.27c0,.26,0,.28.17.28h.41c.16,0,.19-.12.22-1a2.92,2.92,0,0,0,.94.42c-.1,1.25-.37,1.56-1,1.56h-.71c-.88,0-1.07-.32-1.07-1.28V293h-2v-5.27h4.07V293H27.67Zm-2.1-5.38h2.11v-.62H25.62Zm0,1.44h2.11v-.62H25.62Zm0,1.45h2.11v-.63H25.62Z" style="fill: #231f20"/>
      <path d="M28.44,302.39a6.18,6.18,0,0,1,1.07,2l-.9.44a4.91,4.91,0,0,0-.35-.92c-.11.92-.37,1.16-1,1.16h-.73c-.83,0-1-.29-1-1.14v-1.44l1,.06a5.92,5.92,0,0,0-.78-.55l.47-.39H24.4V298.9h1.84v-.61h-2v-.4h-.33v6.35a4.11,4.11,0,0,0,.62-1.77l.87.27a4.66,4.66,0,0,1-.7,2l-.79-.46v.81h-1v-1.46l-1.91.27a.19.19,0,0,1-.17.14l-.26-1.14.61-.06v-5h-.51v-1h3.66v.46h1.9v-.83l1.3.07c0,.09-.08.14-.24.17v.58h2v.93h-2v.61h1.88v2.71H26.75a4.93,4.93,0,0,1,1.08.87l-.7.64a3,3,0,0,0-.41-.43h-.15v1.19c0,.22,0,.26.19.26h.45c.16,0,.2-.09.23-.79a2.49,2.49,0,0,0,.74.34,7,7,0,0,0-.56-.91Zm-5.52-4.52h-.78v1h.78Zm0,1.88h-.78v1h.78Zm-.78,3,.78-.07V301.6h-.78Zm3.61-3h-.51v1h.51Zm1.22,0h-.52v1H27Zm.71,1h.53v-1h-.46Z" style="fill: #231f20"/>
      <path d="M26.55,312.87c0,.24.06.27.41.27h1c.29,0,.35-.09.39-.82a3.12,3.12,0,0,0,1,.39c-.12,1.14-.41,1.41-1.24,1.41H26.87c-1.11,0-1.36-.3-1.36-1.23v-.73h-.94c-.28,1-.76,1.68-3.26,2a3,3,0,0,0-.55-1c1.91-.16,2.45-.46,2.65-1.08h-.86V308.3h5.08v3.86h-1Zm-4.44-5V309h-1v-2h1.18a6.3,6.3,0,0,0-.66-.93l1-.41a5.37,5.37,0,0,1,.85,1.14L23,307h1.62a7.63,7.63,0,0,0-.61-1.15l1-.33a6.43,6.43,0,0,1,.69,1.22L25,307h1.47a8.56,8.56,0,0,0,.9-1.41l1.27.48c0,.08-.16.1-.26.09a7.51,7.51,0,0,1-.69.86h1.45v2H28.05V307.9Zm1.42,1.51h3V309h-3Zm0,1.06h3V310h-3Zm0,1.06h3V311h-3Z" style="fill: #231f20"/>
      <path d="M25.56,322h3.59v1H20.93v-1h3.49v-.68h-2.6v-1h2.6v-.64l1.39.08c0,.09-.07.15-.25.17v.38h2.67v1H25.56ZM22,317.89v-.56H21.1v-2h3.31v-.78l1.39.07c0,.09-.07.15-.25.17v.53h3.39v2h-.88v.56H26.81a10.52,10.52,0,0,1,1.77,1.54l-.83.58a4.19,4.19,0,0,0-.41-.46c-1.91.1-3.88.17-5.21.22a.17.17,0,0,1-.16.14l-.44-1.11h1.26a9.63,9.63,0,0,0,.47-.92Zm5.85-1.56H22.18V317h5.63Zm-3.15,1.56h.06c0,.06-.12.09-.25.09a8,8,0,0,1-.48.79l2.46-.06-.64-.5.48-.35Z" style="fill: #231f20"/>
    </g>
  </a>
  <a xlink:href="/projects/calligraphy">
    <g id="calligraphy">
      <rect class="calligraphy" x="0.34" y="174.5" width="35.42" height="39.34" style="fill: #e6e6e6"/>
      <path d="M14.59,188.88h2.8v.57H11v-.57h2.7v-.25H11.56v-.5h2.19v-.24h-2v-.48h2v-.26H11.07v-.57h2.68v-.26H11.81v-.48h1.94v-.44l1,.06c0,.08-.06.11-.19.13v.26h1.85v.74h.89v.57h-.89v.75H14.56v.24h2.23v.5H14.56ZM12,191.94v-2.26h4.62v2.26h-.82v-.2h-3v.21Zm3.8-1.74h-3v.26h3Zm-3,1h3v-.27h-3Zm1.84-4.64h1v-.26h-1Zm0,.83h1v-.26h-1Z" style="fill: #231f20"/>
      <path d="M19.56,188.11v2.2c.43.7,1.26.7,2.47.7a22,22,0,0,0,2.37-.08,4.39,4.39,0,0,0-.26.84H22.23c-1.55,0-2.37,0-3-.79-.3.27-.61.54-.88.75a.12.12,0,0,1-.1.14h0l-.42-.91a9.15,9.15,0,0,0,1-.65v-1.46H18v-.77Zm-1-2.54a5.27,5.27,0,0,1,1.17,1l-.66.55A5.35,5.35,0,0,0,18,186Zm1.77,1.78h1a3.12,3.12,0,0,0,.08-.37H19.75v-.67h1a3.28,3.28,0,0,0-.39-.64l.64-.27a3,3,0,0,1,.52.84l-.16.07h.91a6.26,6.26,0,0,0,.44-.88l.93.26c0,.06-.08.08-.19.08a6.64,6.64,0,0,1-.44.57h1.17V187H22.26l-.16.37h1.51v3.41h-.82v-.15H21.06v.15h-.79Zm2.51.61H21.11v.32h1.73Zm-1.73,1.18h1.73v-.32H21.11Zm0,.87h1.73v-.33H21.11Z" style="fill: #231f20"/>
      <path d="M13.75,197v5.23c0,.83-.35,1-1.59,1a2.76,2.76,0,0,0-.28-.82h.66c.35,0,.39,0,.39-.17V197.8H8.64v5.4h-.8V197Zm-1.24,2H9v-.7h3.46Zm-.35,2.84h-2v.47H9.4v-2.8h2.79Zm-.77-1.65H10.12v1h1.27Z" style="fill: #231f20"/>
      <path d="M16.75,198l.44.1v.14a9.51,9.51,0,0,1-.58,2.91,5.2,5.2,0,0,1,.76.73l-.5.67a5.39,5.39,0,0,0-.63-.66A3.77,3.77,0,0,1,15,203.17a2.71,2.71,0,0,0-.5-.65,2.93,2.93,0,0,0,1.14-1.15l-.38-.29-.06.22L14.5,201c.16-.57.33-1.35.5-2.16h-.55V198h.69c.09-.48.17-1,.24-1.38l.94.1c0,.06-.06.1-.18.11L15.91,198h.84Zm-1,.79c-.11.52-.23,1-.34,1.53l.52.35a8.39,8.39,0,0,0,.41-1.87Zm5.16.88v.79H19.39v1.78c0,.68-.23.93-1.53.92a3.79,3.79,0,0,0-.29-.81h.69c.23,0,.29,0,.29-.12v-1.77H17.08v-.79h1.47v-1.06h.26a6.08,6.08,0,0,0,.67-.86H17.33V197h2.89l.64.39a.25.25,0,0,1-.17.1,10.35,10.35,0,0,1-1.3,1.58v.66Z" style="fill: #231f20"/>
      <path d="M22.94,199.5V199a8.56,8.56,0,0,1-1.19.69,3.16,3.16,0,0,0-.48-.68,6.9,6.9,0,0,0,2.84-2.36l1.12.06a.2.2,0,0,1-.18.14,6.59,6.59,0,0,0,2.85,2,3.69,3.69,0,0,0-.54.76,8.78,8.78,0,0,1-1.18-.68v.56Zm-1.19,1.35v-.77h5.76v.77H24.27l.21.07q0,.08-.21.08a11.68,11.68,0,0,1-.55,1.1l2.17-.06a9.43,9.43,0,0,0-.73-.75l.73-.38a9,9,0,0,1,1.59,1.79l-.77.47a5,5,0,0,0-.3-.46c-1.56.1-3.16.18-4.22.23a.15.15,0,0,1-.13.11l-.29-.91h1a11.25,11.25,0,0,0,.55-1.27Zm4.2-2.11a6.5,6.5,0,0,1-1.35-1.29,6.28,6.28,0,0,1-1.28,1.29Z" style="fill: #231f20"/>
    </g>
  </a>
  <a xlink:href="/projects/studentcounsilroom">
    <g id="studentcounsilroom">
      <rect class="studentcounsilroom" x="78.76" y="135" width="38.37" height="23.19" style="fill: #e6e6e6"/>
      <path d="M84.64,149.14h2.71V150H81.08v-.81h2.67V147.8H81.86V147h1.89v-1.23H82.3a6.06,6.06,0,0,1-.71,1.15,5.07,5.07,0,0,0-.7-.52,6.76,6.76,0,0,0,1.22-2.65l1,.28a.18.18,0,0,1-.19.09c-.08.28-.18.57-.28.85h1.11v-1.28l1,.06c0,.07-.06.11-.19.14V145h2.37v.81H84.56V147h2.19v.79H84.66Z" style="fill: #231f20"/>
      <path d="M90.14,145.51a.2.2,0,0,1-.19.07c-.14.27-.29.55-.46.82l.18.06a.19.19,0,0,1-.18.12v3.58h-.74v-2.6a7.71,7.71,0,0,1-.5.59,7.75,7.75,0,0,0-.4-.74,8,8,0,0,0,1.46-2.23ZM90,144a.18.18,0,0,1-.19.06,12.17,12.17,0,0,1-1.56,1.61,5.25,5.25,0,0,0-.44-.61,6.65,6.65,0,0,0,1.34-1.42Zm2.51,4.27v1a4,4,0,0,0,.59,0h1.28a2.73,2.73,0,0,0-.24.76h-1.1a2.48,2.48,0,0,1-2.24-.94,2.81,2.81,0,0,1-.61,1.08,3.49,3.49,0,0,0-.59-.5,4.09,4.09,0,0,0,.75-2.58l1,.12c0,.06-.07.1-.17.11a6.47,6.47,0,0,1-.09.77,1.73,1.73,0,0,0,.68.88v-2.29H90V146h1.8v-.79H90.29v-.7h1.46v-.85l1,.06q0,.09-.18.12v.67H94v.7H92.57V146h1.82v.73H92.74a.21.21,0,0,1-.17.09v.77h1.52v.7Z" style="fill: #231f20"/>
      <path d="M96.39,146.5V146a8.56,8.56,0,0,1-1.19.69,3.16,3.16,0,0,0-.45-.69,6.9,6.9,0,0,0,2.84-2.36l1.12.06a.2.2,0,0,1-.18.14,6.59,6.59,0,0,0,2.85,2,3.69,3.69,0,0,0-.54.76,8.78,8.78,0,0,1-1.18-.68v.56Zm-1.24,1.35v-.77h5.76v.77H97.67l.21.07q0,.08-.21.08a11.68,11.68,0,0,1-.55,1.1l2.17-.06a9.43,9.43,0,0,0-.73-.75l.73-.38a9,9,0,0,1,1.59,1.79l-.77.47a5,5,0,0,0-.3-.46c-1.56.1-3.16.18-4.22.23a.15.15,0,0,1-.13.11l-.29-.91h1a11.25,11.25,0,0,0,.55-1.27Zm4.2-2.11A6.5,6.5,0,0,1,98,144.45a6.28,6.28,0,0,1-1.28,1.29Z" style="fill: #231f20"/>
      <path d="M105.52,145.29a.23.23,0,0,1-.21.12c-.28,2.36-1,3.73-2.16,3.73-.75,0-1.3-.64-1.3-1.81a3.06,3.06,0,0,1,3-3.07H105c2,0,3,1.16,3,2.66s-.84,2.46-2.57,2.91a4.77,4.77,0,0,0-.55-.73c1.57-.31,2.2-1.06,2.2-2.16a1.83,1.83,0,0,0-1.79-1.87h-.56Zm-1.1-.14a2.2,2.2,0,0,0-1.72,2.14c0,.58.17,1,.48,1,.68,0,1.13-1.51,1.24-3.13" style="fill: #231f20"/>
      <path d="M111.57,146.43h-1.82v3.73h-.82v-6.25h2.67Zm-.77-1.92h-1v.37h1Zm-1,1.33h1v-.4h-1Zm5.06-1.93v5.26c0,.85-.35,1-1.64,1a3.17,3.17,0,0,0-.18-.65h-1.73v.36h-.75v-3h2.69v2.47h.38c.37,0,.41,0,.41-.17v-2.72h-1.9v-2.53Zm-2.4,3.55h-1.15v.42h1.15Zm-1.15,1.44h1.15v-.44h-1.15Zm2.72-4.39h-1.11v.37H114Zm-1.11,1.34H114v-.41h-1.11Z" style="fill: #231f20"/>
    </g>
  </a>
  <a xlink:href="/projects/railway">
    <g id="railway">
      <rect class="railway" x="154.86" y="135" width="75.68" height="23.19" style="fill: #e6e6e6"/>
      <path d="M163.26,152.15H162a3.65,3.65,0,0,0,1.37,2.08,2.91,2.91,0,0,0-.55.66,4,4,0,0,1-1.32-2,3.92,3.92,0,0,1-1.75,2,3.42,3.42,0,0,0-.57-.62l.17-.08h0l-2.21.37a.17.17,0,0,1-.12.12l-.24-.86,1.08-.13V152h-1v-.7h1v-.52h-.59v-.06h0a2.34,2.34,0,0,0-.56-.55,6.1,6.1,0,0,0,1.22-1.85l.9.16c0,.06-.06.1-.17.1h0a7.76,7.76,0,0,1,1.13,1l-.46.68v.53h-.68v.52h.89v.7h-.89v1.53l1-.14V154a2.94,2.94,0,0,0,1.31-1.84h-1.31v-.77h1.43v-1h-.58a4.6,4.6,0,0,1-.37.93,5.44,5.44,0,0,0-.64-.34,6.67,6.67,0,0,0,.58-2.25l.88.19c0,.08-.09.1-.17.09a3.38,3.38,0,0,1-.1.61h.39v-1.22h1c0,.07-.06.12-.19.13v1H163v.77h-1.16v1h1.45Zm-6.05,1.4a6.54,6.54,0,0,0-.27-1.21l.54-.15a6.35,6.35,0,0,1,.3,1.19Zm1.95-3.43a8.84,8.84,0,0,0-.89-.81,8.41,8.41,0,0,1-.52.81Zm.46,2.26a.18.18,0,0,1-.17.08,8.49,8.49,0,0,1-.32,1l-.49-.18a8.21,8.21,0,0,0,.26-1.1Z" style="fill: #231f20"/>
      <path d="M165.37,151.06v2.2c.43.7,1.26.7,2.47.7a22,22,0,0,0,2.37-.08,4.37,4.37,0,0,0-.26.84H168c-1.55,0-2.37,0-3-.79-.3.27-.61.54-.88.74a.12.12,0,0,1-.1.14h0l-.42-.91a9.33,9.33,0,0,0,1-.65v-1.46h-.89V151Zm-1-2.54a5.3,5.3,0,0,1,1.17,1l-.66.55a5.4,5.4,0,0,0-1.13-1.07Zm1.77,1.78h1a3.14,3.14,0,0,0,.08-.37h-1.67v-.67h1a3.24,3.24,0,0,0-.39-.63l.64-.27a3,3,0,0,1,.52.83l-.16.07h.91a6.12,6.12,0,0,0,.44-.88l.93.26s-.08.07-.19.08a6.64,6.64,0,0,1-.44.57H170V150h-1.92l-.16.37h1.51v3.41h-.82v-.15h-1.73v.15h-.79Zm2.51.61h-1.73v.32h1.73Zm-1.73,1.18h1.73v-.32h-1.73Zm0,.87h1.73v-.33h-1.73Z" style="fill: #231f20"/>
      <path d="M173.23,154h-1.37v.53h-.72v-1.8a3.31,3.31,0,0,1-.24.34,5.52,5.52,0,0,0-.41-.75,6.73,6.73,0,0,0,.92-2.92h-.79v-.75h2.78v.75h-1.2a13,13,0,0,1-.29,1.41h1.31Zm-.73-2.46h-.64v1.74h.64Zm4.58-.31V152h-.7v2.85h-.79V152h-.73a3.77,3.77,0,0,1-1.25,2.86,3.87,3.87,0,0,0-.64-.45,3.19,3.19,0,0,0,1.11-2.41h-.7v-.79h.72v-1.82h-.53v-.77H177v.77h-.6v1.82Zm-2.2,0h.71v-1.82h-.71Z" style="fill: #231f20"/>
      <path d="M180.4,150c0,.06-.08.1-.17.12-.23.8-.59,1.41-2.24,1.77a2.25,2.25,0,0,0-.43-.67c1.43-.23,1.68-.66,1.82-1.32Zm2.09,3.78c0,.21,0,.24.17.24H183c.15,0,.17-.12.19-.86a2.65,2.65,0,0,0,.75.33c-.07,1-.28,1.28-.86,1.28h-.61c-.67,0-.88-.23-.88-1v-.92h-1.1c-.28.92-.89,1.6-2.51,2a2.16,2.16,0,0,0-.44-.69c1.24-.26,1.79-.68,2.05-1.29H178v-.77h1.78c0-.25.06-.52.07-.82l1,.08c0,.07-.07.12-.18.13a1.79,1.79,0,0,1-.07.61h1.82Zm-3.87-4v.7h-.87V149.1h2.51v-.75l1,.06c0,.06-.06.11-.19.13v.55h2.52v1.45h-.84v-.7Zm2.51,0,1,.06c0,.07-.06.11-.19.14v.81c0,.18,0,.2.29.2h.7c.18,0,.22-.06.25-.39a2.48,2.48,0,0,0,.7.26c-.08.64-.3.8-.86.8h-.91c-.8,0-1-.2-1-.86Z" style="fill: #231f20"/>
      <path d="M186.46,150.92a8.13,8.13,0,0,0,.35-1.15l.86.23c0,.06-.08.08-.18.08a8.31,8.31,0,0,1-.35.88H188v.75h-3.6V151h2.19Zm1.45-1.87v.72h-3.35v-.72h1.27v-.69h1c0,.07-.06.11-.18.13V149Zm-3.11,5.83v-2.71h2.88v2.68h-.81v-.31h-1.31v.34Zm.39-3.91a4.07,4.07,0,0,0-.23-1l.66-.14a3.61,3.61,0,0,1,.27,1Zm1.68,1.93h-1.31v.93h1.31Zm3.51-4.16.52.2a.15.15,0,0,1-.07.11c-.21.59-.48,1.32-.8,2.06a2.53,2.53,0,0,1,.85,1.64c0,1.28-.89,1.28-1.3,1.28h-.23a1.8,1.8,0,0,0-.24-.79h.51c.41,0,.45-.28.45-.55a2.74,2.74,0,0,0-.87-1.47c.23-.61.42-1.19.58-1.7H189v5.34h-.81v-6.12h2.18Z" style="fill: #231f20"/>
      <path d="M163.15,142.7v.76h-1.4c-.23,1.35-.56,1.49-1.63,1.49h-.65a1.67,1.67,0,0,0-.28-.79h1.12c.2,0,.44,0,.6-.74h-4v-.76H161a1.81,1.81,0,0,1,.06-.55h-2.23v.2l-.84-.06c.2-.72.43-1.88.57-2.77h-.7v.92h-.83v-1.68h6.05v1.68h-.87v-.92H158.9l.68.06c0,.07-.06.11-.19.12l-.08.42h2.57v.71h-2.71a2.94,2.94,0,0,1-.12.59h2.5l.48.1a1.61,1.61,0,0,1,0,.23,9.55,9.55,0,0,1-.09,1Z" style="fill: #231f20"/>
      <path d="M170,143.67h-1.86c.71.23,1.48.52,2,.73l-.71.55a19.87,19.87,0,0,0-2-.82l.48-.46h-2.07l.68.46a.23.23,0,0,1-.13,0,8.68,8.68,0,0,1-2,.78,5.39,5.39,0,0,0-.56-.57,7.26,7.26,0,0,0,1.93-.71h-1.89V143h6.19Zm-3.55-3.75v-.3H164v-.69h2.44v-.5l1.06.06c0,.07-.06.11-.19.14v.31h2.53v.69h-2.53v.3h1.77v2.81h-4.27v-2.81Zm1.8.49h-2.63v.3h2.63Zm0,.76h-2.63v.3h2.63Zm0,.76h-2.63v.31h2.63Z" style="fill: #231f20"/>
      <path d="M176.75,138.76V144c0,.83-.35,1-1.59,1a2.82,2.82,0,0,0-.28-.82h.65c.35,0,.39,0,.39-.17v-4.44h-4.29V145h-.8v-6.18Zm-1.24,2h-3.46V140h3.46Zm-.35,2.84h-2v.4h-.76v-2.8h2.79Zm-.77-1.65h-1.27v1h1.27Z" style="fill: #231f20"/>
      <path d="M179.84,139.79l.44.1V140a9.55,9.55,0,0,1-.58,2.91,5.13,5.13,0,0,1,.76.73l-.5.67a5.39,5.39,0,0,0-.63-.66,3.8,3.8,0,0,1-1.26,1.28,2.74,2.74,0,0,0-.5-.65,2.93,2.93,0,0,0,1.14-1.15l-.38-.29-.06.22-.68-.35c.16-.57.33-1.35.5-2.16h-.54v-.77h.69c.09-.48.17-1,.24-1.38l.94.1c0,.06-.06.1-.18.11l-.23,1.17h.73Zm-1,.79c-.11.52-.23,1-.34,1.53l.52.35a8.33,8.33,0,0,0,.41-1.87Zm5.16.88v.79h-1.52V144c0,.68-.23.93-1.53.92a3.92,3.92,0,0,0-.29-.81h.69c.23,0,.29,0,.29-.12v-1.77h-1.47v-.79h1.47v-1h.26a6.08,6.08,0,0,0,.67-.86h-2.15v-.77h2.89l.64.39a.25.25,0,0,1-.17.1,10.35,10.35,0,0,1-1.3,1.58v.66Z" style="fill: #231f20"/>
      <path d="M186,141.29v-.51a8.55,8.55,0,0,1-1.19.69,3.16,3.16,0,0,0-.48-.68,6.89,6.89,0,0,0,2.84-2.36l1.12.06a.2.2,0,0,1-.18.14,6.58,6.58,0,0,0,2.85,2,3.69,3.69,0,0,0-.54.76,8.71,8.71,0,0,1-1.18-.68v.56Zm-1.24,1.35v-.77h5.76v.77h-3.24l.21.07c0,.06-.1.08-.21.08a11.7,11.7,0,0,1-.55,1.1l2.17-.06a9.44,9.44,0,0,0-.73-.75l.73-.38a9,9,0,0,1,1.59,1.79l-.77.47a5.27,5.27,0,0,0-.3-.46c-1.56.1-3.16.18-4.22.23a.15.15,0,0,1-.13.11l-.29-.91h1a11.46,11.46,0,0,0,.55-1.27Zm4.2-2.11a6.54,6.54,0,0,1-1.35-1.29,6.27,6.27,0,0,1-1.28,1.29Z" style="fill: #231f20"/>
      <path d="M201.42,146.53h-1.28a3.65,3.65,0,0,0,1.37,2.08,2.91,2.91,0,0,0-.55.66,4,4,0,0,1-1.32-2,3.92,3.92,0,0,1-1.75,2,3.47,3.47,0,0,0-.57-.62l.17-.08h0l-2.21.37a.17.17,0,0,1-.12.12l-.24-.86,1.08-.13v-1.62h-1v-.7h1v-.52h-.59v-.06h0a2.36,2.36,0,0,0-.56-.55,6.07,6.07,0,0,0,1.22-1.85l.9.16c0,.06-.06.1-.16.1h0a7.76,7.76,0,0,1,1.13,1l-.45.68v.53h-.74v.52h.89v.7h-.89V148l1-.14v.58a2.94,2.94,0,0,0,1.31-1.84h-1.31v-.77h1.43v-1h-.58a4.54,4.54,0,0,1-.36.93,5.44,5.44,0,0,0-.64-.34,6.68,6.68,0,0,0,.58-2.25l.88.19c0,.08-.09.1-.17.09a3.38,3.38,0,0,1-.1.61h.39V142.8h1c0,.07-.06.12-.19.13v1h1.16v.77H200v1h1.45Zm-6.05,1.4a6.63,6.63,0,0,0-.27-1.21l.54-.15a6.26,6.26,0,0,1,.3,1.19Zm1.95-3.43a8.84,8.84,0,0,0-.89-.81,8.41,8.41,0,0,1-.52.81Zm.46,2.26a.18.18,0,0,1-.17.08,8.72,8.72,0,0,1-.33,1l-.49-.18a8.21,8.21,0,0,0,.26-1.1Z" style="fill: #231f20"/>
      <path d="M203.53,145.45v2.2c.43.7,1.26.7,2.47.7a22,22,0,0,0,2.37-.08,4.47,4.47,0,0,0-.26.84H206.2c-1.54,0-2.37,0-3-.79-.3.27-.61.54-.88.75a.12.12,0,0,1-.1.14h0l-.42-.91a9.3,9.3,0,0,0,1-.65v-1.46H202v-.77Zm-1-2.54a5.26,5.26,0,0,1,1.17,1l-.66.55a5.35,5.35,0,0,0-1.12-1.1Zm1.77,1.78h1a3.14,3.14,0,0,0,.08-.37h-1.63v-.67h1a3.23,3.23,0,0,0-.39-.64l.64-.27a3,3,0,0,1,.52.84l-.16.07h.91a6.15,6.15,0,0,0,.44-.88l.93.26c0,.06-.08.08-.19.08a6.64,6.64,0,0,1-.44.57h1.17v.67h-1.92l-.16.37h1.51v3.41h-.82V148h-1.73v.15h-.79Zm2.51.61h-1.73v.32h1.73Zm-1.73,1.18h1.73v-.32h-1.73Zm0,.87h1.73V147h-1.73Z" style="fill: #231f20"/>
      <path d="M211.4,148.39H210v.53h-.72v-1.8a3.45,3.45,0,0,1-.24.34,5.55,5.55,0,0,0-.41-.75,6.72,6.72,0,0,0,.93-2.92h-.79V143h2.78v.75h-1.2a13.67,13.67,0,0,1-.29,1.42h1.3Zm-.73-2.47H210v1.74h.63Zm4.58-.31v.79h-.7v2.85h-.8V146.4H213a3.78,3.78,0,0,1-1.25,2.86,4,4,0,0,0-.64-.46,3.18,3.18,0,0,0,1.11-2.41h-.7v-.79h.72v-1.8h-.52V143h3.4v.77h-.6v1.82Zm-2.2,0h.71V143.8h-.71Z" style="fill: #231f20"/>
      <path d="M218.57,144.4c0,.06-.08.1-.17.12-.23.8-.59,1.41-2.24,1.77a2.25,2.25,0,0,0-.43-.67c1.43-.23,1.68-.66,1.82-1.32Zm2.09,3.78c0,.21,0,.24.17.24h.36c.15,0,.17-.12.19-.86a2.65,2.65,0,0,0,.75.33c-.07,1-.28,1.28-.86,1.28h-.61c-.67,0-.88-.23-.88-1v-.92h-1.1c-.28.92-.89,1.6-2.51,2a2.14,2.14,0,0,0-.44-.69c1.24-.26,1.79-.68,2.05-1.29h-1.59v-.77H218c0-.25.05-.52.07-.82l1,.08c0,.07-.07.12-.18.13a1.79,1.79,0,0,1-.07.61h1.82Zm-3.87-4v.7H216v-1.45h2.51v-.75l1,.06c0,.06-.06.11-.19.13v.55h2.52v1.45h-.88v-.7Zm2.51,0,1,.06c0,.07-.06.11-.19.14v.81c0,.18,0,.2.29.2h.7c.18,0,.22-.06.25-.39a2.48,2.48,0,0,0,.7.26c-.08.64-.3.8-.86.8h-.91c-.8,0-1-.2-1-.86Z" style="fill: #231f20"/>
      <path d="M224.62,145.31a8.13,8.13,0,0,0,.35-1.15l.86.23c0,.06-.08.08-.18.08a8.57,8.57,0,0,1-.35.88h.85v.75h-3.6v-.75h2.2Zm1.45-1.87v.72h-3.32v-.72H224v-.69h1c0,.07-.06.11-.18.13v.51ZM223,149.27v-2.71h2.88v2.68H225v-.31h-1.28v.34Zm.39-3.91a4.07,4.07,0,0,0-.23-1l.66-.14a3.61,3.61,0,0,1,.27,1Zm1.68,1.93h-1.28v.93h1.31Zm3.51-4.16.52.2a.15.15,0,0,1-.07.11c-.21.59-.48,1.32-.8,2.06a2.53,2.53,0,0,1,.85,1.64c0,1.28-.89,1.28-1.3,1.28h-.23a1.8,1.8,0,0,0-.24-.79h.51c.41,0,.45-.28.45-.55a2.74,2.74,0,0,0-.87-1.47c.23-.61.42-1.19.58-1.7h-.77v5.34h-.81v-6.12h2.18Z" style="fill: #231f20"/>
    </g>
  </a>
  <a xlink:href="/projects/magic">
    <g id="magic">
      <rect class="magic" x="117.34" y="135" width="37.52" height="23.19" style="fill: #e6e6e6"/>
      <path d="M128.75,140.15a.19.19,0,0,1-.15.11,12.08,12.08,0,0,1-2.55,2.6,11.36,11.36,0,0,1,1.22,1.12l-.77.67a13.22,13.22,0,0,0-3-2.49l.61-.62a12,12,0,0,1,1.28.82,9.89,9.89,0,0,0,1.85-1.82h-4.49v-.82h5.15l.12-.07Z" style="fill: #231f20"/>
      <path d="M130.07,140.83a9.85,9.85,0,0,1,1.77.64l-.37.75a10.46,10.46,0,0,0-1.77-.68Zm.19,3.22a6.91,6.91,0,0,0,4.6-3.82,8.38,8.38,0,0,0,.75.57,7.68,7.68,0,0,1-4.6,4,.17.17,0,0,1-.1.19Zm.64-4.91a10.64,10.64,0,0,1,1.78.68l-.43.73a9.46,9.46,0,0,0-1.74-.73Zm3.14-.22a5.35,5.35,0,0,1,.81,1l-.42.32a6.11,6.11,0,0,0-.79-1Zm1-.39a6.45,6.45,0,0,1,.81,1l-.41.32a6.4,6.4,0,0,0-.79-1Z" style="fill: #231f20"/>
      <path d="M142.17,140.48a.21.21,0,0,1-.08.11,10.46,10.46,0,0,1-.57,3.78,1.17,1.17,0,0,1-1,.55,6,6,0,0,1-1.2-.14,6,6,0,0,0-.06-.87,6.57,6.57,0,0,0,1.09.16.45.45,0,0,0,.46-.28,9.17,9.17,0,0,0,.38-2.66h-1.7a6.48,6.48,0,0,1-2.16,3.8,4.88,4.88,0,0,0-.71-.53,5.38,5.38,0,0,0,2-3.26h-1.68v-.81h1.84c.07-.48.08-.86.11-1.39l1.13.1c0,.08-.08.13-.21.15a7.11,7.11,0,0,1-.12,1.15h1.77l.17-.07Z" style="fill: #231f20"/>
      <path d="M145.32,140c0,.08-.07.14-.18.15A7.79,7.79,0,0,1,144,145c-.2-.13-.53-.32-.77-.45.92-1.07,1-2.86,1-4.63Zm1.77,3.59a4,4,0,0,0,1.8-2.51,5,5,0,0,0,.78.48,5.17,5.17,0,0,1-2.77,3.16.48.48,0,0,1-.16.17l-.65-.76.11-.15v-5l1.08.06a.2.2,0,0,1-.19.17Z" style="fill: #231f20"/>
      <path d="M132.75,148.89v5.23c0,.83-.35,1-1.59,1a2.8,2.8,0,0,0-.28-.82h.66c.35,0,.39,0,.39-.17v-4.44h-4.29v5.4h-.8v-6.18Zm-1.24,2H128v-.7h3.47Zm-.35,2.84h-2v.47h-.76v-2.8h2.79Zm-.77-1.65h-1.27v1h1.27Z" style="fill: #231f20"/>
      <path d="M135.75,149.93l.44.1v.14a9.51,9.51,0,0,1-.58,2.91,5.2,5.2,0,0,1,.76.73l-.5.67a5.39,5.39,0,0,0-.63-.66A3.78,3.78,0,0,1,134,155.1a2.71,2.71,0,0,0-.5-.65,2.93,2.93,0,0,0,1.14-1.15l-.38-.29-.06.22-.68-.35c.16-.57.33-1.35.5-2.16h-.55V150h.69c.09-.48.17-1,.24-1.38l.94.1c0,.06-.06.1-.18.11l-.23,1.17h.73Zm-1,.79c-.11.52-.23,1-.34,1.53l.52.35a8.39,8.39,0,0,0,.41-1.87Zm5.16.88v.79h-1.52v1.78c0,.68-.23.93-1.53.92a3.79,3.79,0,0,0-.29-.81h.69c.23,0,.29,0,.29-.12v-1.77h-1.47v-.79h1.47v-1.06h.26a6.08,6.08,0,0,0,.67-.86h-2.15v-.77h2.89l.64.39a.25.25,0,0,1-.17.1,10.35,10.35,0,0,1-1.3,1.58v.66Z" style="fill: #231f20"/>
      <path d="M141.92,151.42v-.51a8.56,8.56,0,0,1-1.19.69,3.16,3.16,0,0,0-.48-.68,6.9,6.9,0,0,0,2.84-2.36l1.12.06a.2.2,0,0,1-.18.14,6.59,6.59,0,0,0,2.85,2,3.69,3.69,0,0,0-.54.76,8.78,8.78,0,0,1-1.18-.68v.56Zm-1.24,1.35V152h5.76v.77H143.2l.21.07q0,.08-.21.08a11.7,11.7,0,0,1-.55,1.1l2.17-.06a9.44,9.44,0,0,0-.73-.75l.73-.38a9,9,0,0,1,1.59,1.79l-.77.47a5,5,0,0,0-.3-.46c-1.56.1-3.16.18-4.22.23a.15.15,0,0,1-.13.11l-.29-.91h1a11.25,11.25,0,0,0,.55-1.27Zm4.2-2.11a6.5,6.5,0,0,1-1.35-1.29,6.28,6.28,0,0,1-1.28,1.29Z" style="fill: #231f20"/>
    </g>
  </a>
  <a xlink:href="/projects/picture">
    <g id="picture">
      <rect class="picture" x="182.48" y="50.68" width="72.52" height="13.91" style="fill: #e6e6e6"/>
      <rect x="183.57" y="52.55" width="70.79" height="1.8" style="fill: #231f20"/>
      <polygon points="188.82 57.84 187.87 57.84 187.87 62.09 187.46 62.09 187.46 57.84 186.51 57.84 187.66 55.88 188.82 57.84" style="fill: #231f20"/>
      <path d="M195.95,60.36c-.35,1.52-.66,1.66-2.09,1.67l-.36-1a4.21,4.21,0,0,0,.93.12c.44,0,.54-.3.65-.77h-3.49v-.73h3.59v-.39h-1.57l-.06.17-.89-.16a15.87,15.87,0,0,0,.83-2.33h-1v1.15h-.74V56.21h5.69V58h-.83V56.9h-2.19c.07,0,.13,0,.13.1s0,.07-.07.08l-.13.07-.09.28h2.18v.69H194c-.06.17-.07.22-.13.39h2.26a9.77,9.77,0,0,1-.11,1.08h1.52v.73Z" style="fill: #231f20"/>
      <path d="M202.87,61a2,2,0,0,0,.62.26,5.86,5.86,0,0,0,.93.18l-.57.72a9.45,9.45,0,0,1-2-.75l.33-.41h-1.43l.35.37a.13.13,0,0,1,0,.09.07.07,0,0,1-.06.08h-.17a7.6,7.6,0,0,1-1.79.66l-.55-.72A3,3,0,0,0,200,61H198.5v-.62h5.9V61Zm-1-3.86v.24h1.55v2.77h-3.95V57.38H201v-.24h-2.42v-.57H201v-.49h.77c.17,0,.25,0,.25.1s0,0-.07.08-.09.06-.09.08v.19h2.42v.57Zm.79.74h-2.44v.27h2.44Zm0,.72h-2.44v.28h2.44Zm0,.73h-2.44v.32h2.44Z" style="fill: #231f20"/>
      <path d="M210,62l-.28-.77H210c.27,0,.34,0,.34-.29V56.83h-4v5h-.74V56.07h5.5v5.07c0,.61-.34.77-1.13.78m-3.33-4.62H210V58h-3.33Zm1,3.48v.29H207V58.45h2.79v2.33Zm1.37-1.69h-1.37v1h1.37Z" style="fill: #231f20"/>
      <path d="M214.67,61.54a5.84,5.84,0,0,0-.55-.77,5,5,0,0,1-1,1.27l-.73-.45a4.16,4.16,0,0,0,1.21-1.37,2.94,2.94,0,0,0-.44-.33.34.34,0,0,1-.08.24l-.81-.16a12.13,12.13,0,0,0,.61-2.12h-.51v-.69H213a9,9,0,0,0,.1-1.07l.86.06s.13,0,.13.09,0,0-.07.07-.08.06-.09.1a4.27,4.27,0,0,1-.14.75h1.08A7,7,0,0,1,214.5,60a6,6,0,0,1,.8.94Zm-1-3.69c-.15.71-.21,1-.28,1.24a5.61,5.61,0,0,1,.52.37,5.58,5.58,0,0,0,.25-1.61Zm3.26,1.45v2.11c0,.45-.39.63-.79.63h-.42l-.38-.93.29.06h.22c.19,0,.26,0,.26-.33V59.28H215v-.75h1.15v-1l.35.1A3.15,3.15,0,0,0,217,57h-1.92v-.7h2.69l.44.42c-.48.57-1.08,1.21-1.3,1.43v.34h1.37v.75Z" style="fill: #231f20"/>
      <path d="M224.75,58.62a4.14,4.14,0,0,1-.79-.37v.59h-3.33v-.57a6.21,6.21,0,0,1-.86.45l-.52-.61a4.85,4.85,0,0,0,2.5-2.11l1,.17c.06,0,.1,0,.1.09a.1.1,0,0,1-.06.09,5.12,5.12,0,0,0,1.17,1,6.25,6.25,0,0,0,1.34.61Zm-.45,3.45a4.69,4.69,0,0,0-.46-.61l-2.7.31c-.15,0-.88.08-1,.1h-.07a.09.09,0,0,1-.08.1.08.08,0,0,1-.06-.06l-.22-.9h1c.17-.28.32-.52.63-1.11h-1.57v-.67h5v.67h-1.46a10.17,10.17,0,0,1,1.61,1.63Zm-2.05-5.27a6.72,6.72,0,0,1-1.43,1.35h3a6.3,6.3,0,0,1-1.54-1.35m.5,3.62.5-.5h-1a11.46,11.46,0,0,1-.65,1.06,14.38,14.38,0,0,0,1.73-.13,4.27,4.27,0,0,0-.54-.43" style="fill: #231f20"/>
      <path d="M231.47,60.52a3.34,3.34,0,0,1-1.61,1.21l-.51-.71a2.34,2.34,0,0,0,1.24-.74,2.16,2.16,0,0,0,.5-1.37,1.63,1.63,0,0,0-.5-1.21,1.77,1.77,0,0,0-1.17-.46,9.8,9.8,0,0,1-.86,3.07c-.21.43-.52,1-.88,1a2,2,0,0,1-1.38-1.86,3,3,0,0,1,3-2.93,2.44,2.44,0,0,1,2.57,2.31q0,.1,0,.2a2.59,2.59,0,0,1-.44,1.47m-3.71-2.66a2.26,2.26,0,0,0-.69,1.53c0,.56.32.85.44.85.36,0,1-1.8,1.09-2.88a2,2,0,0,0-.84.5" style="fill: #231f20"/>
      <path d="M238.35,62a4.23,4.23,0,0,1-1.19-.63A3.68,3.68,0,0,1,236,60h-.29v1.15a9.36,9.36,0,0,0,.95-.17v.67c-.91.21-1.58.33-2,.4a.48.48,0,0,0-.21.06s-.1.11-.13.11-.1-.1-.11-.18l-.08-.7a6.85,6.85,0,0,0,.83-.08V60h-.78a6,6,0,0,1-.59,2l-.74-.23a4.47,4.47,0,0,0,.39-1,8.18,8.18,0,0,0,.26-2.13c0-.7,0-1.59-.08-2.37h5.29v1.61H237l.43.07c.1,0,.22,0,.22.1s-.06.07-.1.09v.23h1.17v.59h-1.12v.49h1.32V60h-.75l.42.38a.12.12,0,0,1,0,.08c0,.06,0,.06-.11.06a.28.28,0,0,0-.17,0c-.12.1-.3.23-.54.45a3.29,3.29,0,0,0,1.13.44Zm-3.24-3.15h-.71v-.59h.71v-.49h-.9v1.58h.91ZM238,56.76h-3.79v.41H238Zm-1.17,1h-1.5l.43.07s.19,0,.19.1,0,.06-.08.08v.23h1Zm0,1.08h-1v.49h1Zm0,1.1a2.08,2.08,0,0,0,.47.59,2.71,2.71,0,0,0,.58-.59Z" style="fill: #231f20"/>
      <path d="M242,59.45c-.13.06-.15.06-.16.09a12.92,12.92,0,0,1-1.21,1.93L240,61a10.16,10.16,0,0,0,1.24-2l.64.19c.2.06.26.1.26.17s0,.06-.07.07m1.29-.83V61.4c0,.57-.59.59-1.38.61l-.34-.88a6,6,0,0,0,.61,0c.17,0,.3,0,.3-.28V58.59H240v-.77h5.79v.77Zm-2.71-2.33h4.64v.77h-4.64Zm4.45,5.17a9.18,9.18,0,0,0-1.42-2l.7-.53a12.75,12.75,0,0,1,1.46,1.92Z" style="fill: #231f20"/>
    </g>
  </a>
  <a xlink:href="/projects/othello">
    <g id="othello">
      <rect class="othello" x="146.22" y="14.42" width="37.95" height="24.03" style="fill: #e6e6e6"/>
      <path d="M160.83,20h-1.9v2.9c0,1-.6,1-1.95,1a4.25,4.25,0,0,0-.22-.79h.56c.65,0,.76,0,.74-.21V20.67A9.47,9.47,0,0,1,155.45,23a3.07,3.07,0,0,0-.61-.66A8.75,8.75,0,0,0,157.56,20h-2.38v-.82H158V17.8h1.06c0,.08-.05.13-.19.15v1.2h1.91Z" style="fill: #231f20"/>
      <path d="M167.81,19.42a.24.24,0,0,1-.14.12,9.27,9.27,0,0,1-1.32,2.26,5.29,5.29,0,0,0-.77-.4,4.18,4.18,0,0,0,.86-1.3l-1.91.49v1.55c0,.55.23.74.74.74h1.08a9.1,9.1,0,0,0,1.06-.1v.85a10.53,10.53,0,0,1-1.06.06h-1.12c-1.08,0-1.61-.48-1.61-1.53V20.81l-1.53.39-.21-.81,1.74-.42V18l1.09.06c0,.09-.08.14-.2.17v1.55l2.44-.61.1-.08Z" style="fill: #231f20"/>
      <path d="M174.26,18.73v4.65h-.88V23h-3.2v.41h-.86V18.74Zm-.89.81h-3.19v2.64h3.19Z" style="fill: #231f20"/>
      <path d="M157.93,29.67h-1.28V30a3.51,3.51,0,0,1-2.17,3.5,4.83,4.83,0,0,0-.64-.6A2.86,2.86,0,0,0,155.75,30v-.31H154v1.56h-.87V29.69h-1.19v-.83h1.19V27.48l1.08.07a.22.22,0,0,1-.21.17v1.14h1.78V27.39l1.08.06c0,.08-.08.14-.21.16v1.25h1.28Z" style="fill: #231f20"/>
      <path d="M158.91,29.87h5.76v.87H159.2a.34.34,0,0,1-.23.13Z" style="fill: #231f20"/>
      <path d="M171.36,28.8a.4.4,0,0,1-.15.13,7.2,7.2,0,0,1-3.72,4.56,3.25,3.25,0,0,0-.65-.66,5.84,5.84,0,0,0,3.25-3.57h-2a7.3,7.3,0,0,1-1.47,1.58,4.67,4.67,0,0,0-.71-.57,6.79,6.79,0,0,0,2.17-2.93l1.1.26a.22.22,0,0,1-.23.12c-.11.25-.25.49-.37.72h2l.12-.06Z" style="fill: #231f20"/>
      <path d="M174.54,28.44c0,.08-.07.14-.18.15a7.79,7.79,0,0,1-1.17,4.86c-.2-.13-.53-.32-.77-.45.92-1.07,1-2.86,1-4.63ZM176.31,32a4,4,0,0,0,1.8-2.51,5,5,0,0,0,.78.48,5.17,5.17,0,0,1-2.77,3.16.48.48,0,0,1-.16.17l-.65-.76.11-.15V27.51l1.08.06a.2.2,0,0,1-.19.17Z" style="fill: #231f20"/>
    </g>
  </a>
  <a xlink:href="/projects/igo">
    <g id="igo">
      <rect class="igo" x="109.12" y="14.42" width="37.1" height="24.03" style="fill: #e6e6e6"/>
      <path d="M117.49,23.44h5.94v6.23h-.86v-.3h-4.25v.3h-.83Zm.83,5.16h4.25V24.2h-4.25Zm4-2.08v.68h-.73v1.15h-.72V27.2H120a2,2,0,0,1-.88,1.31,2.73,2.73,0,0,0-.52-.54,1.53,1.53,0,0,0,.65-.77h-.64v-.68h.78v-.67h-.72v-.66h.72v-.76h.86c0,.06-.06.1-.17.12v.59h.77v-.76h.9q0,.11-.18.12v.59h.72v.66h-.72v.67Zm-2.22-.32v.32h.78v-.67h-.77Z" style="fill: #231f20"/>
      <path d="M130.6,26.79h-1.37a4.07,4.07,0,0,0,1.45.82,3,3,0,0,0-.52.63A4.23,4.23,0,0,1,129,27.5v.14H127.1l-.19.28h2.4v1.73h-.8v-.19h-1.76v.19H126v-.73a4.64,4.64,0,0,1-.77.5,4.71,4.71,0,0,0-.49-.59,3.9,3.9,0,0,0,1.26-.91,3,3,0,0,0,.23-.28h-.46v-.12a4.31,4.31,0,0,1-1.24.83,3.32,3.32,0,0,0-.5-.61,3.87,3.87,0,0,0,1.46-.94H124.1v-.65h1.41V24.33h-1v-.65h1v-.53h1c0,.08-.06.11-.19.14v.35h2v-.53h1c0,.08-.06.12-.19.14v.35h1.06v.65h-1.06v1.82h1.4Zm-2.08.26-.2-.26h-2a2.21,2.21,0,0,1-.19.26Zm-.17-2.73h-2v.23h2Zm-2,1h2v-.24h-2Zm0,.79h2v-.24h-2Zm2.15,2.36h-1.75v.39h1.79Z" style="fill: #231f20"/>
      <path d="M133.09,25.7a8.12,8.12,0,0,0,.35-1.15l.86.23c0,.06-.08.08-.18.08a8.58,8.58,0,0,1-.35.88h.85v.75H131v-.75h2.2Zm1.45-1.87v.72h-3.35v-.72h1.27v-.69h1c0,.07-.06.11-.18.13v.51Zm-3.11,5.83V27h2.88v2.68h-.81v-.31h-1.31v.34Zm.39-3.91a4.07,4.07,0,0,0-.23-1l.66-.14a3.6,3.6,0,0,1,.27,1Zm1.69,1.93h-1.3v.93h1.3ZM137,23.52l.52.2a.15.15,0,0,1-.07.11c-.21.59-.48,1.32-.8,2.06a2.53,2.53,0,0,1,.85,1.64c0,1.28-.89,1.28-1.3,1.28H136a1.78,1.78,0,0,0-.24-.79h.51c.41,0,.46-.28.46-.55a2.74,2.74,0,0,0-.87-1.47c.23-.61.42-1.19.58-1.7h-.77v5.34h-.81V23.52H137Z" style="fill: #231f20"/>
    </g>
  </a>
  <a xlink:href="/area/training-hall">
    <g id="training-hall">
      <rect class="training-hall" x="337.43" y="83.58" width="48.27" height="60.94" style="fill: #e6e6e6;stroke: #231f20;stroke-miterlimit: 10;stroke-width: 0.45899999141693115px"/>
      <path d="M358.13,110.66v.75h-2.72v1h-.86v-1h-2.67v-.75h2.67v-.41h-2V107.5h1.89v-1.57l1,.06c0,.07-.06.11-.19.13v.31h2.51v.7h-2.51v.37h2.14v2.75h-2.08v.41Zm-4.71-2.1h3.2v-.41h-3.2Zm0,1h3.2v-.41h-3.2Z" style="fill: #231f20"/>
      <path d="M365.11,108.57a.19.19,0,0,1-.19.06,9.46,9.46,0,0,1-.84,1.08l-.44-.27a3.9,3.9,0,0,0,1.53,1.86,1.79,1.79,0,0,0-.51.63,4.69,4.69,0,0,1-1.37-1.55v1.15c0,.7-.23.94-1.44.94a3.47,3.47,0,0,0-.28-.8h.54c.34,0,.37,0,.37-.15v-3.65h-1.64v-.63h-.68v1.18h.7v.76h-.7v1.21l.78-.17v.41l1.15-.68.26.68c-.52.37-1.09.76-1.47,1a.16.16,0,0,1-.07.16l-.41-.7-1.66.41a.13.13,0,0,1-.12.12l-.23-.87.92-.18v-1.39h-.73v-.76h.73v-1.18h-.8v-.77h2.41v.63h1.5v-1.17h1c0,.07-.06.11-.19.14v1h1.1a5,5,0,0,0-.84-.71l.45-.43a4.7,4.7,0,0,1,.93.73l-.42.41H365v.76h-1.77v.23a7.23,7.23,0,0,0,.29,1.15,7.15,7.15,0,0,0,.74-1.15Zm-3.57-.37a5.43,5.43,0,0,1,.68,1.21l-.68.32a6,6,0,0,0-.65-1.24Z" style="fill: #231f20"/>
      <path d="M367.43,108.5a8.13,8.13,0,0,0,.35-1.15l.86.23c0,.06-.08.08-.18.08a8.57,8.57,0,0,1-.35.88H369v.75h-3.6v-.75h2.2Zm1.45-1.87v.72h-3.35v-.72h1.22v-.69h1c0,.07-.06.11-.18.13v.51Zm-3.11,5.83v-2.71h2.88v2.68h-.81v-.31h-1.31v.34Zm.39-3.91a4.07,4.07,0,0,0-.23-1l.66-.14a3.61,3.61,0,0,1,.27,1Zm1.68,1.93h-1.31v.93h1.31Zm3.51-4.16.52.2a.15.15,0,0,1-.07.11c-.21.59-.48,1.32-.8,2.06a2.53,2.53,0,0,1,.85,1.64c0,1.28-.89,1.28-1.3,1.28h-.23a1.8,1.8,0,0,0-.24-.79h.51c.41,0,.45-.28.45-.55a2.74,2.74,0,0,0-.87-1.47c.23-.61.42-1.19.58-1.7H370v5.34h-.81v-6.12h2.18Z" style="fill: #231f20"/>
      <path d="M354,120.62a4.92,4.92,0,0,1,0-6.6l.52.46a4.28,4.28,0,0,0,0,5.67Z" style="fill: #231f20"/>
      <path d="M359,119.94h-.88v-3.51h-1.33v-.66h.4a1.12,1.12,0,0,0,1.1-.88H359Z" style="fill: #231f20"/>
      <path d="M368.17,115.18c-.13,0-.15,0-.19.06a11.08,11.08,0,0,1-1,.88v.25c0,.11,0,.23.15.23h.19c.21,0,.22-.29.23-.61l.66.27c-.12,1-.37,1-.66,1h-1c-.16,0-.2,0-.23-.08-.11.2-.12.23-.22.39h1.75v2.76h-.71v-.23h-1.91v.23h-.71v-2.76h.74a3.69,3.69,0,0,0,.26-.57l-.81.28a.14.14,0,0,0-.1.09.11.11,0,0,1-.12.1c-.06,0-.1-.13-.13-.22l-.18-.6.43-.11v-1.61l-.78,1.55a2.46,2.46,0,0,1,.57,1.46,1.12,1.12,0,0,1-1.07,1.17h0l-.3-.69v1.92h-.69v-5.8h1.92l.37.34v-.48h.67c.07,0,.22,0,.22.1a.12.12,0,0,1,0,.09c-.08.06-.1.08-.1.12v.38h.73v.64h-.73v.64l.63-.17v.64l-.23.08.5.16a.39.39,0,0,1,0-.11v-2.6H367c.18,0,.2,0,.2.09a.11.11,0,0,1-.06.08c-.06.06-.09.08-.09.13v.61a4.66,4.66,0,0,0,.55-.61l.57.3s.13.08.13.15-.06.08-.1.08m-5.06,1.35.55-1.37H363v3.1c.5,0,.69-.06.69-.41a1.92,1.92,0,0,0-.62-1.33m4.06,1.57h-1.91v.45h1.91Zm0,.93h-1.91v.46h1.91Z" style="fill: #231f20"/>
      <path d="M369.64,120.62l-.52-.46a4.28,4.28,0,0,0,0-5.67l.52-.46a4.92,4.92,0,0,1,0,6.6" style="fill: #231f20"/>
    </g>
  </a>
  <a xlink:href="/projects/shogi">
    <g id="shogi">
      <rect class="shogi" x="183.95" y="14.42" width="37.52" height="24.03" style="fill: #e6e6e6"/>
      <path d="M195,23h1c0,.07-.05.11-.18.13v6.32H195V27.6l-.75.56a.16.16,0,0,1-.08.16l-.41-.92c.31-.17.77-.44,1.24-.73V25.34l-.61.29a7.72,7.72,0,0,0-.58-1.55l.68-.29a8.64,8.64,0,0,1,.51,1.12Zm5.05.65h-.19a21.63,21.63,0,0,1-3.67.65,3.17,3.17,0,0,0-.23-.65,18.51,18.51,0,0,0,3.46-.68Zm.3,2.73v.76h-.93v1.47c0,.75-.29.9-1.58.9a3.23,3.23,0,0,0-.26-.81h.64c.32,0,.37,0,.37-.13V27.12h-1.44a5.28,5.28,0,0,1,.81,1.13l-.72.4a5.45,5.45,0,0,0-.8-1.23l.58-.3h-1v-.76h2.57v-.17l-.55-.35c.14-.13.28-.29.44-.46l-.68.19a4.87,4.87,0,0,0-.31-1.26l.71-.18a4.51,4.51,0,0,1,.35,1.17,9.1,9.1,0,0,0,.88-1.21l.86.48a.36.36,0,0,1-.21.06,11.17,11.17,0,0,1-1,1.19h.55c0,.07,0,.11-.18.13v.39Zm-3.53-2a5.37,5.37,0,0,1,.55,1.24l-.7.28a5.59,5.59,0,0,0-.51-1.28Z" style="fill: #231f20"/>
      <path d="M202.46,25.55c.19.26.74,1.09.87,1.28l-.46.62a9.14,9.14,0,0,0-.41-.87V29.5h-.77V26.88a6,6,0,0,1-.67,1.41,4,4,0,0,0-.38-.75,6.91,6.91,0,0,0,1-2.34h-.82v-.77h.88V23l.95.06q0,.09-.18.12v1.26h.76v.77h-.76Zm4.78,2.33h-1.17A9,9,0,0,1,207.28,29l-.64.47a8.38,8.38,0,0,0-1.21-1.23l.58-.39h-1.67l.66.39a.21.21,0,0,1-.13,0,5,5,0,0,1-1.43,1.2,4.56,4.56,0,0,0-.58-.56,4.63,4.63,0,0,0,1.33-1.08h-1.07v-.74h.7v-2.5h-.57v-.74h.57V23l1,0c0,.07-.06.1-.18.12v.73h1.11V23l1,0c0,.07-.06.1-.18.13v.72h.6v.74h-.6v2.5h.69Zm-1.48-3.24h-1.14V25h1.13Zm-1.14,1.45h1.13v-.41h-1.14Zm0,1h1.13v-.41h-1.14Z" style="fill: #231f20"/>
      <path d="M209.69,25.56a8.27,8.27,0,0,0,.35-1.15l.86.23c0,.06-.08.08-.18.08a8.83,8.83,0,0,1-.35.88h.85v.75h-3.6V25.6h2.19Zm1.45-1.87v.72h-3.39v-.72H209V23h1c0,.07-.06.11-.18.13v.51ZM208,29.52V26.81h2.88v2.68h-.81v-.31h-1.3v.34Zm.39-3.91a4.07,4.07,0,0,0-.23-1l.66-.14a3.61,3.61,0,0,1,.27,1Zm1.68,1.93h-1.3v.93h1.3Zm3.51-4.16.52.2a.15.15,0,0,1-.07.11c-.21.59-.48,1.32-.8,2.06a2.53,2.53,0,0,1,.85,1.64c0,1.28-.89,1.28-1.3,1.28h-.23a1.78,1.78,0,0,0-.24-.79h.51c.41,0,.45-.28.45-.55a2.74,2.74,0,0,0-.87-1.47c.23-.61.42-1.19.58-1.7h-.77V29.5h-.82V23.38h2.19Z" style="fill: #231f20"/>
    </g>
  </a>
  <a xlink:href="/projects/quiz">
    <g id="quiz">
      <rect class="quiz" x="221.69" y="14.42" width="38.37" height="24.03" style="fill: #e6e6e6"/>
      <path d="M235.84,19.71a.4.4,0,0,1-.15.13A7.19,7.19,0,0,1,232,24.4a3.26,3.26,0,0,0-.65-.66,5.84,5.84,0,0,0,3.25-3.57h-2a7.28,7.28,0,0,1-1.47,1.58,4.59,4.59,0,0,0-.71-.57,6.79,6.79,0,0,0,2.17-2.93l1.1.26a.22.22,0,0,1-.23.12c-.11.25-.25.49-.37.72h2l.12-.06Z" style="fill: #231f20"/>
      <path d="M242.91,18.92a.24.24,0,0,1-.22.08,18.31,18.31,0,0,1-1.86,1.57l.22.08a.22.22,0,0,1-.2.13v3.6h-.92V21.14a20.36,20.36,0,0,1-2.29,1.29,3.24,3.24,0,0,0-.52-.67,15.65,15.65,0,0,0,4.93-3.47Z" style="fill: #231f20"/>
      <path d="M248.9,19.3h-.09a11.52,11.52,0,0,1-1.17,2.17A29.33,29.33,0,0,1,250,23.62l-.81.64a19.21,19.21,0,0,0-2.09-2.08,10.91,10.91,0,0,1-2.39,2.09,6,6,0,0,0-.65-.67,8.26,8.26,0,0,0,3.59-3.94h-3v-.83h3.66Zm0-1a4.49,4.49,0,0,1,.72,1l-.43.28a4.78,4.78,0,0,0-.71-1Zm.82-.39a5.3,5.3,0,0,1,.72,1l-.41.28a5.84,5.84,0,0,0-.7-1Z" style="fill: #231f20"/>
      <path d="M236.19,28.33v5.23c0,.83-.35,1-1.59,1a2.76,2.76,0,0,0-.28-.82H235c.35,0,.39,0,.39-.17V29.13h-4.29v5.4h-.8V28.35Zm-1.24,2h-3.47v-.7h3.47Zm-.35,2.84h-2v.47h-.76v-2.8h2.79Zm-.77-1.65h-1.27v1h1.27Z" style="fill: #231f20"/>
      <path d="M239.24,29.37l.44.1v.14a9.48,9.48,0,0,1-.58,2.91,5.14,5.14,0,0,1,.76.73l-.5.67a5.47,5.47,0,0,0-.63-.66,3.79,3.79,0,0,1-1.26,1.28,2.68,2.68,0,0,0-.5-.65,2.93,2.93,0,0,0,1.14-1.15l-.38-.29-.06.22-.68-.35c.16-.57.33-1.35.5-2.16h-.54v-.77h.69c.09-.48.17-1,.24-1.38l.94.1c0,.06-.06.1-.18.11l-.23,1.17h.73Zm-1,.79c-.11.52-.23,1-.34,1.53l.52.35a8.26,8.26,0,0,0,.41-1.87Zm5.16.88v.79h-1.52v1.78c0,.68-.23.93-1.53.92a3.8,3.8,0,0,0-.29-.81h.69c.23,0,.29,0,.29-.12V31.83h-1.47V31H241V30h.26a6.16,6.16,0,0,0,.67-.86h-2.15v-.77h2.89l.64.39a.25.25,0,0,1-.17.1,10.41,10.41,0,0,1-1.3,1.58V31Z" style="fill: #231f20"/>
      <path d="M245.41,30.86v-.51a8.55,8.55,0,0,1-1.19.69,3.15,3.15,0,0,0-.48-.68A6.9,6.9,0,0,0,246.58,28l1.12.06a.21.21,0,0,1-.18.14,6.59,6.59,0,0,0,2.85,2,3.73,3.73,0,0,0-.54.76,8.78,8.78,0,0,1-1.18-.68v.56Zm-1.24,1.35v-.77h5.76v.77h-3.24l.21.07q0,.08-.21.08a11.7,11.7,0,0,1-.55,1.1l2.17-.06a9.44,9.44,0,0,0-.73-.75l.73-.38a9,9,0,0,1,1.6,1.79l-.77.47a5,5,0,0,0-.3-.46c-1.56.1-3.16.18-4.22.23a.15.15,0,0,1-.13.11l-.29-.91h1a11.47,11.47,0,0,0,.55-1.27Zm4.2-2.11A6.5,6.5,0,0,1,247,28.81a6.27,6.27,0,0,1-1.28,1.29Z" style="fill: #231f20"/>
    </g>
  </a>
  <g id="others">
    <rect x="93.83" y="14.32" width="14.96" height="24.14" style="fill: #fff"/>
    <rect x="93.83" y="14.32" width="14.96" height="24.14" style="fill: none;stroke: #231f20;stroke-miterlimit: 10;stroke-width: 0.5px"/>
    <path d="M102.67,18.08a1.35,1.35,0,1,1-1.35-1.4,1.38,1.38,0,0,1,1.35,1.4" style="fill: #231f20"/>
    <path d="M103,20a2.51,2.51,0,0,1,1.72,1.9c.08.29,1,4.7,1.14,5.33a.72.72,0,1,1-1.37.46c-.53-2.37-1.07-4.77-1.15-5.06s-.33-.15-.27.07c.09.38,1.52,7.11,1.52,7.11h-1.62s0,5.21,0,6.52a.8.8,0,1,1-1.61,0V29.81H101s0,6.52,0,6.54a.83.83,0,1,1-1.65,0c0-1.11,0-6.49,0-6.49H97.81l1.53-7.13a.15.15,0,1,0-.29,0c0,.19-1,4.52-1.15,5-.25,1-1.69.7-1.34-.57.14-.52,1.19-5.06,1.19-5.06.29-1.1.48-1.56,1.49-2A6.3,6.3,0,0,1,103,20" style="fill: #231f20"/>
    <polyline points="230.69 158.15 78.86 158.15 78.86 134.76 254.09 134.76 254.09 54.35 72.43 54.35 72.43 14.23 259.64 14.23" style="fill: none;stroke: #231f20;stroke-miterlimit: 10;stroke-width: 0.5px"/>
    <polyline points="108.79 38.46 259.61 38.25 259.61 6.1 302.83 6.1 302.83 28.2 276.62 28.2 276.62 35.98 285.01 35.98 285.01 28.2" style="fill: none;stroke: #231f20;stroke-miterlimit: 10;stroke-width: 0.5px"/>
    <line x1="146.27" y1="14.15" x2="146.27" y2="38.59" style="fill: none;stroke: #231f20;stroke-miterlimit: 10;stroke-width: 0.5px"/>
    <line x1="183.91" y1="14.32" x2="183.91" y2="38.58" style="fill: none;stroke: #231f20;stroke-miterlimit: 10;stroke-width: 0.5px"/>
    <line x1="221.55" y1="13.99" x2="221.55" y2="38.42" style="fill: none;stroke: #231f20;stroke-miterlimit: 10;stroke-width: 0.5px"/>
    <polyline points="79.45 54.23 79.45 87.04 69.01 87.04 69.01 107.09" style="fill: none;stroke: #231f20;stroke-miterlimit: 10;stroke-width: 0.5px"/>
    <polyline points="77.31 87.19 77.31 81.42 79.7 81.42" style="fill: none;stroke: #231f20;stroke-miterlimit: 10;stroke-width: 0.5px"/>
    <path d="M89.82,54.24V89.86h27.33s4.1-8.11,15.94-9.57v-26s39.11.16,42.86,44.26h-25.2s-.28,18.48-17.47,17.55-17.79-17.37-17.79-17.37H89.67v25.41H79.75" style="fill: none;stroke: #231f20;stroke-miterlimit: 10;stroke-width: 0.5px"/>
    <polyline points="77.14 113.59 77.14 96.52 79.4 96.52 79.4 113.9 70.56 113.9 70.56 134.78 0.25 134.78 0.25 213.89 35.83 213.89 35.83 174.49 0.02 174.5" style="fill: none;stroke: #231f20;stroke-miterlimit: 10;stroke-width: 0.5px"/>
    <polyline points="80.42 134.64 80 134.64 77.27 134.64 77.27 122.58 80.01 122.58 80 134.64" style="fill: none;stroke: #231f20;stroke-miterlimit: 10;stroke-width: 0.5px"/>
    <polyline points="79.79 129.04 171.39 129.04 171.39 117.12 171.39 98.93" style="fill: none;stroke: #231f20;stroke-miterlimit: 10;stroke-width: 0.5px"/>
    <circle cx="133.18" cy="98.31" r="8.62" style="fill: none;stroke: #231f20;stroke-miterlimit: 10;stroke-width: 0.5px"/>
    <circle cx="105.99" cy="70.99" r="6.5" style="fill: none;stroke: #231f20;stroke-miterlimit: 10;stroke-width: 0.5px"/>
    <circle cx="106.16" cy="70.94" r="15" style="fill: none;stroke: #231f20;stroke-miterlimit: 10;stroke-width: 0.5px"/>
    <path d="M132.89,57.46s38,1.67,40.12,41.15" style="fill: none;stroke: #231f20;stroke-miterlimit: 10;stroke-width: 0.5px"/>
    <path d="M132.81,60.76s36,2.09,37,37.85" style="fill: none;stroke: #231f20;stroke-miterlimit: 10;stroke-width: 0.49900001287460327px"/>
    <path d="M132.75,63.74s32.06,1,34,35" style="fill: none;stroke: #231f20;stroke-miterlimit: 10;stroke-width: 0.5px"/>
    <path d="M132.81,66.92s29.06.25,31,31.57" style="fill: none;stroke: #231f20;stroke-miterlimit: 10;stroke-width: 0.4970000088214874px"/>
    <path d="M132.75,70.59s25.94-1,28.14,27.66" style="fill: none;stroke: #231f20;stroke-miterlimit: 10;stroke-width: 0.5px"/>
    <path d="M132.91,73.48s23.57.67,25.19,25.19" style="fill: none;stroke: #231f20;stroke-miterlimit: 10;stroke-width: 0.5px"/>
    <path d="M133.18,76.71s20.61,0,21.69,22.09" style="fill: none;stroke: #231f20;stroke-miterlimit: 10;stroke-width: 0.5px"/>
    <path d="M89.44,113.34s14.24,5.49,29.26-4.6" style="fill: none;stroke: #231f20;stroke-miterlimit: 10;stroke-width: 0.49900001287460327px"/>
    <path d="M89.66,120.85s23.32,3.59,34.54-7.29" style="fill: none;stroke: #231f20;stroke-miterlimit: 10;stroke-width: 0.49900001287460327px"/>
    <polyline points="285.01 35.98 287.08 35.98 287.08 41.33" style="fill: none;stroke: #231f20;stroke-miterlimit: 10;stroke-width: 0.5px"/>
    <polyline points="276.62 35.98 270.92 35.98 270.92 54.66 275.63 54.66" style="fill: none;stroke: #231f20;stroke-miterlimit: 10;stroke-width: 0.5px"/>
    <rect x="275.89" y="40.98" width="41.05" height="91.63" style="fill: none;stroke: #231f20;stroke-miterlimit: 10;stroke-width: 0.5px"/>
    <polyline points="275.89 132.61 271.64 132.61 271.64 134.24" style="fill: none;stroke: #231f20;stroke-miterlimit: 10;stroke-width: 0.5px"/>
    <polyline points="316.94 132.61 327.88 132.61 327.88 109.03 337.6 109.03" style="fill: none;stroke: #231f20;stroke-miterlimit: 10;stroke-width: 0.48899999260902405px"/>
    <polyline points="278.37 142.93 278.37 201.54 278.37 202.1" style="fill: none;stroke: #231f20;stroke-miterlimit: 10;stroke-width: 0.5px"/>
    <polyline points="305.26 142.94 305.26 201.96 271.9 201.96 271.9 211.6" style="fill: none;stroke: #231f20;stroke-miterlimit: 10;stroke-width: 0.5px"/>
    <line x1="278.24" y1="187.31" x2="305.22" y2="187.31" style="fill: none;stroke: #231f20;stroke-miterlimit: 10;stroke-width: 0.5px"/>
    <line x1="278.33" y1="173" x2="305.21" y2="173" style="fill: none;stroke: #231f20;stroke-miterlimit: 10;stroke-width: 0.5px"/>
    <line x1="278.32" y1="158.36" x2="305.11" y2="158.36" style="fill: none;stroke: #231f20;stroke-miterlimit: 10;stroke-width: 0.5px"/>
    <line x1="117.09" y1="134.72" x2="117.09" y2="158.05" style="fill: none;stroke: #231f20;stroke-miterlimit: 10;stroke-width: 0.5px"/>
    <line x1="155.03" y1="134.72" x2="155.03" y2="158.23" style="fill: none;stroke: #231f20;stroke-miterlimit: 10;stroke-width: 0.5px"/>
    <line x1="192.61" y1="134.9" x2="192.61" y2="158.23" style="fill: none;stroke: #231f20;stroke-miterlimit: 10;stroke-width: 0.5px"/>
    <line x1="230.36" y1="134.54" x2="230.36" y2="158.25" style="fill: none;stroke: #231f20;stroke-miterlimit: 10;stroke-width: 0.5px"/>
    <line x1="181.05" y1="174.2" x2="181.05" y2="202" style="fill: none;stroke: #231f20;stroke-miterlimit: 10;stroke-width: 0.5px"/>
    <line x1="100.1" y1="174.2" x2="100.1" y2="202.15" style="fill: none;stroke: #231f20;stroke-miterlimit: 10;stroke-width: 0.5px"/>
    <polyline points="49.54 209.25 259.05 209.25 259.05 222.42 251.17 222.42 251.17 213.65 258.8 213.65" style="fill: none;stroke: #231f20;stroke-miterlimit: 10;stroke-width: 0.5px"/>
    <rect x="82.95" y="174.5" width="17.14" height="27.66" style="fill: #fff"/>
    <rect x="82.95" y="174.5" width="17.14" height="27.66" style="fill: none;stroke: #231f20;stroke-miterlimit: 10;stroke-width: 0.5px"/>
    <path d="M93.08,178.81a1.55,1.55,0,1,1-1.55-1.6,1.58,1.58,0,0,1,1.55,1.6" style="fill: #231f20"/>
    <path d="M89.06,183.36v5.32a.8.8,0,1,1-1.58,0V182.6a1.37,1.37,0,0,1,.94-1.22,8.25,8.25,0,0,1,3.15-.61,7.35,7.35,0,0,1,3.09.62,1.43,1.43,0,0,1,.91,1.2v6.08a.8.8,0,1,1-1.59,0v-5.33c0-.2-.34-.14-.35,0V198a1,1,0,1,1-1.9,0v-9a.18.18,0,1,0-.37,0v8.93a1,1,0,0,1-2,0V183.34c0-.08-.35-.14-.35,0" style="fill: #231f20"/>
    <polyline points="138.07 202.22 219.61 202.31 219.61 174.35 160.16 174.35 160.16 202" style="fill: none;stroke: #231f20;stroke-miterlimit: 10;stroke-width: 0.5px"/>
    <polyline points="219.61 202.18 259.28 202.18 259.28 174.25 242.29 174.25 242.29 202.18" style="fill: none;stroke: #231f20;stroke-miterlimit: 10;stroke-width: 0.5px"/>
    <line x1="35.58" y1="209.18" x2="40.27" y2="209.18" style="fill: none;stroke: #231f20;stroke-miterlimit: 10;stroke-width: 0.5px"/>
    <polyline points="40.13 206.76 40.13 217.99 14.68 217.99 14.68 229.94 14.68 241.35" style="fill: none;stroke: #231f20;stroke-miterlimit: 10;stroke-width: 0.5px"/>
    <polyline points="227.65 230.12 245.71 230.12 245.71 276.75 245.71 297.79 227.65 297.79" style="fill: none;stroke: #231f20;stroke-miterlimit: 10;stroke-width: 0.4959999918937683px"/>
    <line x1="227.48" y1="296.47" x2="245.62" y2="296.47" style="fill: none;stroke: #231f20;stroke-miterlimit: 10;stroke-width: 0.4959999918937683px"/>
    <line x1="227.48" y1="294.84" x2="245.62" y2="294.84" style="fill: none;stroke: #231f20;stroke-miterlimit: 10;stroke-width: 0.4959999918937683px"/>
    <line x1="227.48" y1="293.21" x2="245.62" y2="293.21" style="fill: none;stroke: #231f20;stroke-miterlimit: 10;stroke-width: 0.4959999918937683px"/>
    <line x1="227.48" y1="291.57" x2="245.62" y2="291.57" style="fill: none;stroke: #231f20;stroke-miterlimit: 10;stroke-width: 0.4959999918937683px"/>
    <line x1="227.48" y1="289.94" x2="245.62" y2="289.94" style="fill: none;stroke: #231f20;stroke-miterlimit: 10;stroke-width: 0.4959999918937683px"/>
    <line x1="227.48" y1="288.31" x2="245.62" y2="288.31" style="fill: none;stroke: #231f20;stroke-miterlimit: 10;stroke-width: 0.4959999918937683px"/>
    <line x1="227.48" y1="286.68" x2="245.62" y2="286.68" style="fill: none;stroke: #231f20;stroke-miterlimit: 10;stroke-width: 0.4959999918937683px"/>
    <line x1="227.48" y1="285.05" x2="245.62" y2="285.05" style="fill: none;stroke: #231f20;stroke-miterlimit: 10;stroke-width: 0.4959999918937683px"/>
    <line x1="227.48" y1="283.42" x2="245.62" y2="283.42" style="fill: none;stroke: #231f20;stroke-miterlimit: 10;stroke-width: 0.4959999918937683px"/>
    <line x1="227.48" y1="281.79" x2="245.62" y2="281.79" style="fill: none;stroke: #231f20;stroke-miterlimit: 10;stroke-width: 0.4959999918937683px"/>
    <line x1="227.55" y1="231.99" x2="245.61" y2="231.99" style="fill: none;stroke: #231f20;stroke-miterlimit: 10;stroke-width: 0.4959999918937683px"/>
    <line x1="227.55" y1="233.62" x2="245.61" y2="233.62" style="fill: none;stroke: #231f20;stroke-miterlimit: 10;stroke-width: 0.4959999918937683px"/>
    <line x1="227.55" y1="235.25" x2="245.61" y2="235.25" style="fill: none;stroke: #231f20;stroke-miterlimit: 10;stroke-width: 0.4959999918937683px"/>
    <line x1="227.55" y1="236.88" x2="245.61" y2="236.88" style="fill: none;stroke: #231f20;stroke-miterlimit: 10;stroke-width: 0.4959999918937683px"/>
    <line x1="227.55" y1="238.51" x2="245.61" y2="238.51" style="fill: none;stroke: #231f20;stroke-miterlimit: 10;stroke-width: 0.4959999918937683px"/>
    <line x1="227.55" y1="240.15" x2="245.61" y2="240.15" style="fill: none;stroke: #231f20;stroke-miterlimit: 10;stroke-width: 0.4959999918937683px"/>
    <line x1="227.55" y1="241.78" x2="245.61" y2="241.78" style="fill: none;stroke: #231f20;stroke-miterlimit: 10;stroke-width: 0.4959999918937683px"/>
    <line x1="227.55" y1="243.41" x2="245.61" y2="243.41" style="fill: none;stroke: #231f20;stroke-miterlimit: 10;stroke-width: 0.4959999918937683px"/>
    <line x1="227.55" y1="245.04" x2="245.61" y2="245.04" style="fill: none;stroke: #231f20;stroke-miterlimit: 10;stroke-width: 0.4959999918937683px"/>
    <line x1="227.55" y1="246.67" x2="245.61" y2="246.67" style="fill: none;stroke: #231f20;stroke-miterlimit: 10;stroke-width: 0.4959999918937683px"/>
    <line x1="137.88" y1="194.24" x2="160.09" y2="194.24" style="fill: none;stroke: #231f20;stroke-miterlimit: 10;stroke-width: 0.4959999918937683px"/>
    <line x1="137.88" y1="192.61" x2="160.09" y2="192.61" style="fill: none;stroke: #231f20;stroke-miterlimit: 10;stroke-width: 0.4959999918937683px"/>
    <line x1="137.88" y1="190.98" x2="160.09" y2="190.98" style="fill: none;stroke: #231f20;stroke-miterlimit: 10;stroke-width: 0.4959999918937683px"/>
    <line x1="137.88" y1="189.35" x2="160.09" y2="189.35" style="fill: none;stroke: #231f20;stroke-miterlimit: 10;stroke-width: 0.4959999918937683px"/>
    <line x1="137.88" y1="187.72" x2="160.09" y2="187.72" style="fill: none;stroke: #231f20;stroke-miterlimit: 10;stroke-width: 0.4959999918937683px"/>
    <line x1="137.88" y1="186.08" x2="160.09" y2="186.08" style="fill: none;stroke: #231f20;stroke-miterlimit: 10;stroke-width: 0.4959999918937683px"/>
    <line x1="137.88" y1="184.45" x2="160.09" y2="184.45" style="fill: none;stroke: #231f20;stroke-miterlimit: 10;stroke-width: 0.4959999918937683px"/>
    <line x1="137.88" y1="182.82" x2="160.09" y2="182.82" style="fill: none;stroke: #231f20;stroke-miterlimit: 10;stroke-width: 0.4959999918937683px"/>
    <line x1="137.88" y1="181.19" x2="160.09" y2="181.19" style="fill: none;stroke: #231f20;stroke-miterlimit: 10;stroke-width: 0.4959999918937683px"/>
    <line x1="137.88" y1="179.56" x2="160.09" y2="179.56" style="fill: none;stroke: #231f20;stroke-miterlimit: 10;stroke-width: 0.4959999918937683px"/>
    <line x1="137.88" y1="177.93" x2="160.09" y2="177.93" style="fill: none;stroke: #231f20;stroke-miterlimit: 10;stroke-width: 0.4959999918937683px"/>
    <line x1="137.88" y1="176.3" x2="160.09" y2="176.3" style="fill: none;stroke: #231f20;stroke-miterlimit: 10;stroke-width: 0.4959999918937683px"/>
    <line x1="137.88" y1="174.66" x2="160.09" y2="174.66" style="fill: none;stroke: #231f20;stroke-miterlimit: 10;stroke-width: 0.4959999918937683px"/>
    <line x1="219.44" y1="194.44" x2="242.06" y2="194.44" style="fill: none;stroke: #231f20;stroke-miterlimit: 10;stroke-width: 0.4959999918937683px"/>
    <line x1="219.44" y1="192.81" x2="242.06" y2="192.81" style="fill: none;stroke: #231f20;stroke-miterlimit: 10;stroke-width: 0.4959999918937683px"/>
    <line x1="219.44" y1="191.17" x2="242.06" y2="191.17" style="fill: none;stroke: #231f20;stroke-miterlimit: 10;stroke-width: 0.4959999918937683px"/>
    <line x1="219.44" y1="189.54" x2="242.06" y2="189.54" style="fill: none;stroke: #231f20;stroke-miterlimit: 10;stroke-width: 0.4959999918937683px"/>
    <line x1="219.44" y1="187.91" x2="242.06" y2="187.91" style="fill: none;stroke: #231f20;stroke-miterlimit: 10;stroke-width: 0.4959999918937683px"/>
    <line x1="219.44" y1="186.28" x2="242.06" y2="186.28" style="fill: none;stroke: #231f20;stroke-miterlimit: 10;stroke-width: 0.4959999918937683px"/>
    <line x1="219.44" y1="184.65" x2="242.06" y2="184.65" style="fill: none;stroke: #231f20;stroke-miterlimit: 10;stroke-width: 0.4959999918937683px"/>
    <line x1="219.44" y1="183.02" x2="242.06" y2="183.02" style="fill: none;stroke: #231f20;stroke-miterlimit: 10;stroke-width: 0.4959999918937683px"/>
    <line x1="219.44" y1="181.38" x2="242.06" y2="181.38" style="fill: none;stroke: #231f20;stroke-miterlimit: 10;stroke-width: 0.4959999918937683px"/>
    <line x1="219.44" y1="179.75" x2="242.06" y2="179.75" style="fill: none;stroke: #231f20;stroke-miterlimit: 10;stroke-width: 0.4959999918937683px"/>
    <line x1="219.44" y1="178.12" x2="242.06" y2="178.12" style="fill: none;stroke: #231f20;stroke-miterlimit: 10;stroke-width: 0.4959999918937683px"/>
    <line x1="219.44" y1="176.49" x2="242.06" y2="176.49" style="fill: none;stroke: #231f20;stroke-miterlimit: 10;stroke-width: 0.4959999918937683px"/>
    <line x1="219.44" y1="174.86" x2="242.06" y2="174.86" style="fill: none;stroke: #231f20;stroke-miterlimit: 10;stroke-width: 0.4959999918937683px"/>
    <line x1="149.04" y1="174.56" x2="149.04" y2="194.22" style="fill: none;stroke: #231f20;stroke-miterlimit: 10;stroke-width: 0.4959999918937683px"/>
    <line x1="231.28" y1="174.84" x2="231.28" y2="194.52" style="fill: none;stroke: #231f20;stroke-miterlimit: 10;stroke-width: 0.4959999918937683px"/>
    <polyline points="58.62 174.02 58.62 201.44 35.78 201.44" style="fill: none;stroke: #231f20;stroke-miterlimit: 10;stroke-width: 0.4959999918937683px"/>
    <line x1="35.76" y1="194.24" x2="58.54" y2="194.24" style="fill: none;stroke: #231f20;stroke-miterlimit: 10;stroke-width: 0.4959999918937683px"/>
    <line x1="35.76" y1="192.61" x2="58.54" y2="192.61" style="fill: none;stroke: #231f20;stroke-miterlimit: 10;stroke-width: 0.4959999918937683px"/>
    <line x1="35.76" y1="190.98" x2="58.54" y2="190.98" style="fill: none;stroke: #231f20;stroke-miterlimit: 10;stroke-width: 0.4959999918937683px"/>
    <line x1="35.76" y1="189.34" x2="58.54" y2="189.34" style="fill: none;stroke: #231f20;stroke-miterlimit: 10;stroke-width: 0.4959999918937683px"/>
    <line x1="35.76" y1="187.71" x2="58.54" y2="187.71" style="fill: none;stroke: #231f20;stroke-miterlimit: 10;stroke-width: 0.4959999918937683px"/>
    <line x1="35.76" y1="186.08" x2="58.54" y2="186.08" style="fill: none;stroke: #231f20;stroke-miterlimit: 10;stroke-width: 0.4959999918937683px"/>
    <line x1="35.76" y1="184.45" x2="58.54" y2="184.45" style="fill: none;stroke: #231f20;stroke-miterlimit: 10;stroke-width: 0.4959999918937683px"/>
    <line x1="35.76" y1="182.82" x2="58.54" y2="182.82" style="fill: none;stroke: #231f20;stroke-miterlimit: 10;stroke-width: 0.4959999918937683px"/>
    <line x1="35.76" y1="181.19" x2="58.54" y2="181.19" style="fill: none;stroke: #231f20;stroke-miterlimit: 10;stroke-width: 0.4959999918937683px"/>
    <line x1="35.76" y1="179.56" x2="58.54" y2="179.56" style="fill: none;stroke: #231f20;stroke-miterlimit: 10;stroke-width: 0.4959999918937683px"/>
    <line x1="35.76" y1="177.92" x2="58.54" y2="177.92" style="fill: none;stroke: #231f20;stroke-miterlimit: 10;stroke-width: 0.4959999918937683px"/>
    <line x1="35.76" y1="176.29" x2="58.54" y2="176.29" style="fill: none;stroke: #231f20;stroke-miterlimit: 10;stroke-width: 0.4959999918937683px"/>
    <line x1="35.76" y1="174.66" x2="58.54" y2="174.66" style="fill: none;stroke: #231f20;stroke-miterlimit: 10;stroke-width: 0.4959999918937683px"/>
    <line x1="47.41" y1="174.57" x2="47.41" y2="194.33" style="fill: none;stroke: #231f20;stroke-miterlimit: 10;stroke-width: 0.4959999918937683px"/>
    <rect x="52.17" y="245.34" width="27.65" height="64.88" style="fill: none;stroke: #231f20;stroke-miterlimit: 10;stroke-width: 0.5px"/>
    <rect x="52.17" y="310.22" width="27.65" height="26.47" style="fill: none;stroke: #231f20;stroke-miterlimit: 10;stroke-width: 0.5px"/>
    <polyline points="79.82 336.69 79.82 360.64 52.17 360.64 52.17 336.69 52.17 360.64" style="fill: none;stroke: #231f20;stroke-miterlimit: 10;stroke-width: 0.5px"/>
    <polyline points="52.13 348.72 69.48 348.72 70.11 348.72" style="fill: none;stroke: #231f20;stroke-miterlimit: 10;stroke-width: 0.5px"/>
    <line x1="53.8" y1="336.69" x2="53.8" y2="360.64" style="fill: none;stroke: #231f20;stroke-miterlimit: 10;stroke-width: 0.5px"/>
    <line x1="55.44" y1="336.69" x2="55.44" y2="360.64" style="fill: none;stroke: #231f20;stroke-miterlimit: 10;stroke-width: 0.5px"/>
    <line x1="57.07" y1="336.69" x2="57.07" y2="360.64" style="fill: none;stroke: #231f20;stroke-miterlimit: 10;stroke-width: 0.5px"/>
    <line x1="58.7" y1="336.69" x2="58.7" y2="360.64" style="fill: none;stroke: #231f20;stroke-miterlimit: 10;stroke-width: 0.5px"/>
    <line x1="60.33" y1="336.69" x2="60.33" y2="360.64" style="fill: none;stroke: #231f20;stroke-miterlimit: 10;stroke-width: 0.5px"/>
    <line x1="61.96" y1="336.69" x2="61.96" y2="360.64" style="fill: none;stroke: #231f20;stroke-miterlimit: 10;stroke-width: 0.5px"/>
    <line x1="63.59" y1="336.69" x2="63.59" y2="360.64" style="fill: none;stroke: #231f20;stroke-miterlimit: 10;stroke-width: 0.5px"/>
    <line x1="65.22" y1="336.69" x2="65.22" y2="360.64" style="fill: none;stroke: #231f20;stroke-miterlimit: 10;stroke-width: 0.5px"/>
    <line x1="66.86" y1="336.69" x2="66.86" y2="360.64" style="fill: none;stroke: #231f20;stroke-miterlimit: 10;stroke-width: 0.5px"/>
    <line x1="68.49" y1="336.69" x2="68.49" y2="360.64" style="fill: none;stroke: #231f20;stroke-miterlimit: 10;stroke-width: 0.5px"/>
    <line x1="70.12" y1="336.69" x2="70.12" y2="360.64" style="fill: none;stroke: #231f20;stroke-miterlimit: 10;stroke-width: 0.5px"/>
    <line x1="14.67" y1="241.35" x2="14.67" y2="245.31" style="fill: none;stroke: #231f20;stroke-miterlimit: 10;stroke-width: 0.5px"/>
    <line x1="25.53" y1="217.93" x2="25.53" y2="245.36" style="fill: none;stroke: #231f20;stroke-miterlimit: 10;stroke-width: 0.5px"/>
    <line x1="27.16" y1="217.93" x2="27.16" y2="245.36" style="fill: none;stroke: #231f20;stroke-miterlimit: 10;stroke-width: 0.5px"/>
    <line x1="28.79" y1="217.93" x2="28.79" y2="245.36" style="fill: none;stroke: #231f20;stroke-miterlimit: 10;stroke-width: 0.5px"/>
    <line x1="30.42" y1="217.93" x2="30.42" y2="245.36" style="fill: none;stroke: #231f20;stroke-miterlimit: 10;stroke-width: 0.5px"/>
    <line x1="32.06" y1="217.93" x2="32.06" y2="245.36" style="fill: none;stroke: #231f20;stroke-miterlimit: 10;stroke-width: 0.5px"/>
    <line x1="33.69" y1="217.93" x2="33.69" y2="245.36" style="fill: none;stroke: #231f20;stroke-miterlimit: 10;stroke-width: 0.5px"/>
    <line x1="35.32" y1="217.93" x2="35.32" y2="245.36" style="fill: none;stroke: #231f20;stroke-miterlimit: 10;stroke-width: 0.5px"/>
    <line x1="36.95" y1="217.93" x2="36.95" y2="245.36" style="fill: none;stroke: #231f20;stroke-miterlimit: 10;stroke-width: 0.5px"/>
    <line x1="23.98" y1="231.66" x2="38.55" y2="231.66" style="fill: none;stroke: #231f20;stroke-miterlimit: 10;stroke-width: 0.5px"/>
    <line x1="254.8" y1="222.23" x2="254.8" y2="263.62" style="fill: none;stroke: #231f20;stroke-miterlimit: 10;stroke-width: 0.5px"/>
    <line x1="327.88" y1="109.03" x2="337.6" y2="109.03" style="fill: none;stroke: #231f20;stroke-miterlimit: 10;stroke-width: 0.48899999260902405px"/>
    <line x1="327.88" y1="113.93" x2="337.6" y2="113.93" style="fill: none;stroke: #231f20;stroke-miterlimit: 10;stroke-width: 0.48899999260902405px"/>
    <line x1="327.88" y1="115.56" x2="337.6" y2="115.56" style="fill: none;stroke: #231f20;stroke-miterlimit: 10;stroke-width: 0.48899999260902405px"/>
    <line x1="327.88" y1="117.19" x2="337.6" y2="117.19" style="fill: none;stroke: #231f20;stroke-miterlimit: 10;stroke-width: 0.48899999260902405px"/>
    <line x1="327.88" y1="118.82" x2="337.6" y2="118.82" style="fill: none;stroke: #231f20;stroke-miterlimit: 10;stroke-width: 0.48899999260902405px"/>
    <line x1="327.88" y1="120.45" x2="337.6" y2="120.45" style="fill: none;stroke: #231f20;stroke-miterlimit: 10;stroke-width: 0.48899999260902405px"/>
    <line x1="327.88" y1="122.08" x2="337.6" y2="122.08" style="fill: none;stroke: #231f20;stroke-miterlimit: 10;stroke-width: 0.48899999260902405px"/>
    <line x1="327.88" y1="123.72" x2="337.6" y2="123.72" style="fill: none;stroke: #231f20;stroke-miterlimit: 10;stroke-width: 0.48899999260902405px"/>
    <line x1="327.88" y1="125.35" x2="337.6" y2="125.35" style="fill: none;stroke: #231f20;stroke-miterlimit: 10;stroke-width: 0.48899999260902405px"/>
    <line x1="327.88" y1="126.98" x2="337.6" y2="126.98" style="fill: none;stroke: #231f20;stroke-miterlimit: 10;stroke-width: 0.48899999260902405px"/>
    <line x1="327.88" y1="128.61" x2="337.6" y2="128.61" style="fill: none;stroke: #231f20;stroke-miterlimit: 10;stroke-width: 0.48899999260902405px"/>
    <line x1="327.88" y1="130.24" x2="337.6" y2="130.24" style="fill: none;stroke: #231f20;stroke-miterlimit: 10;stroke-width: 0.48899999260902405px"/>
    <polyline points="368.69 144.4 368.69 126.02 385.55 126.02" style="fill: none;stroke: #231f20;stroke-miterlimit: 10;stroke-width: 0.48899999260902405px"/>
    <polyline points="49.38 206.71 49.38 218.24 54.31 218.24 54.31 245.41" style="fill: none;stroke: #231f20;stroke-miterlimit: 10;stroke-width: 0.48899999260902405px"/>
    <polyline points="0.07 158.17 36 158.17 36 134.89" style="fill: none;stroke: #231f20;stroke-miterlimit: 10;stroke-width: 0.48899999260902405px"/>
    <polyline points="36 158.17 59.06 158.17 59.06 134.66" style="fill: none;stroke: #231f20;stroke-miterlimit: 10;stroke-width: 0.48899999260902405px"/>
    <polyline points="254.85 224.62 252.75 224.62 252.75 226.57 254.7 226.57" style="fill: none;stroke: #231f20;stroke-miterlimit: 10;stroke-width: 0.48899999260902405px"/>
    <polyline points="254.85 229.94 252.68 229.94 252.68 232.11 254.7 232.11" style="fill: none;stroke: #231f20;stroke-miterlimit: 10;stroke-width: 0.48899999260902405px"/>
    <polyline points="254.93 235.34 252.68 235.34 252.68 237.66 254.78 237.66" style="fill: none;stroke: #231f20;stroke-miterlimit: 10;stroke-width: 0.48899999260902405px"/>
    <polyline points="254.78 240.66 252.6 240.66 252.6 243.06 254.85 243.06" style="fill: none;stroke: #231f20;stroke-miterlimit: 10;stroke-width: 0.48899999260902405px"/>
    <polyline points="254.87 246.16 252.52 246.16 252.52 248.38 254.87 248.38" style="fill: none;stroke: #231f20;stroke-miterlimit: 10;stroke-width: 0.48899999260902405px"/>
    <polyline points="385.7 144.52 385.71 156.79 328.79 156.79 328.79 143.08 271.94 143.08 271.94 140.07" style="fill: none;stroke: #231f20;stroke-miterlimit: 10;stroke-width: 0.46000000834465027px"/>
    <line x1="39.81" y1="360.6" x2="52.17" y2="360.6" style="fill: none;stroke: #231f20;stroke-miterlimit: 10;stroke-width: 0.46000000834465027px"/>
    <path d="M292,86.21a4.89,4.89,0,0,0,.06,1,5.67,5.67,0,0,0,.29-.83l.78.21c0,.06-.08.08-.17.08a6.56,6.56,0,0,1-.77,1.67c.09.48.19.77.32.77s.16-.28.18-.87a1.54,1.54,0,0,0,.48.43c-.11.88-.28,1.14-.73,1.14-.17,0-.5,0-.76-.81a4.37,4.37,0,0,1-.95.8,4.15,4.15,0,0,0-.43-.52,3.66,3.66,0,0,0,.49-.34h-1v.43h-.63V86.48H291V88.7a4,4,0,0,0,.47-.55,17.7,17.7,0,0,1-.19-1.93H288.9v-.64h.45a4,4,0,0,0-.16-.89l.43-.1H289v-.34h-.29v5.51h-.69V88.52l-1.18.29a.16.16,0,0,1-.11.12l-.25-.83.41-.07V84.24h-.37v-.73h2.53V84h.63v-.73h.88c0,.06,0,.1-.17.12V84h.7v.61h-.62l.63.14a.22.22,0,0,1-.16.08c-.07.22-.18.54-.28.77h.57V83.27l.89.06q0,.09-.18.12v.37l.48-.25a4.29,4.29,0,0,1,.68,1.11l-.57.32a5.23,5.23,0,0,0-.59-1.06v1.67h1.11v.64Zm-3.93-2h-.46V85h.46Zm0,1.41h-.46v.75h.46Zm-.46,2.26.46-.08V87h-.46Zm2.6-2.42a8.81,8.81,0,0,0,.21-.92h-.68a3.11,3.11,0,0,1,.2.91l-.32.08h.88Zm.17,1.55h-.6v.35h.6Zm-.6,1.27h.6v-.37h-.6Z" style="fill: #231f20"/>
    <path d="M299.28,88.55h-1.1c.65.19,1.36.45,1.84.64l-.73.59a18.16,18.16,0,0,0-2.24-.81l.58-.41h-1.88l.55.37a.23.23,0,0,1-.14,0,8.32,8.32,0,0,1-2,.79,5.8,5.8,0,0,0-.63-.6,8.11,8.11,0,0,0,1.78-.61h-1.06V85.42h5.07Zm-.41-3.34H294.6V83.46h4.27ZM295,86.33h3.38V86H295Zm0,.82h3.38v-.3H295Zm0,.83h3.38v-.3H295ZM298,84.11h-2.55v.45H298Z" style="fill: #231f20"/>
    <path d="M304.05,88.83h2.7v.73h-6.16v-.73h2.62v-.51h-1.95v-.71h1.95v-.48l1,.06c0,.07-.06.11-.19.13v.28h2v.71h-2Zm-2.7-3.09v-.42h-.6v-1.5h2.48v-.59l1,.06c0,.07-.06.11-.19.13v.4h2.54v1.5h-.66v.42H305a7.91,7.91,0,0,1,1.33,1.15l-.59.46a3.37,3.37,0,0,0-.31-.34c-1.43.08-2.91.13-3.91.17a.14.14,0,0,1-.12.1l-.33-.84H302a7.51,7.51,0,0,0,.35-.69Zm4.39-1.17h-4.22V85h4.23Zm-2.36,1.17h0a.36.36,0,0,1-.19.07,6.69,6.69,0,0,1-.36.59h1.84l-.48-.37.36-.26Z" style="fill: #231f20"/>
    <line x1="302.83" y1="6.1" x2="302.83" y2="28.2" style="fill: none"/>
    <line x1="294.68" y1="6.1" x2="294.68" y2="28.2" style="fill: none"/>
    <line x1="294.68" y1="6.1" x2="294.68" y2="28.2" style="fill: none;stroke: #000;stroke-miterlimit: 10;stroke-width: 0.5px"/>
    <line x1="293.04" y1="6.1" x2="293.04" y2="28.2" style="fill: none"/>
    <line x1="293.04" y1="6.1" x2="293.04" y2="28.2" style="fill: none;stroke: #000;stroke-miterlimit: 10;stroke-width: 0.5px"/>
    <line x1="291.41" y1="6.1" x2="291.41" y2="28.2" style="fill: none"/>
    <line x1="291.41" y1="6.1" x2="291.41" y2="28.2" style="fill: none;stroke: #000;stroke-miterlimit: 10;stroke-width: 0.5px"/>
    <line x1="289.78" y1="6.1" x2="289.78" y2="28.2" style="fill: none"/>
    <line x1="289.78" y1="6.1" x2="289.78" y2="28.2" style="fill: none;stroke: #000;stroke-miterlimit: 10;stroke-width: 0.5px"/>
    <line x1="288.15" y1="6.1" x2="288.15" y2="28.2" style="fill: none"/>
    <line x1="288.15" y1="6.1" x2="288.15" y2="28.2" style="fill: none;stroke: #000;stroke-miterlimit: 10;stroke-width: 0.5px"/>
    <line x1="286.52" y1="6.1" x2="286.52" y2="28.2" style="fill: none"/>
    <line x1="286.52" y1="6.1" x2="286.52" y2="28.2" style="fill: none;stroke: #000;stroke-miterlimit: 10;stroke-width: 0.5px"/>
    <line x1="284.89" y1="6.1" x2="284.89" y2="28.2" style="fill: none"/>
    <line x1="284.89" y1="6.1" x2="284.89" y2="28.2" style="fill: none;stroke: #000;stroke-miterlimit: 10;stroke-width: 0.5px"/>
    <line x1="283.26" y1="6.1" x2="283.26" y2="28.2" style="fill: none"/>
    <line x1="283.26" y1="6.1" x2="283.26" y2="28.2" style="fill: none;stroke: #000;stroke-miterlimit: 10;stroke-width: 0.5px"/>
    <line x1="281.62" y1="6.1" x2="281.62" y2="28.2" style="fill: none"/>
    <line x1="281.62" y1="6.1" x2="281.62" y2="28.2" style="fill: none;stroke: #000;stroke-miterlimit: 10;stroke-width: 0.5px"/>
    <line x1="279.99" y1="6.1" x2="279.99" y2="28.2" style="fill: none"/>
    <line x1="279.99" y1="6.1" x2="279.99" y2="28.2" style="fill: none;stroke: #000;stroke-miterlimit: 10;stroke-width: 0.5px"/>
    <line x1="278.36" y1="6.1" x2="278.36" y2="28.2" style="fill: none"/>
    <line x1="278.36" y1="6.1" x2="278.36" y2="28.2" style="fill: none;stroke: #000;stroke-miterlimit: 10;stroke-width: 0.5px"/>
    <line x1="294.61" y1="16.84" x2="278.06" y2="16.84" style="fill: none"/>
    <line x1="294.61" y1="16.84" x2="278.06" y2="16.84" style="fill: none;stroke: #000;stroke-miterlimit: 10;stroke-width: 0.5px"/>
    <line x1="72.43" y1="14.23" x2="93.83" y2="14.23" style="fill: none"/>
    <line x1="72.43" y1="14.23" x2="93.83" y2="14.23" style="fill: none;stroke: #000;stroke-miterlimit: 10;stroke-width: 0.5px"/>
    <line x1="72.43" y1="20.75" x2="93.83" y2="20.75" style="fill: none"/>
    <line x1="72.43" y1="20.75" x2="93.83" y2="20.75" style="fill: none;stroke: #000;stroke-miterlimit: 10;stroke-width: 0.5px"/>
    <line x1="72.43" y1="22.38" x2="93.83" y2="22.38" style="fill: none"/>
    <line x1="72.43" y1="22.38" x2="93.83" y2="22.38" style="fill: none;stroke: #000;stroke-miterlimit: 10;stroke-width: 0.5px"/>
    <line x1="72.43" y1="24.02" x2="93.83" y2="24.02" style="fill: none"/>
    <line x1="72.43" y1="24.02" x2="93.83" y2="24.02" style="fill: none;stroke: #000;stroke-miterlimit: 10;stroke-width: 0.5px"/>
    <line x1="72.43" y1="25.65" x2="93.83" y2="25.65" style="fill: none"/>
    <line x1="72.43" y1="25.65" x2="93.83" y2="25.65" style="fill: none;stroke: #000;stroke-miterlimit: 10;stroke-width: 0.5px"/>
    <line x1="72.43" y1="27.28" x2="93.83" y2="27.28" style="fill: none"/>
    <line x1="72.43" y1="27.28" x2="93.83" y2="27.28" style="fill: none;stroke: #000;stroke-miterlimit: 10;stroke-width: 0.5px"/>
    <line x1="72.43" y1="28.91" x2="93.83" y2="28.91" style="fill: none"/>
    <line x1="72.43" y1="28.91" x2="93.83" y2="28.91" style="fill: none;stroke: #000;stroke-miterlimit: 10;stroke-width: 0.5px"/>
    <line x1="72.43" y1="30.54" x2="93.83" y2="30.54" style="fill: none"/>
    <line x1="72.43" y1="30.54" x2="93.83" y2="30.54" style="fill: none;stroke: #000;stroke-miterlimit: 10;stroke-width: 0.5px"/>
    <line x1="72.43" y1="32.17" x2="93.83" y2="32.17" style="fill: none"/>
    <line x1="72.43" y1="32.17" x2="93.83" y2="32.17" style="fill: none;stroke: #000;stroke-miterlimit: 10;stroke-width: 0.5px"/>
    <line x1="72.43" y1="33.8" x2="93.83" y2="33.8" style="fill: none"/>
    <line x1="72.43" y1="33.8" x2="93.83" y2="33.8" style="fill: none;stroke: #000;stroke-miterlimit: 10;stroke-width: 0.5px"/>
    <line x1="72.43" y1="35.44" x2="93.83" y2="35.44" style="fill: none"/>
    <line x1="72.43" y1="35.44" x2="93.83" y2="35.44" style="fill: none;stroke: #000;stroke-miterlimit: 10;stroke-width: 0.5px"/>
    <line x1="72.43" y1="37.07" x2="93.83" y2="37.07" style="fill: none"/>
    <line x1="72.43" y1="37.07" x2="93.83" y2="37.07" style="fill: none;stroke: #000;stroke-miterlimit: 10;stroke-width: 0.5px"/>
    <line x1="82.99" y1="20.76" x2="82.99" y2="37.22" style="fill: none"/>
    <line x1="82.99" y1="20.76" x2="82.99" y2="37.22" style="fill: none;stroke: #000;stroke-miterlimit: 10;stroke-width: 0.5px"/>
    <path d="M237.57,149.1a14.25,14.25,0,0,1-2.07.14,8.14,8.14,0,0,1-1.44-.1,1.44,1.44,0,0,1-1.27-1.42,2.17,2.17,0,0,1,.65-1.45l.74.33a1.45,1.45,0,0,0-.5,1c0,.82,1,.82,1.69.82a11.82,11.82,0,0,0,2.13-.19Zm-3.38-3.59a7.63,7.63,0,0,1,.88-.61h0a17.23,17.23,0,0,1-1.91.07v-.85h.48a20.45,20.45,0,0,0,3.51-.21l.07.89a5.23,5.23,0,0,0-2.26,1.08Zm3.23,1.17a4.94,4.94,0,0,0-.84-.9l.36-.32a4.6,4.6,0,0,1,.87.89Zm.77-.73a5.07,5.07,0,0,0-.85-.89l.36-.32a4.65,4.65,0,0,1,.86.88Z" style="fill: #231f20"/>
    <path d="M245.24,148.19h-2.13a6.86,6.86,0,0,0,2.33.79,3.5,3.5,0,0,0-.53.7,6.38,6.38,0,0,1-2.43-1.17v1.24h-.83v-1.2a6.13,6.13,0,0,1-2.37,1.13,3.29,3.29,0,0,0-.51-.66,6.62,6.62,0,0,0,2.3-.83h-2.12v-.68h2.71V147a13.7,13.7,0,0,1-2.15.29,2,2,0,0,0-.27-.64,14.55,14.55,0,0,0,2.17-.24l-.56-.13-.08.09-.78-.21.54-.64H239v-.65h2c.13-.18.26-.35.37-.52H240v.39h-.77v-1.07h2.44v-.47h1c0,.08-.06.11-.18.14v.28H245v1.07h-.8v-.39h-2.63l.76.23c0,.06-.09.08-.21.07l-.16.21h3.22v.65h-1.28a2.55,2.55,0,0,1-.57.73c.58.17,1.12.33,1.52.48l-.5.58a17,17,0,0,0-1.77-.59,6.23,6.23,0,0,1-.84.27h.95c0,.07-.06.11-.19.13v.29h2.77Zm-3.79-2.63-.2.26,1.19.26a1.52,1.52,0,0,0,.51-.52Z" style="fill: #231f20"/>
    <path d="M251.65,144.4v4.41c0,.85-.35,1-1.73,1a2.77,2.77,0,0,0-.27-.82h.71c.42,0,.47,0,.47-.16v-3.6h-1.69a5.89,5.89,0,0,1-.08.68,17.81,17.81,0,0,1,1.74,1.76l-.7.53a12.49,12.49,0,0,0-1.3-1.46,3.61,3.61,0,0,1-1.52,1.64,3.45,3.45,0,0,0-.52-.57v2h-.83V144.4h2.37v-1.16l1,.06c0,.07-.06.12-.19.14v1Zm-4.89.81v2.47a2.72,2.72,0,0,0,1.53-2.47Z" style="fill: #231f20"/>
    <path d="M75.89,6.84h2.86v.41h-6.1V6.84h2.78V6.16H76s0,.08-.14.1Zm2.56,2.72V12c0,.27-.06.41-.28.49a4.51,4.51,0,0,1-1.19.08,1.88,1.88,0,0,0-.15-.44h.72c.39,0,.44,0,.44-.15V10H73.43v2.61H73v-3ZM73.82,7.67h3.75V9.1H73.82ZM77.11,8H74.27v.73h2.84ZM77,11.91H74.75v.37h-.42V10.44H77Zm-.42-1.12H74.75v.77h1.83Z" style="fill: #231f20"/>
    <path d="M81,8.68c.21.26.79,1.09.93,1.29l-.27.37c-.12-.24-.42-.73-.66-1.11v3.33h-.44V9.14a7.55,7.55,0,0,1-.94,2.09,1.86,1.86,0,0,0-.25-.41A8.1,8.1,0,0,0,80.46,8.1h-1V7.66h1.06V6.14h.57s0,.08-.14.09V7.62h.88v.44H81Zm2,.47a5.52,5.52,0,0,0,.78,1.46,4.54,4.54,0,0,0,.7-1.49l.57.13a.15.15,0,0,1-.15.08A5.1,5.1,0,0,1,84.08,11a4.43,4.43,0,0,0,1.78,1.23,1.9,1.9,0,0,0-.32.41,4.84,4.84,0,0,1-1.75-1.28,5.19,5.19,0,0,1-1.91,1.28,2.14,2.14,0,0,0-.25-.37A4.75,4.75,0,0,0,83.51,11a6.41,6.41,0,0,1-.9-1.7Zm.34-1.06a.14.14,0,0,1-.13.06,5.54,5.54,0,0,1-1.15,1.5,2.65,2.65,0,0,0-.32-.28,4.48,4.48,0,0,0,1.1-1.48Zm2.4-.88v.43H81.88V7.21h1.68v-1h.59s0,.08-.14.1v.91Zm-.3,2.38a7.07,7.07,0,0,0-1.16-1.53l.37-.21a7.19,7.19,0,0,1,1.18,1.5Z" style="fill: #231f20"/>
    <path d="M87.85,8.68c.21.26.79,1.09.93,1.29l-.27.37a12.58,12.58,0,0,0-.66-1.1v3.33h-.44V9.17a7.7,7.7,0,0,1-.93,2.08,2.21,2.21,0,0,0-.25-.41,8.26,8.26,0,0,0,1.13-2.72h-1V7.69h1V6.17h.57s0,.08-.13.09V7.65h1v.43h-.88Zm4.55,1.66H91.16a6.24,6.24,0,0,0,1.64,1.61,2,2,0,0,0-.33.35,7.5,7.5,0,0,1-1.57-1.72v2h-.45V10.67a6.06,6.06,0,0,1-1.73,1.69A1.81,1.81,0,0,0,88.4,12a5.22,5.22,0,0,0,1.79-1.64H89V8h1.45V7.41h-1.7V7h1.7V6.2H91s0,.08-.14.1V7h1.76v.41H90.9V8h1.5ZM89.4,9h1V8.34h-1Zm0,1h1V9.32h-1Zm2.54-1.64H90.88V9h1.06Zm0,1H90.88V10h1.06Z" style="fill: #231f20"/>
    <path d="M17.06,366.88H15.19a6.84,6.84,0,0,0,2.56,1.62,2,2,0,0,0-.32.4,7.41,7.41,0,0,1-2.68-1.9v2h-.48v-1.93a7.57,7.57,0,0,1-2.62,1.82,2,2,0,0,0-.32-.39,7,7,0,0,0,2.54-1.61H12.15v-2.55h2.16v-.63H11.53v-.44h2.78v-.67h.61s0,.08-.14.1v.54h2.85v.44H14.75v.63H17Zm-4.46-1.46h1.7v-.71H12.6Zm0,1.08h1.7v-.73H12.6Zm4-1.79H14.75v.71h1.81Zm0,1.07H14.75v.73h1.81Z" style="fill: #231f20"/>
    <path d="M23,363.4h1.52v1.1h-.43v-.7H21.55v.7h-.41v-.6l-.3.27a7.4,7.4,0,0,0-1-1.06,7.53,7.53,0,0,1-1,1.34h.79v-.68h.53s0,.08-.13.09v.56h.84v2.25H19.19V368l1-.23a6.87,6.87,0,0,0-.51-.64l.35-.19a6.21,6.21,0,0,1,1.12,1.57l-.37.22a4.55,4.55,0,0,0-.35-.62l-1.93.5a.12.12,0,0,1-.08.1l-.21-.5.52-.11v-3.58l-.21.21a1.3,1.3,0,0,0-.33-.29,6.19,6.19,0,0,0,1.38-1.86l.55.08a.13.13,0,0,1-.13.09,7.9,7.9,0,0,1,1.11,1.09v-.45h1.46v-.81h.59s0,.08-.14.09Zm-2.6,1.41H19.19v.57h1.25Zm-1.25,1.52h1.25v-.6H19.19ZM22,366.2v.6h2.31V369h-.44v-.29H22V369h-.43v-4.54H24v1.74Zm1.61-1.35H22v1h1.61Zm.27,2.35H22v1.06h1.88Z" style="fill: #231f20"/>
    <path d="M118.21,301h-2.52a6.37,6.37,0,0,0,2.75,2.91,2,2,0,0,0-.35.41,7,7,0,0,1-2.7-2.94v2.26h1.36v.47h-1.38v1.34h-.48v-1.34h-1.4v-.47h1.4v-2.25a7.49,7.49,0,0,1-2.69,2.94,2.51,2.51,0,0,0-.33-.38,6.77,6.77,0,0,0,2.72-3H112.1v-.47h2.79V299h.62s0,.08-.14.1v1.36h2.82Z" style="fill: #231f20"/>
    <path d="M123.64,299.86h1.52V301h-.41v-.7h-2.58v.7h-.42v-.6l-.3.27a7.53,7.53,0,0,0-1-1.06,7.57,7.57,0,0,1-1,1.34h.79v-.68h.53s0,.08-.13.09v.56h.84v2.25h-1.73v1.31l1-.23a6.84,6.84,0,0,0-.51-.64l.35-.19a6.23,6.23,0,0,1,1.16,1.58l-.37.22a4.67,4.67,0,0,0-.35-.62l-1.93.5a.12.12,0,0,1-.08.1l-.21-.5.52-.11V301l-.21.22a1.26,1.26,0,0,0-.33-.29,6.23,6.23,0,0,0,1.38-1.86l.55.08a.13.13,0,0,1-.13.09,8,8,0,0,1,1.11,1.09v-.45h1.46v-.81h.59s0,.08-.14.09Zm-2.6,1.41h-1.29v.57H121Zm-1.25,1.52H121v-.59h-1.29Zm2.81-.13v.6h2.31v2.15h-.44v-.29h-1.88v.33h-.43v-4.54h2.47v1.74Zm1.61-1.35H122.6v1h1.61Zm.27,2.35H122.6v1.06h1.88Z" style="fill: #231f20"/>
    <path d="M235.61,124.74h2.58V128h-.44v-.41h-2.11v2.3h-.48v-2.3h-2.08V128h-.46v-3.29h2.54v-1.26h.62s0,.08-.14.1ZM233,127.12h2.08V125.2H233Zm2.56,0h2.14V125.2h-2.11Z" style="fill: #231f20"/>
    <path d="M245.41,127.56V128h-2.86v1.34c0,.58-.33.59-1.61.59a2.09,2.09,0,0,0-.2-.46h.88c.4,0,.45,0,.45-.15V128h-2.83v-.43h2.83V127h.32a5.64,5.64,0,0,0,1-.66h-3v-.41H244l.36.23a.15.15,0,0,1-.1.06,7.43,7.43,0,0,1-1.68,1.14v.25Zm-5.56-2.48v1.11h-.44v-1.53h1.08a5,5,0,0,0-.61-.9l.39-.19a4.47,4.47,0,0,1,.7,1l-.2.1h1.46a4.92,4.92,0,0,0-.55-1.06l.4-.15a4.42,4.42,0,0,1,.58,1.11l-.24.1h1.21a8.21,8.21,0,0,0,.79-1.13,2.61,2.61,0,0,1,.54.23.14.14,0,0,1-.15,0,10,10,0,0,1-.66.85h1.13v1.53h-.46v-1.11Z" style="fill: #231f20"/>
    <path d="M247.56,126c.21.26.79,1.09.92,1.29l-.27.37c-.12-.24-.42-.73-.66-1.1v3.33h-.44v-3.4a7.69,7.69,0,0,1-.93,2.08,2.3,2.3,0,0,0-.25-.41,8.27,8.27,0,0,0,1.13-2.72h-1V125h1v-1.52h.57s0,.08-.13.09V125h.88v.44h-.88Zm4.55,1.66h-1.24a6.24,6.24,0,0,0,1.64,1.61,1.92,1.92,0,0,0-.33.35,7.51,7.51,0,0,1-1.57-1.72v2h-.45V128a6,6,0,0,1-1.73,1.68,1.8,1.8,0,0,0-.32-.37,5.19,5.19,0,0,0,1.79-1.64h-1.15V125.3h1.45v-.59h-1.7v-.41h1.7v-.8h.59s0,.08-.14.1v.67h1.76v.41h-1.76v.59h1.5Zm-3-1.36h1v-.64h-1Zm0,1h1v-.66h-1Zm2.54-1.64h-1.06v.64h1.06Zm0,1h-1.06v.66h1.06Z" style="fill: #231f20"/>
    <path d="M326.75,43.25h-2.21v1.08h1.86v4.38h-.47V48.3h-4.62v.44h-.45V44.33h1.66V43.25h-2V42.8h6.23Zm-.81,4.62v-3.1h-1.42v1.35c0,.15,0,.18.21.18h.59c.16,0,.19-.07.21-.57a1.33,1.33,0,0,0,.4.17c-.06.65-.17.81-.55.81h-.7c-.49,0-.6-.12-.6-.59V44.77H323v.3a2.36,2.36,0,0,1-1.15,2.09,1.39,1.39,0,0,0-.34-.3,2,2,0,0,0,1-1.8v-.29h-1.22v3.1Zm-1.86-4.62H323v1.08h1.09Z" style="fill: #231f20"/>
    <path d="M322.31,52.42a8.07,8.07,0,0,0-1.15-2l.42-.23a8.23,8.23,0,0,1,1.19,2Zm4-1.92c0,.06-.08.09-.18.09a6.85,6.85,0,0,1-3.86,4.72,2.3,2.3,0,0,0-.34-.37,6.44,6.44,0,0,0,3.74-4.65Zm-1.75-1.33a4.91,4.91,0,0,1,.81,1.07l-.28.19a5.34,5.34,0,0,0-.79-1.07Zm1.26-.16a5.5,5.5,0,0,1,.82,1.06l-.29.18a5.41,5.41,0,0,0-.8-1Z" style="fill: #231f20"/>
    <path d="M323.34,56.42l.71.06c0,.08-.07.12-.19.15v5.65h-.52Z" style="fill: #231f20"/>
    <path d="M321.24,63.8a8.63,8.63,0,0,1,2.06.94l-.26.44a8.81,8.81,0,0,0-2-1Zm0,4.78a7.36,7.36,0,0,0,4.91-4,2.68,2.68,0,0,0,.45.28A7.91,7.91,0,0,1,321.71,69a.23.23,0,0,1-.1.16Z" style="fill: #231f20"/>
    <path d="M390.16,90.44h-1.41V91h-.41V88.63a4.12,4.12,0,0,1-.41.69,3,3,0,0,0-.26-.38,7.76,7.76,0,0,0,1-3.18h-.9v-.44h2.69v.44h-1.33a14,14,0,0,1-.36,1.67h1.44Zm-.42-2.53h-1V90h1Zm4.37,0v.44h-.86v3h-.44v-3h-1.06a3.81,3.81,0,0,1-1.38,3,2.14,2.14,0,0,0-.37-.27,3.45,3.45,0,0,0,1.3-2.78h-.87V88h.88V85.8h-.67v-.44H394v.44h-.73V88Zm-2.4,0h1.1V85.8h-1.06Z" style="fill: #231f20"/>
    <path d="M388.49,94.43a8.16,8.16,0,0,1-.72,1.11,3.93,3.93,0,0,0-.23-.45A9.41,9.41,0,0,0,389.06,92l.54.17a.24.24,0,0,1-.16.08,13.65,13.65,0,0,1-.53,1.37h.16s0,.08-.13.09v4.62h-.45Zm1.07-1.68h.55s0,.08-.13.09v4.3h-.42Zm4.46.35h-.57a3.62,3.62,0,0,1-1,1.26,5.44,5.44,0,0,0,1.82.68,1.64,1.64,0,0,0-.26.37,5.59,5.59,0,0,1-1.88-.79,6.17,6.17,0,0,1-1.8.84,2.17,2.17,0,0,0-.26-.36,5.69,5.69,0,0,0,1.72-.74,3.73,3.73,0,0,1-.81-.9,5.17,5.17,0,0,1-.63.72,2.49,2.49,0,0,0-.32-.27,5.3,5.3,0,0,0,1.31-2l.53.16a.14.14,0,0,1-.15.06c-.08.19-.17.38-.26.57H394Zm.12,3.64a.13.13,0,0,1-.14,0,6.21,6.21,0,0,1-3.47,1.53,1.6,1.6,0,0,0-.24-.38,5.79,5.79,0,0,0,3.35-1.4Zm-1.41-1.46a.12.12,0,0,1-.12.06,5.23,5.23,0,0,1-1.79,1,1.77,1.77,0,0,0-.27-.28,4.62,4.62,0,0,0,1.73-.9Zm.67.67a.13.13,0,0,1-.12.06,5.71,5.71,0,0,1-2.36,1.21,1.83,1.83,0,0,0-.26-.32,5,5,0,0,0,2.3-1.11Zm-2.15-2.84h0a3.5,3.5,0,0,0,.9,1,3.37,3.37,0,0,0,.84-1Z" style="fill: #231f20"/>
    <path d="M392.47,99.64H394v1.1h-.43V100H391v.7h-.41v-.6l-.31.27a7.33,7.33,0,0,0-1-1.06,7.64,7.64,0,0,1-1,1.34H389V100h.53s0,.08-.13.09v.56h.84v2.25h-1.68v1.31l1-.23a6.85,6.85,0,0,0-.51-.64l.35-.19a6.17,6.17,0,0,1,1.12,1.57l-.37.22a4.66,4.66,0,0,0-.35-.62l-1.93.5a.12.12,0,0,1-.08.1l-.21-.5.52-.11v-3.58l-.21.21a1.33,1.33,0,0,0-.33-.29A6.21,6.21,0,0,0,389,98.79l.55.08a.13.13,0,0,1-.13.09,8,8,0,0,1,1.11,1.09V99.6H392v-.81h.59s0,.08-.14.09Zm-2.59,1.41h-1.25v.57h1.25Zm-1.25,1.52h1.25V102h-1.25Zm2.81-.13v.6h2.31v2.15h-.43v-.29h-1.88v.33H391v-4.54h2.47v1.74Zm1.61-1.35h-1.61v1h1.61Zm.27,2.35h-1.88v1.06h1.88Z" style="fill: #231f20"/>
    <path d="M305.75,148.35c.06-.33.16-.88,1.31-1.51.65-.35.9-.51.9-.84s-.35-.56-.79-.56a.65.65,0,0,0-.72.73h-.58a1.29,1.29,0,0,1,.24-.8,1.36,1.36,0,0,1,1.09-.44c.84,0,1.39.47,1.39,1.07s-.35.78-1,1.15a2.26,2.26,0,0,0-1,.72h2v.48Z" style="fill: #231f20"/>
    <path d="M313.75,145.18h-.13a7.3,7.3,0,0,1-.65.58V146c0,.07,0,.15.1.15h.13c.14,0,.15-.19.15-.41l.44.18c-.08.64-.24.65-.44.65h-.66c-.11,0-.13,0-.15,0l-.15.26h1.16v1.84h-.47v-.15h-1.27v.15h-.48v-1.84h.5a2.56,2.56,0,0,0,.17-.38l-.54.19a.1.1,0,0,0-.07.06.07.07,0,0,1-.08.07c-.08,0-.07-.09-.09-.15l-.12-.4.29-.07V145l-.52,1a1.65,1.65,0,0,1,.38,1,.75.75,0,0,1-.72.78h0l-.2-.46v1.28h-.46v-3.87h1.28l.25.23v-.32h.45s.15,0,.15.06a.08.08,0,0,1,0,.06c-.05,0-.07.06-.07.08v.25h.48v.43h-.48v.43l.42-.11v.42l-.15.06.34.11a.25.25,0,0,1,0-.07v-1.73H313c.12,0,.13,0,.13.06a.07.07,0,0,1,0,.06s-.06,0-.06.09v.41a2.93,2.93,0,0,0,.37-.41l.38.2s.09.06.09.1,0,0-.06,0m-3.37.9.37-.91h-.41v2.07c.33,0,.46,0,.46-.27a1.28,1.28,0,0,0-.41-.88m2.71,1h-1.27v.3h1.27Zm0,.62h-1.27V148h1.27Z" style="fill: #231f20"/>
    <path d="M316.75,146a1.7,1.7,0,0,0-.56,1.11.73.73,0,0,0,.33.6,1.44,1.44,0,0,0,.81.23l-.18.56A2.07,2.07,0,0,1,316,148a1.16,1.16,0,0,1-.34-.83,1.67,1.67,0,0,1,.31-.92,3.4,3.4,0,0,1,.61-.7c-.62,0-1.29.11-1.75.17l-.08-.52a12.78,12.78,0,0,0,3.29-.37v.53a1.87,1.87,0,0,0-1.31.64m1,.79a2,2,0,0,0-.38-.35l.19-.22a2,2,0,0,1,.38.35Zm.37-.42a2.12,2.12,0,0,0-.38-.35l.19-.22a2.11,2.11,0,0,1,.38.35Z" style="fill: #231f20"/>
    <path d="M322.9,148.52H321c-.78,0-.95-.21-1.13-.44a4.65,4.65,0,0,1-.43.38c-.07.06-.08.06-.08.08v.08a.08.08,0,0,1-.07,0l-.25-.45a5.27,5.27,0,0,0,.61-.29v-1.1h-.51v-.47h1v1.33c0,.45.45.5,1,.5.29,0,1,0,2.09-.09Zm-3.18-2.91a2.15,2.15,0,0,0-.55-.6l.34-.28a2.42,2.42,0,0,1,.57.59Zm2.1-.36v.23h.9V147h-.9v.23H323v.4h-1.15V148h-.49v-.36h-1v-.4h1V147h-.87v-1.48h.87v-.23h-1.11v-.36h1.11v-.3h.46c.07,0,.12,0,.12.06h0a.06.06,0,0,0-.06.06v.12H323v.36Zm-.49.57h-.4v.23h.4Zm0,.55h-.4v.23h.4Zm.93-.55h-.43v.23h.43Zm0,.55h-.43v.23h.43Z" style="fill: #231f20"/>
    <path d="M324.14,147.11v.06a6.13,6.13,0,0,1-.17,1h-.43a4.32,4.32,0,0,0,.19-1.14h.39s.09,0,.09.06a.09.09,0,0,1,0,.06m3.35,0-.16-.06v1.56h-.51v-.12h-.73v.12h-.52V147h0l-.17-.23-.3.08a1.23,1.23,0,0,0,0-.18h-.26v1.83h-.51v-1.7h-.51s0,0-.05-.09l-.06-.4h.4a3.34,3.34,0,0,0,.26-.32,3.66,3.66,0,0,0-.68-.53l.28-.38.24.15a4.92,4.92,0,0,0,.39-.71l.39.19a.12.12,0,0,1,.08.1H325c-.12.18-.26.37-.42.58l.16.13c.17-.24.27-.4.37-.56l.36.2a.12.12,0,0,1,.07.09s0,0-.07,0-.05,0-.11.08q-.31.44-.66.87h.35L325,146l.4-.14a3.9,3.9,0,0,1,.21.57,2.09,2.09,0,0,0,.72-.41,2.31,2.31,0,0,1-.24-.38,2.23,2.23,0,0,1-.32.35l-.38-.25a2.3,2.3,0,0,0,.74-1.27l.5.08s.1,0,.1.07,0,0-.06,0-.07,0-.07,0l-.06.16h.79l.23.21a2.76,2.76,0,0,1-.61,1,2.24,2.24,0,0,0,1,.47Zm-2.47.91a4.43,4.43,0,0,1-.16-.92l.4-.07a4,4,0,0,0,.22.87Zm1.47-1.51a3.07,3.07,0,0,1-.7.47h1.38a2.67,2.67,0,0,1-.68-.47m.34.91h-.73V148h.73Zm-.55-2a1.62,1.62,0,0,0,.21.43,1.41,1.41,0,0,0,.27-.43Z" style="fill: #231f20"/>
    <rect x="155.03" y="134.72" width="37.58" height="23.51" style="fill: none;stroke: #231f20;stroke-miterlimit: 10;stroke-width: 0.5px"/>
    <polyline points="88.3 19.47 104.42 3.34 114.05 3.34" style="fill: none;stroke: #231f20;stroke-miterlimit: 10;stroke-width: 0.5px"/>
    <polygon points="116.81 1.19 116.79 1.19 115.75 1.77 115.58 1.33 116.9 0.59 117.39 0.59 117.39 5.89 116.81 5.89 116.81 1.19" style="fill: #231f20"/>
    <path d="M122.45.29l.3.17a.14.14,0,0,1-.06.07c-.17.52-.4,1.22-.63,1.79a2.29,2.29,0,0,1,.66,1.5c0,1-.57,1-1.07.94a1.1,1.1,0,0,0-.12-.41h.27c.27,0,.49,0,.49-.59a2.22,2.22,0,0,0-.66-1.41c.2-.52.39-1.17.54-1.65h-.91V6.39h-.42V.27h1.53Zm1.12,2.11,1.17-.27v.35L122.92,3a.14.14,0,0,1-.08.11l-.23-.48.49-.1V.08h.56s0,.08-.14.09V1h1.11v.39h-1.11Zm.7,1.13a7.28,7.28,0,0,0,.26-.76l.57.16A.27.27,0,0,1,125,3c-.06.16-.15.36-.24.54h1.79V6.39H126V6.13h-2.37v.28h-.44V3.52Zm1.79.4h-2.37v.7h2.37Zm-2.37,1.8h2.37V5h-2.37Zm1.66-3.44c0,.18,0,.21.25.21h.75c.19,0,.22-.09.23-.68A1.27,1.27,0,0,0,127,2c0,.72-.17.9-.58.9h-.84c-.51,0-.64-.12-.64-.61V.06h.56s0,.08-.13.09v1a5.34,5.34,0,0,0,1.12-.62l.37.34a.07.07,0,0,1-.07,0h0a7,7,0,0,1-1.37.64Z" style="fill: #231f20"/>
    <path d="M132.38,4a7.06,7.06,0,0,1,.84-.74,6.7,6.7,0,0,1-.84-.75h-4.89V2.07H132a6.39,6.39,0,0,1-.66-.87L131.7,1a8.19,8.19,0,0,0,2.24,2.27,8.14,8.14,0,0,0-2.24,2.27l-.37-.22a6.84,6.84,0,0,1,.66-.87h-4.5V4Z" style="fill: #231f20"/>
    <path d="M136,1.32a2,2,0,0,1,1.67-.75A1.42,1.42,0,0,1,139.23,2c0,1.08-.81,1.79-2,2.9l-.5.43h2.68v.49h-3.58V5.46l.59-.52c1.46-1.3,2.22-2,2.22-2.87a1,1,0,0,0-1-1,1.73,1.73,0,0,0-1.28.66Z" style="fill: #231f20"/>
    <path d="M143.17.29l.3.17a.14.14,0,0,1-.06.07c-.17.52-.4,1.22-.63,1.79a2.29,2.29,0,0,1,.66,1.5c0,1-.57,1-1.07.94a1.1,1.1,0,0,0-.12-.41h.27c.27,0,.49,0,.49-.59a2.22,2.22,0,0,0-.66-1.41c.2-.52.39-1.17.54-1.65H142V6.39h-.42V.27h1.53Zm1.12,2.11,1.17-.27v.35L143.64,3a.14.14,0,0,1-.08.11l-.23-.48.49-.1V.08h.56s0,.08-.14.09V1h1.11v.39h-1.11Zm.7,1.13a7.28,7.28,0,0,0,.26-.76l.57.16a.26.26,0,0,1-.15.06c-.06.16-.15.36-.24.54h1.79V6.39h-.47V6.13h-2.37v.28h-.44V3.52Zm1.79.4h-2.37v.7h2.34Zm-2.37,1.8h2.34V5h-2.37Zm1.66-3.44c0,.18,0,.21.25.21h.75c.19,0,.22-.09.23-.68a1.27,1.27,0,0,0,.39.17c0,.72-.17.9-.58.9h-.84c-.51,0-.64-.12-.64-.61V.06h.56s0,.08-.13.09v1a5.34,5.34,0,0,0,1.12-.62l.37.34a.07.07,0,0,1-.07,0h-.06a7,7,0,0,1-1.37.64Z" style="fill: #231f20"/>
    <path d="M151.75,1.26a.18.18,0,0,1-.17.11c-.25,2.15-1,4-2.11,4-.58,0-1.11-.58-1.11-1.67a3,3,0,0,1,3-3h.11a2.56,2.56,0,0,1,2.86,2.61c0,1.64-1,2.44-2.62,2.82a2.81,2.81,0,0,0-.29-.42c1.59-.3,2.4-1.08,2.4-2.38a2.12,2.12,0,0,0-2.06-2.18h-.5Zm-.66-.09a2.54,2.54,0,0,0-2.26,2.53c0,.74.32,1.2.65,1.2.83,0,1.44-1.84,1.61-3.73" style="fill: #231f20"/>
    <path d="M157,.29l.3.17a.14.14,0,0,1-.06.07c-.17.52-.4,1.22-.63,1.79a2.29,2.29,0,0,1,.66,1.5c0,1-.57,1-1.07.94a1.1,1.1,0,0,0-.12-.41h.27c.27,0,.49,0,.49-.59a2.22,2.22,0,0,0-.66-1.41c.2-.52.39-1.17.54-1.65h-1V6.39h-.42V.27h1.53ZM158.1,2.4l1.17-.27v.35L157.45,3a.14.14,0,0,1-.08.11l-.23-.48.49-.1V.08h.56s0,.08-.14.09V1h1.11v.39h-1.11Zm.7,1.13a7.28,7.28,0,0,0,.26-.76l.57.16a.26.26,0,0,1-.15.06c-.06.16-.15.36-.24.54H161V6.39h-.45V6.13h-2.37v.28h-.46V3.52Zm1.79.4h-2.37v.7h2.37Zm-2.37,1.8h2.37V5h-2.37Zm1.66-3.44c0,.18,0,.21.25.21h.75c.19,0,.22-.09.23-.68a1.27,1.27,0,0,0,.39.17c0,.72-.17.9-.58.9h-.84c-.51,0-.64-.12-.64-.61V.06H160s0,.08-.13.09v1A5.34,5.34,0,0,0,161,.53l.37.34a.07.07,0,0,1-.07,0h-.06a7,7,0,0,1-1.37.64Z" style="fill: #231f20"/>
    <path d="M163,4.76l1.9-.35v.4l-1.93.39V6.42h-.44V5.29l-.3.06a.13.13,0,0,1-.09.1l-.19-.52.57-.09V.56l.35.12A7.63,7.63,0,0,0,164.46,0l.45.36a.16.16,0,0,1-.14,0,10.44,10.44,0,0,1-1.83.66v.83h1.66v.44h-1.66v.9h1.72v.44h-1.72Zm4.76-1.66.3.13a.12.12,0,0,1-.06.07,4.45,4.45,0,0,1-1.13,1.89,4.29,4.29,0,0,0,1.61.82,2.16,2.16,0,0,0-.3.41,4.47,4.47,0,0,1-1.65-.93,5.34,5.34,0,0,1-1.75.94,1.85,1.85,0,0,0-.26-.41,5,5,0,0,0,1.7-.85,4.72,4.72,0,0,1-.9-1.53l.34-.1H165V3.11h2.73ZM165.83.73v.64A2,2,0,0,1,165,3.1a1.26,1.26,0,0,0-.32-.32,1.55,1.55,0,0,0,.69-1.42v-1h2.05V2c0,.22,0,.27.16.27h.22c.25,0,.25,0,.27-.78a1,1,0,0,0,.36.18,4,4,0,0,1-.07.69c-.07.18-.21.29-.52.29h-.35c-.51,0-.51-.3-.51-.69V.68Zm-.15,2.82a4.12,4.12,0,0,0,.82,1.33,3.86,3.86,0,0,0,.89-1.33Z" style="fill: #231f20"/>
    <path d="M169.59,6a7.57,7.57,0,0,1-.3-2.43,17.67,17.67,0,0,1,.37-3.22l.67.13a.18.18,0,0,1-.18.12,13.24,13.24,0,0,0-.4,3,8.21,8.21,0,0,0,.06,1.31c.15-.41.43-1.08.57-1.4l.31.29A8.11,8.11,0,0,0,170,5.64.94.94,0,0,0,170,6Zm1.75-4.07h1.74A13.73,13.73,0,0,0,173,.32h.7c0,.07-.07.12-.18.15V1.88a6,6,0,0,0,1.35-.28l.06.48a6.63,6.63,0,0,1-1.39.25c0,.77.06,1.57.08,2a5.07,5.07,0,0,1,1.41.88l-.27.44a4.17,4.17,0,0,0-1.12-.79c0,.59-.12,1.24-1.15,1.24-.81,0-1.35-.39-1.35-1s.71-1,1.35-1a2.39,2.39,0,0,1,.66.09c0-.44-.06-1.16-.1-1.84h-1.7Zm1.89,2.71a2.34,2.34,0,0,0-.68-.12c-.42,0-.92.15-.92.59s.41.58.92.58.7-.25.7-.8Z" style="fill: #231f20"/>
    <path d="M175.89,5.65h6.26v.46h-6.26ZM182,1.42v.46h-5.83V1.42h2.62V0h.61s0,.08-.14.1V1.37Zm-4.45.84a10.66,10.66,0,0,1,.65,2.91,2.3,2.3,0,0,0-.48.1,10.79,10.79,0,0,0-.61-2.91Zm3.64.09a.2.2,0,0,1-.17.1,21.24,21.24,0,0,1-.92,3l-.41-.12a21.23,21.23,0,0,0,.84-3.14Z" style="fill: #231f20"/>
    <path d="M185.75.44h.47A6.06,6.06,0,0,0,189.17,6a2.48,2.48,0,0,0-.37.39,6.11,6.11,0,0,1-2.84-4,6.11,6.11,0,0,1-2.84,4,3.09,3.09,0,0,0-.39-.35,5.84,5.84,0,0,0,2.85-4.27l.28.07a7.07,7.07,0,0,1-.09-.94H184V.44Z" style="fill: #231f20"/>
    <path d="M191.05,2.93V1.58a4.76,4.76,0,0,1-1.15,1.28,1.68,1.68,0,0,0-.3-.32,4.26,4.26,0,0,0,1.29-1.39h-1.14V.76h1.3V0h.57s0,.08-.14.1V.74h1.14v.39h-1.14v.15c.26.17,1,.65,1.16.79l-.26.32c-.17-.16-.59-.48-.9-.73V2.89Zm.57,2.14a.14.14,0,0,1-.15.06,5,5,0,0,1-1.4,1.2,2.9,2.9,0,0,0-.35-.29,3.94,3.94,0,0,0,1.35-1.17Zm-1.83-.49V4.17h6.1v.41h-2.82V5.9c0,.26-.06.38-.28.45a4.5,4.5,0,0,1-1.12.07A2.15,2.15,0,0,0,191.5,6h.69c.37,0,.42,0,.42-.12V4.57Zm.81-1.41h4.55v.39H190.6Zm5.34-2h-1.19a5.06,5.06,0,0,0,1.32,1.32,1.85,1.85,0,0,0-.3.32,5.33,5.33,0,0,1-1.2-1.29V2.94h-.44V1.52a4.69,4.69,0,0,1-1.28,1.3,1.59,1.59,0,0,0-.29-.32,4.21,4.21,0,0,0,1.37-1.33h-1.08V.78h1.27V0h.57s0,.08-.14.1V.74h1.38Zm-.53,5.2A10,10,0,0,0,194,5.13l.36-.23a10.5,10.5,0,0,1,1.45,1.21Z" style="fill: #231f20"/>
    <path d="M200.19,5.61h2.68v.46H196.6V5.61h1v-4h.61s0,.08-.14.1V5.62h1.68V0h.63s0,.08-.15.1V2.31h2.28v.46h-2.28Z" style="fill: #231f20"/>
  </g>
</svg>
