<svg id="Layer_1" data-name="Layer 1" xmlns="http://www.w3.org/2000/svg" viewBox="0 0 346.69 274.71">
  <title>3f</title>
  <a xlink:href="/projects/lego">
    <g id="lego">
      <rect x="0.18" y="121.81" width="90" height="28" style="fill: #e6e6e6"/>
      <path d="M894.08,520l-.74-.75v-7.19l1.29.16c.08,0,.29,0,.29.15s0,.06-.11.15-.17.14-.17.18v5.46a7.92,7.92,0,0,0,2.68-1.23,15.06,15.06,0,0,0,2.6-2.24l.66,1.2a15.79,15.79,0,0,1-6.51,4.1" transform="translate(-877.82 -385.19)" style="fill: #231f20"/>
      <path d="M908.71,519.5v-.4H903v-1.17h5.71v-3.82H903v-1.2h7v6.59Zm.78-6.9a8.43,8.43,0,0,0-1-.88l.5-.51a9.83,9.83,0,0,1,1.06.89Zm1.51-.13a6.93,6.93,0,0,0-1-1l.52-.47a6.3,6.3,0,0,1,1,1Z" transform="translate(-877.82 -385.19)" style="fill: #231f20"/>
      <path d="M887.72,525.12c-.12,3.1-.84,4.19-2.95,5.47l-.89-.85c2-1.08,2.59-2.19,2.63-4.62h-2.06v2.49h-1.3v-2.49h-2v-1.24h2V521.8l1.2.13c.25,0,.33,0,.33.15s0,.07-.09.11-.14.11-.14.16v1.52h2.06c0-.83,0-1.56,0-2.24l1.12.15c.09,0,.34,0,.34.17s0,.08-.1.13-.1.09-.12.14v1.64h1.83v1.24Z" transform="translate(-877.82 -385.19)" style="fill: #231f20"/>
      <rect x="13.99" y="140.11" width="7.74" height="1.38" style="fill: #231f20"/>
      <path d="M909.32,524.22a12.8,12.8,0,0,1-1.94,3.69,10.57,10.57,0,0,1-2.95,2.58l-1.19-.82a9.47,9.47,0,0,0,3.41-2.84,8.7,8.7,0,0,0,1.44-2.86h-2.79a15,15,0,0,1-2.07,2.43l-1.08-.74a9.47,9.47,0,0,0,3-4.18l1.12.42c.07,0,.28.12.28.23s-.12.11-.27.15-.2.38-.31.59h2.44a1.1,1.1,0,0,0,.48-.21l.88,1a1.13,1.13,0,0,0-.47.52" transform="translate(-877.82 -385.19)" style="fill: #231f20"/>
      <path d="M915.22,522.8c-.08.07-.08.09-.08.14a22.3,22.3,0,0,1-.06,2.68,5.54,5.54,0,0,1-2.35,3.95l-1.21-.88a4.27,4.27,0,0,0,2.33-4.24,16.08,16.08,0,0,0-.12-2.06l1.32.09c.2,0,.32,0,.32.16s0,.05-.15.16m2,6.78-.93-.72v-6.6l1.26.15c.1,0,.31,0,.31.14s0,.08-.12.16-.13.12-.13.13v4.75a9.69,9.69,0,0,0,2.87-2.79l.74,1.1a14.45,14.45,0,0,1-4,3.67" transform="translate(-877.82 -385.19)" style="fill: #231f20"/>
      <path d="M939.62,519.82l-.74-.75v-7.19l1.29.16c.08,0,.29,0,.29.15s0,.06-.11.15-.17.14-.17.18V518a7.92,7.92,0,0,0,2.68-1.23,15.06,15.06,0,0,0,2.6-2.24l.66,1.2a15.79,15.79,0,0,1-6.51,4.1" transform="translate(-877.82 -385.19)" style="fill: #231f20"/>
      <path d="M954.25,519.31v-.4h-5.71v-1.17h5.71v-3.82h-5.67v-1.2h7v6.59Zm.78-6.9a8.43,8.43,0,0,0-1-.88l.5-.51a9.83,9.83,0,0,1,1.06.89Zm1.51-.13a6.93,6.93,0,0,0-1-1l.52-.47a6.3,6.3,0,0,1,1,1Z" transform="translate(-877.82 -385.19)" style="fill: #231f20"/>
      <path d="M933.27,524.92c-.12,3.1-.84,4.19-2.95,5.47l-.89-.85c2-1.08,2.59-2.19,2.63-4.62H930v2.49h-1.3v-2.49h-2v-1.24h2v-2.08l1.2.13c.25,0,.33,0,.33.15s0,.07-.09.11-.14.11-.14.16v1.52h2.06c0-.83,0-1.56,0-2.24l1.12.15c.09,0,.34,0,.34.17s0,.08-.1.13-.1.09-.12.14v1.64h1.83v1.24Z" transform="translate(-877.82 -385.19)" style="fill: #231f20"/>
      <rect x="59.53" y="139.92" width="7.74" height="1.38" style="fill: #231f20"/>
      <path d="M954.87,524a12.8,12.8,0,0,1-1.94,3.69,10.57,10.57,0,0,1-2.95,2.58l-1.19-.82a9.47,9.47,0,0,0,3.41-2.84,8.7,8.7,0,0,0,1.44-2.86h-2.79a15,15,0,0,1-2.07,2.43l-1.08-.74a9.47,9.47,0,0,0,3-4.18l1.12.42c.07,0,.28.12.28.23s-.12.11-.27.15-.2.38-.3.59H954a1.1,1.1,0,0,0,.48-.21l.88,1a1.13,1.13,0,0,0-.47.52" transform="translate(-877.82 -385.19)" style="fill: #231f20"/>
      <path d="M960.76,522.61c-.08.07-.08.09-.08.14a22.29,22.29,0,0,1-.06,2.68,5.54,5.54,0,0,1-2.35,3.95l-1.21-.88a4.27,4.27,0,0,0,2.33-4.24,16.08,16.08,0,0,0-.12-2.06l1.32.09c.2,0,.32,0,.32.16s0,.05-.15.16m2,6.78-.93-.72v-6.6l1.26.15c.1,0,.31,0,.31.14s0,.08-.12.16-.13.12-.13.13v4.75a9.69,9.69,0,0,0,2.87-2.79l.74,1.1a14.45,14.45,0,0,1-4,3.67" transform="translate(-877.82 -385.19)" style="fill: #231f20"/>
    </g>
  </a>
  <a xlink:href="/projects/fortunetelling">
    <g id="fortunetelling">
      <rect x="90.68" y="121.81" width="45" height="28" style="fill: #e6e6e6"/>
      <path d="M985.54,519.19v1.62H989v4.74h-1.39v-.47h-5.06v.52h-1.4v-4.8h3v-4.69l1.26.06c.35,0,.41.08.41.18s0,.1-.09.15c-.21.23-.22.24-.22.33V518h4v1.16Zm2.09,2.79h-5.06v2h5.06Z" transform="translate(-877.82 -385.19)" style="fill: #231f20"/>
      <path d="M993.14,524.52a1.19,1.19,0,0,1-.81-.36c-.76-.74-1.11-2-1.11-4.08a10.59,10.59,0,0,1,.33-2.83l1.2.33c.08,0,.25.08.25.21s-.13.16-.32.23a11.33,11.33,0,0,0-.21,2.43c0,2.12.52,2.51.74,2.51.39,0,.84-1.15,1-1.68l.9.81c-.6,1.28-1.14,2.44-2,2.44m5.52-1.94a10.11,10.11,0,0,0-1.6-4.42l1.12-.54a9.24,9.24,0,0,1,1.79,4.62Z" transform="translate(-877.82 -385.19)" style="fill: #231f20"/>
    </g>
  </a>
  <a xlink:href="/projects/tohoku">
    <g id="tohoku">
      <rect x="180.18" y="121.81" width="45" height="28" style="fill: #e6e6e6"/>
      <path d="M1069.18,525.52a9.45,9.45,0,0,1-3.12-2.32v2.52h-1.29v-2.57a9.87,9.87,0,0,1-3.19,2.4l-.95-.87a7.5,7.5,0,0,0,3.27-2.23h-2v-3.59h2.84v-.58h-4v-1h4v-.9l1.32.09c.13,0,.16.07.16.11s0,.08-.07.1-.12.1-.12.15v.46h4v1h-4v.58h2.87v3.59h-2.11a9.84,9.84,0,0,0,3.22,2.12Zm-4.42-5.83h-1.6v.5h1.6Zm0,1.37h-1.6v.52h1.6Zm2.92-1.37h-1.62v.5h1.62Zm0,1.37h-1.62v.52h1.62Z" transform="translate(-877.82 -385.19)" style="fill: #231f20"/>
      <path d="M1075.27,516.69a.24.24,0,0,0-.13.2v8.77h-1.28v-1.94c-.53.19-1.6.52-1.7.54-.55.14-.58.16-.63.26s-.1.17-.14.17a.11.11,0,0,1-.11-.09l-.37-1.39a29.81,29.81,0,0,0,2.95-.7v-2.64h-2.79v-1.29h2.79v-2.22l1.4.11c.05,0,.11,0,.11.09a.16.16,0,0,1-.1.13m5.19,2.25-.26,0a6.88,6.88,0,0,0-.77.71,23.17,23.17,0,0,1-2,1.69v2.5c0,.33.12.5.46.5h.79c.48,0,.62-.34.76-1.26l1,.51c-.1,1.6-.77,1.86-1.15,1.86h-2a1,1,0,0,1-1.09-1.09v-8l1.31.08a.14.14,0,0,1,.14.14.2.2,0,0,1-.1.15c-.12.09-.14.14-.14.18v2.84a10.53,10.53,0,0,0,2-1.94l1.08.84s.11.09.11.15a.1.1,0,0,1-.09.1" transform="translate(-877.82 -385.19)" style="fill: #231f20"/>
      <path d="M1090.18,520.45a9.89,9.89,0,0,1-4.22-2.93,10.6,10.6,0,0,1-3.89,3.18l-1-1.09a7.89,7.89,0,0,0,4.17-3.33l1.43.2c.12,0,.2.09.2.17a.11.11,0,0,1,0,.07,7.75,7.75,0,0,0,1.85,1.63,8,8,0,0,0,2.48,1.07Zm-8.42,5.31v-1.21h1.46v-3.61l1.18.12c.08,0,.21,0,.21.13s0,.06-.08.13a.19.19,0,0,0-.11.15v3.08h1.11v-5.69l1.22.12c.15,0,.27,0,.27.14s-.09.12-.13.14-.12.09-.12.15v1.85h2.34v1.24h-2.34v2h3.47v1.21Z" transform="translate(-877.82 -385.19)" style="fill: #231f20"/>
      <path d="M1097,517.75v.87h2.15v4.89h-5.41v-4.89h2.19v-.87h-4.06v-1h9.21v1Zm4.06,1.08c-.12.08-.17.11-.17.2v6.64h-1.09v-.39H1093v.36h-1.11v-7.09l1.1.09c.14,0,.22,0,.22.12a.15.15,0,0,1-.05.11c-.11.1-.15.13-.15.24v5.16h6.72v-5.83l1.12.14c.17,0,.22.07.22.14a.15.15,0,0,1-.08.13m-5.12.74h-1.11v1h1.11Zm0,1.94h-1.11v1h1.11Zm2.15-1.94H1097v1h1.09Zm0,1.94H1097v1h1.09Z" transform="translate(-877.82 -385.19)" style="fill: #231f20"/>
    </g>
  </a>
  <a xlink:href="/projects/biology">
    <g id="biology">
      <rect x="288.18" y="179.81" width="32" height="21" style="fill: #e6e6e6"/>
      <rect x="280.81" y="213.24" width="44.71" height="35.71" style="fill: #e6e6e6;stroke: #231f20;stroke-miterlimit: 10;stroke-width: 0.6700000166893005px"/>
      <path d="M1173.39,574.44v-.92h3.49v-1.77h-2.12v-1h2.13v-1.5h-2a12.38,12.38,0,0,1-.86,1.42l-1-.53a6.46,6.46,0,0,0,.88-1.25,8.43,8.43,0,0,0,.79-2.09l1,.27c.19.06.24.09.24.15s0,.08-.11.12a.32.32,0,0,0-.19.19,8,8,0,0,1-.28.78h1.55v-1.65l1.13.06c.15,0,.22,0,.22.14s0,.08-.1.13-.14.11-.14.18v1.15h3v.94h-3v1.5h2.07v1H1178v1.77h3.37v.92Z" transform="translate(-877.82 -385.19)" style="fill: #231f20"/>
      <path d="M1189.77,573.14c-.21.92-.55,1.36-1.86,1.37l-.48-1.14c.32,0,.65,0,.73,0,.41,0,.55-.16.7-.9a15.46,15.46,0,0,0,.18-3.45H1189a8.4,8.4,0,0,1-3.19,5.54l-.88-.63a7.63,7.63,0,0,0,2.05-2.14,6.67,6.67,0,0,0,1.05-2.76h-.35a8.06,8.06,0,0,1-2,3.59l-.8-.51a6.17,6.17,0,0,0,1.26-1.61,4.45,4.45,0,0,0,.56-1.46h-.23a4.52,4.52,0,0,1-.62,1l-.88-.45a2.77,2.77,0,0,0,.39-.56h-.55v1.43c.22-.07.43-.15.76-.29l0,1a7.92,7.92,0,0,1-.74.3v3.14h-1v-2.78c-.28.11-.67.26-.73.27a1.61,1.61,0,0,0-.24.09c-.07.09-.16.21-.21.21s-.08-.06-.08-.14l-.18-1.11c.52-.11.84-.2,1.44-.37v-1.72h-.55c-.1.46-.16.65-.24.93l-.92-.29a8,8,0,0,0,.49-2.49l1,.14c.05,0,.11,0,.11.09a.16.16,0,0,1-.06.1c-.12.09-.13.09-.15.14s-.06.38-.07.44h.37v-1.45l1.08.07s.1,0,.1.08,0,.08-.07.1-.1.05-.1.1v1.09h.77v.48a7.92,7.92,0,0,0,.6-1.9l1.11.16s.08,0,.08.08-.06.09-.1.12a.27.27,0,0,0-.16.2,8.74,8.74,0,0,1-.28.91h3.23a27.82,27.82,0,0,1-.29,4.95" transform="translate(-877.82 -385.19)" style="fill: #231f20"/>
      <path d="M1171.63,577.48a10.79,10.79,0,0,1-.46,1.87h1.64v3.84h-1.73v1h-.93v-2.79a4.34,4.34,0,0,1-.56.63l-.87-.63a5.86,5.86,0,0,0,1.88-3.91h-1.28v-.94H1173v.94Zm.31,2.8h-.86v2h.86Zm4.53.08v4h-1v-4h-.75a8.07,8.07,0,0,1-.43,2.49,3.77,3.77,0,0,1-1.09,1.58l-.89-.61a3.19,3.19,0,0,0,1-1.11,5.57,5.57,0,0,0,.49-2.36H1173v-.92h.75v-2h-.46v-.9h3.8v.9h-.66v2h.76v.92Zm-1-2.88h-.67v2h.67Z" transform="translate(-877.82 -385.19)" style="fill: #231f20"/>
      <path d="M1185,584.31h-1.22c-.47,0-.88-.18-.88-.69,0-.18.21-1.95.23-2.19l-1.09,0a4.33,4.33,0,0,1-3.41,2.93l-.82-1c1.86-.21,2.87-1.06,3.1-1.86l-2.4.07v-1l2.59-.06c0-.16,0-.45,0-1l1.05,0V577.8h-1.32l.77.35c.07,0,.11.07.11.11a.13.13,0,0,1,0,.09s-.21.07-.23.1a3.59,3.59,0,0,1-2.23,1.82l-.67-.85a2.8,2.8,0,0,0,1.42-.69,1.93,1.93,0,0,0,.58-.93h-1.31v1.06h-1v-2h3.23v-.54l1.25.07s.18,0,.18.11a.08.08,0,0,1,0,.07s-.17.11-.17.14v.15H1186v1.94h-.65c-.26,1-.52,1.2-1.15,1.2h-1.48a.61.61,0,0,1-.35-.09c0,.24,0,.37-.05.56l2.12-.07c-.19,1.3-.3,2.47-.3,2.52,0,.31.23.33.27.33h.44c.31,0,.35-.26.44-.87l1,.4c-.18,1-.37,1.54-1.19,1.54m-.11-6.51h-1.68v1a.22.22,0,0,0,.25.23h.44c.22,0,.29-.21.41-.61l.58.19Z" transform="translate(-877.82 -385.19)" style="fill: #231f20"/>
      <path d="M1187,580.36v-.87h1a6.06,6.06,0,0,0-.53-1.19l.65-.28h-.88v-.82h1.5v-.9l1.24.07c.1,0,.15,0,.15.1s0,.07-.07.09-.14.1-.14.14v.5h1.31V578h-1l.74.43c.07,0,.1.08.1.12s0,.08-.09.1-.15,0-.19.14a3.17,3.17,0,0,1-.29.68h.85v.87Zm2.95,3.87V584h-1.57v.3h-.93v-3.42h3.51v3.36Zm-1.57-6.21a7,7,0,0,1,.54,1.26l-.51.21h1.13a6,6,0,0,0,.57-1.47Zm1.57,3.79h-1.57V583h1.57Zm3.34,1.71-.64-1v1.73h-1v-7.61h3.07l.36.51-1.16,2.37a2.94,2.94,0,0,1,1.17,2.16,1.72,1.72,0,0,1-1.83,1.78m-.33-3.89c.17-.41.5-1.29.75-2.07h-1.06v4.87l.5,0a.88.88,0,0,0,1-.82,3.67,3.67,0,0,0-1.16-2" transform="translate(-877.82 -385.19)" style="fill: #231f20"/>
      <path d="M1171.84,613v-1.08h4.07v-2.07h-2.48v-1.13h2.48v-1.75h-2.33a14.59,14.59,0,0,1-1,1.65l-1.17-.62a7.44,7.44,0,0,0,1-1.46,9.82,9.82,0,0,0,.92-2.44l1.14.32c.23.07.28.11.28.17s0,.1-.13.14a.37.37,0,0,0-.23.22,9.18,9.18,0,0,1-.33.91h1.81V603.9l1.32.07c.17,0,.26.05.26.16s0,.1-.12.15-.16.13-.16.21v1.34h3.45v1.1h-3.45v1.75h2.42v1.13h-2.42v2.07h3.93V613Z" transform="translate(-877.82 -385.19)" style="fill: #231f20"/>
      <path d="M1191,611.44c-.25,1.08-.64,1.59-2.18,1.6l-.55-1.33c.37,0,.76,0,.85,0,.48,0,.64-.18.82-1a18,18,0,0,0,.21-4H1190a9.8,9.8,0,0,1-3.72,6.46l-1-.74a8.92,8.92,0,0,0,2.39-2.5,7.78,7.78,0,0,0,1.23-3.22h-.41a9.41,9.41,0,0,1-2.33,4.19l-.94-.6a7.17,7.17,0,0,0,1.47-1.88,5.2,5.2,0,0,0,.65-1.71h-.27a5.36,5.36,0,0,1-.72,1.18l-1-.52a3.3,3.3,0,0,0,.46-.65h-.64v1.68c.26-.09.5-.17.88-.34l0,1.11c-.28.13-.39.18-.86.35v3.67H1184V609.9c-.33.13-.78.31-.85.32a1.92,1.92,0,0,0-.28.11c-.08.11-.19.25-.24.25s-.09-.07-.1-.16l-.21-1.29c.61-.13,1-.23,1.67-.44v-2h-.64c-.12.53-.18.76-.28,1.09l-1.08-.34a9.34,9.34,0,0,0,.58-2.9l1.17.16c.07,0,.13.06.13.11a.18.18,0,0,1-.07.12c-.14.11-.15.11-.17.16s-.07.45-.08.51h.43v-1.69l1.26.09c.05,0,.12,0,.12.09s-.05.1-.09.12-.12.06-.12.12v1.27h.9v.57a9.25,9.25,0,0,0,.7-2.22l1.29.18c.05,0,.1,0,.1.09s-.07.11-.12.14a.32.32,0,0,0-.18.24,10.11,10.11,0,0,1-.33,1.07h3.78a32.44,32.44,0,0,1-.34,5.78" transform="translate(-877.82 -385.19)" style="fill: #231f20"/>
      <path d="M1168.54,618.76a12.63,12.63,0,0,1-.53,2.19h1.91v4.48h-2v1.14h-1.09v-3.25a5.13,5.13,0,0,1-.65.74l-1-.74a6.85,6.85,0,0,0,2.2-4.56h-1.49v-1.1h4.29v1.1Zm.36,3.26h-1v2.35h1Zm5.29.09v4.63H1173v-4.63h-.87a9.35,9.35,0,0,1-.5,2.9,4.38,4.38,0,0,1-1.27,1.85l-1-.71a3.69,3.69,0,0,0,1.15-1.29,6.5,6.5,0,0,0,.57-2.75h-.87V621h.87v-2.29h-.53v-1.05H1175v1.05h-.77V621h.89v1.08Zm-1.16-3.36h-.78V621h.78Z" transform="translate(-877.82 -385.19)" style="fill: #231f20"/>
      <path d="M1184.19,626.72h-1.43c-.54,0-1-.21-1-.81,0-.21.24-2.27.27-2.56l-1.27,0a5.05,5.05,0,0,1-4,3.42l-1-1.21c2.18-.24,3.35-1.24,3.62-2.17l-2.81.08v-1.18l3-.08c0-.19,0-.52,0-1.12l1.23.05v-2.07h-1.55l.89.4c.09,0,.13.08.13.13a.16.16,0,0,1-.05.11s-.24.09-.27.12a4.18,4.18,0,0,1-2.6,2.12l-.78-1a3.27,3.27,0,0,0,1.65-.81,2.25,2.25,0,0,0,.68-1.09h-1.52v1.24h-1.18V618H1180v-.63l1.46.09s.21,0,.21.13a.09.09,0,0,1,0,.08s-.19.13-.19.16V618h3.77v2.26h-.76c-.3,1.21-.61,1.4-1.34,1.4h-1.73a.7.7,0,0,1-.4-.11c0,.28,0,.43-.07.65l2.47-.08c-.22,1.52-.35,2.88-.35,2.94,0,.36.26.38.32.38h.51c.36,0,.4-.3.51-1l1.16.47c-.21,1.2-.43,1.79-1.39,1.79m-.13-7.59h-2v1.2a.26.26,0,0,0,.29.27h.51c.26,0,.34-.25.48-.71l.68.22Z" transform="translate(-877.82 -385.19)" style="fill: #231f20"/>
      <path d="M1186.42,622.12v-1h1.2a7,7,0,0,0-.62-1.39l.76-.33h-1v-1h1.75v-1.05l1.45.08c.12,0,.17,0,.17.12s0,.08-.08.11-.16.12-.16.16v.59h1.52v1h-1.17l.86.5c.09.05.12.1.12.14s-.05.1-.11.12-.17.05-.22.16a3.76,3.76,0,0,1-.34.79h1v1Zm3.44,4.51v-.27H1188v.35h-1.09v-4H1191v3.92Zm-1.83-7.25a8.12,8.12,0,0,1,.63,1.47l-.6.25h1.32a7,7,0,0,0,.66-1.72Zm1.83,4.43H1188v1.44h1.83Zm3.9,2-.75-1.11v2h-1.12v-8.88h3.58l.41.6-1.35,2.76a3.44,3.44,0,0,1,1.36,2.52,2,2,0,0,1-2.13,2.08m-.38-4.54c.19-.48.59-1.5.87-2.41H1193v5.68c.18,0,.49,0,.59,0a1,1,0,0,0,1.13-1,4.28,4.28,0,0,0-1.35-2.34" transform="translate(-877.82 -385.19)" style="fill: #231f20"/>
    </g>
  </a>
  <a xlink:href="/projects/tactics">
    <g id="tactics">
      <rect x="173.18" y="168.81" width="46" height="33" style="fill: #e6e6e6"/>
      <path d="M1054.68,566.47v1.45h-.9v-1.45h-1.68v-.81h1.68v-.48h-1.48v-3.34h.31a6,6,0,0,0-.65-1.17l.72-.41a6.06,6.06,0,0,1,.69,1.23l-.64.35H1055a8.32,8.32,0,0,0,.57-1.76l.85.25a.14.14,0,0,1,.1.12.13.13,0,0,1-.07.1.3.3,0,0,0-.19.21,11.12,11.12,0,0,1-.45,1.08h.43v3.34h-1.53v.48h1.95v.81Zm-.9-3.9h-.62v.61h.62Zm0,1.26h-.62v.61h.62Zm.18-2.08a8.13,8.13,0,0,0-.48-1.39l.8-.29a7.54,7.54,0,0,1,.46,1.47Zm1.4.82h-.67v.61h.67Zm0,1.26h-.67v.61h.67Zm4.41,3.79a.5.5,0,0,1-.44.3c-.68,0-1.34-1.07-1.48-1.31a8.36,8.36,0,0,1-1.31,1.18l-.66-.66a6.12,6.12,0,0,0,1.57-1.4,11.23,11.23,0,0,1-.43-2.55l-.59.11-.09-.86.62-.12c0-.82,0-1.69,0-2.43l1,.08c.07,0,.15,0,.15.11s0,.09-.08.15a.35.35,0,0,0-.09.25v.77c0,.28,0,.8,0,.89l2-.35.1.83-2.11.39a13.8,13.8,0,0,0,.21,1.74,6.61,6.61,0,0,0,.63-1.46l.88.32a.13.13,0,0,1,.08.1.11.11,0,0,1-.05.08c-.11,0-.15.06-.2.18a9.38,9.38,0,0,1-1,1.81c.26.55.58.87.72.87s.27-.34.35-.68l.7.58a6,6,0,0,1-.48,1.06m-.9-6a3.75,3.75,0,0,0-.6-1.11l.71-.42a4.69,4.69,0,0,1,.65,1.17Z" transform="translate(-877.82 -385.19)" style="fill: #231f20"/>
      <path d="M1068.48,563.22v3.65c0,.83-.24,1.1-1.07,1.1h-.58l-.33-1c.15,0,.69,0,.77,0s.18,0,.18-.28v-3.48h-1.1v-.6h-1V568h-1v-5.36h-1.16v-.18c-.07.1-.14.24-.4.62.06,0,.18.08.18.19a.12.12,0,0,1-.07.1c-.12.11-.14.13-.14.21v2.53a9.64,9.64,0,0,0,.42-2.77l.94.13c.09,0,.18.07.18.14s-.12.13-.18.16a10.41,10.41,0,0,1-.43,2.72l-.93-.21V568h-1v-3.54l-.31.34-.85-.63a8.52,8.52,0,0,0,1.85-2.48l.76.37v-.41h1.16v-1.74l1,0c.09,0,.21,0,.21.13a.13.13,0,0,1-.07.1c-.08.07-.12.1-.12.18v1.29h1v.65H1069v.94Zm-5.33-2.48c-.1,0-.13,0-.2.07a10.46,10.46,0,0,1-1.48,1.24l-.76-.74a8.12,8.12,0,0,0,1.69-1.4l.7.53c.13.09.16.14.16.19s-.07.09-.11.1m2.59.73a3.74,3.74,0,0,0-.31-1l.69-.21a4.45,4.45,0,0,1,.37,1Zm.11,4.83a20.86,20.86,0,0,0-.23-2.87l.89-.1a17.56,17.56,0,0,1,.24,2.77Zm.77-6h2.26v.92h-2.26Z" transform="translate(-877.82 -385.19)" style="fill: #231f20"/>
      <path d="M1073.79,565a1,1,0,1,1,1-1,1,1,0,0,1-1,1" transform="translate(-877.82 -385.19)" style="fill: #231f20"/>
      <path d="M1081.26,566.47v1.45h-.9v-1.45h-1.68v-.81h1.68v-.48h-1.48v-3.34h.31a6.06,6.06,0,0,0-.65-1.17l.72-.41a6,6,0,0,1,.69,1.23l-.64.35h2.25a8.36,8.36,0,0,0,.57-1.76l.85.25a.14.14,0,0,1,.1.12.13.13,0,0,1-.06.1.29.29,0,0,0-.19.21,11.12,11.12,0,0,1-.45,1.08h.43v3.34h-1.53v.48h1.95v.81Zm-.9-3.9h-.61v.61h.61Zm0,1.26h-.61v.61h.61Zm.18-2.08a8,8,0,0,0-.48-1.39l.8-.29a7.54,7.54,0,0,1,.46,1.47Zm1.4.82h-.67v.61h.67Zm0,1.26h-.67v.61h.67Zm4.41,3.79a.5.5,0,0,1-.44.3c-.68,0-1.34-1.07-1.48-1.31a8.26,8.26,0,0,1-1.3,1.18l-.66-.66a6.12,6.12,0,0,0,1.57-1.4,11.23,11.23,0,0,1-.43-2.55l-.59.11-.09-.86.63-.12c0-.82,0-1.69,0-2.43l1,.08c.07,0,.15,0,.15.11s0,.09-.08.15a.35.35,0,0,0-.09.25v.77c0,.28,0,.8,0,.89l2-.35.1.83-2.11.39a13.84,13.84,0,0,0,.21,1.74,6.51,6.51,0,0,0,.63-1.46l.88.32a.13.13,0,0,1,.08.1.11.11,0,0,1-.05.08c-.11,0-.15.06-.2.18a9.38,9.38,0,0,1-1,1.81c.26.55.58.87.72.87s.27-.34.35-.68l.7.58a6,6,0,0,1-.48,1.06m-.9-6a3.78,3.78,0,0,0-.6-1.11l.71-.42a4.69,4.69,0,0,1,.65,1.17Z" transform="translate(-877.82 -385.19)" style="fill: #231f20"/>
      <path d="M1095.23,564.92l-.29-.09v3H1094v-.35h-1.57v.4h-.92V565l-.49-.46v2.34h-.81v-.3h-1.66v.76h-.83v-6.74h3.3v1.59a6.26,6.26,0,0,0,1.08-2.28l.91.18c.2,0,.25.07.25.15s0,.08-.13.13-.08.06-.17.25h1.72l.45.46a6.8,6.8,0,0,1-1.18,2,5.18,5.18,0,0,0,1.82,1Zm-6.22-3.45h-.45v1.47h.45Zm0,2.5h-.45v1.58h.45Zm1.21-2.5h-.46v1.47h.46Zm0,2.5h-.46v1.58h.46Zm1.91-1.68a4.82,4.82,0,0,1-.46.74l-.64-.41v1.54a5.36,5.36,0,0,0,1.57-1.15,3.86,3.86,0,0,1-.47-.72m1.16,1.45a7.23,7.23,0,0,1-1,.85h2.2a6.9,6.9,0,0,1-1.17-.85m.73,1.76h-1.57v1.07H1094Zm-1.27-4.08a2.7,2.7,0,0,0,.48.88,3.8,3.8,0,0,0,.55-.88Z" transform="translate(-877.82 -385.19)" style="fill: #231f20"/>
      <path d="M1057.32,577.57a10,10,0,0,0,2.45,1.54l-.8.85a9.25,9.25,0,0,1-2.62-1.81l.82-.58h-2.52l.61.5a.22.22,0,0,1,.09.17c0,.15-.21.13-.33.12a9.39,9.39,0,0,1-2.3,1.57l-.9-.86a6.45,6.45,0,0,0,2.4-1.5h-2.43v-.94h1.45v-4.24l.86.1a12.91,12.91,0,0,0,3.83-.54l.65.66a.42.42,0,0,1,.14.24s0,.1-.13.1a2.21,2.21,0,0,1-.32-.07,17.76,17.76,0,0,1-4,.42v.77h4.84V575h-1.36v1.62h2.05v.94Zm-.62-2.56h-2.4v1.62h2.4Z" transform="translate(-877.82 -385.19)" style="fill: #231f20"/>
      <path d="M1064.13,575.27c-.15,0-.17.1-.23.35-.27,1-.5,1.69-.62,2,.08,0,.5-.14.77-.24l-.14,1c-.72.28-1.5.55-2.41.87-.37.13-.42.15-.49.25s-.06.09-.1.09-.11-.21-.12-.29l-.16-1c.49-.11,1.05-.27,1.67-.44a19.24,19.24,0,0,0,.58-3.1l1.05.2c.16,0,.32.07.32.14s-.08.08-.12.1m-3.46-.59v-1h1.24V572l1.08.07s.3,0,.3.14a.14.14,0,0,1-.08.11c-.11.06-.19.09-.19.19v1.21h1.28v1Zm.69,3.15a11.65,11.65,0,0,0-.55-2.57l.94-.23a10.35,10.35,0,0,1,.52,2.53Zm5.15-3.31v1.24h2v4h-1.07v-.4h-2.16v.4h-1.08v-4h1.22V572l1,0c.17,0,.32,0,.32.12s0,.06-.11.11-.11.06-.11.08v1.08h2.18v1.09Zm.9,2.19h-2.16v1.7h2.16Z" transform="translate(-877.82 -385.19)" style="fill: #231f20"/>
      <path d="M1071.91,573.07a10.8,10.8,0,0,1-.46,1.88h1.64v3.84h-1.74v1h-.93V577a4.41,4.41,0,0,1-.56.64L1069,577a5.86,5.86,0,0,0,1.88-3.91h-1.28v-.94h3.67v.94Zm.31,2.8h-.86v2h.86Zm4.53.08v4h-1v-4H1075a8.07,8.07,0,0,1-.43,2.49,3.77,3.77,0,0,1-1.09,1.58l-.89-.61a3.18,3.18,0,0,0,1-1.11,5.57,5.57,0,0,0,.48-2.36h-.75V575h.75v-2h-.46v-.9h3.8v.9h-.66v2h.77v.92Zm-1-2.88h-.67v2h.67Z" transform="translate(-877.82 -385.19)" style="fill: #231f20"/>
      <path d="M1085.32,579.89h-1.22c-.47,0-.88-.18-.88-.69,0-.18.21-1.95.23-2.19l-1.09,0A4.33,4.33,0,0,1,1079,580l-.82-1c1.86-.21,2.87-1.06,3.1-1.86l-2.4.07v-1l2.59-.06c0-.16,0-.45,0-1l1.05,0v-1.77h-1.32l.77.35c.07,0,.11.07.11.11a.13.13,0,0,1,0,.09s-.21.07-.23.1a3.59,3.59,0,0,1-2.23,1.82l-.67-.85a2.8,2.8,0,0,0,1.42-.69,1.93,1.93,0,0,0,.58-.93h-1.31v1.06h-1v-2h3.23v-.54l1.25.07s.18,0,.18.11a.08.08,0,0,1,0,.07s-.17.11-.17.14v.15h3.24v1.94h-.65c-.26,1-.52,1.2-1.15,1.2H1083a.61.61,0,0,1-.35-.09c0,.24,0,.37-.05.56l2.12-.07c-.19,1.3-.3,2.47-.3,2.52,0,.31.23.33.27.33h.44c.31,0,.35-.26.44-.87l1,.4c-.18,1-.37,1.54-1.19,1.54m-.11-6.51h-1.68v1a.22.22,0,0,0,.25.23h.44c.22,0,.29-.21.41-.61l.58.19Z" transform="translate(-877.82 -385.19)" style="fill: #231f20"/>
      <path d="M1094.63,575.34a5.53,5.53,0,0,1-1.07-.49v.79h-4.5v-.76a8.1,8.1,0,0,1-1.16.61l-.71-.82a6.55,6.55,0,0,0,3.4-2.84l1.33.23c.07,0,.14.05.14.12a.13.13,0,0,1-.08.12,7,7,0,0,0,1.58,1.33,8.52,8.52,0,0,0,1.81.82ZM1094,580a6.21,6.21,0,0,0-.62-.83c-1.28.16-3.37.39-3.65.42s-1.18.1-1.41.14a.12.12,0,0,0-.09.07c-.06.11-.08.14-.11.14a.11.11,0,0,1-.08-.08l-.3-1.22c.59,0,.85,0,1.32,0,.23-.37.43-.7.85-1.5h-2.12v-.9h6.85v.9h-2a13.77,13.77,0,0,1,2.17,2.2Zm-2.77-7.11a9.08,9.08,0,0,1-1.93,1.83h4a8.46,8.46,0,0,1-2.08-1.83m.67,4.89.67-.68h-1.4c-.44.77-.71,1.18-.88,1.44.78,0,1.56-.08,2.33-.18a5.74,5.74,0,0,0-.73-.58" transform="translate(-877.82 -385.19)" style="fill: #231f20"/>
    </g>
  </a>
  <a xlink:href="/projects/literature">
    <g id="literature">
      <rect x="135.68" y="121.81" width="45" height="28" style="fill: #e6e6e6"/>
      <path d="M1023.62,515.6v-.28h-4.82v.31h-.9v-6.74h6.63v6.71Zm0-5.89h-4.82v4.81h.8l-.68-.72a4.22,4.22,0,0,0,1.74-1l-.08,0a4.28,4.28,0,0,0-1.13-.55l.49-.71a6.4,6.4,0,0,1,1.36.61,7.3,7.3,0,0,0,1.15-2l.81.29c.14,0,.22.11.22.19s0,.08-.08.1-.19.09-.24.16a8.25,8.25,0,0,1-1.1,1.79,8.05,8.05,0,0,1,1.17,1l-.67.68a5.8,5.8,0,0,0-1.14-1,7,7,0,0,1-1.69,1.2h3.89Zm-3.76,1.71a5.32,5.32,0,0,0-.86-.93l.65-.54a4,4,0,0,1,.84,1Zm1.17-.06a3.75,3.75,0,0,0-.55-1.15l.76-.37a3.87,3.87,0,0,1,.55,1.24Z" transform="translate(-877.82 -385.19)" style="fill: #231f20"/>
      <path d="M1025.42,513v-.5h3v-.26H1026v-.54h2.39v-.29h-2.11v-.54h2.11v-.33h-2.92V510h2.92v-.27h-2v-.51h2v-.54l.87.07c.06,0,.22,0,.22.09s0,.06-.06.08-.08,0-.08.09v.21h2V510h.9v.51h-.9v.87h-2v.29h2.33v.54h-2.33v.26h3v.5Zm5,2.61v-.23h-3.18v.23h-.92v-2.25h5v2.25Zm0-1.75h-3.18v.27h3.18Zm0,.7h-3.18v.32h3.18Zm.07-4.79h-1.19V510h1.19Zm0,.78h-1.19v.33h1.19Z" transform="translate(-877.82 -385.19)" style="fill: #231f20"/>
      <path d="M1038.53,513.36a7.42,7.42,0,0,1-.74.89,11.38,11.38,0,0,1,1.72.86l-.53.74a7.54,7.54,0,0,0-1.84-1,6.08,6.08,0,0,1-3.35,1l-.43-.84a5.8,5.8,0,0,0,2.78-.51c-.35-.11-.59-.15-.8-.2l-.24.34-.79-.35a9.56,9.56,0,0,0,.64-.9H1033v-.67h2.32a10,10,0,0,0,.48-.91l.19.09v-.77a7.29,7.29,0,0,1-2.32,1.47l-.58-.6a4.53,4.53,0,0,0,1.9-1h-2v-.72h3v-.55c-.47,0-1.12.09-2,.1l-.34-.74c.3,0,.56,0,1,0a15.2,15.2,0,0,0,2.19-.14,6.55,6.55,0,0,0,1.37-.32l.57.6a.27.27,0,0,1,.08.14s0,.06-.06.06l-.36-.06c-.06,0-.54.1-.64.13l-.81.12v.64h2.94v.72h-2a3.82,3.82,0,0,0,1.84.84l-.47.7a5.19,5.19,0,0,1-2.28-1.32v.77h-.79l.43.2s.13.06.13.13a.06.06,0,0,1,0,.07,1.41,1.41,0,0,0-.18,0s-.12.21-.19.32h3.62v.67Zm-2.6,0-.18.29a9.46,9.46,0,0,1,1.13.28,3.45,3.45,0,0,0,.5-.57Z" transform="translate(-877.82 -385.19)" style="fill: #231f20"/>
      <path d="M1046.82,515.68a5.53,5.53,0,0,1-2.23-1.05l.48-.54h-2.17l.64.51a.11.11,0,0,1,0,.07s-.06,0-.09,0a.5.5,0,0,0-.32.1,7.7,7.7,0,0,1-1.66.84l-.67-.67a5.86,5.86,0,0,0,1.85-.92h-1.25v-3.33h5.42v3.33h-1.58a5.46,5.46,0,0,0,2.13.91Zm-5-6.85h4.55v1.61h-4.55Zm4,2.53h-3.47v.36h3.47Zm0,.87h-3.47v.36h3.47Zm0,.87h-3.47v.38h3.47Zm-.46-3.63h-2.62v.36h2.62Z" transform="translate(-877.82 -385.19)" style="fill: #231f20"/>
      <path d="M1054.69,511.69a4.84,4.84,0,0,1-.93-.43v.68h-3.88v-.66a7.2,7.2,0,0,1-1,.52l-.61-.71a5.65,5.65,0,0,0,2.93-2.45l1.15.2c.06,0,.12,0,.12.11a.12.12,0,0,1-.07.1,6,6,0,0,0,1.36,1.15,7.38,7.38,0,0,0,1.56.71Zm-.53,4a5.45,5.45,0,0,0-.53-.72c-1.1.14-2.91.34-3.14.36s-1,.09-1.21.12a.1.1,0,0,0-.08.06c0,.1-.07.12-.1.12a.09.09,0,0,1-.07-.07l-.26-1.05c.51,0,.73,0,1.13,0,.2-.32.37-.6.73-1.29h-1.82v-.78h5.91v.78H1053a11.84,11.84,0,0,1,1.87,1.9Zm-2.39-6.14a7.8,7.8,0,0,1-1.66,1.58h3.46a7.29,7.29,0,0,1-1.79-1.58m.58,4.22.58-.59h-1.21c-.38.67-.61,1-.76,1.24.68,0,1.34-.07,2-.15a4.8,4.8,0,0,0-.63-.5" transform="translate(-877.82 -385.19)" style="fill: #231f20"/>
      <path d="M1035.48,524.69a5.86,5.86,0,0,1-1.83-.95,5.67,5.67,0,0,1-1.79,1.06l-.72-.66a6.1,6.1,0,0,0,1.86-1,5.94,5.94,0,0,1-1.13-1.84,5.62,5.62,0,0,1-1.93,3.27l-.81-.53c1.9-1.36,2.07-3.45,2.09-5.12h-1.26V518h4.25l.22.26-.27,1.45h1.42a6.71,6.71,0,0,1-1.29,3.3,4.75,4.75,0,0,0,1.83.76Zm-2.48-4.09.38-1.7h-1.31v.31a3.07,3.07,0,0,0,.27,1.19,5.24,5.24,0,0,0,1.29,2.08,4.72,4.72,0,0,0,.82-1.88Z" transform="translate(-877.82 -385.19)" style="fill: #231f20"/>
      <path d="M1039.68,519a6.08,6.08,0,0,0-1.12,3.14,1.25,1.25,0,0,0,1.26,1.42c1.53,0,1.53-1.89,1.53-2.28a5.85,5.85,0,0,0-.65-2.65l.85-.41a8.49,8.49,0,0,0,2.19,2.89l-.61.74a7,7,0,0,1-1.12-1.57,6.84,6.84,0,0,1,.13,1.32c0,2.07-1.06,2.89-2.27,2.89a2.13,2.13,0,0,1-2.2-2.2,6.65,6.65,0,0,1,.68-2.52,5,5,0,0,1-1.06.43l-.46-.85a4.66,4.66,0,0,0,2.15-1Zm3.43.28a4.59,4.59,0,0,0-.64-.67l.32-.36a3.87,3.87,0,0,1,.66.65Zm.54-.76a4,4,0,0,0-.63-.59l.35-.39a5.92,5.92,0,0,1,.61.57Z" transform="translate(-877.82 -385.19)" style="fill: #231f20"/>
      <path d="M1024,533.46a6.8,6.8,0,0,1-2.75-1.45,8.63,8.63,0,0,1-3,1.51l-.72-.77a7.68,7.68,0,0,0,1.67-.53,4.8,4.8,0,0,0,1.38-.85,7.45,7.45,0,0,1-1.2-1.74,7.83,7.83,0,0,1-.54-1.29h-1v-.83h2.89v-1l1,.07s.2,0,.2.11,0,.07-.08.1-.1.06-.1.13v.64h2.86v.83h-1.13a8.5,8.5,0,0,1-1.54,3,6.07,6.07,0,0,0,2.68,1.2Zm-4.17-5.12a6.9,6.9,0,0,0,1.38,2.4,6.28,6.28,0,0,0,1.16-2.4Z" transform="translate(-877.82 -385.19)" style="fill: #231f20"/>
      <path d="M1032.28,531.06c-.12.19-.22.22-.33.22s-.64-.09-.92-1l-.33.59a2.56,2.56,0,0,0-.48-.35,1.58,1.58,0,0,1-.47.45H1031v.57h-4.29v-.29l-.81,0a.17.17,0,0,0-.1,0c-.06.06-.06.06-.09.06s-.09,0-.1-.18l-.06-.57c.51,0,1.07,0,1.48-.06v-.21h-.79v-.29a2,2,0,0,1-.43.2l-.42-.56a1.2,1.2,0,0,0,.73-.49h-.71v-.51h1.46v-.2h-1v-.51h1v-.25h.37v-.28h-1.83v-.68h1.83v-.41l.91.07c.11,0,.21,0,.21.1s0,0-.1.11,0,0,0,.12h1.34v-.39l.94,0c.16,0,.2,0,.2.1s0,.07-.08.1-.09,0-.09.16h1.79v.68h-1.79V528l.28,0c.13,0,.19,0,.19.11s0,.06-.07.1-.07.07-.08.3h1a5.24,5.24,0,0,0-.14,1c0,.17,0,.6.13.6s.14-.16.17-.35l.56.48a2.25,2.25,0,0,1-.27.81m-1,1.37a4.27,4.27,0,0,1,.79.57l-.51.58a5.14,5.14,0,0,0-.72-.54c-.42.06-2.24.29-4.59.41-.11,0-.14,0-.21.07s-.07.08-.12.08-.07,0-.09-.15l-.12-.65c.46,0,1.49,0,2-.06a1.85,1.85,0,0,0,.17-.3h-2.39v-.59h6.94v.59Zm-3.63-3.15h-1.15l.36.2s.08,0,.08.1-.08.07-.17.07l-.13.15h.39v-.24l.62,0Zm1.94-1.29v-.47h-1.34v.34h-.48v.19h1v.51h-1v.2H1029v.51h-.67v.26s0,.12.1.12.15-.07.18-.25l.54.27c0,.4-.23.54-.51.54h-.29v.21h-.51v.16l.79-.07-.22.49h.72l-.46-.33a1.79,1.79,0,0,0,.91-.51l-.42-.19.39-.59.38.16a2.14,2.14,0,0,0,.1-.37h-.64v-.67h.7c0-.12,0-.4,0-.53Zm.18,4.44h-1a1.56,1.56,0,0,1-.11.26c.87,0,1.05-.07,1.46-.11l-.31-.15m1.05-3.24a2.36,2.36,0,0,1-.19.7,2.54,2.54,0,0,1,.39.22s0-.2,0-.34,0-.3,0-.58Z" transform="translate(-877.82 -385.19)" style="fill: #231f20"/>
      <path d="M1038.38,533.42l-.33-.89.36,0c.31,0,.39,0,.39-.34v-4.78h-4.66v5.88h-.86V526.6h6.4v5.91c0,.72-.39.89-1.31.91M1034.5,528h3.88v.76h-3.88Zm1.13,4.05v.34h-.85v-3h3.27v2.71Zm1.59-2h-1.59v1.17h1.59Z" transform="translate(-877.82 -385.19)" style="fill: #231f20"/>
      <path d="M1043.4,532.85a6.82,6.82,0,0,0-.64-.89,5.81,5.81,0,0,1-1.19,1.48l-.85-.52a4.86,4.86,0,0,0,1.41-1.6,3.52,3.52,0,0,0-.51-.38c0,.1,0,.13-.1.28l-.94-.18a14.14,14.14,0,0,0,.71-2.47h-.6v-.8h.73a10.43,10.43,0,0,0,.12-1.25l1,.07s.15,0,.15.11,0,.06-.08.08-.09.07-.1.11c0,.26-.1.6-.16.88h1.25a8.18,8.18,0,0,1-.43,3.29,7,7,0,0,1,.93,1.09Zm-1.21-4.29c-.18.83-.24,1.11-.32,1.44a6.49,6.49,0,0,1,.61.43,6.41,6.41,0,0,0,.29-1.87Zm3.8,1.69v2.45c0,.52-.46.73-.93.73h-.49l-.44-1.08.34.07.26,0c.22,0,.31-.06.31-.39v-1.82h-1.34v-.88H1045v-1.13l.41.11a3.64,3.64,0,0,0,.6-.71h-2.23v-.82H1047l.51.49c-.56.66-1.26,1.41-1.51,1.66v.4h1.6v.88Z" transform="translate(-877.82 -385.19)" style="fill: #231f20"/>
      <path d="M1054.69,529.45a4.84,4.84,0,0,1-.93-.43v.68h-3.88V529a7.09,7.09,0,0,1-1,.52l-.61-.71a5.66,5.66,0,0,0,2.93-2.45l1.15.2c.06,0,.12,0,.12.1a.11.11,0,0,1-.07.1,6,6,0,0,0,1.36,1.15,7.32,7.32,0,0,0,1.56.71Zm-.53,4a5.52,5.52,0,0,0-.53-.72l-3.14.36c-.17,0-1,.09-1.21.12a.1.1,0,0,0-.08.06c0,.1-.07.12-.1.12a.09.09,0,0,1-.07-.07l-.26-1.05c.51,0,.73,0,1.13,0,.2-.32.37-.6.73-1.29h-1.82v-.78h5.91V531H1053a11.88,11.88,0,0,1,1.87,1.9Zm-2.39-6.13a7.82,7.82,0,0,1-1.66,1.57h3.46a7.29,7.29,0,0,1-1.79-1.57m.58,4.22.58-.59h-1.21c-.38.67-.61,1-.76,1.24.68,0,1.34-.07,2-.15a4.89,4.89,0,0,0-.63-.5" transform="translate(-877.82 -385.19)" style="fill: #231f20"/>
    </g>
  </a>
  <a xlink:href="/projects/chemistry">
    <g id="chemistry">
      <rect x="225.18" y="121.81" width="34" height="28" style="fill: #e6e6e6"/>
      <rect x="285.18" y="42.31" width="48" height="61" style="fill: #e6e6e6"/>
      <path d="M1111,519.92a12.7,12.7,0,0,0-2-2,7.77,7.77,0,0,1-2.75,2.07l-.71-.73a7.13,7.13,0,0,0,2.57-1.74,6.42,6.42,0,0,0,1.37-2.2h-3.06v-.93H1110a.77.77,0,0,0,.42-.18l.62.68a1.11,1.11,0,0,0-.43.48,9.73,9.73,0,0,1-.93,1.8,16.09,16.09,0,0,1,2.13,2Z" transform="translate(-877.82 -385.19)" style="fill: #231f20"/>
      <path d="M1118.83,516.79a6.83,6.83,0,0,1-1.33,2.24,6,6,0,0,1-2.23,1.48l-.75-.69a5.25,5.25,0,0,0,2.25-1.42,4.62,4.62,0,0,0,1-1.7h-4.17v-.88h4.56a.93.93,0,0,0,.39-.15l.65.69a1.36,1.36,0,0,0-.39.45m-4.41-2.79h3.82v.91h-3.82Z" transform="translate(-877.82 -385.19)" style="fill: #231f20"/>
      <path d="M1126.29,514.57c-.12,0-.14,0-.25.15a10.34,10.34,0,0,1-1.33,1.25v4.29h-1v-3.54a14.42,14.42,0,0,1-2,1.14l-.7-.72a12.46,12.46,0,0,0,4.66-3.42l.7.58s.14.13.14.19,0,.07-.19.07" transform="translate(-877.82 -385.19)" style="fill: #231f20"/>
      <path d="M1133.89,519.94a6,6,0,0,0-.34-.9c-.77.13-4.6.76-4.66.8l-.12.11a.09.09,0,0,1-.07,0c-.06,0-.09-.07-.12-.22l-.19-.93.89-.06a42,42,0,0,0,1.58-4.75l1,.23c.07,0,.22.07.22.15s0,0-.15.13-.1.07-.17.28c-.43,1.25-1.1,3-1.46,3.86,1.14-.13,2-.24,2.87-.39a7.28,7.28,0,0,0-.92-1.25l.85-.43a10.65,10.65,0,0,1,1.73,2.83Z" transform="translate(-877.82 -385.19)" style="fill: #231f20"/>
      <path d="M1115.69,529.44v-.26h-2v.32H1113v-5.2h1v-.67h-1v-.79h3.42v.79h-1v.67h1v5.13Zm0-2.57h-.27c-.43,0-.63-.14-.63-.59V525h-.27v.16a2.81,2.81,0,0,1-.36,1.74l-.43-.16v.52h2Zm-2-1.84v1.46a1.83,1.83,0,0,0,.18-.52,5.31,5.31,0,0,0,.05-.93Zm2,3h-2v.49h2Zm-.89-4.34h-.27v.67h.27Zm.89,1.39h-.31v1c0,.21.09.22.31.22Zm3.3,4.27h-1.38c-.6,0-.8-.24-.8-.76V525.3h2v-1.59h-1.95v-.87h2.82v3.55h-.88v-.27h-1.17v2c0,.31.12.39.4.39h.76a.3.3,0,0,0,.32-.23,1.84,1.84,0,0,0,.14-.61l.7.3c-.18,1-.39,1.3-.95,1.3" transform="translate(-877.82 -385.19)" style="fill: #231f20"/>
      <path d="M1124.18,524.45l.58.11s.18,0,.18.11,0,.11-.13.18v.72h2.05v2.5c0,.72-.39.83-1.42.84l-.38-1,.55,0c.19,0,.3,0,.3-.27v-1.29h-1.11v3.14h-1v-3.14h-1v2.53h-1V526.4a9.72,9.72,0,0,1-.94.8l-.83-.64a5.35,5.35,0,0,0,2.09-2.12h-1.65v-.84h2.07a7.66,7.66,0,0,0,.38-1.16l.92.15c.09,0,.26,0,.26.14a.08.08,0,0,1-.07.08c-.18.07-.19.07-.22.12l-.24.66h3.82v.84Zm-.37,0h-.58a7.87,7.87,0,0,1-.68,1.13h1.26Z" transform="translate(-877.82 -385.19)" style="fill: #231f20"/>
      <path d="M1186.25,433.07c-.2.08-.22.09-.25.15-.22.41-.29.59-.79,1.46.1.06.16.11.16.19a.3.3,0,0,1-.05.18c-.12.14-.14.17-.14.26v6.16h-1.27v-5a8.48,8.48,0,0,1-.67.85l-1.06-.75a13.63,13.63,0,0,0,2.82-4.53l1.16.62c.08,0,.21.12.21.22a.16.16,0,0,1-.11.14m5.65,1.42-.32,0c-.06,0-.81.83-1,1a22.1,22.1,0,0,1-2.48,2v2.06c0,.45.09.59.47.59h1.51c.4,0,.54-.26.65-1.16l1.09.76c-.29,1.45-.68,1.6-1.56,1.6H1188c-.73,0-1.06-.3-1.06-1v-8.16l1.15.1c.15,0,.35,0,.35.16s-.09.13-.11.15-.16.11-.16.21V436a12.42,12.42,0,0,0,2.56-2.6l1.07.66s.23.14.23.25a.17.17,0,0,1-.09.14" transform="translate(-877.82 -385.19)" style="fill: #231f20"/>
      <path d="M1190.29,447.1v-1.31h-6.45v1.36h-1.18v-2.37h5.4a8.65,8.65,0,0,0,1.33-2l1.08.36c.07,0,.19.1.19.18a.06.06,0,0,1,0,.07s-.27.09-.32.13a9.27,9.27,0,0,1-.85,1.3h2v2.32Zm-2.55,2.32v1.64c0,.76-.63.95-1.3.95h-.68l-.48-1.15.87.07c.19,0,.26-.16.26-.33v-1.17h-3.75v-1.07h3.75v-.67l.52.09a2,2,0,0,0,.41-.46h-2.91v-1h4.93l.31.48c-.49.45-1.35,1.15-1.94,1.58h3.69v1.07Zm-3.42-4.73a6.63,6.63,0,0,0-.94-1.45l1-.61a6.62,6.62,0,0,1,1,1.4Zm2.47-.22a7.45,7.45,0,0,0-1-1.57l1-.59a7.56,7.56,0,0,1,1.07,1.6Z" transform="translate(-877.82 -385.19)" style="fill: #231f20"/>
      <path d="M1185.2,454.17a12.64,12.64,0,0,1-.53,2.19h1.91v4.48h-2V462h-1.09v-3.25a5.07,5.07,0,0,1-.65.74l-1-.74a6.84,6.84,0,0,0,2.2-4.56h-1.49v-1.1h4.29v1.1Zm.36,3.26h-1v2.35h1Zm5.29.09v4.64h-1.16v-4.64h-.87a9.35,9.35,0,0,1-.5,2.9,4.38,4.38,0,0,1-1.27,1.85l-1-.71a3.7,3.7,0,0,0,1.15-1.3,6.51,6.51,0,0,0,.57-2.75h-.87v-1.08h.87v-2.28h-.53V453.1h4.44v1.06h-.77v2.28h.89v1.08Zm-1.16-3.36h-.78v2.29h.78Z" transform="translate(-877.82 -385.19)" style="fill: #231f20"/>
      <path d="M1190.51,472.47h-1.43c-.54,0-1-.21-1-.81,0-.21.24-2.27.27-2.56l-1.27,0a5.05,5.05,0,0,1-4,3.42l-1-1.21c2.18-.24,3.35-1.24,3.62-2.17l-2.81.08v-1.18l3-.08c0-.18,0-.52,0-1.12l1.23.05v-2.07h-1.55l.89.4c.09,0,.13.08.13.13a.15.15,0,0,1-.05.11s-.24.09-.27.12a4.18,4.18,0,0,1-2.6,2.12l-.78-1a3.26,3.26,0,0,0,1.65-.8,2.25,2.25,0,0,0,.68-1.09h-1.52v1.24h-1.18v-2.35h3.76v-.63l1.46.09s.21,0,.21.13a.09.09,0,0,1,0,.08s-.19.13-.19.16v.18h3.77V466h-.76c-.3,1.21-.61,1.4-1.34,1.4h-1.73a.7.7,0,0,1-.4-.11c0,.28,0,.43-.07.65l2.47-.08c-.22,1.52-.35,2.88-.35,2.94,0,.36.26.38.32.38h.51c.36,0,.4-.3.51-1l1.16.47c-.21,1.2-.43,1.8-1.39,1.8m-.13-7.59h-2v1.2a.26.26,0,0,0,.29.27h.51c.26,0,.34-.25.48-.71l.68.22Z" transform="translate(-877.82 -385.19)" style="fill: #231f20"/>
      <path d="M1182.41,478.21v-1h1.2a7,7,0,0,0-.62-1.39l.76-.33h-1v-1h1.75v-1.05l1.45.08c.12,0,.17,0,.17.12s0,.08-.08.11-.16.12-.16.16v.59h1.52v1h-1.17l.86.5c.09.05.12.1.12.14s-.05.1-.11.12-.17.05-.22.16a3.76,3.76,0,0,1-.34.79h1v1Zm3.44,4.52v-.27H1184v.35h-1.09v-4H1187v3.92Zm-1.83-7.25a8.12,8.12,0,0,1,.63,1.47l-.6.25h1.32a7,7,0,0,0,.66-1.72Zm1.83,4.43H1184v1.44h1.83Zm3.9,2-.75-1.11v2h-1.12v-8.88h3.58l.41.6-1.35,2.76a3.44,3.44,0,0,1,1.36,2.52,2,2,0,0,1-2.13,2.08m-.38-4.54c.19-.48.59-1.5.87-2.41H1189v5.68c.18,0,.49,0,.59,0a1,1,0,0,0,1.13-1,4.28,4.28,0,0,0-1.35-2.34" transform="translate(-877.82 -385.19)" style="fill: #231f20"/>
    </g>
  </a>
  <a xlink:href="/projects/math">
    <g id="math">
      <rect x="176.18" y="9.81" width="90" height="29" style="fill: #e6e6e6"/>
      <path d="M1071.69,405.29a4.5,4.5,0,0,1-.8,1.47,6.48,6.48,0,0,1,.67.63l-.7.9c-.4-.47-.57-.63-.73-.79a6.14,6.14,0,0,1-1.8,1l-.66-.77a5.28,5.28,0,0,0,1.66-.86,3.46,3.46,0,0,0-.54-.29c-.13.19-.15.21-.24.35l-1-.36a11.21,11.21,0,0,0,.78-1.25h-1.13v-1h1.61l.37-.79h-.07v-.81a7.21,7.21,0,0,1-1.11,1.1l-.86-.63a4.75,4.75,0,0,0,1.36-1.32h-1.3v-.94h.74a3.82,3.82,0,0,0-.79-1.16l.88-.54a4,4,0,0,1,.76,1.27l-.74.43h1.07v-1.76l1.06.08c.15,0,.25.05.25.15s0,.07-.08.14a.27.27,0,0,0-.1.16v1.23h1.12l-.83-.38a7.24,7.24,0,0,0,.68-1.26l.86.34s.15.07.15.13,0,.05-.05.07-.14.05-.17.11c-.15.32-.36.68-.52,1h.67v.94h-1.32a3.07,3.07,0,0,0,1,1l-.67.82a2.82,2.82,0,0,1-.92-1v.88h-.63l.62.32s.1.07.1.12-.09.1-.16.14a1.06,1.06,0,0,0-.11.22h2.32v1Zm-2.11,0c-.09.14-.16.29-.25.42a5.72,5.72,0,0,1,.74.42,3.48,3.48,0,0,0,.52-.85Zm6.28,3.06a3.93,3.93,0,0,1-1.52-1.34,8.52,8.52,0,0,1-1.74,1.56l-.93-.85a6.1,6.1,0,0,0,2-1.77,8,8,0,0,1-.77-2.24c-.07.13-.17.35-.33.62l-1-.47a7,7,0,0,0,.89-2.06,11.56,11.56,0,0,0,.4-2.55l1.16.07c.12,0,.21,0,.21.1s0,.05-.06.11a.42.42,0,0,0-.17.28,9.7,9.7,0,0,1-.19,1.12h2.66V402h-.5a9.57,9.57,0,0,1-1,4,5.42,5.42,0,0,0,1.65,1.51ZM1073.6,402a8.66,8.66,0,0,0,.7,2.81,7.57,7.57,0,0,0,.58-2.81Z" transform="translate(-877.82 -385.19)" style="fill: #231f20"/>
      <path d="M1085.39,403.77v-1.31h-6.45v1.36h-1.18v-2.37h5.4a8.65,8.65,0,0,0,1.33-2l1.08.36c.07,0,.19.1.19.18a.06.06,0,0,1,0,.07s-.27.09-.32.13a9.27,9.27,0,0,1-.85,1.3h2v2.32Zm-2.55,2.32v1.64c0,.76-.63.95-1.3.95h-.68l-.48-1.15.87.07c.19,0,.26-.16.26-.33v-1.17h-3.75V405h3.75v-.67l.52.09a2,2,0,0,0,.41-.46h-2.91v-1h4.93l.31.48c-.49.45-1.35,1.15-1.94,1.58h3.69v1.07Zm-3.42-4.73a6.67,6.67,0,0,0-.94-1.45l1-.61a6.62,6.62,0,0,1,1,1.4Zm2.47-.22a7.45,7.45,0,0,0-1-1.57l1-.59a7.56,7.56,0,0,1,1.07,1.6Z" transform="translate(-877.82 -385.19)" style="fill: #231f20"/>
      <path d="M1064.88,412.84a12.73,12.73,0,0,1-.53,2.19h1.91v4.48h-2v1.14h-1.09v-3.25a5.13,5.13,0,0,1-.65.74l-1-.74a6.84,6.84,0,0,0,2.2-4.56h-1.49v-1.1h4.29v1.1Zm.36,3.26h-1v2.35h1Zm5.29.09v4.63h-1.16v-4.63h-.87a9.38,9.38,0,0,1-.5,2.9,4.39,4.39,0,0,1-1.27,1.85l-1-.71a3.71,3.71,0,0,0,1.15-1.3,6.51,6.51,0,0,0,.57-2.75h-.87v-1.08h.87v-2.29h-.53v-1.06h4.44v1.06h-.77v2.29h.89v1.08Zm-1.16-3.36h-.78v2.29h.78Z" transform="translate(-877.82 -385.19)" style="fill: #231f20"/>
      <path d="M1080.53,420.8h-1.43c-.54,0-1-.21-1-.81,0-.21.24-2.27.27-2.56l-1.27,0a5.05,5.05,0,0,1-4,3.42l-1-1.21c2.18-.24,3.35-1.24,3.62-2.17l-2.81.08v-1.18l3-.08c0-.18,0-.52,0-1.12l1.23.05v-2.07h-1.55l.89.4c.09,0,.13.08.13.13a.15.15,0,0,1-.05.11s-.24.09-.27.12a4.18,4.18,0,0,1-2.6,2.12l-.78-1a3.26,3.26,0,0,0,1.65-.8,2.25,2.25,0,0,0,.68-1.09h-1.52v1.24h-1.18V412.1h3.76v-.63l1.46.09s.21,0,.21.13a.09.09,0,0,1,0,.08s-.19.13-.19.16v.18h3.77v2.26h-.76c-.3,1.21-.61,1.4-1.34,1.4h-1.73a.7.7,0,0,1-.4-.11c0,.28,0,.43-.07.65l2.47-.08c-.22,1.52-.35,2.88-.35,2.94,0,.36.26.38.32.38h.51c.36,0,.4-.3.51-1l1.16.47c-.21,1.2-.43,1.8-1.39,1.8m-.13-7.59h-2v1.2a.26.26,0,0,0,.29.27h.51c.26,0,.34-.25.48-.71l.68.22Z" transform="translate(-877.82 -385.19)" style="fill: #231f20"/>
      <path d="M1082.76,416.2v-1h1.2a7,7,0,0,0-.62-1.39l.76-.33h-1v-1h1.75v-1.05l1.45.08c.12,0,.17,0,.17.12s0,.08-.08.11-.16.12-.16.16v.59h1.52v1h-1.17l.86.5c.09.05.12.1.12.14s-.05.1-.11.12-.17.05-.22.16a3.76,3.76,0,0,1-.34.79h1v1Zm3.44,4.52v-.27h-1.83v.35h-1.09v-4h4.09v3.92Zm-1.83-7.25a8.12,8.12,0,0,1,.63,1.47l-.6.25h1.32a7,7,0,0,0,.66-1.72Zm1.83,4.43h-1.83v1.44h1.83Zm3.9,2-.75-1.11v2h-1.12v-8.88h3.58l.41.6-1.35,2.76a3.44,3.44,0,0,1,1.36,2.52,2,2,0,0,1-2.13,2.08m-.38-4.54c.19-.48.59-1.5.87-2.41h-1.24v5.68c.18,0,.49,0,.59,0a1,1,0,0,0,1.13-1,4.28,4.28,0,0,0-1.35-2.34" transform="translate(-877.82 -385.19)" style="fill: #231f20"/>
      <path d="M1116.77,405.29a4.5,4.5,0,0,1-.8,1.47,6.48,6.48,0,0,1,.67.63l-.7.9c-.4-.47-.57-.63-.73-.79a6.14,6.14,0,0,1-1.8,1l-.66-.77a5.28,5.28,0,0,0,1.66-.86,3.46,3.46,0,0,0-.54-.29c-.13.19-.15.21-.24.35l-1-.36a11.21,11.21,0,0,0,.78-1.25h-1.13v-1h1.61l.37-.79h-.07v-.81a7.21,7.21,0,0,1-1.11,1.1l-.86-.63a4.75,4.75,0,0,0,1.36-1.32h-1.3v-.94h.74a3.82,3.82,0,0,0-.79-1.16l.88-.54a4,4,0,0,1,.76,1.27l-.74.43h1.07v-1.76l1.05.08c.15,0,.25.05.25.15s0,.07-.08.14a.27.27,0,0,0-.1.16v1.23h1.12l-.83-.38a7.23,7.23,0,0,0,.68-1.26l.86.34s.15.07.15.13,0,.05-.05.07-.14.05-.17.11c-.15.32-.36.68-.52,1h.67v.94h-1.32a3.07,3.07,0,0,0,1,1l-.67.82a2.82,2.82,0,0,1-.92-1v.88h-.63l.62.32s.1.07.1.12-.09.1-.16.14a1.06,1.06,0,0,0-.11.22h2.32v1Zm-2.11,0c-.09.14-.16.29-.25.42a5.72,5.72,0,0,1,.74.42,3.48,3.48,0,0,0,.52-.85Zm6.28,3.06a3.93,3.93,0,0,1-1.52-1.34,8.52,8.52,0,0,1-1.74,1.56l-.93-.85a6.1,6.1,0,0,0,2-1.77,8,8,0,0,1-.77-2.24c-.07.13-.17.35-.33.62l-1-.47a7,7,0,0,0,.89-2.06,11.56,11.56,0,0,0,.4-2.55l1.16.07c.12,0,.21,0,.21.1s0,.05-.06.11a.42.42,0,0,0-.17.28,9.7,9.7,0,0,1-.19,1.12h2.66V402h-.5a9.56,9.56,0,0,1-1,4,5.42,5.42,0,0,0,1.65,1.51Zm-2.25-6.32a8.66,8.66,0,0,0,.7,2.81A7.57,7.57,0,0,0,1120,402Z" transform="translate(-877.82 -385.19)" style="fill: #231f20"/>
      <path d="M1130.47,403.77v-1.31H1124v1.36h-1.18v-2.37h5.4a8.65,8.65,0,0,0,1.33-2l1.08.36c.07,0,.19.1.19.18a.06.06,0,0,1,0,.07s-.27.09-.32.13a9.27,9.27,0,0,1-.85,1.3h2v2.32Zm-2.55,2.32v1.64c0,.76-.63.95-1.3.95h-.68l-.48-1.15.87.07c.19,0,.26-.16.26-.33v-1.17h-3.75V405h3.75v-.67l.52.09a2,2,0,0,0,.41-.46h-2.91v-1h4.93l.31.48c-.49.45-1.35,1.15-1.94,1.58h3.69v1.07Zm-3.42-4.73a6.63,6.63,0,0,0-.94-1.45l1-.61a6.62,6.62,0,0,1,1,1.4Zm2.47-.22a7.45,7.45,0,0,0-1-1.57l1-.59a7.56,7.56,0,0,1,1.07,1.6Z" transform="translate(-877.82 -385.19)" style="fill: #231f20"/>
      <path d="M1110,412.84a12.64,12.64,0,0,1-.53,2.19h1.91v4.48h-2v1.14h-1.09v-3.25a5.13,5.13,0,0,1-.65.74l-1-.74a6.84,6.84,0,0,0,2.2-4.56h-1.49v-1.1h4.29v1.1Zm.36,3.26h-1v2.35h1Zm5.29.09v4.63h-1.16v-4.63h-.87a9.38,9.38,0,0,1-.5,2.9,4.39,4.39,0,0,1-1.27,1.85l-1-.71a3.71,3.71,0,0,0,1.15-1.3,6.51,6.51,0,0,0,.57-2.75h-.87v-1.08h.87v-2.29h-.53v-1.06h4.44v1.06h-.77v2.29h.89v1.08Zm-1.16-3.36h-.78v2.29h.78Z" transform="translate(-877.82 -385.19)" style="fill: #231f20"/>
      <path d="M1125.61,420.8h-1.43c-.54,0-1-.21-1-.81,0-.21.24-2.27.27-2.56l-1.27,0a5.05,5.05,0,0,1-4,3.42l-1-1.21c2.18-.24,3.35-1.24,3.62-2.17l-2.81.08v-1.18l3-.08c0-.18,0-.52,0-1.12l1.23.05v-2.07h-1.55l.89.4c.09,0,.13.08.13.13a.15.15,0,0,1-.05.11s-.24.09-.27.12a4.18,4.18,0,0,1-2.6,2.12l-.78-1a3.26,3.26,0,0,0,1.65-.8,2.25,2.25,0,0,0,.68-1.09h-1.52v1.24h-1.18V412.1h3.76v-.63l1.46.09s.21,0,.21.13a.09.09,0,0,1,0,.08s-.19.13-.19.16v.18h3.77v2.26h-.76c-.3,1.21-.61,1.4-1.34,1.4h-1.73a.7.7,0,0,1-.4-.11c0,.28,0,.43-.07.65l2.47-.08c-.22,1.52-.35,2.88-.35,2.94,0,.36.26.38.32.38h.51c.36,0,.4-.3.51-1l1.16.47c-.21,1.2-.43,1.8-1.39,1.8m-.13-7.59h-2v1.2a.26.26,0,0,0,.29.27h.51c.26,0,.34-.25.48-.71l.68.22Z" transform="translate(-877.82 -385.19)" style="fill: #231f20"/>
      <path d="M1127.85,416.2v-1h1.2a7,7,0,0,0-.62-1.39l.76-.33h-1v-1h1.75v-1.05l1.45.08c.12,0,.17,0,.17.12s0,.08-.08.11-.16.12-.16.16v.59h1.52v1h-1.17l.86.5c.09.05.12.1.12.14s-.05.1-.11.12-.17.05-.22.16a3.76,3.76,0,0,1-.34.79h1v1Zm3.44,4.52v-.27h-1.83v.35h-1.09v-4h4.09v3.92Zm-1.83-7.25a8.12,8.12,0,0,1,.63,1.47l-.6.25h1.32a7,7,0,0,0,.66-1.72Zm1.83,4.43h-1.83v1.44h1.83Zm3.9,2-.75-1.11v2h-1.12v-8.88h3.58l.41.6-1.35,2.76a3.44,3.44,0,0,1,1.36,2.52,2,2,0,0,1-2.13,2.08m-.38-4.54c.19-.48.59-1.5.87-2.41h-1.24v5.68c.18,0,.49,0,.59,0a1,1,0,0,0,1.13-1,4.28,4.28,0,0,0-1.35-2.34" transform="translate(-877.82 -385.19)" style="fill: #231f20"/>
    </g>
  </a>
  <a xlink:href="/projects/ess">
    <g id="ess">
      <rect x="132.18" y="9.81" width="44.5" height="29" style="fill: #e6e6e6"/>
      <polygon points="137.41 28.54 137.41 20.6 143.42 20.6 143.42 21.84 138.87 21.84 138.87 23.81 143.07 23.81 143.07 24.95 138.87 24.95 138.87 27.3 143.59 27.3 143.59 28.54 137.41 28.54" style="fill: #231f20"/>
      <path d="M1025.13,414c-1.36,0-3.3-.37-3.42-2.64h1.47c.07,1.27,1.23,1.42,1.82,1.42.37,0,1.95,0,1.95-1.17,0-.58-.35-.79-1.07-1l-1.92-.42a2.34,2.34,0,0,1-2.13-2.32c0-1.71,1.64-2.37,3.2-2.37a3.55,3.55,0,0,1,2.39.78,2.48,2.48,0,0,1,.78,1.72h-1.47c-.05-1.2-1.33-1.26-1.73-1.26s-1.74,0-1.74,1.06c0,.46.27.82,1.12,1l2.07.46a2.25,2.25,0,0,1,2,2.15c0,1.46-1.22,2.56-3.32,2.56" transform="translate(-877.82 -385.19)" style="fill: #231f20"/>
      <path d="M1032,414c-1.36,0-3.3-.37-3.42-2.64h1.47c.07,1.27,1.23,1.42,1.82,1.42.37,0,1.95,0,1.95-1.17,0-.58-.35-.79-1.07-1l-1.92-.42a2.34,2.34,0,0,1-2.13-2.32c0-1.71,1.64-2.37,3.2-2.37a3.55,3.55,0,0,1,2.39.78,2.48,2.48,0,0,1,.78,1.72h-1.47c-.05-1.2-1.33-1.26-1.73-1.26s-1.74,0-1.74,1.06c0,.46.27.82,1.12,1l2.07.46a2.25,2.25,0,0,1,2,2.15c0,1.46-1.22,2.56-3.32,2.56" transform="translate(-877.82 -385.19)" style="fill: #231f20"/>
      <path d="M1038.66,409.62v-1h1.2a7.13,7.13,0,0,0-.62-1.39l.76-.33h-1v-1h1.75v-1.05l1.45.08c.12,0,.17,0,.17.12s0,.08-.08.11-.16.12-.16.16v.59h1.52v1h-1.16l.86.5c.09.05.12.1.12.14s-.05.1-.11.12-.17.05-.22.16a3.79,3.79,0,0,1-.34.79h1v1Zm3.44,4.52v-.27h-1.83v.35h-1.09v-4h4.09v3.92Zm-1.83-7.25a8.12,8.12,0,0,1,.63,1.47l-.6.25h1.32a7,7,0,0,0,.66-1.72Zm1.83,4.43h-1.83v1.44h1.83Zm3.9,2-.75-1.11v2h-1.12v-8.88h3.58l.41.6-1.35,2.76a3.44,3.44,0,0,1,1.36,2.52,2,2,0,0,1-2.13,2.08m-.38-4.54c.2-.48.59-1.5.87-2.41h-1.24V412c.18,0,.49,0,.59,0a1,1,0,0,0,1.13-1,4.28,4.28,0,0,0-1.35-2.34" transform="translate(-877.82 -385.19)" style="fill: #231f20"/>
    </g>
  </a>
  <a xlink:href="/projects/geography-history">
    <g id="geography-history">
      <rect x="87.18" y="9.81" width="44.5" height="29" style="fill: #e6e6e6"/>
      <path d="M970.6,406.64c-.65.23-1.32.45-2,.65l-.74.21c-.25.08-.35.11-.42.2s-.11.13-.16.13a.08.08,0,0,1-.09-.08l-.22-1.36c.43-.08.91-.19,1.27-.27v-3.26h-1.18v-1.2h1.18v-2.47l1.28.07c.07,0,.13,0,.13.1s-.09.11-.11.13-.13.08-.13.14v2h1v1.2h-1v2.95l1.19-.35Zm4.6,1.76h-2.34c-.89,0-1.61-.42-1.61-1.34v-2.87l-1,.41-.35-1.11,1.37-.53v-3.14l1.23.12c.07,0,.13,0,.13.11a.17.17,0,0,1-.08.13c-.08.07-.12.11-.12.16v2.15l.71-.28v-3.08l1.26.1c.08,0,.13,0,.13.1a.19.19,0,0,1-.06.12c-.07.05-.16.12-.16.17v2.13l1.54-.62.57.29v3.66c0,1-.83,1-1.44,1l-.65-1.1a3.53,3.53,0,0,0,.58.05c.32,0,.33-.32.33-.39v-2.07l-.92.37v3.23h-1.16v-2.77l-.71.28v2.85c0,.54.17.65.51.65h1.93c.47,0,.58-.41.68-.84l1.14.45c-.2.62-.49,1.56-1.47,1.56" transform="translate(-877.82 -385.19)" style="fill: #231f20"/>
      <path d="M979,406.6c-.21.08-1.2.39-1.28.46s-.14.2-.18.2-.08-.05-.11-.21l-.21-1c.5-.11.95-.24,1.32-.36v-2.14h-.93v-1.07h.93v-1.75h-1.09v-1h3.36v1h-1.1v1.75h.93v1.07h-.93v1.8a12.06,12.06,0,0,0,1.16-.35v.95c-.62.25-1.24.48-1.87.71m1.33,1.6v-1h3.06v-1h-1.84v-1h1.84v-1h-2v-4.66h5.19v4.66h-2v1h1.93v1h-1.93v1h2.27v1Zm3.06-7.72h-.93v.87h.93Zm0,1.78h-.93v1h.93Zm2.07-1.78h-.94v.87h.94Zm0,1.78h-.94v1h.94Z" transform="translate(-877.82 -385.19)" style="fill: #231f20"/>
      <path d="M996.42,404.55a5.78,5.78,0,0,1-1.22-1.05v1h-1.07v-.93a5.33,5.33,0,0,1-.93,1.09l.5,0c.13,0,.37,0,.37.16s0,.05-.09.12-.11.13-.11.17v.32h2.44v.94h-2.44v.86h3.26v1H989.5v-1h1.07V405l1.1.05c.29,0,.33.07.33.15s0,.05-.09.11-.12.07-.12.12v1.81h.84v-2.62l.39,0-.7-.6a1.84,1.84,0,0,0,.23-.2,5.11,5.11,0,0,1-.59-.51v1.17h-1v-.86a4.88,4.88,0,0,1-.83.88l-.54-.49a13.89,13.89,0,0,1-.38,2.45,6.74,6.74,0,0,1-.66,1.76l-1.19-.36a8.78,8.78,0,0,0,1.12-5c0-.92-.1-2.64-.17-3.52H997v1.12h-7.5c0,.37,0,.57,0,1h1.34v-.85l.88,0c.18,0,.35,0,.35.14s-.05.1-.1.12-.1.08-.1.14v.4h.91v.92h-.72a4.15,4.15,0,0,0,1.06.79,3.85,3.85,0,0,0,.59-.79h-.54v-.9h.88v-.88l.87,0c.12,0,.34,0,.34.12s0,0-.07.1a.21.21,0,0,0-.08.16v.46H997v.9h-1.47a6.34,6.34,0,0,0,1.69,1.39Zm-6.83-2.11c0,.84,0,.93,0,1.25a4.66,4.66,0,0,0,1.1-1.25Z" transform="translate(-877.82 -385.19)" style="fill: #231f20"/>
      <path d="M1007.1,408.74a9.47,9.47,0,0,1-5.16-1.16,7.56,7.56,0,0,1-3.35,1.24l-1-1.24a7.17,7.17,0,0,0,3.25-.84,6.87,6.87,0,0,1-1.18-1.57l.91-.67h-2.2v-3.95h3.72v-1.42l1.31.11c.22,0,.29.05.29.14s0,.09-.11.15a.27.27,0,0,0-.14.23v.79h3.65v3.95h-3.7a4.85,4.85,0,0,1-.69,2.21,5.9,5.9,0,0,0,3,.64,15.88,15.88,0,0,0,2-.14Zm-4.95-7.08h-2.49v1.73h2.49Zm-1.43,2.84a6.38,6.38,0,0,0,1,1.38,3.42,3.42,0,0,0,.43-1.38Zm5.07-2.84h-2.29v1.73h2.29Z" transform="translate(-877.82 -385.19)" style="fill: #231f20"/>
      <path d="M974.84,413.25a12.55,12.55,0,0,1-.53,2.19h1.91v4.48h-2v1.14h-1.09v-3.25a5.19,5.19,0,0,1-.65.74l-1-.74a6.85,6.85,0,0,0,2.2-4.56h-1.49v-1.1h4.29v1.1Zm.36,3.26h-1v2.35h1Zm5.29.09v4.63h-1.16V416.6h-.87a9.39,9.39,0,0,1-.5,2.91,4.4,4.4,0,0,1-1.27,1.85l-1-.71a3.72,3.72,0,0,0,1.15-1.29,6.51,6.51,0,0,0,.57-2.75h-.87v-1.08h.87v-2.29h-.53v-1.06h4.44v1.06h-.77v2.29h.89v1.08Zm-1.16-3.36h-.78v2.29h.78Z" transform="translate(-877.82 -385.19)" style="fill: #231f20"/>
      <path d="M990.48,421.21h-1.42c-.54,0-1-.21-1-.81,0-.21.24-2.27.27-2.56l-1.27,0a5.05,5.05,0,0,1-4,3.42l-1-1.21c2.18-.24,3.35-1.24,3.62-2.17l-2.81.08v-1.18l3-.08c0-.18,0-.52,0-1.12l1.23.05v-2.07h-1.55l.89.4c.09,0,.13.08.13.13a.15.15,0,0,1-.06.11s-.24.09-.27.12a4.18,4.18,0,0,1-2.6,2.12l-.78-1a3.25,3.25,0,0,0,1.65-.8,2.24,2.24,0,0,0,.67-1.09h-1.52v1.24h-1.19v-2.35h3.76v-.63l1.46.09s.21,0,.21.13a.1.1,0,0,1,0,.08s-.2.13-.2.16v.18h3.78v2.26h-.76c-.31,1.21-.61,1.4-1.34,1.4h-1.73a.7.7,0,0,1-.4-.11c0,.28,0,.43-.07.65l2.47-.08c-.22,1.52-.35,2.88-.35,2.94,0,.36.26.38.32.38h.51c.36,0,.4-.3.51-1l1.16.47c-.21,1.2-.43,1.8-1.39,1.8m-.13-7.59h-2v1.2a.26.26,0,0,0,.29.27h.51c.26,0,.34-.25.48-.71l.67.22Z" transform="translate(-877.82 -385.19)" style="fill: #231f20"/>
      <path d="M992.72,416.61v-1h1.2a7.13,7.13,0,0,0-.62-1.39l.76-.33h-1v-1h1.75v-1.05l1.45.08c.12,0,.17,0,.17.12s0,.08-.08.11-.16.12-.16.16v.59h1.52v1h-1.16l.86.5c.09.05.12.1.12.14s-.05.1-.11.12-.17.05-.22.16a3.79,3.79,0,0,1-.34.79h1v1Zm3.44,4.52v-.27h-1.83v.35h-1.09v-4h4.09v3.92Zm-1.83-7.25a8.12,8.12,0,0,1,.63,1.47l-.6.25h1.32a7,7,0,0,0,.66-1.72Zm1.83,4.43h-1.83v1.44h1.83Zm3.9,2-.75-1.11v2h-1.12v-8.88h3.58l.41.6-1.35,2.76a3.44,3.44,0,0,1,1.36,2.52,2,2,0,0,1-2.13,2.08m-.38-4.54c.2-.48.59-1.5.87-2.41H999.3V419c.18,0,.49,0,.59,0a1,1,0,0,0,1.13-1,4.28,4.28,0,0,0-1.35-2.34" transform="translate(-877.82 -385.19)" style="fill: #231f20"/>
    </g>
  </a>
  <a xlink:href="/projects/escape">
    <g id="escape">
      <rect x="288.18" y="131.81" width="32" height="48" style="fill: #e6e6e6"/>
      <path d="M1192.73,527.84a7.88,7.88,0,0,1-3.19-1.68,10,10,0,0,1-3.49,1.74l-.83-.9a8.81,8.81,0,0,0,1.94-.61,5.61,5.61,0,0,0,1.6-1,8.7,8.7,0,0,1-1.39-2,9.09,9.09,0,0,1-.62-1.49h-1.17v-1h3.35v-1.2l1.13.08s.23,0,.23.12,0,.08-.09.11-.11.07-.11.15v.74h3.32v1h-1.31a9.87,9.87,0,0,1-1.79,3.52,7,7,0,0,0,3.11,1.39Zm-4.84-5.94a8,8,0,0,0,1.6,2.78,7.26,7.26,0,0,0,1.34-2.78Z" transform="translate(-877.82 -385.19)" style="fill: #231f20"/>
      <path d="M1188.78,529.42c-.17.07-.19.08-.21.13-.19.35-.25.5-.68,1.25.08.06.14.09.14.17a.26.26,0,0,1,0,.15c-.1.12-.12.15-.12.22v5.28h-1.09v-4.24a7.29,7.29,0,0,1-.58.73l-.9-.64a11.65,11.65,0,0,0,2.41-3.88l1,.53c.07,0,.18.1.18.19a.13.13,0,0,1-.09.12m4.84,1.22-.27,0s-.69.71-.83.84a18.85,18.85,0,0,1-2.13,1.72V535c0,.38.08.5.4.5h1.3c.34,0,.47-.22.56-1l.93.65c-.25,1.24-.58,1.37-1.33,1.37h-2c-.62,0-.9-.26-.9-.89v-7l1,.08c.13,0,.3,0,.3.14s-.07.11-.09.13-.14.09-.14.18V532a10.61,10.61,0,0,0,2.19-2.23l.91.57s.19.12.19.22a.14.14,0,0,1-.07.12" transform="translate(-877.82 -385.19)" style="fill: #231f20"/>
      <path d="M1192.75,542a5.92,5.92,0,0,1-1.48-1.06v.48h-3.54V541a6.83,6.83,0,0,1-1.25,1.07h7V543h-3.37v1.56c0,.73-.32,1.08-1,1.08h-.62l-.54-1.13a4.65,4.65,0,0,0,.71.07c.28,0,.34-.07.34-.39V543h-3.41v-.93h.58l-.75-.57a4,4,0,0,0,1.34-.81,4.34,4.34,0,0,0-.46-.63,3.75,3.75,0,0,1-.3.28l-.78-.55a7.35,7.35,0,0,0,1.63-2.37l.92.14c.17,0,.24.06.24.13s0,.07-.12.11-.14.07-.16.1h1.44l.21.34a6.71,6.71,0,0,1-1.18,2.27h2.68a6.44,6.44,0,0,1-1.49-2.76l.93-.34a7.24,7.24,0,0,0,.49,1.26v-.78h2.14l.45.48c-.35.54-1,1.37-1.38,1.89a6.58,6.58,0,0,0,1.53,1Zm-4.37,1.82s-.21,0-.24.06a7.07,7.07,0,0,1-1.66,1.54l-.89-.68a6.17,6.17,0,0,0,1.77-1.58l.88.44c.07,0,.2.09.2.16a.07.07,0,0,1-.06.07m-1.51-4.51-.17.22a4.1,4.1,0,0,1,.52.61s.13-.14.21-.23a4.48,4.48,0,0,0-.57-.61m.43-.66-.08.14a3,3,0,0,1,.63.57,2.65,2.65,0,0,0,.33-.71Zm5,6.86a11.43,11.43,0,0,0-1.7-1.75l.8-.63a13.26,13.26,0,0,1,1.77,1.58Zm-1.48-6.81a5.64,5.64,0,0,0,.53.84,5.56,5.56,0,0,0,.55-.84Z" transform="translate(-877.82 -385.19)" style="fill: #231f20"/>
      <path d="M1190.42,553.13a1.45,1.45,0,0,1-1.4.72,6,6,0,0,1-.8-.06l-.13-1.13a2.63,2.63,0,0,0,.84.15.57.57,0,0,0,.56-.23,5.5,5.5,0,0,0,.57-2.32c0-.49-.1-.79-.77-.79a3.39,3.39,0,0,0-.53,0,15.45,15.45,0,0,1-1.93,4.34l-1.06-.47a9.77,9.77,0,0,0,1.85-3.65,11.81,11.81,0,0,0-1.32.4l-.37-1.13c.68-.06,1.54-.21,1.95-.28a9.76,9.76,0,0,0,.2-1.86l1.14.16c.08,0,.26.07.26.15s0,.06-.12.13-.19.11-.2.2c0,.34-.11.66-.18,1a4.4,4.4,0,0,1,.74-.07c1.27,0,1.37,1,1.37,1.6a7.15,7.15,0,0,1-.65,3.08m1.69-1.8-.63-1c.4,0,.61-.06.61-.28a4.76,4.76,0,0,0-1-1.81l.77-.56a4.68,4.68,0,0,1,1.45,2.74c0,.53-.58.75-1.17.87" transform="translate(-877.82 -385.19)" style="fill: #231f20"/>
      <path d="M1188.11,563.13l-.49-1.15a9.36,9.36,0,0,0,1.17.1c1.73,0,2.53-.91,2.53-1.76,0-.6-.48-1-1.18-1a3.6,3.6,0,0,0-2.54,1.49l-.81-.43a18.26,18.26,0,0,1,.73-3.56l1.07.42a11.94,11.94,0,0,0-.56,2.05,3.58,3.58,0,0,1,2.29-.94,2,2,0,0,1,2.07,2c0,2.63-3.11,2.68-4.27,2.71m2.08-5.89a8.87,8.87,0,0,0-2.15-1l.4-.92a11.16,11.16,0,0,1,2.23,1Z" transform="translate(-877.82 -385.19)" style="fill: #231f20"/>
      <path d="M1179.14,530.19a4.51,4.51,0,0,1-2.17,1.64l-.69-1a3.15,3.15,0,0,0,1.68-1,2.92,2.92,0,0,0,.67-1.85,2.2,2.2,0,0,0-.67-1.63,2.38,2.38,0,0,0-1.58-.62,13.27,13.27,0,0,1-1.16,4.15c-.28.58-.71,1.36-1.19,1.36a2.65,2.65,0,0,1-1.86-2.51,4,4,0,0,1,4.11-4,3.29,3.29,0,0,1,3.47,3.39,3.5,3.5,0,0,1-.6,2m-5-3.59a3.05,3.05,0,0,0-.93,2.07c0,.76.43,1.15.6,1.15.49,0,1.29-2.43,1.47-3.89a2.75,2.75,0,0,0-1.14.67" transform="translate(-877.82 -385.19)" style="fill: #231f20"/>
      <path d="M1179.18,541h-1.13c-.44,0-.63-.21-.63-.64v-2s-.18.07-.2.09-.16.54-.19.63a3.82,3.82,0,0,1-1.48,2l-.61-.47c-.15.24-.37.41-1.2.47l-.44-1,.42,0a.26.26,0,0,0,.29-.3v-1.46h-.67a6.8,6.8,0,0,1-.61,2.77l-1-.34a8.58,8.58,0,0,0,.69-4c0-1.17,0-2.38,0-3.55H1175v6.88a3,3,0,0,0,1.21-2.42l1,.38a.42.42,0,0,1,.16.09v-.55h-2.13v-2.85h.9a6.31,6.31,0,0,0-.88-1.18l.94-.55a5.32,5.32,0,0,1,1,1.33l-.69.4h1.23a11.41,11.41,0,0,0,.8-1.69l.92.28c.09,0,.18.09.18.18s0,.08-.17.15-.61.91-.73,1.08h1v2.85h-1.29v2.06c0,.11,0,.18.15.18h.31c.1,0,.17,0,.2-.18a3.77,3.77,0,0,0,0-.5l1,.38c0,.79-.16,1.38-.94,1.38m-5.17-4.74h-.61c0,.6,0,.8,0,1.15h.63Zm0-2h-.6c0,.59,0,.79,0,1.1h.6Zm4.65,1.46h-2.29v1h2.29Z" transform="translate(-877.82 -385.19)" style="fill: #231f20"/>
      <path d="M1179.64,546.57c-.11.11-.13.13-.13.19v3.06h-1v-.42h-5.05v.52h-1v-3.55l1.09.1c.08,0,.15,0,.15.11a.17.17,0,0,1-.08.13c-.11.08-.11.09-.11.12v1.57h2v-2.62h-2.77v-3.24l1.12.1s.1,0,.1.08-.05.09-.08.11-.1.11-.1.13v1.81h1.73V542l1.23.16c.06,0,.12,0,.12.1s0,.08-.09.11-.15.08-.15.13v2.27h1.74v-2.22l1.14.08c.07,0,.13,0,.13.08a.15.15,0,0,1-.07.1c-.1.08-.17.13-.17.23v2.73h-2.78v2.62h2v-2.11l1.1.08c.07,0,.13.06.13.09a.16.16,0,0,1-.06.1" transform="translate(-877.82 -385.19)" style="fill: #231f20"/>
      <path d="M1176.5,551.4h1.38v4.45H1179v.9h-1.11v1.45h-1.23v-1.45h-3.74v-1Zm0,1.23-2.45,3-.31.32.32-.06h2.61v-3l.06-.61Z" transform="translate(-877.82 -385.19)" style="fill: #231f20"/>
    </g>
  <g id="others">
    <line x1="286.81" y1="0.33" x2="286.81" y2="26.9" style="fill: none;stroke: #231f20;stroke-miterlimit: 10;stroke-width: 0.6700000166893005px"/>
    <line x1="289.02" y1="0.33" x2="289.02" y2="26.9" style="fill: none;stroke: #231f20;stroke-miterlimit: 10;stroke-width: 0.6700000166893005px"/>
    <line x1="291.22" y1="0.33" x2="291.22" y2="26.9" style="fill: none;stroke: #231f20;stroke-miterlimit: 10;stroke-width: 0.6700000166893005px"/>
    <line x1="293.42" y1="0.33" x2="293.42" y2="26.9" style="fill: none;stroke: #231f20;stroke-miterlimit: 10;stroke-width: 0.6700000166893005px"/>
    <line x1="295.63" y1="0.33" x2="295.63" y2="26.9" style="fill: none;stroke: #231f20;stroke-miterlimit: 10;stroke-width: 0.6700000166893005px"/>
    <line x1="297.83" y1="0.33" x2="297.83" y2="26.9" style="fill: none;stroke: #231f20;stroke-miterlimit: 10;stroke-width: 0.6700000166893005px"/>
    <line x1="300.03" y1="0.33" x2="300.03" y2="26.9" style="fill: none;stroke: #231f20;stroke-miterlimit: 10;stroke-width: 0.6700000166893005px"/>
    <line x1="302.24" y1="0.33" x2="302.24" y2="26.9" style="fill: none;stroke: #231f20;stroke-miterlimit: 10;stroke-width: 0.6700000166893005px"/>
    <line x1="304.44" y1="0.33" x2="304.44" y2="26.9" style="fill: none;stroke: #231f20;stroke-miterlimit: 10;stroke-width: 0.6700000166893005px"/>
    <line x1="306.64" y1="0.33" x2="306.64" y2="26.9" style="fill: none;stroke: #231f20;stroke-miterlimit: 10;stroke-width: 0.6700000166893005px"/>
    <line x1="286.69" y1="13.72" x2="306.61" y2="13.72" style="fill: none;stroke: #231f20;stroke-miterlimit: 10;stroke-width: 0.6700000166893005px"/>
    <rect x="69.47" y="9.84" width="17.85" height="28.8" style="fill: #fff"/>
    <rect x="69.47" y="9.84" width="17.85" height="28.8" style="fill: none;stroke: #231f20;stroke-miterlimit: 10;stroke-width: 0.6700000166893005px"/>
    <path d="M957.7,398.82a1.83,1.83,0,1,1-1.83-1.88,1.86,1.86,0,0,1,1.83,1.88" transform="translate(-877.82 -385.19)" style="fill: #231f20"/>
    <path d="M953,404.18c0,.25,0,6,0,6.28a.94.94,0,1,1-1.86,0c0-1.3,0-7.07,0-7.16a1.61,1.61,0,0,1,1.11-1.43,9.75,9.75,0,0,1,3.71-.71,8.67,8.67,0,0,1,3.64.73,1.68,1.68,0,0,1,1.07,1.41c0,.15,0,6.38,0,7.16a1,1,0,1,1-1.88,0c0-.68,0-6.05,0-6.28s-.4-.16-.42,0c0,.4,0,17.4,0,17.21a1.12,1.12,0,1,1-2.24,0c0-.43,0-10.43,0-10.55a.22.22,0,0,0-.43,0s0,10.42,0,10.53a1.15,1.15,0,1,1-2.3,0c0-1.06,0-17.1,0-17.2s-.42-.17-.42,0" transform="translate(-877.82 -385.19)" style="fill: #231f20"/>
    <rect x="87.32" y="9.84" width="44.3" height="28.81" style="fill: none;stroke: #231f20;stroke-miterlimit: 10;stroke-width: 0.6700000166893005px"/>
    <rect x="131.62" y="9.84" width="44.85" height="28.77" style="fill: none;stroke: #231f20;stroke-miterlimit: 10;stroke-width: 0.6700000166893005px"/>
    <rect x="176.47" y="9.84" width="45.02" height="28.77" style="fill: none;stroke: #231f20;stroke-miterlimit: 10;stroke-width: 0.6700000166893005px"/>
    <rect x="221.5" y="9.84" width="44.85" height="28.77" style="fill: none;stroke: #231f20;stroke-miterlimit: 10;stroke-width: 0.6700000166893005px"/>
    <line x1="69.36" y1="36.38" x2="44" y2="36.38" style="fill: #fff"/>
    <line x1="69.36" y1="36.38" x2="44" y2="36.38" style="fill: none;stroke: #231f20;stroke-miterlimit: 10;stroke-width: 0.6700000166893005px"/>
    <line x1="69.36" y1="34.17" x2="44" y2="34.17" style="fill: #fff"/>
    <line x1="69.36" y1="34.17" x2="44" y2="34.17" style="fill: none;stroke: #231f20;stroke-miterlimit: 10;stroke-width: 0.6700000166893005px"/>
    <line x1="69.36" y1="31.97" x2="44" y2="31.97" style="fill: #fff"/>
    <line x1="69.36" y1="31.97" x2="44" y2="31.97" style="fill: none;stroke: #231f20;stroke-miterlimit: 10;stroke-width: 0.6700000166893005px"/>
    <line x1="69.36" y1="29.77" x2="44" y2="29.77" style="fill: #fff"/>
    <line x1="69.36" y1="29.77" x2="44" y2="29.77" style="fill: none;stroke: #231f20;stroke-miterlimit: 10;stroke-width: 0.6700000166893005px"/>
    <line x1="69.36" y1="27.56" x2="44" y2="27.56" style="fill: #fff"/>
    <line x1="69.36" y1="27.56" x2="44" y2="27.56" style="fill: none;stroke: #231f20;stroke-miterlimit: 10;stroke-width: 0.6700000166893005px"/>
    <line x1="69.36" y1="25.36" x2="44" y2="25.36" style="fill: #fff"/>
    <line x1="69.36" y1="25.36" x2="44" y2="25.36" style="fill: none;stroke: #231f20;stroke-miterlimit: 10;stroke-width: 0.6700000166893005px"/>
    <line x1="69.36" y1="23.16" x2="44" y2="23.16" style="fill: #fff"/>
    <line x1="69.36" y1="23.16" x2="44" y2="23.16" style="fill: none;stroke: #231f20;stroke-miterlimit: 10;stroke-width: 0.6700000166893005px"/>
    <line x1="69.36" y1="20.95" x2="44" y2="20.95" style="fill: #fff"/>
    <line x1="69.36" y1="20.95" x2="44" y2="20.95" style="fill: none;stroke: #231f20;stroke-miterlimit: 10;stroke-width: 0.6700000166893005px"/>
    <line x1="69.36" y1="18.75" x2="44" y2="18.75" style="fill: #fff"/>
    <line x1="69.36" y1="18.75" x2="44" y2="18.75" style="fill: none;stroke: #231f20;stroke-miterlimit: 10;stroke-width: 0.6700000166893005px"/>
    <line x1="56.68" y1="18.73" x2="56.68" y2="36.37" style="fill: none;stroke: #231f20;stroke-miterlimit: 10;stroke-width: 0.6700000166893005px"/>
    <rect x="0.34" y="121.82" width="45.51" height="28.04" style="fill: none;stroke: #231f20;stroke-miterlimit: 10;stroke-width: 0.6700000166893005px"/>
    <rect x="45.85" y="121.82" width="44.78" height="28.01" style="fill: none;stroke: #231f20;stroke-miterlimit: 10;stroke-width: 0.6700000166893005px"/>
    <rect x="90.63" y="121.83" width="45.16" height="28.05" style="fill: none;stroke: #231f20;stroke-miterlimit: 10;stroke-width: 0.6700000166893005px"/>
    <rect x="135.79" y="121.82" width="44.72" height="28.03" style="fill: none;stroke: #231f20;stroke-miterlimit: 10;stroke-width: 0.6700000166893005px"/>
    <rect x="180.51" y="121.82" width="44.96" height="28.03" style="fill: none;stroke: #231f20;stroke-miterlimit: 10;stroke-width: 0.6700000166893005px"/>
    <rect x="27.4" y="168.81" width="24.74" height="33.13" style="fill: none;stroke: #231f20;stroke-miterlimit: 10;stroke-width: 0.6700000166893005px"/>
    <rect x="52.14" y="168.81" width="24.67" height="33.14" style="fill: none;stroke: #231f20;stroke-miterlimit: 10;stroke-width: 0.6700000166893005px"/>
    <rect x="76.81" y="168.81" width="44.81" height="33.14" style="fill: none;stroke: #231f20;stroke-miterlimit: 10;stroke-width: 0.6700000166893005px"/>
    <rect x="148.36" y="168.86" width="24.47" height="32.95" style="fill: none;stroke: #231f20;stroke-miterlimit: 10;stroke-width: 0.6700000166893005px"/>
    <rect x="172.83" y="168.86" width="46.07" height="32.95" style="fill: none;stroke: #231f20;stroke-miterlimit: 10;stroke-width: 0.6700000166893005px"/>
    <rect x="245.44" y="168.86" width="20.47" height="33.11" style="fill: none;stroke: #231f20;stroke-miterlimit: 10;stroke-width: 0.6700000166893005px"/>
    <line x1="0.27" y1="169.41" x2="27.29" y2="169.41" style="fill: none;stroke: #231f20;stroke-miterlimit: 10;stroke-width: 0.6700000166893005px"/>
    <line x1="0.27" y1="171.61" x2="27.29" y2="171.61" style="fill: none;stroke: #231f20;stroke-miterlimit: 10;stroke-width: 0.6700000166893005px"/>
    <line x1="0.27" y1="173.81" x2="27.29" y2="173.81" style="fill: none;stroke: #231f20;stroke-miterlimit: 10;stroke-width: 0.6700000166893005px"/>
    <line x1="0.27" y1="176.02" x2="27.29" y2="176.02" style="fill: none;stroke: #231f20;stroke-miterlimit: 10;stroke-width: 0.6700000166893005px"/>
    <line x1="0.27" y1="178.22" x2="27.29" y2="178.22" style="fill: none;stroke: #231f20;stroke-miterlimit: 10;stroke-width: 0.6700000166893005px"/>
    <line x1="0.27" y1="180.42" x2="27.29" y2="180.42" style="fill: none;stroke: #231f20;stroke-miterlimit: 10;stroke-width: 0.6700000166893005px"/>
    <line x1="0.27" y1="182.63" x2="27.29" y2="182.63" style="fill: none;stroke: #231f20;stroke-miterlimit: 10;stroke-width: 0.6700000166893005px"/>
    <line x1="0.27" y1="184.83" x2="27.29" y2="184.83" style="fill: none;stroke: #231f20;stroke-miterlimit: 10;stroke-width: 0.6700000166893005px"/>
    <line x1="0.27" y1="187.03" x2="27.29" y2="187.03" style="fill: none;stroke: #231f20;stroke-miterlimit: 10;stroke-width: 0.6700000166893005px"/>
    <line x1="0.27" y1="189.24" x2="27.29" y2="189.24" style="fill: none;stroke: #231f20;stroke-miterlimit: 10;stroke-width: 0.6700000166893005px"/>
    <line x1="0.27" y1="191.44" x2="27.29" y2="191.44" style="fill: none;stroke: #231f20;stroke-miterlimit: 10;stroke-width: 0.6700000166893005px"/>
    <line x1="13.77" y1="169.42" x2="13.77" y2="191.48" style="fill: none;stroke: #231f20;stroke-miterlimit: 10;stroke-width: 0.6700000166893005px"/>
    <line x1="134.82" y1="169.63" x2="148.23" y2="169.63" style="fill: none;stroke: #231f20;stroke-miterlimit: 10;stroke-width: 0.6700000166893005px"/>
    <line x1="134.82" y1="171.83" x2="148.23" y2="171.83" style="fill: none;stroke: #231f20;stroke-miterlimit: 10;stroke-width: 0.6700000166893005px"/>
    <line x1="134.82" y1="174.04" x2="148.23" y2="174.04" style="fill: none;stroke: #231f20;stroke-miterlimit: 10;stroke-width: 0.6700000166893005px"/>
    <line x1="134.82" y1="176.24" x2="148.23" y2="176.24" style="fill: none;stroke: #231f20;stroke-miterlimit: 10;stroke-width: 0.6700000166893005px"/>
    <line x1="134.82" y1="178.44" x2="148.23" y2="178.44" style="fill: none;stroke: #231f20;stroke-miterlimit: 10;stroke-width: 0.6700000166893005px"/>
    <line x1="134.82" y1="180.65" x2="148.23" y2="180.65" style="fill: none;stroke: #231f20;stroke-miterlimit: 10;stroke-width: 0.6700000166893005px"/>
    <line x1="134.82" y1="182.85" x2="148.23" y2="182.85" style="fill: none;stroke: #231f20;stroke-miterlimit: 10;stroke-width: 0.6700000166893005px"/>
    <line x1="134.82" y1="185.05" x2="148.23" y2="185.05" style="fill: none;stroke: #231f20;stroke-miterlimit: 10;stroke-width: 0.6700000166893005px"/>
    <line x1="134.82" y1="187.25" x2="148.23" y2="187.25" style="fill: none;stroke: #231f20;stroke-miterlimit: 10;stroke-width: 0.6700000166893005px"/>
    <line x1="134.82" y1="189.46" x2="148.23" y2="189.46" style="fill: none;stroke: #231f20;stroke-miterlimit: 10;stroke-width: 0.6700000166893005px"/>
    <line x1="134.82" y1="191.66" x2="148.23" y2="191.66" style="fill: none;stroke: #231f20;stroke-miterlimit: 10;stroke-width: 0.6700000166893005px"/>
    <line x1="134.9" y1="191.84" x2="134.9" y2="169.5" style="fill: none;stroke: #231f20;stroke-miterlimit: 10;stroke-width: 0.6700000166893005px"/>
    <line x1="218.82" y1="169.79" x2="245.53" y2="169.79" style="fill: none;stroke: #231f20;stroke-miterlimit: 10;stroke-width: 0.6700000166893005px"/>
    <line x1="218.82" y1="172" x2="245.53" y2="172" style="fill: none;stroke: #231f20;stroke-miterlimit: 10;stroke-width: 0.6700000166893005px"/>
    <line x1="218.82" y1="174.2" x2="245.53" y2="174.2" style="fill: none;stroke: #231f20;stroke-miterlimit: 10;stroke-width: 0.6700000166893005px"/>
    <line x1="218.82" y1="176.41" x2="245.53" y2="176.41" style="fill: none;stroke: #231f20;stroke-miterlimit: 10;stroke-width: 0.6700000166893005px"/>
    <line x1="218.82" y1="178.61" x2="245.53" y2="178.61" style="fill: none;stroke: #231f20;stroke-miterlimit: 10;stroke-width: 0.6700000166893005px"/>
    <line x1="218.82" y1="180.81" x2="245.53" y2="180.81" style="fill: none;stroke: #231f20;stroke-miterlimit: 10;stroke-width: 0.6700000166893005px"/>
    <line x1="218.82" y1="183.01" x2="245.53" y2="183.01" style="fill: none;stroke: #231f20;stroke-miterlimit: 10;stroke-width: 0.6700000166893005px"/>
    <line x1="218.82" y1="185.22" x2="245.53" y2="185.22" style="fill: none;stroke: #231f20;stroke-miterlimit: 10;stroke-width: 0.6700000166893005px"/>
    <line x1="218.82" y1="187.42" x2="245.53" y2="187.42" style="fill: none;stroke: #231f20;stroke-miterlimit: 10;stroke-width: 0.6700000166893005px"/>
    <line x1="218.82" y1="189.62" x2="245.53" y2="189.62" style="fill: none;stroke: #231f20;stroke-miterlimit: 10;stroke-width: 0.6700000166893005px"/>
    <line x1="218.82" y1="191.83" x2="245.53" y2="191.83" style="fill: none;stroke: #231f20;stroke-miterlimit: 10;stroke-width: 0.6700000166893005px"/>
    <line x1="232.17" y1="169.81" x2="232.17" y2="191.82" style="fill: none;stroke: #231f20;stroke-miterlimit: 10;stroke-width: 0.6700000166893005px"/>
    <line x1="134.82" y1="169.63" x2="121.54" y2="169.63" style="fill: none;stroke: #231f20;stroke-miterlimit: 10;stroke-width: 0.6700000166893005px"/>
    <polyline points="298.39 42.51 298.39 37.19 280.39 37.19 280.39 58.59 285.08 58.59" style="fill: none;stroke: #231f20;stroke-miterlimit: 10;stroke-width: 0.6700000166893005px"/>
    <rect x="284.93" y="42.26" width="48.53" height="60.84" style="fill: none;stroke: #231f20;stroke-miterlimit: 10;stroke-width: 0.6700000166893005px"/>
    <rect x="284.93" y="103.11" width="48.51" height="16.68" style="fill: none;stroke: #231f20;stroke-miterlimit: 10;stroke-width: 0.6700000166893005px"/>
    <rect x="288.32" y="131.55" width="31.98" height="48.35" style="fill: none;stroke: #231f20;stroke-miterlimit: 10;stroke-width: 0.6700000166893005px"/>
    <rect x="288.32" y="179.9" width="32.04" height="21.03" style="fill: none;stroke: #231f20;stroke-miterlimit: 10;stroke-width: 0.6700000166893005px"/>
    <polyline points="284.93 119.78 284.93 131.87 288.32 131.87" style="fill: none;stroke: #231f20;stroke-miterlimit: 10;stroke-width: 0.6700000166893005px"/>
    <polyline points="288.32 200.93 280.81 200.93 280.81 213.24" style="fill: none;stroke: #231f20;stroke-miterlimit: 10;stroke-width: 0.6700000166893005px"/>
    <rect x="245.53" y="168.87" width="20.38" height="33.1" style="fill: none;stroke: #231f20;stroke-miterlimit: 10;stroke-width: 0.6700000166893005px"/>
    <path d="M1135.89,561.7a3.43,3.43,0,0,1,2.35,2.6c.1.39,1.37,6.42,1.56,7.29a1,1,0,1,1-1.86.63c-.73-3.23-1.47-6.51-1.57-6.91-.06-.23-.45-.2-.37.1.12.51,2.08,9.71,2.08,9.71h-2.21s0,7.12,0,8.91a1.1,1.1,0,1,1-2.2,0s0-8.93,0-8.93h-.47s0,8.9,0,8.94a1.13,1.13,0,1,1-2.26-.06c0-1.52,0-8.86,0-8.86h-2.1s2-9.43,2.09-9.75a.2.2,0,1,0-.4,0c-.05.26-1.39,6.18-1.57,6.86-.34,1.32-2.31,1-1.83-.79.2-.71,1.62-6.92,1.62-6.92.4-1.5.66-2.13,2-2.72a8.6,8.6,0,0,1,5.11-.09" transform="translate(-877.82 -385.19)" style="fill: #231f20"/>
    <path d="M1135.45,558.68a2,2,0,1,1-2-2.11,2.08,2.08,0,0,1,2,2.11" transform="translate(-877.82 -385.19)" style="fill: #231f20"/>
    <line x1="261.16" y1="225.81" x2="261.16" y2="274.71" style="fill: none;stroke: #231f20;stroke-miterlimit: 10;stroke-width: 0.6700000166893005px"/>
    <polyline points="261.11 228.35 257.95 228.35 257.95 230.84 261.06 230.84" style="fill: none;stroke: #231f20;stroke-miterlimit: 10;stroke-width: 0.6700000166893005px"/>
    <polyline points="261.12 234.79 257.89 234.79 257.89 237.35 261.16 237.35" style="fill: none;stroke: #231f20;stroke-miterlimit: 10;stroke-width: 0.6700000166893005px"/>
    <polyline points="286.74 37.21 286.74 26.87 296.36 26.87 319.59 26.87 319.59 0.34 266.52 0.34 266.35 9.84 44.17 9.8 44 56.63 259.06 56.63 259.06 121.83 0.34 121.83 0.34 201.9 265.91 201.97 265.91 225.8 255.85 225.8 255.85 215.61 265.87 215.61" style="fill: none;stroke: #231f20;stroke-miterlimit: 10;stroke-width: 0.6700000166893005px"/>
    <line x1="296.43" y1="37.23" x2="296.43" y2="26.87" style="fill: none;stroke: #231f20;stroke-miterlimit: 10;stroke-width: 0.6700000166893005px"/>
    <path d="M1224.51,446.84h-2.57v1.26h2.17v5.1h-.55v-.48h-5.38v.52h-.52v-5.14h1.93v-1.26h-2.38v-.52h7.3Zm-.95,5.38v-3.61h-1.65v1.57c0,.18,0,.21.24.21h.69c.18,0,.22-.08.24-.66a1.53,1.53,0,0,0,.47.19c-.07.76-.2.95-.64.95h-.82c-.57,0-.7-.14-.7-.68v-1.58h-1.27V449a2.75,2.75,0,0,1-1.34,2.44,1.7,1.7,0,0,0-.39-.35,2.31,2.31,0,0,0,1.21-2.1v-.34h-1.42v3.61Zm-2.17-5.38h-1.27v1.26h1.27Z" transform="translate(-877.82 -385.19)" style="fill: #231f20"/>
    <path d="M1219.31,457.52a9.42,9.42,0,0,0-1.34-2.29l.49-.27a9.59,9.59,0,0,1,1.38,2.28Zm4.64-2.24c0,.07-.09.1-.21.1a8,8,0,0,1-4.5,5.5,2.86,2.86,0,0,0-.39-.43c2.22-.94,3.59-2.66,4.36-5.41Zm-2-1.54a5.72,5.72,0,0,1,1,1.25l-.33.22a6.17,6.17,0,0,0-.92-1.25Zm1.47-.19a6.46,6.46,0,0,1,1,1.23l-.34.21a6.23,6.23,0,0,0-.93-1.22Z" transform="translate(-877.82 -385.19)" style="fill: #231f20"/>
    <path d="M1220.51,462.17l.83.06c0,.09-.08.14-.22.17V469h-.61Z" transform="translate(-877.82 -385.19)" style="fill: #231f20"/>
    <path d="M1218.07,470.76a10,10,0,0,1,2.4,1.09l-.31.51a10.24,10.24,0,0,0-2.35-1.12Zm0,5.57a8.57,8.57,0,0,0,5.72-4.71,3.14,3.14,0,0,0,.52.33,9.21,9.21,0,0,1-5.69,4.82.26.26,0,0,1-.11.18Z" transform="translate(-877.82 -385.19)" style="fill: #231f20"/>
    <path d="M884.71,499.17h3V503h-.55v-.47h-2.45v2.68h-.56v-2.68h-2.42V503h-.54v-3.83h3v-1.47l.72,0c0,.06-.06.1-.16.11Zm-3,2.77h2.42V499.7h-2.42Zm3,0h2.45V499.7h-2.45Z" transform="translate(-877.82 -385.19)" style="fill: #231f20"/>
    <path d="M896.11,502.45V503h-3.34v1.56c0,.68-.39.68-1.87.68a2.51,2.51,0,0,0-.23-.53l1,0c.47,0,.52,0,.52-.18V503h-3.3v-.51h3.3v-.7l.38,0a6.54,6.54,0,0,0,1.17-.76h-3.5v-.48h4.07l.1,0,.42.27a.18.18,0,0,1-.12.07,8.66,8.66,0,0,1-2,1.33v.29Zm-6.47-2.89v1.29h-.52v-1.79h1.26a5.83,5.83,0,0,0-.72-1.05l.45-.22a5.27,5.27,0,0,1,.81,1.15l-.23.12h1.7a5.72,5.72,0,0,0-.64-1.23l.47-.18a5.17,5.17,0,0,1,.68,1.29l-.28.12H894a9.83,9.83,0,0,0,.93-1.32,3.19,3.19,0,0,1,.64.27.16.16,0,0,1-.17.06,11.91,11.91,0,0,1-.77,1H896v1.79h-.53v-1.29Z" transform="translate(-877.82 -385.19)" style="fill: #231f20"/>
    <path d="M898.61,500.63c.25.3.92,1.27,1.08,1.5l-.31.43a14.88,14.88,0,0,0-.76-1.28v3.88h-.51v-4a9,9,0,0,1-1.09,2.42,2.6,2.6,0,0,0-.29-.48A9.57,9.57,0,0,0,898,500h-1.14v-.51h1.2v-1.77l.67,0s0,.09-.15.1v1.62h1V500h-1Zm5.3,1.94h-1.44a7.28,7.28,0,0,0,1.91,1.87,2.37,2.37,0,0,0-.38.41,8.71,8.71,0,0,1-1.83-2v2.32h-.52v-2.23a7,7,0,0,1-2,2,2.11,2.11,0,0,0-.38-.42,6.07,6.07,0,0,0,2.09-1.91h-1.39v-2.76h1.69v-.69h-2v-.47h2v-.93l.68,0c0,.06,0,.1-.16.11v.78h2.05v.47h-2.05v.69h1.74ZM900.44,501h1.2v-.75h-1.2Zm0,1.17h1.2v-.76h-1.2Zm3-1.91h-1.24V501h1.24Zm0,1.15h-1.24v.76h1.24Z" transform="translate(-877.82 -385.19)" style="fill: #231f20"/>
    <path d="M925.86,444.58h3.32v.48h-7.11v-.48h3.24v-.8l.71,0c0,.06,0,.1-.16.11Zm3,3.17v2.84c0,.31-.07.48-.32.57a5.22,5.22,0,0,1-1.39.09,2.18,2.18,0,0,0-.18-.51l.84,0c.46,0,.51,0,.51-.17v-2.36H923v3h-.53v-3.51Zm-5.4-2.2h4.38v1.67h-4.37Zm3.83.41H924v.85h3.31Zm-.09,4.54h-2.62v.43h-.49v-2.14h3.11Zm-.49-1.3h-2.13v.89h2.13Z" transform="translate(-877.82 -385.19)" style="fill: #231f20"/>
    <path d="M931.76,446.72c.25.31.93,1.27,1.08,1.5l-.31.43c-.14-.28-.49-.85-.76-1.29v3.88h-.51v-4a8.85,8.85,0,0,1-1.09,2.44,2.18,2.18,0,0,0-.29-.48,9.41,9.41,0,0,0,1.32-3.17H930v-.51h1.23v-1.77l.67,0s-.06.09-.16.1v1.62h1v.51h-1Zm2.39.55a6.45,6.45,0,0,0,.91,1.7,5.31,5.31,0,0,0,.82-1.74l.67.15a.17.17,0,0,1-.18.1,6,6,0,0,1-1,1.9,5.14,5.14,0,0,0,2.07,1.43,2.23,2.23,0,0,0-.38.48,5.65,5.65,0,0,1-2-1.49,6,6,0,0,1-2.23,1.5,2.5,2.5,0,0,0-.29-.43,5.53,5.53,0,0,0,2.19-1.47,7.53,7.53,0,0,1-1-2Zm.4-1.24a.16.16,0,0,1-.15.06,6.43,6.43,0,0,1-1.34,1.75,3.17,3.17,0,0,0-.38-.33,5.21,5.21,0,0,0,1.28-1.72Zm2.8-1v.5h-4.5V445h2v-1.22l.69,0c0,.06,0,.1-.16.11V445Zm-.35,2.77a8.23,8.23,0,0,0-1.35-1.78l.43-.24a8.36,8.36,0,0,1,1.38,1.75Z" transform="translate(-877.82 -385.19)" style="fill: #231f20"/>
    <path d="M939.78,446.72c.25.31.92,1.27,1.08,1.5l-.31.43a14.88,14.88,0,0,0-.76-1.28v3.88h-.51v-4a9,9,0,0,1-1.08,2.42,2.66,2.66,0,0,0-.29-.48,9.59,9.59,0,0,0,1.32-3.17h-1.14v-.51h1.2v-1.77l.67,0s0,.09-.15.1v1.62h1v.51h-1Zm5.3,1.94h-1.44a7.27,7.27,0,0,0,1.91,1.87,2.37,2.37,0,0,0-.38.41,8.71,8.71,0,0,1-1.83-2v2.32h-.52V449a7,7,0,0,1-2,2,2.11,2.11,0,0,0-.38-.42,6.08,6.08,0,0,0,2.09-1.92h-1.39V445.9h1.69v-.69h-2v-.47h2v-.93l.68,0c0,.06,0,.1-.16.11v.78h2.05v.47h-2.05v.69h1.74Zm-3.47-1.58h1.2v-.75h-1.2Zm0,1.17h1.2v-.76h-1.2Zm3-1.92h-1.24v.75h1.24Zm0,1.15h-1.24v.76h1.24Z" transform="translate(-877.82 -385.19)" style="fill: #231f20"/>
  </g>
</svg>
