<svg id="Layer_1" data-name="Layer 1" xmlns="http://www.w3.org/2000/svg" viewBox="0 0 456.14 308.97">
  <title>4f</title>
  </a>
  <a xlink:href="/projects/narec">
    <g id="narec">
      <rect class="narec" x="0.28" y="202.5" width="60" height="37.5" style="fill: #e6e6e6"/>
      <path d="M825,526.36a.31.31,0,0,1-.21.16,11.39,11.39,0,0,1-2.27,3.48,7.72,7.72,0,0,0-1.21-.73,6.19,6.19,0,0,0,1.6-2.12h-7v-1.28h7.76l.15-.1Zm-4.12,2.09c0,.11-.12.19-.29.23-.27,2.36-1.16,4.79-3.33,6.1a10.09,10.09,0,0,0-1.17-.86c2-1.1,2.89-3.23,3-5.65Z" transform="translate(-809.72 -318)" style="fill: #231f20"/>
      <path d="M835.37,527.28a.3.3,0,0,1-.23.17,18.81,18.81,0,0,1-4,4.05,18.06,18.06,0,0,1,1.91,1.75l-1.2,1a20.66,20.66,0,0,0-4.73-3.88l.95-1a18.72,18.72,0,0,1,2,1.28,15.39,15.39,0,0,0,2.89-2.83h-7v-1.28h8l.18-.11Z" transform="translate(-809.72 -318)" style="fill: #231f20"/>
      <path d="M845.44,530.34h-3.51a5.54,5.54,0,0,1-3,4.54,9.63,9.63,0,0,0-1.12-.88,4.46,4.46,0,0,0,2.7-3.65H836.5v-1.25h4.16c0-.56,0-1.08,0-1.71-.95.17-2.18.36-3.28.45a7.07,7.07,0,0,0-.37-1.07,27.65,27.65,0,0,0,6.56-1.37l.94,1c-.07.05-.14.05-.31.05a20.82,20.82,0,0,1-2.34.64l.47,0c0,.12-.1.22-.29.26,0,.61,0,1.15,0,1.67h3.41Z" transform="translate(-809.72 -318)" style="fill: #231f20"/>
      <path d="M854.64,532.94V534h-7.37v-1.07h4.18c.16-1,.38-2.65.49-3.62h-3.86v-1.07h4.21l.2-.06.87.39a.31.31,0,0,1-.17.16c-.14,1-.46,3.17-.63,4.2Z" transform="translate(-809.72 -318)" style="fill: #231f20"/>
      <path d="M865.6,526.36a.31.31,0,0,1-.21.16,11.39,11.39,0,0,1-2.27,3.48,7.72,7.72,0,0,0-1.21-.73,6.19,6.19,0,0,0,1.6-2.12h-7v-1.28h7.76l.15-.1Zm-4.12,2.09c0,.11-.12.19-.29.23-.27,2.36-1.16,4.79-3.33,6.1a10.09,10.09,0,0,0-1.17-.86c2-1.1,2.89-3.23,3-5.65Z" transform="translate(-809.72 -318)" style="fill: #231f20"/>
      <path d="M816,544.39v-.83a8.57,8.57,0,0,1-.68.59,8,8,0,0,0-1-.8,7.06,7.06,0,0,0,2.21-2.64l1.43.5c0,.09-.13.13-.28.12-.1.17-.2.36-.32.53H824V543h-1v1.39h1.42v1.15h-1.42v1.38h1.26v1.15h-9.45v-1.15H816v-1.38h-1.47v-1.15Zm.91,4.23a6.16,6.16,0,0,1-1.24,2.28l-1.24-.51a5.23,5.23,0,0,0,1.22-2.08Zm.24-4.23H818V543h-.79Zm0,2.53H818v-1.38h-.79Zm.66,3.85a13.9,13.9,0,0,0-.21-2.08l1.2-.14a12.89,12.89,0,0,1,.28,2Zm2-7.77h-.8v1.39h.8Zm0,2.54h-.8v1.38h.8Zm.51,5.24a10.92,10.92,0,0,0-.56-2.07l1.22-.2a11,11,0,0,1,.64,2Zm1.4-7.78h-.83v1.39h.83Zm0,2.54h-.83v1.38h.83Zm1.49,5.35a13.88,13.88,0,0,0-1.29-2.23l1.24-.4a15.17,15.17,0,0,1,1.38,2.19Z" transform="translate(-809.72 -318)" style="fill: #231f20"/>
      <path d="M832.68,545.86a4.81,4.81,0,0,0,.45,1.36,12.82,12.82,0,0,0,1-1.1c1.1.87,1.12.88,1.15.9a.24.24,0,0,1-.21.08H835a13.3,13.3,0,0,1-1.31,1,4.34,4.34,0,0,0,1.68,1.41,5.57,5.57,0,0,0-.78,1,5,5,0,0,1-1.9-2.09v1.15c0,1-.37,1.23-1.91,1.23a4.58,4.58,0,0,0-.31-1.1h.89c.14,0,.17,0,.17-.15V547a5.19,5.19,0,0,1-2.22,3.61,4.45,4.45,0,0,0-.8-.87,3.69,3.69,0,0,0,1.71-2.08h-1.08v-1l-.66.29a4.54,4.54,0,0,0-.15-.54l-.55,0v4.42h-1.13v-3.48a.23.23,0,0,1-.23.08,9.72,9.72,0,0,1-.63,2.58,8.72,8.72,0,0,0-.91-.45,9.47,9.47,0,0,0,.53-2.53l1.23.29v-.84l-1.27.07a.23.23,0,0,1-.19.16l-.26-1.29h.78c.17-.22.36-.45.53-.7a9,9,0,0,0-1.27-1.48l.63-.88.24.22a15,15,0,0,0,.82-1.9l1.26.52a.35.35,0,0,1-.29.11,18.27,18.27,0,0,1-1.09,2c.13.15.26.3.37.44a20,20,0,0,0,1-1.78l1.22.55a.36.36,0,0,1-.3.12,25.47,25.47,0,0,1-1.95,2.77H828c-.13-.29-.27-.57-.41-.83l.93-.39a9.54,9.54,0,0,1,1,2.31l-.17.08h1.42l.19,0,.59.24v-.95h-2v-4.06h1.57a8.25,8.25,0,0,0,.41-1.09l1.57.35c0,.09-.13.13-.29.13l-.33.61h2.32v4.06Zm-3.93,1.23a12.74,12.74,0,0,1,.63,1.81l-1,.37a11.67,11.67,0,0,0-.57-1.86Zm1.94-3.73h2.87v-.56h-2.87Zm0,1.51h2.87v-.57h-2.87Z" transform="translate(-809.72 -318)" style="fill: #231f20"/>
      <path d="M839.85,549.54h-2.13v.83h-1.12v-2.81a4.92,4.92,0,0,1-.38.53,8.67,8.67,0,0,0-.64-1.16,10.5,10.5,0,0,0,1.44-4.56H835.8v-1.17h4.34v1.17h-1.87c-.12.76-.27,1.5-.45,2.21h2Zm-1.14-3.85h-1v2.72h1Zm7.16-.48v1.23h-1.1v4.45h-1.23v-4.45H842.4a5.9,5.9,0,0,1-2,4.47,6.16,6.16,0,0,0-1-.71,5,5,0,0,0,1.74-3.76H840.1v-1.23h1.12v-2.83h-.83v-1.2h5.31v1.2h-.94v2.83Zm-3.44,0h1.11v-2.83h-1.11Z" transform="translate(-809.72 -318)" style="fill: #231f20"/>
      <path d="M850.81,543.31c0,.1-.12.16-.27.18-.37,1.25-.93,2.21-3.49,2.76a3.5,3.5,0,0,0-.67-1c2.23-.37,2.63-1,2.85-2.07Zm3.27,5.9c0,.33,0,.38.26.38h.56c.22,0,.27-.19.3-1.34a4.08,4.08,0,0,0,1.17.52c-.11,1.55-.43,2-1.34,2h-1c-1,0-1.37-.35-1.37-1.54V547.8H851c-.43,1.43-1.39,2.49-3.92,3.09a3.4,3.4,0,0,0-.69-1.08c1.93-.41,2.79-1.06,3.2-2H847.1v-1.2h2.78c.05-.39.09-.82.11-1.28l1.63.13c0,.11-.11.18-.28.21,0,.32-.06.65-.11.95h2.84ZM848,543v1.1h-1.29v-2.26h3.92v-1.16l1.63.1c0,.1-.1.17-.3.2v.86h3.93v2.26h-1.37V543Zm3.92.05,1.56.09c0,.11-.09.17-.29.22v1.26c0,.28.08.31.45.31h1.1c.28,0,.34-.09.39-.61a3.88,3.88,0,0,0,1.09.41c-.13,1-.46,1.25-1.34,1.25h-1.42c-1.25,0-1.54-.31-1.54-1.35Z" transform="translate(-809.72 -318)" style="fill: #231f20"/>
      <path d="M860.05,544.72a12.42,12.42,0,0,0,.55-1.8l1.35.37c0,.09-.13.13-.28.13a13.57,13.57,0,0,1-.54,1.37h1.33V546h-5.61v-1.17h3.43Zm2.26-2.92v1.12h-5.24V541.8h2v-1.08l1.54.08c0,.11-.09.17-.28.2v.8Zm-4.85,9.1v-4.23H862v4.18H860.7v-.49h-2v.53Zm.6-6.11a6.32,6.32,0,0,0-.37-1.54l1-.22a5.56,5.56,0,0,1,.42,1.5Zm2.63,3h-2v1.45h2Zm5.48-6.5.82.31a.23.23,0,0,1-.11.17c-.32.93-.75,2.07-1.25,3.22a4,4,0,0,1,1.33,2.56c0,2-1.39,2-2,2h-.36a2.85,2.85,0,0,0-.38-1.23c.31,0,.6,0,.8,0,.65,0,.71-.43.71-.85,0-.59-.38-1.23-1.36-2.3.36-1,.66-1.85.9-2.65h-1.21v8.33h-1.27v-9.55h3.16Z" transform="translate(-809.72 -318)" style="fill: #231f20"/>
    </g>
  </a>
  <a xlink:href="/projects/haunted">
    <g id="haunted">
      <rect class="haunted" x="60.28" y="202.5" width="119" height="37.5" style="fill: #e6e6e6"/>
      <path d="M888.09,528.43a.34.34,0,0,1-.19.18,17.5,17.5,0,0,1-2,3.57,43.24,43.24,0,0,1,3.6,3.32l-1.2,1.06a34,34,0,0,0-3.29-3.31,17.65,17.65,0,0,1-3.81,3.3,7,7,0,0,0-1-1,14,14,0,0,0,5.84-6.29h-4.86v-1.29h5.64l.23-.07Z" transform="translate(-809.72 -318)" style="fill: #231f20"/>
      <path d="M891.62,533.25V528l1.69.09c0,.12-.11.19-.31.23v5Zm6.39-5.76c0,.11-.1.18-.31.22v3.37a5.54,5.54,0,0,1-3.78,5.66,6.14,6.14,0,0,0-1-1c2.85-1.09,3.42-2.88,3.42-4.67v-3.67Z" transform="translate(-809.72 -318)" style="fill: #231f20"/>
      <path d="M908.7,530.75a.37.37,0,0,1-.21.16,7.5,7.5,0,0,1-5.87,5.79,5.38,5.38,0,0,0-.82-1.08c2.7-.65,4.49-2.12,5-4h-6.53v-1.27h7.11l.15-.11Zm-1.2-1.92h-6.16V527.6h6.16Z" transform="translate(-809.72 -318)" style="fill: #231f20"/>
      <path d="M910.1,531.12h9v1.36h-8.55a.52.52,0,0,1-.37.2Z" transform="translate(-809.72 -318)" style="fill: #231f20"/>
      <path d="M888.58,543.82c0,.12-.12.18-.3.2a18.16,18.16,0,0,1-2.47,6.93,7.75,7.75,0,0,0-1.35-.66,14.9,14.9,0,0,0,2.32-6.89Zm3.3-.55a34.18,34.18,0,0,1,2.74,7l-1.45.58a36.29,36.29,0,0,0-2.66-7.06Z" transform="translate(-809.72 -318)" style="fill: #231f20"/>
      <path d="M899.07,542l1.74.1a.35.35,0,0,1-.35.27v1.52h2.22l.25-.11,1.18.49a.47.47,0,0,1-.18.17c-.64,3.89-2.12,6-5.51,7.17a8.51,8.51,0,0,0-.92-1.15c3-1,4.37-2.75,4.74-5.28h-5.09v2.31h-1.33v-3.59h3.23Z" transform="translate(-809.72 -318)" style="fill: #231f20"/>
      <path d="M913.27,543.31a.34.34,0,0,1-.19.18,17.45,17.45,0,0,1-2,3.57,43.72,43.72,0,0,1,3.6,3.32l-1.2,1.06a34,34,0,0,0-3.29-3.31,17.69,17.69,0,0,1-3.81,3.3,6.9,6.9,0,0,0-1-1,14,14,0,0,0,5.84-6.29h-4.86V542.8H912l.23-.07Z" transform="translate(-809.72 -318)" style="fill: #231f20"/>
      <path d="M947.5,528.09a.34.34,0,0,1-.19.18,17.5,17.5,0,0,1-2,3.57,43.24,43.24,0,0,1,3.6,3.32l-1.2,1.06a34,34,0,0,0-3.29-3.31,17.65,17.65,0,0,1-3.81,3.3,7,7,0,0,0-1-1,14,14,0,0,0,5.84-6.29h-4.86v-1.29h5.64l.23-.07Z" transform="translate(-809.72 -318)" style="fill: #231f20"/>
      <path d="M951,532.92v-5.3l1.69.09c0,.12-.11.19-.31.23v5Zm6.39-5.76c0,.11-.1.18-.31.22v3.37a5.54,5.54,0,0,1-3.78,5.66,6.14,6.14,0,0,0-1-1c2.85-1.09,3.42-2.88,3.42-4.67v-3.67Z" transform="translate(-809.72 -318)" style="fill: #231f20"/>
      <path d="M968.11,530.42a.35.35,0,0,1-.2.16,7.5,7.5,0,0,1-5.87,5.79,5.35,5.35,0,0,0-.82-1.08c2.7-.65,4.49-2.12,5-4h-6.53V530h7.11l.15-.11Zm-1.2-1.92h-6.16v-1.24h6.16Z" transform="translate(-809.72 -318)" style="fill: #231f20"/>
      <path d="M969.51,530.78h9v1.36H970a.52.52,0,0,1-.37.2Z" transform="translate(-809.72 -318)" style="fill: #231f20"/>
      <path d="M948,544c0,.12-.12.18-.3.2a18.16,18.16,0,0,1-2.47,6.93,7.76,7.76,0,0,0-1.35-.66,14.9,14.9,0,0,0,2.32-6.89Zm3.3-.55a34.14,34.14,0,0,1,2.74,7l-1.45.58A36.29,36.29,0,0,0,949.9,544Z" transform="translate(-809.72 -318)" style="fill: #231f20"/>
      <path d="M958.48,542.21l1.74.1a.35.35,0,0,1-.35.27v1.52h2.22l.25-.11,1.18.49a.47.47,0,0,1-.18.17c-.64,3.89-2.12,6-5.51,7.17a8.51,8.51,0,0,0-.92-1.15c3-1,4.37-2.75,4.74-5.28h-5.09v2.31h-1.33v-3.59h3.23Z" transform="translate(-809.72 -318)" style="fill: #231f20"/>
      <path d="M972.68,543.49a.34.34,0,0,1-.19.18,17.5,17.5,0,0,1-2,3.57,43.24,43.24,0,0,1,3.6,3.32l-1.2,1.06a34,34,0,0,0-3.29-3.31,17.69,17.69,0,0,1-3.81,3.3,6.9,6.9,0,0,0-1-1,14,14,0,0,0,5.84-6.29h-4.86V543h5.64l.23-.07Z" transform="translate(-809.72 -318)" style="fill: #231f20"/>
    </g>
  </a>
  <a xlink:href="/projects/earthscience">
    <g id="earthscience">
      <rect class="earthscience" x="179.28" y="202.5" width="60" height="37.5" style="fill: #e6e6e6"/>
      <path d="M995.37,539.17l1-.37.25,1.13c-1.08.5-2.22,1-3,1.3a.26.26,0,0,1-.17.23l-.58-1.43c.36-.11.81-.26,1.29-.43v-3.08h-1.06v-1.23h1.06v-2.48l1.49.09c0,.11-.09.16-.28.19v2.2h1v1.23h-1Zm3,1.63c0,.64.1.73.78.73h2.11c.59,0,.7-.25.79-1.36a3.46,3.46,0,0,0,1.13.46c-.16,1.53-.55,2-1.81,2h-2.33c-1.49,0-1.9-.4-1.9-1.88v-2.89l-.84.36-.49-1.15,1.33-.56v-2.78l1.51.09c0,.1-.09.16-.28.19v2l.9-.39v-2.93l1.49.08c0,.11-.09.17-.28.19v2.16l1.08-.46.26-.18,1,.38a.38.38,0,0,1-.16.16c0,2.07,0,3.38-.08,3.83-.05.84-.57,1.06-1.69,1.06a3.52,3.52,0,0,0-.27-1.09h.53c.13,0,.19,0,.24-.23s0-1,0-2.55l-1,.41v3.9H999.3V537l-.9.39Z" transform="translate(-809.72 -318)" style="fill: #231f20"/>
      <path d="M1013.44,538.9v1.18h-4.19v1.41c0,1.19-.56,1.39-2.8,1.39a5.19,5.19,0,0,0-.52-1.25c.44,0,.93,0,1.27,0,.67,0,.72,0,.72-.21v-1.37h-4.17V538.9h4.17v-.74l.64,0a6.44,6.44,0,0,0,.8-.62h-3.67v-1.12h4.89l.21-.07,1,.58a.37.37,0,0,1-.24.15,11.4,11.4,0,0,1-2.19,1.79Zm-8.28-3.32v1.5h-1.22v-2.65h1.42a7.6,7.6,0,0,0-.75-1.12l1.1-.49a6.36,6.36,0,0,1,1,1.48l-.28.13H1008a9.76,9.76,0,0,0-.7-1.36l1.14-.42a6.8,6.8,0,0,1,.88,1.64l-.36.14h1.4a11,11,0,0,0,1-1.65l1.51.55a.32.32,0,0,1-.31.11,9.57,9.57,0,0,1-.71,1h1.44v2.65H1012v-1.5Z" transform="translate(-809.72 -318)" style="fill: #231f20"/>
      <path d="M1018.21,541.53h-2.13v.83H1015v-2.81a5.31,5.31,0,0,1-.38.53,8.81,8.81,0,0,0-.64-1.16,10.52,10.52,0,0,0,1.44-4.56h-1.23v-1.17h4.34v1.17h-1.88c-.12.76-.27,1.5-.45,2.21h2Zm-1.14-3.85h-1v2.72h1Zm7.16-.48v1.23h-1.1v4.45h-1.23v-4.45h-1.13a5.89,5.89,0,0,1-1.95,4.47,6.11,6.11,0,0,0-1-.71,5,5,0,0,0,1.74-3.76h-1.09V537.2h1.12v-2.83h-.83v-1.2h5.31v1.2h-.94v2.83Zm-3.44,0h1.11v-2.83h-1.11Z" transform="translate(-809.72 -318)" style="fill: #231f20"/>
      <path d="M1029.17,535.3c0,.1-.12.16-.27.18-.37,1.25-.93,2.21-3.49,2.76a3.51,3.51,0,0,0-.67-1c2.23-.37,2.63-1,2.85-2.07Zm3.27,5.9c0,.33,0,.38.26.38h.56c.23,0,.27-.19.3-1.34a4.11,4.11,0,0,0,1.18.52c-.11,1.55-.43,2-1.34,2h-1c-1,0-1.37-.35-1.37-1.54v-1.43h-1.71c-.43,1.43-1.39,2.49-3.92,3.09a3.35,3.35,0,0,0-.69-1.08c1.93-.41,2.79-1.06,3.2-2h-2.48v-1.2h2.78c.05-.39.08-.82.11-1.28l1.63.13c0,.11-.11.18-.28.21,0,.32-.07.65-.11.95h2.85Zm-6-6.17v1.1h-1.29v-2.26H1029V532.7l1.63.1c0,.1-.1.17-.3.2v.86h3.93v2.26h-1.37V535Zm3.92.05,1.56.09c0,.11-.09.17-.29.22v1.26c0,.28.07.31.45.31h1.1c.28,0,.35-.09.39-.61a3.91,3.91,0,0,0,1.09.41c-.13,1-.46,1.25-1.34,1.25h-1.42c-1.25,0-1.54-.31-1.54-1.35Z" transform="translate(-809.72 -318)" style="fill: #231f20"/>
      <path d="M1038.42,536.71a12.58,12.58,0,0,0,.55-1.8l1.35.37c0,.09-.13.13-.28.13a13.89,13.89,0,0,1-.54,1.37h1.32V538h-5.61v-1.17h3.43Zm2.26-2.92v1.12h-5.24v-1.12h2v-1.08l1.54.08c0,.11-.09.17-.28.2v.8Zm-4.85,9.1v-4.23h4.49v4.18h-1.26v-.49h-2v.53Zm.6-6.11a6.44,6.44,0,0,0-.37-1.54l1-.22a5.66,5.66,0,0,1,.42,1.5Zm2.63,3h-2v1.45h2Zm5.48-6.5.82.31a.23.23,0,0,1-.11.17c-.32.93-.75,2.07-1.25,3.22a4,4,0,0,1,1.33,2.56c0,2-1.39,2-2,2h-.36a2.82,2.82,0,0,0-.38-1.23c.31,0,.6,0,.8,0,.65,0,.71-.43.71-.85,0-.59-.38-1.23-1.36-2.3.35-1,.66-1.85.91-2.65h-1.21v8.33h-1.27v-9.55h3.16Z" transform="translate(-809.72 -318)" style="fill: #231f20"/>
      <rect class="earthscience" x="324.91" y="246.5" width="55.72" height="61.94" style="fill: #e6e6e6;stroke: #231f20;stroke-miterlimit: 10;stroke-width: 0.6859999895095825px"/>
      <path d="M1138.93,595.3l1-.37.25,1.13c-1.08.5-2.22,1-3,1.3a.26.26,0,0,1-.17.23l-.58-1.43c.36-.11.81-.26,1.29-.43v-3.08h-1.06v-1.23h1.06v-2.48l1.49.09c0,.11-.09.16-.28.19v2.2h1v1.23h-1Zm3,1.63c0,.64.1.73.78.73h2.11c.59,0,.7-.25.79-1.36a3.44,3.44,0,0,0,1.13.46c-.16,1.53-.55,2-1.81,2h-2.33c-1.49,0-1.9-.4-1.9-1.88V594l-.84.36-.48-1.15,1.32-.56v-2.78l1.51.09c0,.1-.09.16-.28.19v2l.9-.39v-2.93l1.49.08c0,.11-.09.17-.28.19v2.16l1.08-.46.26-.18,1,.38a.39.39,0,0,1-.16.16c0,2.07,0,3.38-.08,3.83-.05.84-.57,1.06-1.69,1.06a3.48,3.48,0,0,0-.27-1.09h.53c.13,0,.19,0,.24-.23s0-1,0-2.55l-1,.41v3.9h-1.21v-3.37l-.9.39Z" transform="translate(-809.72 -318)" style="fill: #231f20"/>
      <path d="M1157,595v1.18h-4.19v1.41c0,1.19-.56,1.39-2.8,1.39a5.19,5.19,0,0,0-.52-1.25c.44,0,.93,0,1.27,0,.67,0,.72,0,.72-.21v-1.37h-4.17V595h4.17v-.74l.64,0a6.43,6.43,0,0,0,.8-.62h-3.67v-1.12h4.89l.2-.07,1,.58a.37.37,0,0,1-.24.15,11.41,11.41,0,0,1-2.19,1.79Zm-8.28-3.32v1.5h-1.22v-2.65h1.42a7.49,7.49,0,0,0-.75-1.12l1.1-.49a6.32,6.32,0,0,1,1,1.48l-.28.13h1.57a9.63,9.63,0,0,0-.7-1.36l1.14-.42a6.85,6.85,0,0,1,.88,1.64l-.36.14h1.4a11.08,11.08,0,0,0,1-1.65l1.51.55a.31.31,0,0,1-.31.11,9.76,9.76,0,0,1-.71,1h1.44v2.65h-1.27v-1.5Z" transform="translate(-809.72 -318)" style="fill: #231f20"/>
      <path d="M1161.77,597.66h-2.13v.83h-1.12v-2.81a4.92,4.92,0,0,1-.38.53,8.52,8.52,0,0,0-.64-1.16,10.49,10.49,0,0,0,1.44-4.56h-1.23V589.3h4.34v1.17h-1.87c-.12.75-.27,1.5-.45,2.21h2Zm-1.14-3.85h-1v2.72h1Zm7.16-.48v1.23h-1.1V599h-1.23v-4.45h-1.13a5.89,5.89,0,0,1-2,4.47,6.05,6.05,0,0,0-1-.71,5,5,0,0,0,1.74-3.76H1162v-1.23h1.12v-2.83h-.83v-1.2h5.31v1.2h-.94v2.83Zm-3.44,0h1.11v-2.83h-1.11Z" transform="translate(-809.72 -318)" style="fill: #231f20"/>
      <path d="M1172.73,591.43c0,.1-.12.16-.27.18-.37,1.25-.93,2.21-3.49,2.76a3.51,3.51,0,0,0-.67-1c2.23-.37,2.63-1,2.85-2.07Zm3.27,5.9c0,.33,0,.38.26.38h.56c.23,0,.27-.19.3-1.34a4.11,4.11,0,0,0,1.18.52c-.11,1.55-.43,2-1.34,2h-1c-1,0-1.37-.35-1.37-1.54v-1.43h-1.71c-.43,1.43-1.39,2.49-3.92,3.09a3.35,3.35,0,0,0-.69-1.08c1.93-.41,2.79-1.06,3.2-2H1169v-1.2h2.78c.05-.39.08-.82.11-1.28l1.63.13c0,.11-.11.18-.28.21,0,.32-.07.65-.11.95H1176Zm-6-6.17v1.1h-1.29V590h3.92v-1.16l1.63.1c0,.1-.1.17-.3.2V590h3.93v2.26h-1.37v-1.1Zm3.92.05,1.56.09c0,.11-.09.17-.29.22v1.26c0,.28.07.31.45.31h1.1c.28,0,.35-.09.39-.61a3.91,3.91,0,0,0,1.09.41c-.13,1-.46,1.25-1.34,1.25h-1.42c-1.25,0-1.54-.31-1.54-1.35Z" transform="translate(-809.72 -318)" style="fill: #231f20"/>
      <path d="M1182,592.84a12.58,12.58,0,0,0,.55-1.8l1.35.37c0,.09-.13.13-.28.13a13.89,13.89,0,0,1-.54,1.37h1.32v1.17h-5.61V592.9h3.43Zm2.26-2.92V591H1179v-1.12h2v-1.08l1.54.08c0,.11-.09.17-.28.2v.8Zm-4.85,9.1v-4.23h4.49V599h-1.26v-.49h-2V599Zm.6-6.11a6.44,6.44,0,0,0-.37-1.54l1-.22a5.66,5.66,0,0,1,.42,1.5Zm2.63,3h-2v1.45h2Zm5.48-6.5.82.31a.23.23,0,0,1-.11.17c-.32.93-.75,2.07-1.25,3.22a4,4,0,0,1,1.33,2.56c0,2-1.39,2-2,2h-.36a2.82,2.82,0,0,0-.38-1.23c.31,0,.6,0,.8,0,.65,0,.71-.43.71-.85,0-.59-.38-1.23-1.36-2.3.35-1,.66-1.85.91-2.65H1186V599h-1.27v-9.55h3.16Z" transform="translate(-809.72 -318)" style="fill: #231f20"/>
    </g>
  </a>
  <a xlink:href="/projects/volleyball">
    <g id="volleyball">
      <rect class="volleyball class="lego"" x="239.28" y="202.5" width="60" height="37.5" style="fill: #e6e6e6"/>
      <path d="M1053.19,537.16a8,8,0,0,1,1.65,1l-.75,1a7.34,7.34,0,0,0-1.61-1.12Zm-.61,6.4a30.92,30.92,0,0,0,1.22-3.48l1,.6c-.31,1.13-.71,2.35-1,3.17a.3.3,0,0,1,.1.23.27.27,0,0,1,0,.13Zm10.16-.93v1.09h-2.48v.56h-1.1V538.7c-.11.17-.21.33-.32.48-.05-.11-.14-.25-.23-.4v.86h-1.31V540h1.28v.89h-1.28l0,.37h1.46v.94h-1.24c.46.33,1.08.81,1.27,1l-.79.86a15,15,0,0,0-1.18-1.18,3.7,3.7,0,0,1-1.42,1.45,4,4,0,0,0-.72-.87,3,3,0,0,0,1.25-1.23h-1.09v-.94h1.37a2,2,0,0,0,0-.37H1055V540h1.23v-.37H1055v-2.21h1.25V537h-.69v-1.2h-.72v-.19l-.64.72a7.61,7.61,0,0,0-1.43-1.18l.76-.83a8.46,8.46,0,0,1,1.31.93v-.38h.72v-.77l1.16.08c0,.09-.08.14-.25.17v.52h.71v-.77l1.22.08c0,.09-.08.14-.25.17v.52h.7v.94h-.7V537h-.83v.4h1.31v.12a14.17,14.17,0,0,0,1.09-3.42l1.32.36c0,.09-.12.14-.27.14-.13.51-.3,1.09-.5,1.67h.59a14.29,14.29,0,0,0,.54-1.94l1.27.41a.31.31,0,0,1-.29.12,14.08,14.08,0,0,1-.48,1.41h.74v1.09h-.84v1h.7v1h-.7v1h.7v1h-.7v1.09Zm-6.9-3.79h.47v-.59h-.47Zm1.31-3h-.71v.44h.71Zm.55,2.4h-.51v.59h.51Zm3.07-.85h-.52v1h.52Zm0,2.08h-.52v1h.52Zm-.52,3.16h.52v-1.09h-.52Z" transform="translate(-809.72 -318)" style="fill: #231f20"/>
      <path d="M1065.91,538.12c.3.4,1.17,1.7,1.36,2l-.71,1a14.34,14.34,0,0,0-.65-1.36v4.56h-1.2V540.2a9.23,9.23,0,0,1-1,2.2,5.92,5.92,0,0,0-.59-1.17,10.76,10.76,0,0,0,1.54-3.65h-1.28v-1.2h1.38v-2.24l1.48.09c0,.1-.09.16-.28.19v2h1.18v1.2h-1.18Zm5.82-1.23a10.08,10.08,0,0,1,1.69,2.28l-1.09.63a3.8,3.8,0,0,0-.2-.42h-.08a8.07,8.07,0,0,1-1.09,2.23,6.56,6.56,0,0,0,2.49,1.55,5.57,5.57,0,0,0-.91,1.15,6.92,6.92,0,0,1-2.42-1.69,7.51,7.51,0,0,1-2.76,1.7,5.05,5.05,0,0,0-.66-1,6.33,6.33,0,0,0,2.65-1.64,11,11,0,0,1-1.14-2.22,5.52,5.52,0,0,1-.44.42,5.37,5.37,0,0,0-.88-.82,6.15,6.15,0,0,0,1.61-2.12l1.31.55a.23.23,0,0,1-.25.11,8.81,8.81,0,0,1-1.1,1.59l.81-.23a7.51,7.51,0,0,0,.87,1.68,6.78,6.78,0,0,0,.71-1.74l1.13.25a12.74,12.74,0,0,0-1.26-1.68Zm1.54-1.24v1.18h-6.06v-1.18h2.35v-1.52l1.56.09c0,.11-.1.17-.29.21v1.22Z" transform="translate(-809.72 -318)" style="fill: #231f20"/>
      <path d="M1077.24,538.75l.16,1.08-1.15.41v2.69c0,1.07-.38,1.39-1.94,1.37a4.88,4.88,0,0,0-.33-1.2l.63,0c.41,0,.45,0,.45-.19v-2.28l-.78.26c0,.11-.09.16-.18.19l-.33-1.41,1.29-.33v-1.93h-1.15v-1.2h1.15v-2.09l1.47.07c0,.11-.09.17-.27.19v1.82h1v1.2h-1V539Zm1.72-2.85v-1.78l1.42.09c0,.1-.08.15-.27.18v4.32c0,2.19-.23,4.22-2.13,5.58a5.27,5.27,0,0,0-.92-.85,3.9,3.9,0,0,0,1.46-1.8l-1,.41a.27.27,0,0,1-.16.21l-.54-1.24c.55-.14,1.29-.37,2.08-.61,0-.35.08-.69.09-1.06h-1.5v-1.14H1079v-1.14h-1.6v-1.17Zm5,4.66v1.17h-1.89v2.56h-1.22V534.13l1.5.09c0,.1-.1.16-.28.19v1.5h1.7v1.17h-1.7v1.14h1.59v1.14h-1.59v1.21Z" transform="translate(-809.72 -318)" style="fill: #231f20"/>
      <path d="M1094.74,538.24a.3.3,0,0,1-.3.09,14.65,14.65,0,0,1-1.31,1.68l-.68-.42a6.08,6.08,0,0,0,2.38,2.91,2.82,2.82,0,0,0-.8,1,7.36,7.36,0,0,1-2.14-2.41v1.79c0,1.1-.37,1.47-2.24,1.47a5.22,5.22,0,0,0-.44-1.25l.85,0c.53,0,.58,0,.58-.23v-5.7h-2.55v-1H1087V538h1.09v1.19H1087v1.9l1.22-.26.06.65c.55-.31,1.19-.7,1.8-1.07l.4,1.06c-.81.58-1.7,1.18-2.29,1.55a.27.27,0,0,1-.11.25l-.64-1.1c-1,.26-1.94.49-2.6.65a.21.21,0,0,1-.18.18l-.35-1.36,1.44-.28v-2.17h-1.14V538h1.14v-1.84h-1.25V535h3.76v1h2.35v-1.83l1.54.08c0,.11-.09.17-.29.21V536h1.73a7.73,7.73,0,0,0-1.32-1.11l.7-.67a7.41,7.41,0,0,1,1.45,1.13l-.66.65h.86v1.18h-2.77v.37a11.82,11.82,0,0,0,.45,1.79,11.27,11.27,0,0,0,1.15-1.8Zm-5.57-.58a8.43,8.43,0,0,1,1.07,1.89l-1.06.5a9.43,9.43,0,0,0-1-1.94Z" transform="translate(-809.72 -318)" style="fill: #231f20"/>
      <path d="M1098.35,538.14a12.58,12.58,0,0,0,.55-1.8l1.35.37c0,.09-.13.13-.28.13a13.89,13.89,0,0,1-.54,1.37h1.32v1.17h-5.61V538.2h3.43Zm2.26-2.92v1.12h-5.24v-1.12h2v-1.08l1.54.08c0,.11-.09.17-.28.2v.8Zm-4.85,9.1v-4.23h4.49v4.18H1099v-.49h-2v.53Zm.6-6.11a6.44,6.44,0,0,0-.37-1.54l1-.22a5.66,5.66,0,0,1,.42,1.5Zm2.63,3h-2v1.45h2Zm5.48-6.5.82.31a.23.23,0,0,1-.11.17c-.32.93-.75,2.07-1.25,3.22a4,4,0,0,1,1.33,2.56c0,2-1.39,2-2,2h-.36a2.82,2.82,0,0,0-.38-1.23c.31,0,.6,0,.8,0,.65,0,.71-.43.71-.85,0-.59-.38-1.23-1.36-2.3.35-1,.66-1.85.91-2.65h-1.21v8.33h-1.27v-9.55h3.16Z" transform="translate(-809.72 -318)" style="fill: #231f20"/>
    </g>
  </a>
  <a xlink:href="/projects/npca">
    <g id="npca">
      <rect class="npca" x="233.28" y="13.5" width="120" height="37.5" style="fill: #e6e6e6"/>
      <path d="M1057.3,340.65a.34.34,0,0,1-.31.21,16.47,16.47,0,0,1-2.49,6.85,7.4,7.4,0,0,0-1.32-.7,13.72,13.72,0,0,0,2.34-6.71Zm4.47,7a45.24,45.24,0,0,0-2.65-6.82l1.29-.6a40.83,40.83,0,0,1,2.8,6.8Zm.49-9.27a1.17,1.17,0,0,1,0,2.34,1.17,1.17,0,1,1,0-2.34m.77,1.17a.77.77,0,1,0-.77.77.77.77,0,0,0,.77-.77" transform="translate(-809.72 -318)" style="fill: #231f20"/>
      <path d="M1065.57,339.77a11.2,11.2,0,0,1,1.84,3l-1.35.67a11.63,11.63,0,0,0-1.73-3Zm7.44.36c0,.11-.13.17-.31.18-1.14,3.93-3.18,6.3-6.24,7.73a6.17,6.17,0,0,0-1-1c2.9-1.26,4.84-3.42,5.83-7.47Z" transform="translate(-809.72 -318)" style="fill: #231f20"/>
      <polygon points="272.65 22.23 272.65 29.72 271.24 29.72 271.24 29.17 264.97 29.17 264.97 27.89 271.24 27.89 271.24 23.51 265.05 23.51 265.05 22.23 272.65 22.23" style="fill: #231f20"/>
      <path d="M1085,339.5a14,14,0,0,1,3.16,1.42l-.71,1.23a15.67,15.67,0,0,0-3.08-1.48Zm-.37,7.3a11.05,11.05,0,0,0,7.38-6.2,8.19,8.19,0,0,0,1.26.8,12.46,12.46,0,0,1-7.48,6.5.38.38,0,0,1-.18.28Z" transform="translate(-809.72 -318)" style="fill: #231f20"/>
      <path d="M1060.82,361.21h-2.13V362h-1.12v-2.81a5,5,0,0,1-.38.53,8.53,8.53,0,0,0-.64-1.16A10.48,10.48,0,0,0,1058,354h-1.23v-1.17h4.34V354h-1.88c-.12.75-.27,1.5-.45,2.21h2Zm-1.14-3.85h-1v2.72h1Zm7.16-.49v1.23h-1.1v4.45h-1.23V358.1h-1.13a5.89,5.89,0,0,1-1.95,4.47,6.27,6.27,0,0,0-1-.71,5,5,0,0,0,1.74-3.76h-1.09v-1.23h1.12V354h-.83v-1.2h5.31V354h-.94v2.83Zm-3.44,0h1.11V354h-1.11Z" transform="translate(-809.72 -318)" style="fill: #231f20"/>
      <path d="M1071.78,355c0,.1-.12.16-.27.18-.37,1.25-.93,2.21-3.49,2.76a3.48,3.48,0,0,0-.67-1c2.23-.37,2.63-1,2.85-2.07Zm3.27,5.9c0,.33,0,.38.26.38h.56c.23,0,.27-.19.3-1.34a4.12,4.12,0,0,0,1.18.52c-.11,1.55-.43,2-1.34,2h-1c-1,0-1.37-.36-1.37-1.54v-1.43H1072c-.43,1.43-1.39,2.49-3.92,3.09a3.37,3.37,0,0,0-.69-1.08c1.93-.41,2.79-1.06,3.2-2h-2.48v-1.2h2.78c.05-.39.08-.82.11-1.28l1.63.13c0,.11-.11.18-.28.21,0,.32-.07.65-.11.95H1075Zm-6-6.17v1.1h-1.29v-2.26h3.92v-1.16l1.63.1c0,.1-.1.17-.3.21v.86h3.93v2.26h-1.37v-1.1Zm3.92.05,1.56.09c0,.11-.08.17-.29.21v1.26c0,.28.07.31.45.31h1.1c.28,0,.35-.09.39-.61a4,4,0,0,0,1.09.41c-.13,1-.46,1.25-1.34,1.25h-1.42c-1.25,0-1.54-.31-1.54-1.35Z" transform="translate(-809.72 -318)" style="fill: #231f20"/>
      <path d="M1081,356.39a12.58,12.58,0,0,0,.55-1.8l1.35.37c0,.09-.13.13-.28.13a13.87,13.87,0,0,1-.54,1.37h1.32v1.18h-5.61v-1.18h3.43Zm2.26-2.92v1.12h-5.24v-1.12h2v-1.08l1.54.08c0,.11-.09.17-.28.2v.8Zm-4.85,9.09v-4.22h4.49v4.18h-1.26V362h-2v.53Zm.6-6.11a6.44,6.44,0,0,0-.37-1.54l1-.21a5.63,5.63,0,0,1,.42,1.5Zm2.63,3h-2v1.46h2Zm5.48-6.5.82.31a.23.23,0,0,1-.11.17c-.32.93-.75,2.07-1.25,3.22a4,4,0,0,1,1.33,2.56c0,2-1.39,2-2,2h-.36a2.82,2.82,0,0,0-.38-1.23c.31,0,.6,0,.8,0,.65,0,.71-.43.71-.85,0-.59-.38-1.23-1.36-2.3.35-1,.66-1.85.91-2.65H1085v8.33h-1.27V353h3.16Z" transform="translate(-809.72 -318)" style="fill: #231f20"/>
      <path d="M1117.08,340.54a.34.34,0,0,1-.31.21,16.47,16.47,0,0,1-2.49,6.85,7.4,7.4,0,0,0-1.32-.7,13.72,13.72,0,0,0,2.34-6.71Zm4.47,7a45.24,45.24,0,0,0-2.65-6.82l1.29-.6a40.83,40.83,0,0,1,2.8,6.8Zm.49-9.27a1.17,1.17,0,0,1,0,2.34,1.17,1.17,0,1,1,0-2.34m.77,1.17a.77.77,0,1,0-.77.77.77.77,0,0,0,.77-.77" transform="translate(-809.72 -318)" style="fill: #231f20"/>
      <path d="M1125.36,339.66a11.2,11.2,0,0,1,1.84,3l-1.35.67a11.63,11.63,0,0,0-1.73-3Zm7.44.36c0,.11-.13.17-.31.18-1.14,3.93-3.18,6.3-6.24,7.73a6.17,6.17,0,0,0-1-1c2.9-1.26,4.84-3.42,5.83-7.47Z" transform="translate(-809.72 -318)" style="fill: #231f20"/>
      <polygon points="332.44 22.12 332.44 29.61 331.03 29.61 331.03 29.06 324.75 29.06 324.75 27.78 331.03 27.78 331.03 23.41 324.84 23.41 324.84 22.12 332.44 22.12" style="fill: #231f20"/>
      <path d="M1144.79,339.39a14,14,0,0,1,3.16,1.42l-.71,1.23a15.67,15.67,0,0,0-3.08-1.48Zm-.37,7.3a11.05,11.05,0,0,0,7.38-6.2,8.19,8.19,0,0,0,1.26.8,12.46,12.46,0,0,1-7.48,6.5.38.38,0,0,1-.18.28Z" transform="translate(-809.72 -318)" style="fill: #231f20"/>
      <path d="M1120.61,361.1h-2.13v.83h-1.12v-2.81a5,5,0,0,1-.38.53,8.52,8.52,0,0,0-.64-1.16,10.48,10.48,0,0,0,1.45-4.56h-1.23v-1.17h4.34v1.17H1119c-.12.75-.27,1.5-.45,2.21h2Zm-1.14-3.85h-1V360h1Zm7.16-.49V358h-1.1v4.45h-1.23V358h-1.13a5.89,5.89,0,0,1-1.95,4.47,6.19,6.19,0,0,0-1-.71,5,5,0,0,0,1.74-3.76h-1.09v-1.23H1122v-2.83h-.83v-1.2h5.31v1.2h-.94v2.83Zm-3.44,0h1.11v-2.83h-1.11Z" transform="translate(-809.72 -318)" style="fill: #231f20"/>
      <path d="M1131.56,354.87c0,.1-.12.16-.27.18-.37,1.25-.93,2.21-3.49,2.76a3.48,3.48,0,0,0-.67-1c2.23-.37,2.63-1,2.85-2.07Zm3.27,5.9c0,.33,0,.38.26.38h.56c.23,0,.27-.19.3-1.34a4.12,4.12,0,0,0,1.18.52c-.11,1.55-.43,2-1.34,2h-1c-1,0-1.37-.36-1.37-1.54v-1.43h-1.71c-.43,1.43-1.39,2.49-3.92,3.09a3.37,3.37,0,0,0-.69-1.08c1.93-.41,2.79-1.06,3.2-2h-2.48v-1.2h2.78c.05-.39.08-.82.11-1.28l1.63.13c0,.11-.11.18-.28.21,0,.32-.07.65-.11.95h2.85Zm-6-6.17v1.1h-1.29v-2.26h3.92v-1.16l1.63.1c0,.1-.1.17-.3.21v.86h3.93v2.26h-1.37v-1.1Zm3.92.05,1.56.09c0,.11-.08.17-.29.21v1.26c0,.28.07.31.45.31h1.1c.28,0,.35-.09.39-.61a4,4,0,0,0,1.09.41c-.13,1-.46,1.25-1.34,1.25h-1.42c-1.25,0-1.54-.31-1.54-1.35Z" transform="translate(-809.72 -318)" style="fill: #231f20"/>
      <path d="M1140.81,356.28a12.58,12.58,0,0,0,.55-1.8l1.35.37c0,.09-.13.13-.28.13a13.87,13.87,0,0,1-.54,1.37h1.32v1.18h-5.61v-1.18H1141Zm2.26-2.92v1.12h-5.24v-1.12h2v-1.08l1.54.08c0,.11-.09.17-.28.2v.8Zm-4.85,9.09v-4.22h4.49v4.18h-1.26v-.49h-2v.53Zm.6-6.11a6.44,6.44,0,0,0-.37-1.54l1-.21a5.63,5.63,0,0,1,.42,1.5Zm2.63,3h-2v1.46h2Zm5.48-6.5.82.31a.23.23,0,0,1-.11.17c-.32.93-.75,2.07-1.25,3.22a4,4,0,0,1,1.33,2.56c0,2-1.39,2-2,2h-.36a2.82,2.82,0,0,0-.38-1.23c.31,0,.6,0,.8,0,.65,0,.71-.43.71-.85,0-.59-.38-1.23-1.36-2.3.35-1,.66-1.85.91-2.65h-1.21v8.33h-1.27V352.9h3.16Z" transform="translate(-809.72 -318)" style="fill: #231f20"/>
    </g>
  </a>
  <a xlink:href="/projects/athletics">
    <g id="athletics">
      <rect class="athletics" x="113.28" y="13.5" width="60" height="37.5" style="fill: #e6e6e6"/>
      <path d="M933.87,349.17h-1a2.47,2.47,0,0,1-1.83,2.33,2.8,2.8,0,0,0-.42-.69,2.53,2.53,0,0,1,0,.41c0,1.69-1.07,1.75-1.92,1.71a3.07,3.07,0,0,0-.28-1.11,4.21,4.21,0,0,0,.5,0c.39,0,.5-.26.5-.74a3,3,0,0,0-.87-1.85c.23-.69.45-1.66.63-2.4h-.91v8.56h-1.21v-9.71h2.59l.19,0,.84.43a.45.45,0,0,1-.09.16c-.24.86-.6,2-.92,2.86a4,4,0,0,1,.84,1.4,1.5,1.5,0,0,0,1.15-1.33h-1.3v-1.1h2.45v-.86H931v-1.07h1.89v-.91l1.57.09c0,.11-.1.17-.29.22v.6h2v1.07h-2v.86h2.52v1.1H935v.6c0,.25,0,.27.18.27h.41c.15,0,.19-.07.23-.65a3,3,0,0,0,1,.41c-.12,1-.41,1.26-1.07,1.26H935c-.94,0-1.12-.31-1.12-1.27Zm.27,3.89V354h2.66v1.13H930V354h2.86v-.95h-2V352h2v-1l1.57.09c0,.11-.1.17-.29.21V352h2v1.11Z" transform="translate(-809.72 -318)" style="fill: #231f20"/>
      <path d="M942.62,353.55h4.61v1.3h-9.9v-1.3h3.9v-8.19l1.7.1c0,.11-.1.18-.31.22v2.8h3.85v1.32h-3.85Z" transform="translate(-809.72 -318)" style="fill: #231f20"/>
      <path d="M950.28,352.63c0,.09-.11.14-.25.15a4,4,0,0,1-1.54,2.65,5.54,5.54,0,0,0-.82-.77,3,3,0,0,0,1.24-2.28Zm2.41-4.69v1H947.8v-1h1.07a5.11,5.11,0,0,0-.27-1l.2-.05h-.71v-1h1.66v-.77l1.43.09c0,.09-.09.15-.27.18v.5h1.67v1h-.52l.22.07c0,.08-.14.11-.28.11-.06.24-.17.55-.28.83Zm-1,5.67,1-.27.12.78a2.66,2.66,0,0,0,.84-1.71l1.37.21c0,.09-.1.14-.23.15a3.43,3.43,0,0,1-2,2.66,5.23,5.23,0,0,0-.76-.81,2.54,2.54,0,0,0,.42-.19h0c-.63.23-1.22.43-1.63.56a.2.2,0,0,1-.17.18l-.29-1.18.26-.06v-1.7H948.4v-2.85h3.92v2.85h-.6Zm-2.21-2.37h1.63v-.93h-1.63Zm1.16-3.3a10.32,10.32,0,0,0,.29-1h-1.32a4.12,4.12,0,0,1,.28,1l-.15,0Zm7.28,0v1h-5.11v-1h.95a6.21,6.21,0,0,0-.27-1l.16,0H953v-1h1.6v-.74l1.5.09c0,.11-.09.16-.28.19V346h1.89v1h-.6l.18.05c0,.06-.13.11-.27.11a7.31,7.31,0,0,1-.32.85ZM956.44,354c0,.28,0,.32.18.32.42,0,.46,0,.51-.26s0-.47,0-.88a2.93,2.93,0,0,0,.87.47c-.05,1-.1,1.68-1.16,1.68h-.59c-1.06,0-1.06-.74-1.06-1.36V352.2h-2v-2.85h4.07v2.85h-.88Zm-2-2.77h1.67v-.94h-1.67Zm1.21-3.3a8.83,8.83,0,0,0,.33-1h-1.34a5.19,5.19,0,0,1,.27,1l-.11,0Z" transform="translate(-809.72 -318)" style="fill: #231f20"/>
      <path d="M962.18,349.89l.13,1.11-1.16.38V354c0,1.16-.44,1.38-2.12,1.38a4.73,4.73,0,0,0-.37-1.19c.42,0,.87,0,1,0s.21-.05.21-.2v-2.23l-1,.29a.23.23,0,0,1-.18.19l-.4-1.47,1.54-.35v-2h-1.38v-1.2h1.38v-2l1.56.07c0,.12-.09.18-.29.22v1.72h1.08v1.2h-1.08v1.71Zm5.13-.51.84.36a.39.39,0,0,1-.14.15,7.51,7.51,0,0,1-1.79,3.22,7.11,7.11,0,0,0,2.44,1.16,5,5,0,0,0-.84,1.11,8,8,0,0,1-2.58-1.41,9.8,9.8,0,0,1-2.9,1.41,4.4,4.4,0,0,0-.69-1.13,8,8,0,0,0,2.68-1.18,8.63,8.63,0,0,1-1.34-2.2l.88-.27h-1.39v-1.17h2.17V348h-2.28v-1.2h2.28v-1.61l1.58.09c0,.12-.1.17-.29.22v1.3h2.5V348H966v1.41h1.14Zm-3.11,1.22a6.11,6.11,0,0,0,1.09,1.67,6.2,6.2,0,0,0,1.14-1.67Z" transform="translate(-809.72 -318)" style="fill: #231f20"/>
      <path d="M972.27,349.23a12.58,12.58,0,0,0,.55-1.8l1.35.37c0,.09-.13.13-.28.13a13.25,13.25,0,0,1-.54,1.37h1.33v1.18h-5.61v-1.18h3.43Zm2.26-2.92v1.12H969.3v-1.12h2v-1.08l1.54.08c0,.11-.09.17-.28.2v.8Zm-4.85,9.09v-4.22h4.49v4.18h-1.26v-.49h-2v.53Zm.6-6.11a6.32,6.32,0,0,0-.37-1.54l1-.21a5.54,5.54,0,0,1,.42,1.5Zm2.63,3h-2v1.46h2Zm5.48-6.5.82.31a.23.23,0,0,1-.11.17c-.32.93-.75,2.07-1.25,3.22a4,4,0,0,1,1.32,2.56c0,2-1.39,2-2,2h-.36a2.86,2.86,0,0,0-.38-1.23c.31,0,.6,0,.8,0,.65,0,.71-.43.71-.85,0-.59-.38-1.23-1.36-2.3.36-1,.66-1.85.9-2.65h-1.21v8.33H975v-9.55h3.16Z" transform="translate(-809.72 -318)" style="fill: #231f20"/>
    </g>
  </a>
  <a xlink:href="/projects/doraemon">
    <g id="doraemon">
      <rect class="doraemon" x="173.28" y="13.5" width="60" height="37.5" style="fill: #e6e6e6"/>
      <path d="M994.93,344.43a30.58,30.58,0,0,0-3.37-1.62v5h-1.45v-9.47l1.77.09c0,.13-.1.24-.32.27v3.07l.27-.37a33.61,33.61,0,0,1,3.87,1.69Zm-.86-5.42a9.21,9.21,0,0,1,1.35,1.47l-.63.53a9.86,9.86,0,0,0-1.31-1.49Zm1.48-1a8.43,8.43,0,0,1,1.35,1.43l-.63.52a9.09,9.09,0,0,0-1.31-1.46Z" transform="translate(-809.72 -318)" style="fill: #231f20"/>
      <path d="M1006.4,341.9a.36.36,0,0,1-.21.16,7.5,7.5,0,0,1-5.87,5.79,5.39,5.39,0,0,0-.82-1.08c2.7-.65,4.49-2.12,5-4H998v-1.27h7.11l.15-.11Zm-1.2-1.92H999v-1.24h6.16Z" transform="translate(-809.72 -318)" style="fill: #231f20"/>
      <path d="M1012.44,344a2.53,2.53,0,0,1,.89-.18,1,1,0,0,1,1,1c0,.31,0,.69,0,.87,0,.82.45.82,1,.82a9.32,9.32,0,0,0,1.52-.13c0,.18,0,.35,0,.5,0,.57,0,.85,0,.85-.45,0-1,.07-1.53.07a7.76,7.76,0,0,1-.94,0,1.39,1.39,0,0,1-1.4-1.37c0-.26,0-.69,0-1s-.15-.54-.44-.54a2.87,2.87,0,0,0-1.78.87c-.55.55-1.65,1.64-1.95,2a12.16,12.16,0,0,0-1-1.06c1.09-1,4-3.73,4.88-4.57-.7.06-2.58.17-3.67.25-.07.1-.09.13-.17.13l-.11-1.45c1.47,0,4.17-.14,5.31-.24l.19-.12,1,1a.37.37,0,0,1-.28.09c-.69.56-1.68,1.42-2.55,2.22Zm2-3.77a24.71,24.71,0,0,0-4.42-.69l.32-1.26a23.66,23.66,0,0,1,4.44.65Z" transform="translate(-809.72 -318)" style="fill: #231f20"/>
      <path d="M1024,344.35a20.26,20.26,0,0,1-2.26.12c0,.24,0,.44,0,.65,0,1.26.81,1.45,1.73,1.45a4.74,4.74,0,0,0,1.35-.19,1,1,0,0,0,.74-1,3,3,0,0,0-.78-1.79,10.8,10.8,0,0,0,1.26-.43,4.4,4.4,0,0,1,1,2.46c0,2.25-2.87,2.25-3.54,2.25-2.1,0-3.06-.77-3.06-2.78a5,5,0,0,1,0-.64c-.8-.07-2.25-.17-2.25-1.41a1.94,1.94,0,0,1,.87-1.49l1,.44c-.41.26-.67.58-.67.82,0,.39.65.42,1.09.44.07-.59.12-1.25.19-1.94a6.9,6.9,0,0,1-2.09-.51l.28-1.25a6.64,6.64,0,0,0,1.95.52c.08-.6.15-1.23.21-1.77l1.81.22c0,.14-.16.23-.39.26-.08.38-.16.88-.24,1.4l.72,0c.4,0,.84,0,1.2,0l-.06,1.25c-.28,0-.65,0-1,0l-1,0c-.09.65-.15,1.28-.21,1.88a17.38,17.38,0,0,0,2.16-.16Z" transform="translate(-809.72 -318)" style="fill: #231f20"/>
      <path d="M1028,347.29c.66-1.95,2-5.9,2.38-6.91.23-.61.56-1.65.65-2l1.84.44c-.05.16-.19.26-.46.27-.44,1-1.29,3.26-1.68,4.31a3,3,0,0,1,2-.88c.89,0,1.4.61,1.4,1.58,0,.19,0,1.15,0,1.37,0,.63.25.9.7.9.81,0,1.43-1,1.91-2.71a8,8,0,0,0,1.26.75c-.66,2.08-1.66,3.35-3.22,3.35-1.31,0-2.09-.7-2.09-1.85,0-.19,0-1.15,0-1.37,0-.5-.14-.72-.43-.72-1,0-2,1.49-2.36,2.4-.14.43-.32,1-.49,1.5Z" transform="translate(-809.72 -318)" style="fill: #231f20"/>
      <path d="M1006.91,351.6v8.17c0,1.29-.55,1.5-2.48,1.5A4.37,4.37,0,0,0,1004,360c.37,0,.74,0,1,0,.55,0,.61,0,.61-.26v-6.93h-6.7v8.43h-1.25V351.6Zm-1.93,3.07h-5.41v-1.09H1005Zm-.54,4.43h-3.18v.73h-1.18v-4.37h4.36Zm-1.2-2.58h-2V358h2Z" transform="translate(-809.72 -318)" style="fill: #231f20"/>
      <path d="M1011.33,353.22l.69.16-.06.21a14.84,14.84,0,0,1-.91,4.55,8.09,8.09,0,0,1,1.19,1.14l-.78,1a8.35,8.35,0,0,0-1-1,5.91,5.91,0,0,1-2,2,4.22,4.22,0,0,0-.78-1,4.58,4.58,0,0,0,1.78-1.79c-.19-.16-.4-.3-.59-.45l-.09.35-1.06-.55c.25-.89.52-2.11.78-3.37h-.85v-1.2h1.08c.14-.75.27-1.49.38-2.16l1.47.15c0,.1-.1.16-.28.17-.11.56-.23,1.18-.36,1.83h1.13Zm-1.59,1.23c-.17.81-.36,1.63-.53,2.38l.82.54a13.1,13.1,0,0,0,.65-2.92Zm8.06,1.37V357h-2.37v2.78c0,1.07-.37,1.45-2.38,1.43a6.11,6.11,0,0,0-.45-1.27l1.08,0c.37,0,.45,0,.45-.19V357h-2.29v-1.23h2.29v-1.66l.4,0a9.46,9.46,0,0,0,1-1.35h-3.35v-1.2h4.29l.22-.07,1,.6a.4.4,0,0,1-.26.15,16.26,16.26,0,0,1-2,2.47v1Z" transform="translate(-809.72 -318)" style="fill: #231f20"/>
      <path d="M1020.78,355.55v-.8a13.06,13.06,0,0,1-1.85,1.08,4.89,4.89,0,0,0-.75-1.06,10.78,10.78,0,0,0,4.44-3.69l1.75.09a.32.32,0,0,1-.28.22,10.29,10.29,0,0,0,4.45,3.16,5.75,5.75,0,0,0-.84,1.18,13.4,13.4,0,0,1-1.84-1.06v.87Zm-1.93,2.1v-1.21h9v1.21h-5.06l.32.11c0,.09-.15.13-.32.13a18.27,18.27,0,0,1-.86,1.71l3.4-.09a15.21,15.21,0,0,0-1.13-1.17l1.14-.59a14,14,0,0,1,2.49,2.79l-1.21.73a7.86,7.86,0,0,0-.46-.71c-2.44.15-4.93.28-6.58.36a.23.23,0,0,1-.2.17l-.45-1.42,1.59,0a18.08,18.08,0,0,0,.86-2Zm6.55-3.29a10.16,10.16,0,0,1-2.1-2,9.86,9.86,0,0,1-2,2Z" transform="translate(-809.72 -318)" style="fill: #231f20"/>
    </g>
  </a>
  <a xlink:href="/projects/anime">
    <g id="anime">
      <rect class="anime" x="385.93" y="56.09" width="55.37" height="36.71" style="fill: #e6e6e6;stroke: #231f20;stroke-miterlimit: 10;stroke-width: 0.6859999895095825px"/>
      <path d="M1215.45,380.75a.32.32,0,0,1-.22.16,11.4,11.4,0,0,1-2.27,3.48,7.88,7.88,0,0,0-1.21-.73,6.18,6.18,0,0,0,1.59-2.12h-7v-1.28h7.76l.15-.1Zm-4.12,2.09c0,.11-.12.19-.29.23-.27,2.36-1.16,4.8-3.33,6.1a9.68,9.68,0,0,0-1.17-.86c2-1.1,2.89-3.23,3-5.65Z" transform="translate(-809.72 -318)" style="fill: #231f20"/>
      <path d="M1225.51,388.08h-9v-1.3h9Zm-1.08-5.61h-6.78v-1.3h6.78Z" transform="translate(-809.72 -318)" style="fill: #231f20"/>
      <path d="M1229,381.87c.87.38,1.82.85,2.73,1.35a22.84,22.84,0,0,0,1.8-3.53l1.71.72c0,.11-.21.17-.42.16a29.32,29.32,0,0,1-1.85,3.37,17.77,17.77,0,0,1,2.06,1.46l-.91,1.29a16.33,16.33,0,0,0-2-1.55,17,17,0,0,1-4.19,4,6.71,6.71,0,0,0-1.13-1,15.75,15.75,0,0,0,4.14-3.76,27.77,27.77,0,0,0-2.69-1.41Z" transform="translate(-809.72 -318)" style="fill: #231f20"/>
      <path d="M1210.09,402.55H1208v.83h-1.12v-2.81a4.9,4.9,0,0,1-.38.53,8.46,8.46,0,0,0-.64-1.16,10.48,10.48,0,0,0,1.45-4.56H1206V394.2h4.34v1.17h-1.87c-.12.75-.27,1.5-.45,2.21h2Zm-1.14-3.85h-1v2.72h1Zm7.16-.49v1.23H1215v4.45h-1.23v-4.45h-1.13a5.9,5.9,0,0,1-1.95,4.47,6.27,6.27,0,0,0-1-.71,5,5,0,0,0,1.74-3.76h-1.09v-1.23h1.12v-2.83h-.83v-1.2h5.31v1.2H1215v2.83Zm-3.44,0h1.11v-2.83h-1.11Z" transform="translate(-809.72 -318)" style="fill: #231f20"/>
      <path d="M1221.05,396.32c0,.1-.12.16-.27.18-.37,1.25-.93,2.21-3.49,2.76a3.51,3.51,0,0,0-.67-1c2.23-.37,2.63-1,2.85-2.07Zm3.27,5.9c0,.33,0,.38.26.38h.56c.23,0,.27-.19.3-1.34a4.14,4.14,0,0,0,1.18.52c-.11,1.55-.43,2-1.34,2h-1c-1,0-1.37-.36-1.37-1.54V400.8h-1.71c-.43,1.43-1.39,2.49-3.92,3.09a3.37,3.37,0,0,0-.69-1.08c1.93-.41,2.79-1.06,3.2-2h-2.48v-1.2h2.78c.05-.39.08-.82.11-1.28l1.63.13c0,.11-.11.18-.28.21,0,.32-.07.65-.11.95h2.85Zm-6-6.17v1.1H1217v-2.26h3.92v-1.16l1.63.1c0,.1-.1.17-.3.21v.86h3.93v2.26h-1.37v-1.1Zm3.92.05,1.56.09c0,.11-.09.17-.29.21v1.26c0,.28.07.31.45.31h1.1c.28,0,.35-.09.39-.61a4,4,0,0,0,1.09.41c-.13,1-.46,1.25-1.34,1.25h-1.42c-1.25,0-1.54-.31-1.54-1.35Z" transform="translate(-809.72 -318)" style="fill: #231f20"/>
      <path d="M1229.62,398.19v-.8a13.24,13.24,0,0,1-1.85,1.08,4.87,4.87,0,0,0-.75-1.06,10.76,10.76,0,0,0,4.44-3.69l1.75.09a.32.32,0,0,1-.28.21,10.28,10.28,0,0,0,4.45,3.16,5.85,5.85,0,0,0-.84,1.19,13.4,13.4,0,0,1-1.84-1.06v.87Zm-1.93,2.1v-1.21h9v1.21h-5.07l.32.11c0,.09-.15.13-.32.13a18.27,18.27,0,0,1-.86,1.71l3.4-.09A14.75,14.75,0,0,0,1233,401l1.14-.59a14.07,14.07,0,0,1,2.49,2.79l-1.21.73a8,8,0,0,0-.46-.71c-2.44.15-4.94.28-6.58.36a.23.23,0,0,1-.2.17l-.45-1.42,1.6,0a18.11,18.11,0,0,0,.86-2Zm6.55-3.29a10.13,10.13,0,0,1-2.1-2,9.76,9.76,0,0,1-2,2Z" transform="translate(-809.72 -318)" style="fill: #231f20"/>
    </g>
  </a>
  <a xlink:href="/projects/physics">
    <g id="physics">
      <rect class="physics" x="377.09" y="92.79" width="64.2" height="66.89" style="fill: #e6e6e6;stroke: #231f20;stroke-miterlimit: 10;stroke-width: 0.6859999895095825px"/>
      <path d="M1196.18,442.95l.1,1.09-1.2.28v3.48h-1.27v-3.19l-1.29.28a.22.22,0,0,1-.18.18l-.42-1.39,1.9-.31V441h-.66a9.42,9.42,0,0,1-.33,1.54,6.9,6.9,0,0,0-.93-.53,19.44,19.44,0,0,0,.42-3.79l1.32.27c0,.09-.11.14-.26.14,0,.37,0,.76-.09,1.14h.52v-2.18l1.55.09c0,.1-.09.17-.28.19v1.9h1V441h-1v2.1Zm5-3.31.7.05,0,.41c-.17,4.83-.33,6.56-.72,7.07s-.55.6-1.47.6h-.47a3.35,3.35,0,0,0-.28-1.15,6.9,6.9,0,0,1-.59,1.15,6.4,6.4,0,0,0-1.12-.59c1.14-1.41,1.74-4.09,2-6.33h-.41a16.45,16.45,0,0,1-2.08,5.92,5.12,5.12,0,0,0-1.14-.56,12.89,12.89,0,0,0,2.17-5.36h-.39a9.91,9.91,0,0,1-.92,2.17,6.8,6.8,0,0,0-1-.7,13.26,13.26,0,0,0,1.31-4.73l1.45.3c0,.1-.12.15-.28.15-.08.54-.18,1.08-.3,1.62h3.54Zm-1,1.21a23.29,23.29,0,0,1-1.25,5.65l.7,0a.39.39,0,0,0,.37-.21c.24-.32.42-1.68.55-5.46Z" transform="translate(-809.72 -318)" style="fill: #231f20"/>
      <path d="M1205.1,444.64l1.26-.32s0,0,.14,1.1l-3.52,1a.24.24,0,0,1-.18.18l-.39-1.35,1.45-.33v-2.39h-1.18v-1.18h1.18v-1.94h-1.27v-1.2h3.72v1.2h-1.21v1.94h1.12v1.18h-1.12Zm4.88,1.7h2.76v1.16h-6.91v-1.16h3v-1.19h-2.26V444h2.26v-.94h-2.22v-4.91h5.76v4.91H1210V444h2.41v1.14H1210Zm-2.28-6.24h1.08v-.85h-1.08Zm0,1.88h1.08v-.85h-1.08Zm3.42-2.73H1210v.85h1.14Zm0,1.88H1210V442h1.14Z" transform="translate(-809.72 -318)" style="fill: #231f20"/>
      <path d="M1217.3,446.45h-2.13v.83H1214v-2.81a5,5,0,0,1-.38.53,8.66,8.66,0,0,0-.64-1.16,10.49,10.49,0,0,0,1.44-4.56h-1.23V438.1h4.34v1.17h-1.87c-.12.75-.27,1.5-.45,2.21h2Zm-1.14-3.85h-1v2.72h1Zm7.16-.49v1.23h-1.1v4.45H1221v-4.45h-1.13a5.89,5.89,0,0,1-2,4.47,6.1,6.1,0,0,0-1-.71,5,5,0,0,0,1.74-3.76h-1.09v-1.23h1.12v-2.83h-.83v-1.2h5.31v1.2h-.94v2.83Zm-3.44,0H1221v-2.83h-1.11Z" transform="translate(-809.72 -318)" style="fill: #231f20"/>
      <path d="M1228.26,440.22c0,.1-.12.16-.27.18-.37,1.25-.93,2.21-3.49,2.76a3.51,3.51,0,0,0-.67-1c2.23-.37,2.63-1,2.85-2.07Zm3.27,5.9c0,.33,0,.38.26.38h.56c.23,0,.27-.19.3-1.34a4.14,4.14,0,0,0,1.18.52c-.11,1.55-.43,2-1.34,2h-1c-1,0-1.37-.36-1.37-1.54V444.7h-1.71c-.43,1.43-1.39,2.49-3.92,3.09a3.37,3.37,0,0,0-.69-1.08c1.93-.41,2.79-1.06,3.2-2h-2.48v-1.2h2.78c.05-.39.08-.82.11-1.28l1.63.13c0,.11-.11.18-.28.21,0,.32-.07.65-.11.95h2.85Zm-6-6.17V441h-1.29v-2.26h3.92v-1.16l1.63.1c0,.1-.1.17-.3.21v.86h3.93V441H1232v-1.1Zm3.92.05,1.56.09c0,.11-.09.17-.29.21v1.26c0,.28.07.31.45.31h1.1c.28,0,.35-.09.39-.61a4,4,0,0,0,1.09.41c-.13,1-.46,1.25-1.34,1.25h-1.42c-1.25,0-1.54-.31-1.54-1.35Z" transform="translate(-809.72 -318)" style="fill: #231f20"/>
      <path d="M1237.51,441.63a12.58,12.58,0,0,0,.55-1.8l1.35.37c0,.09-.13.13-.28.13a13.87,13.87,0,0,1-.54,1.37h1.32v1.18h-5.61v-1.18h3.43Zm2.26-2.92v1.12h-5.24v-1.12h2v-1.08l1.54.08c0,.11-.09.17-.28.2v.8Zm-4.85,9.09v-4.22h4.49v4.18h-1.26v-.49h-2v.53Zm.6-6.11a6.44,6.44,0,0,0-.37-1.54l1-.21a5.63,5.63,0,0,1,.42,1.5Zm2.63,3h-2v1.46h2Zm5.48-6.5.82.31a.23.23,0,0,1-.11.17c-.32.93-.75,2.07-1.25,3.22a4,4,0,0,1,1.33,2.56c0,2-1.39,2-2,2H1242a2.82,2.82,0,0,0-.38-1.23c.31,0,.6,0,.8,0,.65,0,.71-.43.71-.85,0-.59-.38-1.23-1.36-2.3.35-1,.66-1.85.91-2.65h-1.21v8.33h-1.27v-9.55h3.16Z" transform="translate(-809.72 -318)" style="fill: #231f20"/>
    </g>
  </a>
  <g id="others">
    <polyline points="395.45 56.11 395.45 48.14 369.4 48.14 369.4 77.42 377.34 77.42 377.34 56.09 394.49 56.09 441.29 56.09 441.29 198.79 369.92 198.79 369.92 217.66 380.63 217.66 380.63 308.39 0.34 308.39 0.34 202.36 342.4 202.36 342.4 76.96 57.95 76.96 57.95 13.75 353.01 13.75" style="fill: none;stroke: #231f20;stroke-miterlimit: 10;stroke-width: 0.6859999895095825px"/>
    <polyline points="379.24 48.13 379.24 35.34 420.29 35.34 420.29 0.6 353.02 0.6 353.02 50.87 91.57 50.87 91.57 13.78" style="fill: none;stroke: #231f20;stroke-miterlimit: 10;stroke-width: 0.6859999895095825px"/>
    <rect x="377.09" y="159.68" width="64.2" height="38.92" style="fill: none;stroke: #231f20;stroke-miterlimit: 10;stroke-width: 0.6859999895095825px"/>
    <rect x="324.91" y="217.66" width="55.72" height="28.84" style="fill: none;stroke: #231f20;stroke-miterlimit: 10;stroke-width: 0.6859999895095825px"/>
    <rect x="0.34" y="202.37" width="59.9" height="37.8" style="fill: none;stroke: #231f20;stroke-miterlimit: 10;stroke-width: 0.6859999895095825px"/>
    <rect x="60.24" y="202.37" width="59.57" height="37.8" style="fill: none;stroke: #231f20;stroke-miterlimit: 10;stroke-width: 0.6859999895095825px"/>
    <rect x="119.73" y="202.37" width="59.36" height="37.8" style="fill: none;stroke: #231f20;stroke-miterlimit: 10;stroke-width: 0.6859999895095825px"/>
    <rect x="179.17" y="202.36" width="59.92" height="37.91" style="fill: none;stroke: #231f20;stroke-miterlimit: 10;stroke-width: 0.6859999895095825px"/>
    <rect x="91.6" y="13.98" width="21.2" height="37.06" style="fill: none;stroke: #231f20;stroke-miterlimit: 10;stroke-width: 0.6859999895095825px"/>
    <path d="M914.53,340.36a3.84,3.84,0,0,1,2.63,2.91c.12.44,1.53,7.19,1.74,8.16a1.11,1.11,0,1,1-2.09.71c-.81-3.62-1.64-7.29-1.76-7.74-.07-.26-.5-.23-.42.1.13.57,2.33,10.88,2.33,10.88h-2.48s0,8,0,10a1.23,1.23,0,1,1-2.46,0s0-10,0-10h-.53s0,10,0,10a1.27,1.27,0,1,1-2.53-.06c0-1.7,0-9.92,0-9.92h-2.35s2.25-10.56,2.33-10.91a.22.22,0,1,0-.44,0c-.06.29-1.56,6.92-1.76,7.68-.38,1.48-2.59,1.08-2.05-.88.22-.79,1.82-7.75,1.82-7.75.44-1.68.74-2.38,2.28-3a9.64,9.64,0,0,1,5.72-.1" transform="translate(-809.72 -318)" style="fill: #231f20"/>
    <path d="M914,337a2.29,2.29,0,1,1-2.29-2.36A2.33,2.33,0,0,1,914,337" transform="translate(-809.72 -318)" style="fill: #231f20"/>
    <line x1="173.6" y1="13.71" x2="173.6" y2="50.72" style="fill: #ec1c24"/>
    <line x1="173.6" y1="13.71" x2="173.6" y2="50.72" style="fill: none;stroke: #231f20;stroke-miterlimit: 10;stroke-width: 0.6859999895095825px"/>
    <line x1="233.06" y1="13.64" x2="233.06" y2="50.93" style="fill: #ec1c24"/>
    <line x1="233.06" y1="13.64" x2="233.06" y2="50.93" style="fill: none;stroke: #231f20;stroke-miterlimit: 10;stroke-width: 0.6859999895095825px"/>
    <line x1="292.88" y1="13.55" x2="292.88" y2="51.17" style="fill: #ec1c24"/>
    <line x1="292.88" y1="13.55" x2="292.88" y2="51.17" style="fill: none;stroke: #231f20;stroke-miterlimit: 10;stroke-width: 0.6859999895095825px"/>
    <rect x="36.14" y="265.21" width="27.91" height="43.06" style="fill: #fff"/>
    <rect x="36.14" y="265.21" width="27.91" height="43.06" style="fill: none;stroke: #231f20;stroke-miterlimit: 10;stroke-width: 0.6859999895095825px"/>
    <path d="M862.43,588.61a2.73,2.73,0,1,1-2.73-2.82,2.78,2.78,0,0,1,2.73,2.82" transform="translate(-809.72 -318)" style="fill: #231f20"/>
    <path d="M855.35,596.62c0,.37,0,9,0,9.38a1.4,1.4,0,1,1-2.78,0c0-1.95,0-10.57,0-10.7a2.41,2.41,0,0,1,1.65-2.14,14.58,14.58,0,0,1,5.54-1.07,13,13,0,0,1,5.45,1.09,2.52,2.52,0,0,1,1.6,2.11c0,.22,0,9.54,0,10.71a1.42,1.42,0,1,1-2.81,0c0-1,0-9,0-9.38,0-.16-.61-.24-.62,0,0,.6,0,26,0,25.74a1.67,1.67,0,1,1-3.35,0c0-.65,0-15.59,0-15.77a.32.32,0,0,0-.65,0c0,.07,0,15.58,0,15.74a1.72,1.72,0,1,1-3.44,0c0-1.58,0-25.56,0-25.71s-.63-.25-.62,0" transform="translate(-809.72 -318)" style="fill: #231f20"/>
    <line x1="392.06" y1="35.22" x2="392.06" y2="47.99" style="fill: #0054a5"/>
    <line x1="392.06" y1="35.22" x2="392.06" y2="47.99" style="fill: none;stroke: #231f20;stroke-miterlimit: 10;stroke-width: 0.6859999895095825px"/>
    <line x1="406.49" y1="18.41" x2="406.49" y2="35.25" style="fill: #0054a5"/>
    <line x1="406.49" y1="18.41" x2="406.49" y2="35.25" style="fill: none;stroke: #231f20;stroke-miterlimit: 10;stroke-width: 0.6859999895095825px"/>
    <line x1="403.94" y1="18.41" x2="403.94" y2="35.25" style="fill: #0054a5"/>
    <line x1="403.94" y1="18.41" x2="403.94" y2="35.25" style="fill: none;stroke: #231f20;stroke-miterlimit: 10;stroke-width: 0.6859999895095825px"/>
    <line x1="401.4" y1="18.41" x2="401.4" y2="35.25" style="fill: #0054a5"/>
    <line x1="401.4" y1="18.41" x2="401.4" y2="35.25" style="fill: none;stroke: #231f20;stroke-miterlimit: 10;stroke-width: 0.6859999895095825px"/>
    <line x1="398.86" y1="18.41" x2="398.86" y2="35.25" style="fill: #0054a5"/>
    <line x1="398.86" y1="18.41" x2="398.86" y2="35.25" style="fill: none;stroke: #231f20;stroke-miterlimit: 10;stroke-width: 0.6859999895095825px"/>
    <line x1="396.31" y1="18.41" x2="396.31" y2="35.25" style="fill: #0054a5"/>
    <line x1="396.31" y1="18.41" x2="396.31" y2="35.25" style="fill: none;stroke: #231f20;stroke-miterlimit: 10;stroke-width: 0.6859999895095825px"/>
    <line x1="393.77" y1="18.41" x2="393.77" y2="35.25" style="fill: #0054a5"/>
    <line x1="393.77" y1="18.41" x2="393.77" y2="35.25" style="fill: none;stroke: #231f20;stroke-miterlimit: 10;stroke-width: 0.6859999895095825px"/>
    <line x1="391.22" y1="18.41" x2="391.22" y2="35.25" style="fill: #0054a5"/>
    <line x1="391.22" y1="18.41" x2="391.22" y2="35.25" style="fill: none;stroke: #231f20;stroke-miterlimit: 10;stroke-width: 0.6859999895095825px"/>
    <line x1="388.68" y1="18.41" x2="388.68" y2="35.25" style="fill: #0054a5"/>
    <line x1="388.68" y1="18.41" x2="388.68" y2="35.25" style="fill: none;stroke: #231f20;stroke-miterlimit: 10;stroke-width: 0.6859999895095825px"/>
    <line x1="386.13" y1="18.41" x2="386.13" y2="35.25" style="fill: #0054a5"/>
    <line x1="386.13" y1="18.41" x2="386.13" y2="35.25" style="fill: none;stroke: #231f20;stroke-miterlimit: 10;stroke-width: 0.6859999895095825px"/>
    <line x1="383.59" y1="18.41" x2="383.59" y2="35.25" style="fill: #0054a5"/>
    <line x1="383.59" y1="18.41" x2="383.59" y2="35.25" style="fill: none;stroke: #231f20;stroke-miterlimit: 10;stroke-width: 0.6859999895095825px"/>
    <polyline points="381.04 35.26 381.04 18.41 409.03 18.41 409.03 35.26" style="fill: none;stroke: #231f20;stroke-miterlimit: 10;stroke-width: 0.6859999895095825px"/>
    <line x1="381.04" y1="18.41" x2="381.04" y2="0.44" style="fill: none;stroke: #231f20;stroke-miterlimit: 10;stroke-width: 0.6859999895095825px"/>
    <polyline points="91.53 24.2 75.58 24.2 75.58 49.65 91.53 49.65" style="fill: none;stroke: #231f20;stroke-miterlimit: 10;stroke-width: 0.6859999895095825px"/>
    <line x1="91.53" y1="26.75" x2="75.58" y2="26.75" style="fill: none;stroke: #231f20;stroke-miterlimit: 10;stroke-width: 0.6859999895095825px"/>
    <line x1="91.53" y1="29.29" x2="75.58" y2="29.29" style="fill: none;stroke: #231f20;stroke-miterlimit: 10;stroke-width: 0.6859999895095825px"/>
    <line x1="91.53" y1="31.84" x2="75.58" y2="31.84" style="fill: none;stroke: #231f20;stroke-miterlimit: 10;stroke-width: 0.6859999895095825px"/>
    <line x1="91.53" y1="34.38" x2="75.58" y2="34.38" style="fill: none;stroke: #231f20;stroke-miterlimit: 10;stroke-width: 0.6859999895095825px"/>
    <line x1="91.53" y1="36.93" x2="75.58" y2="36.93" style="fill: none;stroke: #231f20;stroke-miterlimit: 10;stroke-width: 0.6859999895095825px"/>
    <line x1="91.53" y1="39.47" x2="75.58" y2="39.47" style="fill: none;stroke: #231f20;stroke-miterlimit: 10;stroke-width: 0.6859999895095825px"/>
    <line x1="91.53" y1="42.02" x2="75.58" y2="42.02" style="fill: none;stroke: #231f20;stroke-miterlimit: 10;stroke-width: 0.6859999895095825px"/>
    <line x1="91.53" y1="44.56" x2="75.58" y2="44.56" style="fill: none;stroke: #231f20;stroke-miterlimit: 10;stroke-width: 0.6859999895095825px"/>
    <line x1="91.53" y1="47.11" x2="75.58" y2="47.11" style="fill: none;stroke: #231f20;stroke-miterlimit: 10;stroke-width: 0.6859999895095825px"/>
    <line x1="75.58" y1="49.65" x2="57.94" y2="49.65" style="fill: none;stroke: #231f20;stroke-miterlimit: 10;stroke-width: 0.6859999895095825px"/>
    <rect x="64.05" y="265" width="225.29" height="43.63" style="fill: none;stroke: #231f20;stroke-miterlimit: 10;stroke-width: 0.6859999895095825px"/>
    <line x1="289.14" y1="266.44" x2="306.09" y2="266.44" style="fill: #fff"/>
    <line x1="289.14" y1="266.44" x2="306.09" y2="266.44" style="fill: none;stroke: #231f20;stroke-miterlimit: 10;stroke-width: 0.6859999895095825px"/>
    <line x1="289.14" y1="268.99" x2="306.09" y2="268.99" style="fill: #fff"/>
    <line x1="289.14" y1="268.99" x2="306.09" y2="268.99" style="fill: none;stroke: #231f20;stroke-miterlimit: 10;stroke-width: 0.6859999895095825px"/>
    <line x1="289.14" y1="271.53" x2="306.09" y2="271.53" style="fill: #fff"/>
    <line x1="289.14" y1="271.53" x2="306.09" y2="271.53" style="fill: none;stroke: #231f20;stroke-miterlimit: 10;stroke-width: 0.6859999895095825px"/>
    <line x1="289.14" y1="274.08" x2="306.09" y2="274.08" style="fill: #fff"/>
    <line x1="289.14" y1="274.08" x2="306.09" y2="274.08" style="fill: none;stroke: #231f20;stroke-miterlimit: 10;stroke-width: 0.6859999895095825px"/>
    <line x1="289.14" y1="276.62" x2="306.09" y2="276.62" style="fill: #fff"/>
    <line x1="289.14" y1="276.62" x2="306.09" y2="276.62" style="fill: none;stroke: #231f20;stroke-miterlimit: 10;stroke-width: 0.6859999895095825px"/>
    <line x1="289.14" y1="279.17" x2="306.09" y2="279.17" style="fill: #fff"/>
    <line x1="289.14" y1="279.17" x2="306.09" y2="279.17" style="fill: none;stroke: #231f20;stroke-miterlimit: 10;stroke-width: 0.6859999895095825px"/>
    <line x1="289.14" y1="281.71" x2="306.09" y2="281.71" style="fill: #fff"/>
    <line x1="289.14" y1="281.71" x2="306.09" y2="281.71" style="fill: none;stroke: #231f20;stroke-miterlimit: 10;stroke-width: 0.6859999895095825px"/>
    <line x1="289.14" y1="284.26" x2="306.09" y2="284.26" style="fill: #fff"/>
    <line x1="289.14" y1="284.26" x2="306.09" y2="284.26" style="fill: none;stroke: #231f20;stroke-miterlimit: 10;stroke-width: 0.6859999895095825px"/>
    <line x1="289.14" y1="286.8" x2="306.09" y2="286.8" style="fill: #fff"/>
    <line x1="289.14" y1="286.8" x2="306.09" y2="286.8" style="fill: none;stroke: #231f20;stroke-miterlimit: 10;stroke-width: 0.6859999895095825px"/>
    <line x1="289.14" y1="289.35" x2="306.09" y2="289.35" style="fill: #fff"/>
    <line x1="289.14" y1="289.35" x2="306.09" y2="289.35" style="fill: none;stroke: #231f20;stroke-miterlimit: 10;stroke-width: 0.6859999895095825px"/>
    <line x1="289.14" y1="291.89" x2="306.09" y2="291.89" style="fill: #fff"/>
    <line x1="289.14" y1="291.89" x2="306.09" y2="291.89" style="fill: none;stroke: #231f20;stroke-miterlimit: 10;stroke-width: 0.6859999895095825px"/>
    <line x1="289.14" y1="294.43" x2="306.09" y2="294.43" style="fill: #fff"/>
    <line x1="289.14" y1="294.43" x2="306.09" y2="294.43" style="fill: none;stroke: #231f20;stroke-miterlimit: 10;stroke-width: 0.6859999895095825px"/>
    <polyline points="289.14 296.98 306.09 296.98 306.47 264.92 325.03 264.92" style="fill: none;stroke: #231f20;stroke-miterlimit: 10;stroke-width: 0.6859999895095825px"/>
    <polyline points="0.39 265 18.18 265 18.18 295.48" style="fill: #fff"/>
    <polyline points="0.39 265 18.18 265 18.18 295.48" style="fill: none;stroke: #231f20;stroke-miterlimit: 10;stroke-width: 0.48500001430511475px"/>
    <line x1="18.14" y1="265.95" x2="36.16" y2="265.95" style="fill: #fff"/>
    <line x1="18.14" y1="265.95" x2="36.16" y2="265.95" style="fill: none;stroke: #231f20;stroke-miterlimit: 10;stroke-width: 0.48500001430511475px"/>
    <line x1="18.14" y1="268.5" x2="36.16" y2="268.5" style="fill: #fff"/>
    <line x1="18.14" y1="268.5" x2="36.16" y2="268.5" style="fill: none;stroke: #231f20;stroke-miterlimit: 10;stroke-width: 0.48500001430511475px"/>
    <line x1="18.14" y1="271.04" x2="36.16" y2="271.04" style="fill: #fff"/>
    <line x1="18.14" y1="271.04" x2="36.16" y2="271.04" style="fill: none;stroke: #231f20;stroke-miterlimit: 10;stroke-width: 0.48500001430511475px"/>
    <line x1="18.14" y1="273.59" x2="36.16" y2="273.59" style="fill: #fff"/>
    <line x1="18.14" y1="273.59" x2="36.16" y2="273.59" style="fill: none;stroke: #231f20;stroke-miterlimit: 10;stroke-width: 0.48500001430511475px"/>
    <line x1="18.14" y1="276.13" x2="36.16" y2="276.13" style="fill: #fff"/>
    <line x1="18.14" y1="276.13" x2="36.16" y2="276.13" style="fill: none;stroke: #231f20;stroke-miterlimit: 10;stroke-width: 0.48500001430511475px"/>
    <line x1="18.14" y1="278.68" x2="36.16" y2="278.68" style="fill: #fff"/>
    <line x1="18.14" y1="278.68" x2="36.16" y2="278.68" style="fill: none;stroke: #231f20;stroke-miterlimit: 10;stroke-width: 0.48500001430511475px"/>
    <line x1="18.14" y1="281.22" x2="36.16" y2="281.22" style="fill: #fff"/>
    <line x1="18.14" y1="281.22" x2="36.16" y2="281.22" style="fill: none;stroke: #231f20;stroke-miterlimit: 10;stroke-width: 0.48500001430511475px"/>
    <line x1="18.14" y1="283.77" x2="36.16" y2="283.77" style="fill: #fff"/>
    <line x1="18.14" y1="283.77" x2="36.16" y2="283.77" style="fill: none;stroke: #231f20;stroke-miterlimit: 10;stroke-width: 0.48500001430511475px"/>
    <line x1="18.14" y1="286.31" x2="36.16" y2="286.31" style="fill: #fff"/>
    <line x1="18.14" y1="286.31" x2="36.16" y2="286.31" style="fill: none;stroke: #231f20;stroke-miterlimit: 10;stroke-width: 0.48500001430511475px"/>
    <line x1="18.14" y1="288.86" x2="36.16" y2="288.86" style="fill: #fff"/>
    <line x1="18.14" y1="288.86" x2="36.16" y2="288.86" style="fill: none;stroke: #231f20;stroke-miterlimit: 10;stroke-width: 0.48500001430511475px"/>
    <line x1="18.14" y1="291.4" x2="36.16" y2="291.4" style="fill: #fff"/>
    <line x1="18.14" y1="291.4" x2="36.16" y2="291.4" style="fill: none;stroke: #231f20;stroke-miterlimit: 10;stroke-width: 0.48500001430511475px"/>
    <line x1="18.14" y1="293.95" x2="36.16" y2="293.95" style="fill: #fff"/>
    <line x1="18.14" y1="293.95" x2="36.16" y2="293.95" style="fill: none;stroke: #231f20;stroke-miterlimit: 10;stroke-width: 0.48500001430511475px"/>
    <path d="M970.43,605.06l-5.64,0,.36.11a.44.44,0,0,1-.41.23c-.49,2.95-1.63,5.87-5.41,7.76a16.85,16.85,0,0,0-1.74-1.55c3.54-1.8,4.4-3.86,4.74-6.57h-6.41V603h14.51Zm-1.83-5h-11V598h11Z" transform="translate(-809.72 -318)" style="fill: #231f20"/>
    <path d="M987,603.25a.59.59,0,0,1-.34.27c-1.62,5.48-4.36,8.12-9.79,9.65a9,9,0,0,0-1.37-1.8c4.51-1.08,7.49-3.54,8.35-6.7H973v-2.12h11.85l.25-.18Zm-2-3.2H974.73V598H985Z" transform="translate(-809.72 -318)" style="fill: #231f20"/>
    <path d="M1002.39,599.37a.54.54,0,0,1-.32.3,29.05,29.05,0,0,1-3.36,5.95,71.89,71.89,0,0,1,6,5.53l-2,1.76a56.69,56.69,0,0,0-5.48-5.51,29.49,29.49,0,0,1-6.36,5.5,11.57,11.57,0,0,0-1.67-1.73,23.28,23.28,0,0,0,9.73-10.49h-8.1v-2.16h9.39l.38-.13Z" transform="translate(-809.72 -318)" style="fill: #231f20"/>
    <path d="M874.44,319h4.2v.61h-9V319h4.09v-1l.89.06c0,.07-.06.12-.2.14Zm3.77,4v3.59c0,.39-.09.61-.41.72a6.66,6.66,0,0,1-1.76.11,2.74,2.74,0,0,0-.22-.65l1.07,0c.58,0,.64,0,.64-.21v-3h-6.71v3.84h-.67V323Zm-6.82-2.78h5.53v2.1h-5.53Zm4.84.52h-4.17v1.07h4.17Zm-.11,5.73H872.8V327h-.62v-2.7h3.93Zm-.62-1.65H872.8V326h2.69Z" transform="translate(-809.72 -318)" style="fill: #231f20"/>
    <path d="M881.89,321.71c.32.39,1.17,1.6,1.36,1.9l-.4.54c-.17-.36-.62-1.08-1-1.63v4.91h-.64v-5a11.22,11.22,0,0,1-1.38,3.08,2.81,2.81,0,0,0-.37-.6,11.92,11.92,0,0,0,1.67-4H879.7v-.64h1.55V318l.84.06c0,.06-.07.11-.2.13v2h1.29v.64h-1.29Zm3,.69a8.2,8.2,0,0,0,1.15,2.14,6.73,6.73,0,0,0,1-2.19l.84.19a.22.22,0,0,1-.22.12,7.58,7.58,0,0,1-1.23,2.4,6.51,6.51,0,0,0,2.62,1.81,2.78,2.78,0,0,0-.48.6,7.12,7.12,0,0,1-2.58-1.88,7.6,7.6,0,0,1-2.81,1.89,3.11,3.11,0,0,0-.36-.54,7,7,0,0,0,2.76-1.86,9.51,9.51,0,0,1-1.32-2.51Zm.51-1.56a.2.2,0,0,1-.19.08,8.13,8.13,0,0,1-1.7,2.2,4,4,0,0,0-.48-.42,6.59,6.59,0,0,0,1.62-2.17Zm3.54-1.29v.63h-5.69v-.63h2.47V318l.87.06c0,.07-.06.12-.2.14v1.34Zm-.44,3.5a10.42,10.42,0,0,0-1.71-2.25l.54-.3a10.59,10.59,0,0,1,1.74,2.2Z" transform="translate(-809.72 -318)" style="fill: #231f20"/>
    <path d="M892,321.71c.32.39,1.17,1.6,1.36,1.9l-.39.54c-.17-.36-.61-1.08-1-1.62v4.9h-.65v-5a11.33,11.33,0,0,1-1.37,3.06,3.23,3.23,0,0,0-.36-.6,12.11,12.11,0,0,0,1.66-4h-1.44v-.64h1.51V318l.84.06c0,.06-.06.11-.19.13v2h1.29v.64H892Zm6.69,2.45h-1.82a9.18,9.18,0,0,0,2.42,2.37,3,3,0,0,0-.49.52,11.06,11.06,0,0,1-2.32-2.53v2.94h-.66v-2.81a8.91,8.91,0,0,1-2.54,2.48,2.66,2.66,0,0,0-.48-.54,7.66,7.66,0,0,0,2.64-2.42h-1.76v-3.48h2.13v-.87h-2.5v-.6h2.5V318l.86.05c0,.07-.06.12-.2.14v1h2.59v.6h-2.59v.87h2.2Zm-4.38-2h1.51v-.94h-1.51Zm0,1.47h1.51v-1h-1.51Zm3.74-2.42h-1.56v.94h1.56Zm0,1.45h-1.56v1h1.56Z" transform="translate(-809.72 -318)" style="fill: #231f20"/>
    <path d="M816.69,508.59h3.8v4.78h-.7v-.6h-3.1v3.38H816v-3.38h-3.06v.65h-.68v-4.83H816v-1.86l.91.06c0,.07-.07.12-.2.14Zm-3.77,3.5H816v-2.83h-3.06Zm3.77,0h3.1v-2.83h-3.1Z" transform="translate(-809.72 -318)" style="fill: #231f20"/>
    <path d="M831.1,512.74v.64h-4.22v2c0,.85-.49.86-2.37.86a3.18,3.18,0,0,0-.3-.67l1.3,0c.59,0,.66,0,.66-.22v-2H822v-.64h4.16v-.88l.48,0a8.3,8.3,0,0,0,1.47-1h-4.42v-.61h5.14l.12,0,.53.34a.22.22,0,0,1-.15.09,11,11,0,0,1-2.47,1.68v.36Zm-8.18-3.65v1.63h-.65v-2.25h1.59a7.33,7.33,0,0,0-.91-1.33l.57-.27a6.65,6.65,0,0,1,1,1.45l-.29.15h2.15a7.27,7.27,0,0,0-.8-1.55l.59-.22a6.45,6.45,0,0,1,.86,1.62l-.35.15h1.78a12.38,12.38,0,0,0,1.17-1.67,4,4,0,0,1,.8.34.2.2,0,0,1-.21.08,14.84,14.84,0,0,1-1,1.25h1.66v2.25h-.67v-1.63Z" transform="translate(-809.72 -318)" style="fill: #231f20"/>
    <path d="M834.26,510.44c.32.39,1.17,1.61,1.36,1.9l-.39.54c-.17-.36-.61-1.08-1-1.62v4.9h-.65v-5a11.33,11.33,0,0,1-1.37,3.06,3.27,3.27,0,0,0-.36-.6,12.1,12.1,0,0,0,1.66-4h-1.44V509h1.51v-2.23l.84.06c0,.06-.06.11-.19.13v2h1.29v.64h-1.29Zm6.69,2.45h-1.82a9.18,9.18,0,0,0,2.42,2.37,3.05,3.05,0,0,0-.49.52,11.08,11.08,0,0,1-2.32-2.53v2.93h-.66v-2.81a8.92,8.92,0,0,1-2.54,2.48,2.63,2.63,0,0,0-.48-.54,7.66,7.66,0,0,0,2.64-2.42H836V509.4h2.13v-.87h-2.5v-.6h2.5v-1.18l.86,0c0,.07-.06.12-.2.14v1h2.59v.6h-2.59v.87h2.2Zm-4.38-2h1.51v-.94h-1.51Zm0,1.47h1.51v-1h-1.51Zm3.74-2.42h-1.56v.94h1.56Zm0,1.45h-1.56v1h1.56Z" transform="translate(-809.72 -318)" style="fill: #231f20"/>
    <path d="M1265.86,375.5h-3.25v1.59h2.74v6.44h-.69v-.6h-6.8v.65h-.66v-6.49h2.44V375.5h-3v-.66h9.22Zm-1.2,6.8v-4.56h-2.08v2c0,.22,0,.26.3.26h.87c.23,0,.27-.1.3-.83a2,2,0,0,0,.59.24c-.08,1-.25,1.2-.81,1.2h-1c-.72,0-.88-.18-.88-.86v-2h-1.6v.45a3.48,3.48,0,0,1-1.69,3.08,2.11,2.11,0,0,0-.5-.45,2.91,2.91,0,0,0,1.53-2.65v-.43h-1.8v4.56Zm-2.74-6.8h-1.6v1.59h1.6Z" transform="translate(-809.72 -318)" style="fill: #231f20"/>
    <path d="M1259.29,389a11.73,11.73,0,0,0-1.7-2.89l.62-.34a12.07,12.07,0,0,1,1.75,2.89Zm5.86-2.83c0,.09-.11.13-.26.13-1,3.41-2.84,5.72-5.68,6.95a3.5,3.5,0,0,0-.5-.55c2.8-1.19,4.54-3.36,5.51-6.84Zm-2.58-1.95a7.17,7.17,0,0,1,1.2,1.57l-.42.28a7.84,7.84,0,0,0-1.16-1.57Zm1.86-.23a8.13,8.13,0,0,1,1.21,1.55l-.43.26a7.93,7.93,0,0,0-1.18-1.54Z" transform="translate(-809.72 -318)" style="fill: #231f20"/>
    <path d="M1260.81,394.87l1,.08c0,.11-.1.18-.27.21v8.31h-.77Z" transform="translate(-809.72 -318)" style="fill: #231f20"/>
    <path d="M1257.72,405.72a12.63,12.63,0,0,1,3,1.38l-.39.64a13,13,0,0,0-3-1.41Zm0,7c3.61-1.12,6-3.14,7.22-6a4,4,0,0,0,.66.42,11.64,11.64,0,0,1-7.19,6.09.33.33,0,0,1-.14.23Z" transform="translate(-809.72 -318)" style="fill: #231f20"/>
  </g>
</svg>
