<svg id="Layer_1" data-name="Layer 1" xmlns="http://www.w3.org/2000/svg" viewBox="0 0 401.06 532.5">
  <defs>
    <radialGradient id="radial-gradient" cx="436.82" cy="716.9" r="1" gradientTransform="matrix(78.41, 0, 0, -34.27, -34050.55, 24605.33)" gradientUnits="userSpaceOnUse">
      <stop offset="0" stop-color="#231f20"/>
      <stop offset="0" stop-color="#b2d235"/>
      <stop offset="0.1" stop-color="#b5d43c"/>
      <stop offset="0.25" stop-color="#bcd850"/>
      <stop offset="0.44" stop-color="#c9df71"/>
      <stop offset="0.64" stop-color="#daea9f"/>
      <stop offset="0.86" stop-color="#f0f6d8"/>
      <stop offset="1" stop-color="#fff"/>
    </radialGradient>
  </defs>
  <title>all</title>
  <g id="others">
    <line y1="377.76" x2="153.39" y2="377.76" style="fill: none;stroke: #231f20;stroke-miterlimit: 10;stroke-width: 3px"/>
    <path d="M567.12,514.76a4.69,4.69,0,1,1-4.69-4.69,4.69,4.69,0,0,1,4.69,4.69" transform="translate(-310.35 -136.94)" style="fill: #231f20"/>
    <polyline points="150.1 531.93 150.1 510.36 150.1 408.68 4.88 408.68" style="fill: none;stroke: #231f20;stroke-miterlimit: 10;stroke-width: 0.8849999904632568px"/>
    <polyline points="252.09 530.17 252.09 406.93 390.74 406.93" style="fill: none;stroke: #231f20;stroke-miterlimit: 10;stroke-width: 0.9980000257492065px"/>
    <path d="M374.62,311.45V292.12H397V251.3l10.4,0v16.38h20.53S450,265.1,450,289.78H406.72v21.63" transform="translate(-310.35 -136.94)" style="fill: #d0d2d3"/>
    <rect x="64.53" y="221.71" width="14.58" height="14.02" style="fill: #d0d2d3"/>
    <rect x="330.9" y="187.31" width="69.5" height="15.75" style="fill: #d0d2d3"/>
    <line x1="251.55" y1="377.76" x2="401.06" y2="377.76" style="fill: none;stroke: #231f20;stroke-miterlimit: 10;stroke-width: 3px"/>
    <path d="M465.14,514.65a4.69,4.69,0,1,1-4.69-4.69,4.69,4.69,0,0,1,4.69,4.69" transform="translate(-310.35 -136.94)" style="fill: #231f20"/>
  </g>
  <a xlink:href="/area/junior">
    <g id="junior">
      <polygon points="266.27 216.63 44.67 216.63 44.34 174.38 266.21 174.38 266.27 216.63" style="fill: #f186b6"/>
      <polygon points="266.27 225.9 53.66 225.9 44.66 216.62 266.27 216.62 266.27 225.9" style="fill: #ef6ea8"/>
      <g>
        <path d="M454.83,328.24v9h-2.25v-.9h-4.07v5.62h-2.27v-5.62h-4.05v1H440v-9.08h6.21v-3.11h2.27v3.11Zm-8.59,2.11h-4.05v3.87h4.05Zm6.34,0h-4.07v3.87h4.07Z" transform="translate(-310.35 -136.94)" style="fill: #231f20"/>
        <path d="M473.44,337.25h-6.93v2.4c0,1.12-.23,1.67-1.12,2a10.89,10.89,0,0,1-3.49.34,9.53,9.53,0,0,0-.88-2.09c1.15.05,2.48.05,2.84,0s.47-.07.47-.32v-2.34h-6.91v-2h6.91V334.1h1a12,12,0,0,0,1.39-1h-6.1v-1.86h8.08l.47-.11,1.35,1a17.14,17.14,0,0,1-3.87,3.08h6.77Zm-13.77-4.9h-2V328h2.45a15.1,15.1,0,0,0-1.24-1.85l1.82-.81a9.78,9.78,0,0,1,1.64,2.36l-.65.31h2.83a12.57,12.57,0,0,0-1.13-2.25l1.89-.68a10.6,10.6,0,0,1,1.4,2.59l-.86.34h2.72a15.15,15.15,0,0,0,1.55-2.74l2.32.7c-.49.7-1,1.4-1.51,2h2.4v4.38h-2.11v-2.48H459.67Z" transform="translate(-310.35 -136.94)" style="fill: #231f20"/>
        <path d="M480.59,336.63c-.23-.58-.67-1.44-1.08-2.25v7.55h-2v-6.73a14.63,14.63,0,0,1-1.73,3.6,9.9,9.9,0,0,0-1-1.94,18,18,0,0,0,2.54-6.05h-2.09v-2h2.25v-3.69h2v3.69h2v2h-2v.92c.5.67,1.93,2.81,2.25,3.31Zm7.9-.52a14.12,14.12,0,0,0,3.58,3.39,9.22,9.22,0,0,0-1.48,1.66,16.68,16.68,0,0,1-3-3.53v4.32H485.5v-4a13,13,0,0,1-3.58,3.39,9.54,9.54,0,0,0-1.44-1.64,11.84,11.84,0,0,0,4.16-3.55H482v-6.28h3.46v-1h-3.94V327h3.94v-1.87h2.07V327h3.94v1.8h-3.94v1h3.62v6.28ZM484,332.26h1.55v-.94H484Zm0,2.34h1.55v-.94H484Zm3.62-2.34h1.64v-.94h-1.64Zm1.64,1.4h-1.64v.94h1.64Z" transform="translate(-310.35 -136.94)" style="fill: #231f20"/>
        <path d="M521.57,320.66h2V315.6h-1.52v-.48a4.6,4.6,0,0,0,1.69-.45h.56v6h1.89v.61h-4.63Z" transform="translate(-310.35 -136.94)" style="fill: #231f20"/>
        <path d="M531.48,314.34c-.23.73-.56,1.63-.84,2.36a3,3,0,0,1,.76,2,1.24,1.24,0,0,1-.32,1,.83.83,0,0,1-.43.15,3.8,3.8,0,0,1-.56,0,1.34,1.34,0,0,0-.15-.53,2.24,2.24,0,0,0,.48,0,.45.45,0,0,0,.28-.07.9.9,0,0,0,.17-.63,2.79,2.79,0,0,0-.77-1.83c.25-.67.5-1.48.68-2.09h-1.16v7.26h-.54v-7.81H531l.09,0Zm2.59,2.63-2.54.66-.17-.51L532,317v-3.12h.55V315h1.44v.49H532.5v1.39l1.53-.36Zm.3.45c-.11.27-.22.55-.32.79h2.4v3.68h-.59v-.31h-3.19v.34h-.55v-3.72h1.35a7.7,7.7,0,0,0,.31-.93Zm1.49,1.31h-3.19v.91h3.19Zm0,1.39h-3.19v1h3.19Zm.29-3.15c.22,0,.28-.11.3-.86a1.72,1.72,0,0,0,.5.23c-.06.92-.23,1.14-.75,1.14h-1.05c-.65,0-.8-.14-.8-.77v-2.84h.54v1.37a6.72,6.72,0,0,0,1.43-.8l.42.4a9.85,9.85,0,0,1-1.86.88v1c0,.23,0,.27.32.27Z" transform="translate(-310.35 -136.94)" style="fill: #231f20"/>
        <path d="M522.4,324a14.48,14.48,0,0,1-.93,1.87v6.1h-.58v-5.21a10.06,10.06,0,0,1-1,1.23,4.07,4.07,0,0,0-.34-.58,10.11,10.11,0,0,0,2.31-3.58Zm3.28,4.75a6.86,6.86,0,0,0,2.41,2.38,2.43,2.43,0,0,0-.42.48,7.91,7.91,0,0,1-2.36-2.53V332h-.6v-2.9a7.5,7.5,0,0,1-2.49,2.49,2.61,2.61,0,0,0-.41-.47,6.89,6.89,0,0,0,2.54-2.38H522v-.55h2.66V327h-2v-2.81h4.64V327h-2v1.17h2.55v.55Zm-2.39-2.26h3.46v-1.73h-3.46Z" transform="translate(-310.35 -136.94)" style="fill: #231f20"/>
        <path d="M530.86,324a15.56,15.56,0,0,1-.64,1.68v6.29h-.54v-5.24a8.48,8.48,0,0,1-.84,1.22,5.27,5.27,0,0,0-.31-.59,9.86,9.86,0,0,0,1.79-3.5Zm1.73,3.12a10.14,10.14,0,0,1-.71,3.16,3,3,0,0,0,2.65,1H537a1.89,1.89,0,0,0-.2.55h-2.29a3.45,3.45,0,0,1-2.89-1,4,4,0,0,1-1,1.16,2.61,2.61,0,0,0-.35-.43,3.38,3.38,0,0,0,1-1.22,6.79,6.79,0,0,1-.65-1.87l.47-.14a6.15,6.15,0,0,0,.44,1.42,9.16,9.16,0,0,0,.5-2.19h-.83l-.21.43-.5-.12c.41-.85.92-2,1.24-2.79h-1v-.51H532l.1,0,.39.11c-.27.67-.67,1.59-1.05,2.44h.84Zm4.4-1.32v.48h-.56v1.22H534.8v.73h1.76v.48H534.8v.75h2v.48h-2v1.06h-.54v-1.06h-1.78v-.48h1.78v-.75h-1.5v-.48h1.5v-.73h-1.35V327h1.35v-.76h-2v-.48h2V325h-1.35v-.48h1.35v-.72h.54v.72h1.64v1.21Zm-2.2,0h1.12V325H534.8Zm1.12.48H534.8V327h1.12Z" transform="translate(-310.35 -136.94)" style="fill: #231f20"/>
        <path d="M545.79,331.16v.54h-7.92v-.54h3.62V330h-2.8v-.53h2.8v-1.06l-2.93.09,0-.55,1.26,0a13.38,13.38,0,0,0,.81-1.39h-1.72V326h5.93v.53h-3.51c-.27.45-.59,1-.89,1.37l3.45-.09c-.32-.26-.67-.51-1-.72l.42-.31a9.9,9.9,0,0,1,2.13,1.73l-.46.34a5.11,5.11,0,0,0-.55-.56l-2.32.08v1.09H545V330h-2.9v1.21Zm-7.23-5.1H538v-1.61h3.5v-.69h.6v.69h3.57v1.61h-.59V325h-6.51Z" transform="translate(-310.35 -136.94)" style="fill: #231f20"/>
      </g>
    </g>
  </a>
  <a xlink:href="/area/senior">
    <g id="senior">
      <polygon points="266.11 113.96 74.36 113.96 74.03 71.71 266.05 71.71 266.11 113.96" style="fill: #17baed"/>
      <polygon points="266.13 123.23 83.51 123.23 74.51 113.96 266.11 113.96 266.13 123.23" style="fill: #00b0ea"/>
      <g>
        <path d="M471.62,221v1.82H455.89V221h6.66v-1.51h2.18V221ZM471,234.08c0,1-.2,1.57-.9,1.89a7.17,7.17,0,0,1-2.92.34,6.07,6.07,0,0,0-.41-1.44h-4.65v.81H460.3v-4.84h6.88v3.49c.61,0,1.17,0,1.37,0s.34-.07.34-.29v-4H458.7v6.32h-2.09v-8.1H471Zm-2.38-6.59h-9.83v-4h9.83ZM466.49,225h-5.62v1.1h5.62Zm-1.21,7.31h-3.12v1.17h3.12Z" transform="translate(-310.35 -136.94)" style="fill: #231f20"/>
        <path d="M478.95,231c-.23-.58-.67-1.44-1.08-2.25v7.54h-2V229.6a14.58,14.58,0,0,1-1.73,3.6,9.74,9.74,0,0,0-1-1.95,18,18,0,0,0,2.54-6h-2.11v-2h2.27v-3.69h2v3.69h2v2h-2v.92c.51.67,1.93,2.81,2.25,3.31Zm9.54-2.14a7.94,7.94,0,0,0-.4-.77,14.32,14.32,0,0,1-1.85,3.8,10.71,10.71,0,0,0,4.1,2.56,9.07,9.07,0,0,0-1.49,1.91,11.52,11.52,0,0,1-4-2.79,12.17,12.17,0,0,1-4.56,2.81,8.61,8.61,0,0,0-1.1-1.71,10.49,10.49,0,0,0,4.39-2.68,16.94,16.94,0,0,1-1.89-3.69c-.25.25-.52.49-.77.7a8.07,8.07,0,0,0-1.46-1.35,10.23,10.23,0,0,0,2.67-3.51L484,225a13.78,13.78,0,0,1-2,2.93l1.39-.38a13.17,13.17,0,0,0,1.42,2.79,10.48,10.48,0,0,0,1.19-2.9l1.84.38a20.28,20.28,0,0,0-2.05-2.76l1.66-.94a16.6,16.6,0,0,1,2.79,3.76ZM490,224H480v-2h3.89v-2.5H486V222H490Z" transform="translate(-310.35 -136.94)" style="fill: #231f20"/>
        <path d="M496.93,231c-.23-.58-.67-1.44-1.08-2.25v7.54h-2V229.6a14.58,14.58,0,0,1-1.73,3.6,9.81,9.81,0,0,0-1-1.94,18,18,0,0,0,2.54-6.05h-2.09v-2h2.25v-3.69h2v3.69h2v2h-2v.92c.5.67,1.93,2.81,2.25,3.31Zm7.9-.52a14.11,14.11,0,0,0,3.58,3.39,9.26,9.26,0,0,0-1.48,1.66,16.59,16.59,0,0,1-3-3.53v4.32h-2.07v-4a13,13,0,0,1-3.58,3.38,9.55,9.55,0,0,0-1.44-1.64,11.82,11.82,0,0,0,4.16-3.55h-2.59v-6.28h3.46v-1H497.9v-1.8h3.94v-1.87h2.07v1.87h3.94v1.8h-3.94v1h3.62v6.28Zm-4.54-3.85h1.55v-.94h-1.55Zm0,2.34h1.55v-.94h-1.55Zm3.62-2.34h1.64v-.94h-1.64Zm1.64,1.4h-1.64V229h1.64Z" transform="translate(-310.35 -136.94)" style="fill: #231f20"/>
      </g>
    </g>
  </a>
  <a xlink:href="/area/west">
    <g id="west">
      <polygon points="324.7 291.93 266.39 291.93 266.06 71.71 324.37 71.71 324.7 291.93" style="fill: #f69652"/>
      <polygon points="333.65 301.2 275.38 301.2 266.38 291.93 324.69 291.93 333.65 301.2" style="fill: #f48332"/>
      <g>
        <path d="M609,308.43v2h4.54v11.7h-2.18v-1H600.84v1h-2.07V310.39H603v-2h-4.9v-2.05h16.1v2.05Zm2.36,10.71v-2.48a2.25,2.25,0,0,1-.9.14h-1.51c-1.75,0-2.09-.59-2.09-2.38v-2.07h-1.8v.2a5.4,5.4,0,0,1-3,5.17,7.37,7.37,0,0,0-1.19-1.14v2.56Zm-10.52-6.79v3.8a3.76,3.76,0,0,0,2.21-3.64v-.16Zm6-3.92h-1.82v2h1.82Zm4.48,3.92h-2.47v2.05c0,.47.05.52.4.52h.92c.31,0,.38-.13.41-.94a3.48,3.48,0,0,0,.74.4Z" transform="translate(-310.35 -136.94)" style="fill: #231f20"/>
        <path d="M602,332.25a40.92,40.92,0,0,0-3-5.31l2.27-1.19c.88,1.26,2.39,4,3,5.19Zm9-5.53,1.66.31c-.2.67-.43,1.53-.52,1.89a15.49,15.49,0,0,1-8.37,10.84l-2.11-1.82c6-2.57,7.4-6.93,7.94-9.36a9.73,9.73,0,0,0,.29-2.07l1,.18a18.77,18.77,0,0,0-1.33-2.34l1.46-.59a21.23,21.23,0,0,1,1.37,2.39Zm2.36-3.53c.45.65,1.08,1.71,1.42,2.34l-1.48.63a22.21,22.21,0,0,0-1.4-2.38Z" transform="translate(-310.35 -136.94)" style="fill: #231f20"/>
        <path d="M604.46,356.73a26.15,26.15,0,0,0,.14-3.15c0-1.21,0-7.15,0-8.68a13.58,13.58,0,0,0-.16-2.47h2.88a15,15,0,0,0-.14,2.47c0,1.53,0,7.47,0,8.68a27.88,27.88,0,0,0,.14,3.15Z" transform="translate(-310.35 -136.94)" style="fill: #231f20"/>
        <path d="M606.1,370.53a16.92,16.92,0,0,0,6.44-6.86l1.35,2.48a18.83,18.83,0,0,1-6.52,6.54,19,19,0,0,1-6.55,2.47l-1.49-2.3a18.31,18.31,0,0,0,6.77-2.32m-.18-5.56-1.78,1.85a37.05,37.05,0,0,0-4.41-3.76l1.64-1.78a38.88,38.88,0,0,1,4.56,3.69" transform="translate(-310.35 -136.94)" style="fill: #231f20"/>
        <path d="M582.81,277.1s0,.2,0,.29c-.06,3-.12,4-.35,4.32a.65.65,0,0,1-.52.28c-.22,0-.59,0-1,0a1.49,1.49,0,0,0-.16-.55c.39,0,.74,0,.88,0a.26.26,0,0,0,.27-.12c.16-.22.23-1.12.29-3.7h-1.31v.09a5.77,5.77,0,0,1-1.38,4.29,3,3,0,0,0-.43-.39,5.31,5.31,0,0,0,1.24-3.9v-1.89h-1.09v-.55h1.67v-1.45h.59v1.45h1.72v.55h-2.32v1.25Zm4-1a10,10,0,0,1-1.21,3.65,4.61,4.61,0,0,0,1.94,1.79,2.25,2.25,0,0,0-.42.51,5,5,0,0,1-1.88-1.77A6.18,6.18,0,0,1,583,282a3.53,3.53,0,0,0-.35-.52,5.41,5.41,0,0,0,2.29-1.83,10.77,10.77,0,0,1-.92-2.58,6.7,6.7,0,0,1-.59,1.08,3.27,3.27,0,0,0-.51-.39,10,10,0,0,0,1.44-4l.6.09c-.1.55-.22,1.08-.37,1.59h2.92v.56Zm-2.41,0-.06.15a11,11,0,0,0,.92,2.91,9.37,9.37,0,0,0,.95-3.06Z" transform="translate(-310.35 -136.94)" style="fill: #231f20"/>
        <path d="M590.17,280.24a2.66,2.66,0,0,0,2.31,1c1,0,3,0,4-.05a2.16,2.16,0,0,0-.2.6c-1,0-2.83.06-3.79,0a3.21,3.21,0,0,1-2.58-1.08c-.43.39-.89.78-1.38,1.17l-.32-.6a15.06,15.06,0,0,0,1.4-1.08v-2.34h-1.29v-.57h1.86Zm-.21-4.4a6.16,6.16,0,0,0-1.55-1.43l.44-.36a6.41,6.41,0,0,1,1.58,1.4Zm4,2.11a3.35,3.35,0,0,0,2.37,2.33,1.85,1.85,0,0,0-.38.49,3.75,3.75,0,0,1-2.4-2.42,3.93,3.93,0,0,1-2.39,2.38,2.31,2.31,0,0,0-.41-.44,3.26,3.26,0,0,0,2.29-2.35h-2.36v-.54h2.42c0-.11,0-.21,0-.31v-1H591v-.54h5.08v.54h-2.34v1c0,.1,0,.2,0,.31h2.61V278Zm-2.12-4.1a4.72,4.72,0,0,1,.83,1.45l-.53.24a4.91,4.91,0,0,0-.8-1.49Zm3.67.17a17.37,17.37,0,0,1-1,1.5l-.49-.19a9.3,9.3,0,0,0,.85-1.51Z" transform="translate(-310.35 -136.94)" style="fill: #231f20"/>
        <path d="M605.31,281.23v.54h-7.92v-.54H601V280h-2.8v-.53H601v-1.06l-2.93.09,0-.55,1.26,0a13.38,13.38,0,0,0,.81-1.39H598.4V276h5.93v.53h-3.51c-.27.45-.59,1-.89,1.37l3.45-.09c-.32-.26-.67-.51-1-.72l.42-.31a9.9,9.9,0,0,1,2.13,1.73l-.46.34a5.11,5.11,0,0,0-.55-.56l-2.32.08v1.09h2.9V280h-2.9v1.21Zm-7.23-5.1h-.58v-1.61H601v-.69h.6v.69h3.57v1.61h-.59v-1.06h-6.51Z" transform="translate(-310.35 -136.94)" style="fill: #231f20"/>
        <path d="M581.12,270.46h2V265.4h-1.52v-.48a4.6,4.6,0,0,0,1.69-.45h.56v6h1.89v.61h-4.63Z" transform="translate(-310.35 -136.94)" style="fill: #231f20"/>
        <path d="M591,264.14c-.23.73-.56,1.63-.84,2.36a3,3,0,0,1,.76,2,1.24,1.24,0,0,1-.32,1,.83.83,0,0,1-.43.15,3.8,3.8,0,0,1-.56,0,1.34,1.34,0,0,0-.15-.53,2.24,2.24,0,0,0,.48,0,.45.45,0,0,0,.28-.07.9.9,0,0,0,.17-.63,2.79,2.79,0,0,0-.77-1.83c.25-.67.5-1.48.68-2.09h-1.16v7.26h-.54v-7.81h1.92l.09,0Zm2.59,2.63-2.54.66-.17-.51.59-.13v-3.12H592v1.11h1.44v.49H592v1.39l1.53-.36Zm.3.45c-.11.27-.22.55-.32.79H596v3.68h-.59v-.31h-3.19v.34h-.55V268H593a7.7,7.7,0,0,0,.31-.93Zm1.49,1.31h-3.19v.91h3.19Zm0,1.39h-3.19v1h3.19Zm.29-3.15c.22,0,.28-.11.3-.86a1.72,1.72,0,0,0,.5.23c-.06.92-.23,1.14-.75,1.14h-1.05c-.65,0-.8-.14-.8-.77v-2.84h.54V265a6.72,6.72,0,0,0,1.43-.8l.42.4a9.82,9.82,0,0,1-1.86.88v1c0,.23,0,.27.32.27Z" transform="translate(-310.35 -136.94)" style="fill: #231f20"/>
      </g>
    </g>
  </a>
  <a xlink:href="/area/courtyards">
    <g id="courtyards">
      <rect x="122.65" y="229.06" width="103" height="61" style="fill: #dee0a1"/>
      <rect x="139.65" y="125.06" width="125" height="48" style="fill: #dee0a1"/>
      <g>
        <g>
          <path d="M491.2,289.3c.65.45,2.14,1.64,2.56,2l-1.24,1.53a16.85,16.85,0,0,0-1.31-1.4v3.83h-2.07V291.6a12.69,12.69,0,0,1-2.29,2.54,7.91,7.91,0,0,0-1.39-1.51,11.82,11.82,0,0,0,3.24-3.48H486v-1.8h3.17V286H485.9V284.2h1.66a8.16,8.16,0,0,0-.54-2l1.1-.25h-2v-1.75h3v-1.64h2.07v1.64h3V282h-1.85l1,.2c-.32.77-.61,1.49-.87,2h1.82V286H491.2v1.39h3v1.8h-3ZM488.71,282a7.1,7.1,0,0,1,.61,2l-.9.25H492l-1.19-.25a13.45,13.45,0,0,0,.67-2Zm13.79,4.38h-1.71v8.81h-2.07v-8.81h-1.84c0,2.68-.4,6.48-2.77,8.95a4.92,4.92,0,0,0-1.53-1.46c2.07-2.2,2.29-5.26,2.29-7.74v-6.25l1.26.36a21,21,0,0,0,4.57-1.58l1.71,1.57a29.17,29.17,0,0,1-5.53,1.66v2.52h5.62Z" transform="translate(-310.35 -136.94)" style="fill: #231f20"/>
          <path d="M519.53,281.56v9h-2.25v-.9h-4.07v5.62h-2.27v-5.62h-4.05v1h-2.16v-9.08h6.21v-3.11h2.27v3.11Zm-8.59,2.11h-4.05v3.87h4.05Zm6.34,0h-4.07v3.87h4.07Z" transform="translate(-310.35 -136.94)" style="fill: #231f20"/>
          <path d="M525.09,285.14c0,2.92-.23,7.35-1.71,10.15a8.55,8.55,0,0,0-1.78-1.19c1.31-2.59,1.42-6.34,1.42-9V280h6.54v-1.51h2.23V280h6.5v1.93h-13.2Zm5.55,1.71A15,15,0,0,1,529,292.2a8,8,0,0,0,4.43,1c.88,0,4.21,0,5.31-.05A7,7,0,0,0,538,295h-4.75c-2.25,0-4-.27-5.38-1.3a7.83,7.83,0,0,1-2,1.6,7,7,0,0,0-1.33-1.4,7,7,0,0,0,2-1.57,9.84,9.84,0,0,1-1.3-3l1.57-.49a7,7,0,0,0,.77,1.87,10.36,10.36,0,0,0,.92-2.65H527.3l-.31.52-1.67-.52c.67-1.13,1.42-2.52,2-3.69h-1.76v-1.69h2.79l.3-.09,1.32.45c-.49,1-1.12,2.23-1.76,3.4h.94l.32,0Zm4.81,1.21v2.05h2.5v1.78h-6.82v-1.78h2.34v-2.05h-2.65v-1.8h2.65v-1.49c-.72.11-1.44.18-2.12.23a6.45,6.45,0,0,0-.52-1.49,27.5,27.5,0,0,0,5.76-1.17l1.4,1.46a20,20,0,0,1-2.54.65v1.82h2.83v1.8Z" transform="translate(-310.35 -136.94)" style="fill: #231f20"/>
        </g>
        <path d="M467,410.4a6.14,6.14,0,0,0-.46.81,19.11,19.11,0,0,1-2,3.57,36.45,36.45,0,0,1,3.63,3.72l-1.48,1.29a29.65,29.65,0,0,0-3.28-3.68,17.1,17.1,0,0,1-4.89,3.65l-1.34-1.4a14.73,14.73,0,0,0,5.33-3.73,10.07,10.07,0,0,0,1.94-3.18H460c-.55,0-1.26.08-1.53.09v-1.85a14.52,14.52,0,0,0,1.53.09h4.58a4.69,4.69,0,0,0,1.35-.17Z" transform="translate(-310.35 -136.94)" style="fill: #231f20"/>
        <path d="M480.06,412.65a10,10,0,0,0,1.18-.08v1.69c-.32,0-.82,0-1.18,0h-3.13a8.25,8.25,0,0,1-.83,3.34,6.23,6.23,0,0,1-2.61,2.5L472,419a5.41,5.41,0,0,0,2.35-1.86,5.59,5.59,0,0,0,.81-2.87h-3.57c-.38,0-.88,0-1.25.05v-1.7c.39,0,.85.08,1.25.08Zm-6.85-1.78c-.46,0-1,0-1.39.05v-1.68a9.69,9.69,0,0,0,1.38.09h5.23a10.18,10.18,0,0,0,1.4-.09v1.68c-.46,0-.95-.05-1.4-.05Z" transform="translate(-310.35 -136.94)" style="fill: #231f20"/>
        <path d="M483.39,413.19c.47,0,1.42.08,2.09.08h7c.6,0,1.18-.05,1.52-.08v2c-.31,0-1-.06-1.52-.06h-7c-.74,0-1.61,0-2.09.06Z" transform="translate(-310.35 -136.94)" style="fill: #231f20"/>
        <path d="M500,413.78l-.95,1.46c-.74-.52-2.09-1.39-3-1.86l.94-1.43c.88.47,2.31,1.37,3,1.83m1,3a13.15,13.15,0,0,0,5.06-4.87l1,1.77a15.68,15.68,0,0,1-5.16,4.68,16.32,16.32,0,0,1-4.34,1.6l-1-1.7a13.94,13.94,0,0,0,4.42-1.47m.95-5.9-1,1.43c-.73-.51-2.08-1.38-2.94-1.86L499,409c.86.47,2.29,1.39,3,1.86m3.87.4-1.13.48a11.71,11.71,0,0,0-1.14-2l1.08-.45a19.44,19.44,0,0,1,1.2,2m1.82-.7-1.1.49a12.56,12.56,0,0,0-1.22-2l1.11-.46a16.67,16.67,0,0,1,1.22,1.94" transform="translate(-310.35 -136.94)" style="fill: #231f20"/>
        <path d="M477.87,376.51v9h-2.25v-.9h-4.07v5.62h-2.27v-5.62h-4.05v1h-2.16v-9.07h6.21v-3.12h2.27v3.12Zm-8.59,2.11h-4.05v3.87h4.05Zm6.34,0h-4.07v3.87h4.07Z" transform="translate(-310.35 -136.94)" style="fill: #231f20"/>
        <path d="M483.43,380.09c0,2.92-.23,7.35-1.71,10.16a8.51,8.51,0,0,0-1.78-1.19c1.31-2.59,1.42-6.34,1.42-9v-5.17h6.54v-1.51h2.23v1.51h6.5v1.93h-13.2ZM489,381.8a15,15,0,0,1-1.67,5.35,8,8,0,0,0,4.43,1c.88,0,4.21,0,5.31-.05a7.07,7.07,0,0,0-.67,1.91h-4.75c-2.25,0-4-.27-5.38-1.3a7.88,7.88,0,0,1-2,1.6,7,7,0,0,0-1.33-1.4,7,7,0,0,0,2-1.57,9.82,9.82,0,0,1-1.3-3l1.57-.49a6.94,6.94,0,0,0,.78,1.87,10.39,10.39,0,0,0,.92-2.65h-1.26l-.31.52-1.67-.52c.67-1.13,1.42-2.52,2-3.69h-1.76v-1.69h2.79l.3-.09,1.32.45c-.49,1-1.12,2.23-1.76,3.4h.94l.32,0Zm4.81,1.21v2.05h2.5v1.78h-6.82v-1.78h2.34V383h-2.65v-1.8h2.65v-1.49c-.72.11-1.44.18-2.12.23a6.5,6.5,0,0,0-.52-1.49,27.5,27.5,0,0,0,5.76-1.17l1.4,1.46a20,20,0,0,1-2.54.65v1.82h2.83V383Z" transform="translate(-310.35 -136.94)" style="fill: #231f20"/>
        <rect x="138.18" y="269.5" width="67.91" height="16.85" style="fill: none;stroke: #231f20;stroke-miterlimit: 10;stroke-width: 0.8429999947547913px"/>
      </g>
    </g>
  </a>
  <a xlink:href="/area/east">
    <g id="east">
      <rect x="46.48" y="235.71" width="47.04" height="56.24" style="fill: #ffc75b"/>
      <polygon points="102.48 301.23 55.82 301.23 46.82 291.95 93.53 291.95 102.48 301.23" style="fill: #fdbd32"/>
      <polygon points="102.48 301.23 93.53 291.96 93.19 235.71 102.53 245.04 102.48 301.23" style="fill: #fcb813"/>
      <g>
        <path d="M376.35,407.23a17.16,17.16,0,0,0,5.82,3.38,9.43,9.43,0,0,0-1.53,1.86,17.86,17.86,0,0,1-5.91-4.19v4.38h-2.22v-4.29a17.57,17.57,0,0,1-5.8,4.07,11.74,11.74,0,0,0-1.48-1.8,16.28,16.28,0,0,0,5.67-3.4h-3.64v-6.88h5.24v-1h-6.77v-2h6.77v-1.48h2.22v1.48h6.93v2h-6.93v1h5.49v6.88Zm-7-4.21h3.17V402h-3.17Zm0,2.61h3.17v-1.1h-3.17Zm5.38-2.61H378V402h-3.31Zm3.31,1.51h-3.31v1.1H378Z" transform="translate(-310.35 -136.94)" style="fill: #231f20"/>
        <path d="M393.83,405.57v1.12h5.65v5.85h-2v-.72h-3.67v.83h-1.94V401.09h-1v-2l-1.15,1.33a12.89,12.89,0,0,0-2.23-2.77,15.21,15.21,0,0,1-2.32,3.08h1.57v-1.49h1.75v1.49h1.87v6.21h-4.09v2.59l1.91-.45q-.35-.65-.7-1.24l1.67-.72a17,17,0,0,1,2.07,4.18l-1.82.83a12.35,12.35,0,0,0-.49-1.44c-1.78.52-3.6,1-5.06,1.4l-.58-2,1.08-.2v-8.44l-.13.11a5.65,5.65,0,0,0-1.31-1.39,11.1,11.1,0,0,0,3.29-4.36h1.93a15.62,15.62,0,0,1,2.74,2.72v-.86h3.39v-1.87h2.05v1.87h3.58v3.39h-1.15v4.48Zm-7.58-2.45h2.21v-.88h-2.21Zm2.21,1.37h-2.21v.92h2.21Zm4.3-3.76h5.13v-1.28h-5.13Zm4,1.68h-2.92v1.48h2.92ZM393.83,410h3.67v-1.57h-3.67Z" transform="translate(-310.35 -136.94)" style="fill: #231f20"/>
      </g>
    </g>
  </a>
  <a xlink:href="/area/gym">
    <g id="gym">
      <polygon points="132.19 509.29 58.59 509.29 58.26 423.04 131.86 423.04 132.19 509.29" style="fill: #f49393"/>
      <polygon points="141.15 518.56 132.19 509.29 131.86 423.04 141.19 432.38 141.15 518.56" style="fill: #f17179"/>
      <g>
        <path d="M384.46,596a31.53,31.53,0,0,1-1.44,3.47v12.62h-2v-9.15c-.36.49-.74,1-1.1,1.4a12.83,12.83,0,0,0-1.19-2.23,19,19,0,0,0,3.73-6.74Zm7.29,4.56a19.45,19.45,0,0,0,4.39,7.22,8.79,8.79,0,0,0-1.6,1.66,16.42,16.42,0,0,1-1.44-1.91v1.58h-2.41V612H388.6v-2.9h-2.36v-1.66a13.29,13.29,0,0,1-1.6,2,8.77,8.77,0,0,0-1.53-1.62,18.4,18.4,0,0,0,4.48-7.31H384v-2h4.56v-3.11h2.09v3.11h5v2Zm-3.15,6.64v-4.57a23.34,23.34,0,0,1-2.2,4.57Zm4.3,0a26.37,26.37,0,0,1-2.21-4.7v4.7Z" transform="translate(-310.35 -136.94)" style="fill: #231f20"/>
        <path d="M409.81,598.68a24,24,0,0,1,3.6,3.08L411.52,603a12,12,0,0,0-1.08-1.15c-4.48.16-9.18.29-12.33.36l-.05-1.93,2.5,0c.34-.49.67-1,1-1.53h-4.09v-1.87h6.88v-1.53h2.2v1.53h6.88v1.87ZM411,610.09c0,1-.25,1.46-1,1.73a11.28,11.28,0,0,1-3.26.27,8.5,8.5,0,0,0-.63-1.71c.86.06,2,.06,2.29,0s.41-.09.41-.34v-.83H402v2.85h-2.14v-9.24H411Zm-9-4.64h6.82v-.86H402Zm6.82,1.46H402v.86h6.82Zm-4.63-8.23c-.4.5-.83,1-1.24,1.51l5.51-.09c-.4-.32-.79-.63-1.17-.9l.86-.52Z" transform="translate(-310.35 -136.94)" style="fill: #231f20"/>
        <path d="M425.57,605v1.12h5.65V612h-2v-.72h-3.67v.83h-1.95V600.53h-1v-2l-1.15,1.33a12.83,12.83,0,0,0-2.23-2.77,15.14,15.14,0,0,1-2.32,3.08h1.57v-1.49h1.75v1.49h1.87v6.21H418V609l1.91-.45q-.35-.65-.7-1.24l1.68-.72a16.93,16.93,0,0,1,2.07,4.18l-1.82.83a12.39,12.39,0,0,0-.49-1.44c-1.78.52-3.6,1-5.06,1.4l-.58-2,1.08-.2v-8.44L416,601a5.63,5.63,0,0,0-1.31-1.39,11.1,11.1,0,0,0,3.29-4.36h1.93A15.63,15.63,0,0,1,422.6,598v-.86H426v-1.87H428v1.87h3.58v3.38h-1.15V605ZM418,602.57h2.21v-.88H418Zm2.21,1.37H418v.92h2.21Zm4.3-3.76h5.13v-1.28h-5.13Zm4,1.67h-2.92v1.48h2.92Zm-2.92,7.62h3.67V607.9h-3.67Z" transform="translate(-310.35 -136.94)" style="fill: #231f20"/>
      </g>
    </g>
  </a>
  <a xlink:href="/area/auditorium">
    <g id="auditorium">
      <polygon points="217.15 340.96 122.88 340.96 122.55 294.71 216.82 294.71 217.15 340.96" style="fill: #c189bc"/>
      <polygon points="226.11 350.23 131.88 350.23 122.88 340.96 217.15 340.96 226.11 350.23" style="fill: #b876b0"/>
      <polygon points="226.11 350.23 217.15 340.96 216.82 294.71 226.15 304.04 226.11 350.23" style="fill: #b368a9"/>
      <g>
        <path d="M472.55,453.1a15.75,15.75,0,0,0,6.28,6.54,9,9,0,0,0-1.66,1.94,14.71,14.71,0,0,1-2.94-2.41v2.05h-3v3H469v-3h-3.1v-1.89a16,16,0,0,1-2.81,2.3,10.58,10.58,0,0,0-1.57-1.78,16,16,0,0,0,6.19-6.75h-5.49v-2.16H469v-3.47h2.25v3.47h6.82v2.16ZM469,459v-3.92a21,21,0,0,1-2.83,3.92Zm5.11,0a20.07,20.07,0,0,1-2.86-4v4Z" transform="translate(-310.35 -136.94)" style="fill: #231f20"/>
        <path d="M490.29,457.19v1.12h5.65v5.85h-2v-.72h-3.67v.83h-1.94V452.7h-1v-2L486.17,452a12.86,12.86,0,0,0-2.23-2.77,15.14,15.14,0,0,1-2.32,3.08h1.57v-1.49h1.75v1.49h1.87v6.21h-4.09v2.59c.61-.14,1.26-.29,1.91-.45q-.35-.65-.7-1.24l1.67-.72a16.9,16.9,0,0,1,2.07,4.18l-1.82.83a12.19,12.19,0,0,0-.49-1.44c-1.78.52-3.6,1-5.06,1.4l-.58-2,1.08-.2V453.1l-.13.11a5.68,5.68,0,0,0-1.32-1.39,11.12,11.12,0,0,0,3.29-4.36h1.93a15.62,15.62,0,0,1,2.74,2.72v-.86h3.38v-1.87h2.05v1.87h3.58v3.38h-1.15v4.48Zm-7.58-2.45h2.21v-.88h-2.21Zm2.21,1.37h-2.21V457h2.21Zm4.3-3.76h5.13v-1.28h-5.13Zm4,1.67h-2.92v1.48h2.92Zm-2.92,7.62H494v-1.57h-3.67Z" transform="translate(-310.35 -136.94)" style="fill: #231f20"/>
        <path d="M438.77,463.26h2V458.2h-1.52v-.48a4.6,4.6,0,0,0,1.69-.45h.56v6h1.89v.61h-4.63Z" transform="translate(-310.35 -136.94)" style="fill: #231f20"/>
        <path d="M448.68,456.94c-.23.73-.56,1.63-.84,2.36a3,3,0,0,1,.76,2,1.24,1.24,0,0,1-.32,1,.83.83,0,0,1-.43.15,3.79,3.79,0,0,1-.56,0,1.34,1.34,0,0,0-.15-.53,2.3,2.3,0,0,0,.49,0,.45.45,0,0,0,.28-.07.9.9,0,0,0,.17-.63,2.79,2.79,0,0,0-.76-1.83c.25-.67.5-1.48.68-2.09h-1.16v7.26h-.54v-7.81h1.92l.09,0Zm2.59,2.63-2.54.66-.17-.51.59-.13v-3.12h.55v1.11h1.44v.49H449.7v1.39l1.53-.36Zm.3.45c-.11.27-.22.55-.32.79h2.4v3.68h-.59v-.31h-3.19v.34h-.55v-3.72h1.35a7.76,7.76,0,0,0,.31-.93Zm1.49,1.31h-3.19v.91h3.19Zm0,1.39h-3.19v1h3.19Zm.29-3.15c.22,0,.28-.11.3-.86a1.72,1.72,0,0,0,.5.22c-.06.92-.23,1.14-.75,1.14h-1.05c-.65,0-.8-.14-.8-.77v-2.84h.54v1.37a6.81,6.81,0,0,0,1.43-.8l.42.4a9.85,9.85,0,0,1-1.85.88v1c0,.24,0,.27.32.27Z" transform="translate(-310.35 -136.94)" style="fill: #231f20"/>
        <path d="M438.59,471.12v2.72c0,.35-.08.51-.29.61a2.77,2.77,0,0,1-1.11.11A2.73,2.73,0,0,0,437,474c.4,0,.76,0,.86,0s.16,0,.16-.17v-2.53l-1.08.35-.16-.58c.34-.09.77-.23,1.24-.37v-2h-1.15v-.56H438v-1.83h.56v1.83h1v.56h-1v1.78l1-.31.07.56Zm5.82-.26a5,5,0,0,1-1.66,2.31,6.56,6.56,0,0,0,2.39.89,2.18,2.18,0,0,0-.37.52,6.65,6.65,0,0,1-2.5-1.07,8.14,8.14,0,0,1-2.62,1,2,2,0,0,0-.28-.52,7.9,7.9,0,0,0,2.45-.87,5.6,5.6,0,0,1-1.28-1.79l.36-.12h-.73v-.51H444l.1,0Zm-4.13-.3h-.54v-1.44h3.64l-.12,0a11.15,11.15,0,0,0,.92-1.67l.56.19a15.37,15.37,0,0,1-1,1.53H445v1.45h-.56v-.93h-4.12Zm4.41-3.7a25.49,25.49,0,0,1-4.75.6,1.8,1.8,0,0,0-.15-.46,26.91,26.91,0,0,0,4.53-.59Zm-4,2.18a5,5,0,0,0-.54-1.21l.47-.16a4.42,4.42,0,0,1,.56,1.2Zm.41,2.21a4.42,4.42,0,0,0,1.23,1.59,4.25,4.25,0,0,0,1.37-1.59Zm1.16-2.32a5.34,5.34,0,0,0-.37-1.3l.49-.11a5.49,5.49,0,0,1,.4,1.27Z" transform="translate(-310.35 -136.94)" style="fill: #231f20"/>
        <path d="M448.45,471.49l2-.17v.56l-2,.19v1.78c0,.33-.07.51-.32.6a4.75,4.75,0,0,1-1.24.08,2.69,2.69,0,0,0-.2-.55c.47,0,.88,0,1,0s.15,0,.15-.15v-1.73l-1.93.17-.07-.59,2-.15v-.83h.24a7.63,7.63,0,0,0,1-.82h-2.84v-.54h3.37l.14,0,.39.31a10.13,10.13,0,0,1-1.69,1.4Zm1.76-4.61a21.13,21.13,0,0,1-4.17.61,1.79,1.79,0,0,0-.16-.49,21.47,21.47,0,0,0,4-.61Zm-3.71,2.28a5,5,0,0,0-.4-1.3l.47-.13A5.08,5.08,0,0,1,447,469Zm1.35-.23a6.36,6.36,0,0,0-.23-1.32l.5-.07a5.72,5.72,0,0,1,.26,1.31Zm1,.22a11,11,0,0,0,.93-1.69l.55.23a13.68,13.68,0,0,1-1,1.66Zm4.24,4.72c.39,0,.44-.35.49-1.73a1.64,1.64,0,0,0,.55.27c-.07,1.5-.23,2-1,2h-1.38c-.78,0-1-.24-1-1.13v-6.78h.6v6.8c0,.47.08.56.46.56Z" transform="translate(-310.35 -136.94)" style="fill: #231f20"/>
        <path d="M463,473.75v.54h-7.92v-.54h3.62v-1.21h-2.8V472h2.8V471l-2.93.09,0-.55,1.26,0a13.28,13.28,0,0,0,.81-1.39h-1.72v-.53H462v.53h-3.51c-.27.45-.59,1-.89,1.37l3.45-.09c-.32-.26-.67-.51-1-.72l.42-.3a9.9,9.9,0,0,1,2.13,1.73l-.46.34a5.2,5.2,0,0,0-.55-.56l-2.32.08V472h2.9v.53h-2.9v1.21Zm-7.23-5.1h-.58V467h3.5v-.69h.6V467h3.57v1.61h-.59V467.6h-6.51Z" transform="translate(-310.35 -136.94)" style="fill: #231f20"/>
      </g>
    </g>
  </a>
  <a xlink:href="/area/1g">
    <g id="_1g" data-name="1g">
      <rect x="107.11" width="190.89" height="70.51" style="fill: url(#radial-gradient)"/>
      <g>
        <path d="M467.57,169.55h-3.06a7.88,7.88,0,0,1,.74,1.22l-1.67.65H466V176H460.4v1.06h6.68s0,.5,0,.76c-.18,2.41-.4,3.57-.86,4.05a1.91,1.91,0,0,1-1.37.63,21.59,21.59,0,0,1-2.29,0,4.73,4.73,0,0,0-.59-1.94,14.85,14.85,0,0,0,1.84.07.83.83,0,0,0,.61-.16,3.43,3.43,0,0,0,.43-1.66H460.4v4.45h-2.07v-3.57a16.53,16.53,0,0,1-5.71,3.37,8.52,8.52,0,0,0-1.33-1.67,16.75,16.75,0,0,0,5.35-2.57h-2.11l-.11.41-2.16-.25a35.25,35.25,0,0,0,1.19-4.75h4.88v-1.12h-5.53v-1.75h2.43a9.8,9.8,0,0,0-.85-1.87h-.23a14.5,14.5,0,0,1-1.64,2.07,13.2,13.2,0,0,0-1.73-1.17,10.72,10.72,0,0,0,2.81-4.09l2,.54c-.13.32-.29.67-.45,1h4v1.42a9.78,9.78,0,0,0,1.75-3l2,.5c-.13.34-.29.68-.45,1h5.11ZM458.33,176h-3.1L455,177.1h3.35Zm-1.78-6.48a7.67,7.67,0,0,1,.56,1.21l-1.46.67h4.19a12.87,12.87,0,0,0-1.71-1.15,7.34,7.34,0,0,0,.79-.72Zm6.81,1.87a9.93,9.93,0,0,0-1.13-1.87h-.72a11.9,11.9,0,0,1-1.55,1.87Zm.58,1.75H460.4v1.12h3.53Z" transform="translate(-310.35 -136.94)" style="fill: #231f20"/>
        <path d="M472.41,179.62h4v-8.46h-3.13V169.5a9.61,9.61,0,0,0,3.84-1.12H479v11.23h3.6v2.14H472.41Z" transform="translate(-310.35 -136.94)" style="fill: #231f20"/>
        <path d="M500.53,170l1.53.94a7.56,7.56,0,0,0-.59,1.28,18.16,18.16,0,0,1-3.15,6,16.76,16.76,0,0,1-7.26,5.1l-2.12-1.91a14.39,14.39,0,0,0,7.26-4.46,12.73,12.73,0,0,0,2.56-4.9h-5.08a19.75,19.75,0,0,1-4.54,4.36l-2-1.51a15.4,15.4,0,0,0,5.62-5.78,7.88,7.88,0,0,0,.81-1.89l2.65.86c-.43.63-.9,1.44-1.12,1.84l-.05.09h3.62a5.67,5.67,0,0,0,1.57-.22l.13.07a21,21,0,0,0-1.31-2.32l1.42-.58a26.15,26.15,0,0,1,1.42,2.47Zm2-3.84a25.6,25.6,0,0,1,1.46,2.45l-1.44.61a17.14,17.14,0,0,0-1.44-2.48Z" transform="translate(-310.35 -136.94)" style="fill: #231f20"/>
        <path d="M520.69,173.17a6.67,6.67,0,0,0-.34.76,12.94,12.94,0,0,1-2.67,5,13.48,13.48,0,0,1-6.43,3.89l-1.8-2a12.13,12.13,0,0,0,6.25-3.15,7.8,7.8,0,0,0,1.86-3.11h-8.7c-.43,0-1.33,0-2.09.09v-2.34c.76.07,1.53.11,2.09.11h8.91a3.8,3.8,0,0,0,1.31-.18ZM508.43,168a15.18,15.18,0,0,0,1.87.09h6.93a17,17,0,0,0,1.95-.09v2.32c-.49,0-1.33-.05-2-.05h-6.9c-.58,0-1.35,0-1.87.05Z" transform="translate(-310.35 -136.94)" style="fill: #231f20"/>
        <path d="M538.78,170.85a11.82,11.82,0,0,0-.36,1.44,16.8,16.8,0,0,1-1.68,5.1,11.45,11.45,0,0,1-7.35,5.4l-1.87-2.16a14.64,14.64,0,0,0,2.54-.7,8.82,8.82,0,0,0,4.09-3.08,10.7,10.7,0,0,0,1.6-4.63h-8.93v2.63c0,.41,0,1,.05,1.33h-2.49a13.68,13.68,0,0,0,.09-1.51v-3.11a11.33,11.33,0,0,0-.09-1.55,15.14,15.14,0,0,0,1.84.09h3.85v-1.39a8.89,8.89,0,0,0-.14-1.66h2.77a13.08,13.08,0,0,0-.13,1.66v1.39h3.13a4.35,4.35,0,0,0,1.49-.2Z" transform="translate(-310.35 -136.94)" style="fill: #231f20"/>
        <path d="M549.4,177.71a17.07,17.07,0,0,0,6.55-7l1.4,2.54a19.14,19.14,0,0,1-6.66,6.66,19.51,19.51,0,0,1-6.68,2.54l-1.51-2.38a18.54,18.54,0,0,0,6.9-2.36m0-5.83-1.84,1.89a37.2,37.2,0,0,0-4.5-3.89l1.69-1.8a37.66,37.66,0,0,1,4.65,3.8" transform="translate(-310.35 -136.94)" style="fill: #231f20"/>
        <path d="M566,172.58a62.67,62.67,0,0,1,7.53,2.81l-1,2.5a48.29,48.29,0,0,0-6.52-2.68v5.09c0,.5.09,1.77.18,2.5h-2.83a19.51,19.51,0,0,0,.18-2.5V170a12.71,12.71,0,0,0-.18-2.18h2.81A19.86,19.86,0,0,0,566,170Zm4.79-.79a14.65,14.65,0,0,0-1.58-2.77l1.51-.65c.5.76,1.22,1.91,1.64,2.72Zm2.47-1a16.91,16.91,0,0,0-1.68-2.7l1.49-.7a23.71,23.71,0,0,1,1.69,2.66Z" transform="translate(-310.35 -136.94)" style="fill: #231f20"/>
      </g>
    </g>
  </a>
  <a xlink:href="/area/training-hall">
    <g id="training-hall">
      <polygon points="391.44 178.04 340.51 178.04 340.17 121.79 391.11 121.79 391.44 178.04" style="fill: #37ad71"/>
      <polygon points="400.4 187.31 349.51 187.31 340.51 178.04 391.44 178.04 400.4 187.31" style="fill: #00a259"/>
      <polygon points="400.4 187.31 391.44 178.04 391.11 121.79 400.44 131.13 400.4 187.31" style="fill: #009d4f"/>
      <g>
        <path d="M660.14,283.4a19.43,19.43,0,0,1-.69,2.59h2.43v6H659.4v.95h-1.29v-4c-.17.25-.35.49-.53.71a8.58,8.58,0,0,0-.52-1.85,10.91,10.91,0,0,0,1.65-4.34h-1.38V282h4.72v1.4Zm.43,4H659.4v3.25h1.17Zm8.74.78h-1.37v5.41h-1.47v-5.41H665c-.08,1.91-.46,4.08-1.79,5.5a6.17,6.17,0,0,0-1.17-.9,7.28,7.28,0,0,0,1.52-4.6h-1.21v-1.46h1.23v-3.21h-.9V282H669v1.43h-1.11v3.21h1.37Zm-2.83-4.67H665v3.21h1.46Z" transform="translate(-310.35 -136.94)" style="fill: #231f20"/>
        <path d="M673.89,281.85c-.27.81-.6,1.65-1,2.46v9.2h-1.47V287a10.25,10.25,0,0,1-.82,1.09,12.16,12.16,0,0,0-.74-1.66,14.72,14.72,0,0,0,2.57-5Zm7.28,2.08a7,7,0,0,1-1.44,1.91,10.08,10.08,0,0,0,2.83.87,6.32,6.32,0,0,0-.83,1.24,9.81,9.81,0,0,1-3.09-1.24,11.21,11.21,0,0,1-3,1.34,5.67,5.67,0,0,0-.68-.94v4.24h-1.34V283H675v1.38a7.9,7.9,0,0,0,2-3l1.4.32c-.13.33-.27.66-.43,1h4.23v1.25ZM675,286.82a9.88,9.88,0,0,0,2.48-1,8.62,8.62,0,0,1-1-1,7.16,7.16,0,0,1-.75.78A7.43,7.43,0,0,0,675,285Zm7.24,3.72c-1.35,1.59-3.65,2.46-6.3,2.94a5.41,5.41,0,0,0-.78-1.22c2.39-.32,4.64-1,5.76-2.25Zm-2.4-2.72a8.44,8.44,0,0,1-3.3,1.82,4,4,0,0,0-.82-.88,7.8,7.8,0,0,0,3-1.4Zm1.25,1.17a9.47,9.47,0,0,1-4.53,2.35,4.75,4.75,0,0,0-.75-1,8.92,8.92,0,0,0,4.17-1.85Zm-3.81-5.06a6.11,6.11,0,0,0,1.25,1.2,5.07,5.07,0,0,0,1-1.2Z" transform="translate(-310.35 -136.94)" style="fill: #231f20"/>
        <path d="M690.8,288.42v.81h4.08v4.23h-1.43v-.52H690.8v.6h-1.4v-8.35h-.74v-1.44l-.83,1a9.27,9.27,0,0,0-1.61-2,10.92,10.92,0,0,1-1.68,2.22h1.13v-1.08h1.26v1.08h1.35v4.48h-3v1.87l1.38-.33q-.25-.47-.51-.9l1.21-.52a12.28,12.28,0,0,1,1.5,3l-1.31.6a8.73,8.73,0,0,0-.35-1c-1.29.38-2.6.74-3.65,1l-.42-1.42.78-.14v-6.1l-.09.08a4.11,4.11,0,0,0-.95-1,8,8,0,0,0,2.38-3.15h1.39a11.27,11.27,0,0,1,2,2v-.62h2.45v-1.35h1.48v1.35h2.59v2.44h-.83v3.24Zm-5.47-1.77h1.6V286h-1.6Zm1.6,1h-1.6v.66h1.6Zm3.11-2.72h3.7V284H690Zm2.87,1.21h-2.11v1.07h2.11Zm-2.1,5.5h2.65V290.5H690.8Z" transform="translate(-310.35 -136.94)" style="fill: #231f20"/>
      </g>
    </g>
  </a>
    <g id="strings">
      <polygon points="200.06 383.91 200.06 386.75 181.59 386.75 181.59 383.91 183.91 383.91 183.91 375.25 186.96 375.25 186.96 383.91 189.92 383.91 189.92 372.47 182.23 372.47 182.23 369.63 199.54 369.63 199.54 372.47 193.02 372.47 193.02 376.35 198.38 376.35 198.38 379.19 193.02 379.19 193.02 383.91 200.06 383.91" style="fill: #231f20"/>
      <path d="M520.57,514.09h-5.08v10.28h-2.88V506.09h8Zm-5.08-5h2.36v-.64h-2.36Zm2.36,2h-2.36v.72h2.36Zm12,9.9c0,1.6-.32,2.4-1.3,2.86a10.67,10.67,0,0,1-4.4.54,11.2,11.2,0,0,0-1-3c1.2.1,2.76.08,3.2.08s.58-.14.58-.54v-6.78h-5.22v-8.06h8.16ZM524.43,509h2.46v-.64h-2.46Zm2.46,2h-2.46v.78h2.46Z" transform="translate(-310.35 -136.94)" style="fill: #231f20"/>
      <path d="M366,666.83a8,8,0,0,1,1.64-1.6l.6,1.08a14.14,14.14,0,0,0-2.86,3.13,14.14,14.14,0,0,0-2.85-3.13l.6-1.08a8,8,0,0,1,1.64,1.6v-8.48H366Z" transform="translate(-310.35 -136.94)" style="fill: #231f20"/>
      <path d="M381.43,662.37a9.25,9.25,0,0,0,1.09-.07v1.56c-.3,0-.76,0-1.09,0h-2.89a7.62,7.62,0,0,1-.77,3.08,5.75,5.75,0,0,1-2.41,2.3l-1.4-1a5,5,0,0,0,2.17-1.72,5.16,5.16,0,0,0,.74-2.65h-3.3c-.35,0-.82,0-1.15,0v-1.57c.36,0,.78.07,1.15.07Zm-6.32-1.64c-.42,0-.92,0-1.28,0v-1.55a8.78,8.78,0,0,0,1.27.08h4.82a9.22,9.22,0,0,0,1.29-.08v1.55c-.42,0-.87,0-1.29,0Z" transform="translate(-310.35 -136.94)" style="fill: #231f20"/>
      <path d="M384.43,666.15c.47,0,1,.08,1.5.08h6.88a12.16,12.16,0,0,0,1.32-.08V668a12.75,12.75,0,0,0-1.32-.07h-6.88c-.47,0-1.06,0-1.5.07Zm1-5.87c.43,0,1,.07,1.4.07h5c.48,0,1,0,1.33-.07V662c-.35,0-.91,0-1.33,0h-5c-.46,0-1,0-1.41,0Z" transform="translate(-310.35 -136.94)" style="fill: #231f20"/>
      <path d="M405.4,660.29a5.67,5.67,0,0,0-.42.74,17.59,17.59,0,0,1-1.88,3.3,33.38,33.38,0,0,1,3.35,3.43L405.08,669a27.33,27.33,0,0,0-3-3.39,15.82,15.82,0,0,1-4.51,3.37l-1.24-1.3a13.59,13.59,0,0,0,4.92-3.44,9.26,9.26,0,0,0,1.79-2.94H399c-.5,0-1.16.07-1.42.08v-1.7a13.41,13.41,0,0,0,1.42.08h4.22a4.33,4.33,0,0,0,1.25-.16Z" transform="translate(-310.35 -136.94)" style="fill: #231f20"/>
      <path d="M416.13,668.69c0-.19,0-.4,0-.62h-5.47c-.47,0-1.15,0-1.55.07v-1.72c.42,0,1,.07,1.5.07h5.53v-5h-5.38c-.5,0-1.15,0-1.49,0v-1.67c.44,0,1.07.07,1.49.07h6l1.06,0c0,.28,0,.76,0,1.1v6.21c0,.42,0,1.06,0,1.41Z" transform="translate(-310.35 -136.94)" style="fill: #231f20"/>
      <path d="M420.51,662.87c.43,0,1.31.07,1.93.07h6.44c.55,0,1.09,0,1.4-.07v1.88c-.29,0-.9-.06-1.4-.06h-6.44c-.68,0-1.49,0-1.93.06Z" transform="translate(-310.35 -136.94)" style="fill: #231f20"/>
      <path d="M441.14,665.67a34.78,34.78,0,0,0-4.33-1.79v3.39c0,.35.06,1.19.11,1.67H435a12.81,12.81,0,0,0,.12-1.67v-6.88a8.35,8.35,0,0,0-.12-1.45h1.87a13,13,0,0,0-.11,1.45v1.76a39.37,39.37,0,0,1,5,1.86Z" transform="translate(-310.35 -136.94)" style="fill: #231f20"/>
      <path d="M320.12,534c.62,1,1.74,1.41,3.3,1.47,1.75.07,5.13,0,7.13-.12a9.34,9.34,0,0,0-.56,1.8c-1.8.09-4.82.12-6.6,0a5,5,0,0,1-4-1.66c-.66.58-1.32,1.17-2.15,1.8l-.87-1.86a19.49,19.49,0,0,0,2.06-1.38V531h-1.73v-1.63h3.47Zm-1-6.73a11.3,11.3,0,0,0-2.41-2.37l1.32-1.08a12,12,0,0,1,2.5,2.26Zm5,.07c.06-.27.1-.54.15-.81h-3.63v-1.44h2.08A6.31,6.31,0,0,0,322,524l1.41-.52a5.31,5.31,0,0,1,1,1.53l-.18.07h1.88a12.32,12.32,0,0,0,.8-1.62l1.77.38c-.27.45-.54.88-.8,1.24h2.31v1.44h-4c-.12.29-.25.55-.37.81h3.28v7.29h-7.3v-7.29Zm3.21,1.29h-3.85v.78h3.85Zm0,1.95h-3.85v.78h3.85Zm0,2h-3.85v.79h3.85Z" transform="translate(-310.35 -136.94)" style="fill: #231f20"/>
      <path d="M344.68,525.35a11.43,11.43,0,0,1-2.08,4A9.6,9.6,0,0,0,345.7,531a7,7,0,0,0-1.11,1.5h0v4.9h-1.71V537H340v.51h-1.65v-4.87l-.35.15a5.54,5.54,0,0,0-.55-.85v.43h-1.65v2l1.77-.41.17,1.58c-2.1.52-4.38,1-6.07,1.44l-.32-1.71.67-.12v-5h1.46v4.74l.75-.15V529h-2.1v-5h5.18v3.72a10.18,10.18,0,0,0,2.49-4.27l1.69.42c-.12.33-.24.68-.37,1h2.1l.31-.06Zm-11,2.14h2v-1.9h-2Zm3.77,3.75a10.29,10.29,0,0,0,2.86-1.87,11.82,11.82,0,0,1-.93-1.32,12.43,12.43,0,0,1-.89,1,8.5,8.5,0,0,0-1.2-1v1h-1.5v1.76h1.65Zm5.86.71a11.62,11.62,0,0,1-1.87-1.36,11.73,11.73,0,0,1-1.85,1.36Zm-.5,1.5H340v2h2.82Zm-2.43-7-.12.23a12.22,12.22,0,0,0,1.1,1.54,9.39,9.39,0,0,0,1.1-1.77Z" transform="translate(-310.35 -136.94)" style="fill: #231f20"/>
    </g>
  </g>
</svg>
